<svg xmlns="http://www.w3.org/2000/svg">
<defs>
<font id="PSL-Text-Bold" horiz-adv-x="0" >
  <font-face 
    font-family="PSL-Text"
    font-weight="700"
    font-stretch="normal"
    units-per-em="2048"
    panose-1="2 0 8 6 0 0 0 2 0 4"
    ascent="1638"
    descent="-410"
    x-height="698"
    cap-height="965"
    bbox="-961 -901 1894 1688"
    underline-thickness="51"
    underline-position="-186"
    unicode-range="U+0020-F882"
  />
<missing-glyph horiz-adv-x="1536" 
d="M256 0v1280h1024v-1280h-1024zM299 33h938q10 0 10 10v1194q0 10 -10 10h-938q-10 0 -10 -10v-1194q0 -10 10 -10zM715 -2h-2v0h2h-2v0h2zM768 -2v-2h-2v2h2zM768 -4v2h-2v-2h2zM780 -2v0v0v-2v2h-4v-2v2h2v0h2zM778 -2h2v0h-2zM799 -2h-4v-2h4v2h-2h2v-2h-4v2h4zM799 -2
v0h4v0v-2v2h-4v-2v2zM717 0v-4h-6v4h6zM717 -4v4h-6v-4h6zM731 -2v-2h-2v2h2zM731 -4v2h-2v-2h2zM733 -2v0h2v0v-2v2h-2zM770 -2v-2h2h-2v2zM844 -2v-2h-4v2h4zM844 -4v2h-4v-2h4zM834 -2v-2h2v2v-2h-2v2zM803 -2h4h-2v-2v2h-2zM758 -2h2v-2h-2v2h2v0h-2zM758 -4h2v2h-2v-2z
M766 -2v0h-4v-2v2h4zM762 -2h4v0h-4zM795 -2v-2v2zM725 -4h-4h4zM725 -2v0h-4v-2v2h4v0h-4h4zM678 -2h-4v-2h4h-4v2h4zM727 -2v-2h-2v2h2zM727 -4v2h-2v-2h2zM684 -2v0h-2v-2v2h2zM682 -2h2v0h-2zM682 -2v-2h-4v2h4zM682 -4v2h-4v-2h4zM686 -2v0h4v0v0h-2v-2v2h-2zM784 -2
v-2h2h-2v2zM782 -2v-2h2h-2v2zM754 -4v2h2v-2v2h-2v-2zM815 -2v0h2v-2v2h-4v-2v2h2zM813 -2h2v0h-2zM762 -2v-2v2zM698 -2h-2v-2h2v2h-2h2v-2h-2v2h2zM700 -2v0h2v0v-2v2h-2v-2v2zM705 -2h4h-2v-2v2h-2zM694 -2v-2v2zM692 -2v0h2v-2v2h-4v-2v2h2zM690 -2h2v0h-2zM831 -2v0h3
v-2v2h-5v-2v2h2zM829 -2h2v0h-2zM836 -4h4h-4zM836 -2h4h-4zM836 -2h4h-4zM750 -4h2h-2zM752 -2v0v0v-2v2h-2v-2v2v0h2zM750 -2h2v0h-2zM829 -4h-4h4zM825 -2h4h-4zM825 -2h4h-4zM809 -2h2v-2h-2h2v2h-2zM809 -2h2h-2v0zM821 -2h4v-2h-4h4v2h-4zM821 -2h4h-4v0zM817 -4h4h-4
zM817 -2h4h-4zM817 -2h4h-4zM793 -2v0v0v-2v2h-2v-2v2h2zM791 -2h2v0h-2zM745 -4h3h-3zM745 -2h3h-3zM745 -2h3h-3zM739 -2v-2h4v2v-2h-4v2zM741 -2v-2v2z" />
    <glyph glyph-name="trademark" unicode="&#x3b;&#x3b;Trademark&#x3b;&#x3b;" horiz-adv-x="1993" 
d="M121 1165h801q30 0 30 -28q0 -33 -30 -33h-371v-506q0 -14 -31 -14t-31 14v506h-368q-33 0 -33 33q0 28 33 28zM1833 618v459l-342 -485q-10 -10 -29 -10q-18 0 -28 10l-340 485v-459q0 -34 -31 -34q-33 0 -33 34v521q0 28 31 28q18 0 39 -12l362 -510l363 510
q20 12 41 12q28 0 28 -28v-521q0 -34 -30 -34q-31 0 -31 34z" />
    <glyph glyph-name="multiply" unicode="&#x3b;&#x3b;Multiply&#x3b;&#x3b;" horiz-adv-x="1083" 
d="M803 270l-262 260l-260 -260q-13 -12 -23 -12t-22 12q-11 11 -11 23q0 10 11 20l262 262l-262 261q-11 10 -11 20q0 12 11 23q12 12 22 12t23 -12l260 -261l262 261q10 12 20 12q13 0 23 -12q10 -11 10 -23q0 -10 -10 -20l-260 -261l260 -262q10 -10 10 -20
q0 -12 -10 -23q-10 -12 -23 -12q-10 0 -20 12z" />
    <glyph glyph-name="divide" unicode="&#x3b;&#x3b;Divide&#x3b;&#x3b;" horiz-adv-x="1292" 
d="M246 606h801q30 0 30 -31q0 -30 -30 -30h-801q-31 0 -31 30q0 31 31 31zM639 362q14 0 27.5 -7t20.5 -20t7 -28q0 -14 -6 -27.5t-20.5 -20.5t-28.5 -7q-12 0 -25.5 7t-20.5 20.5t-7 27.5q0 15 7 28t20.5 20t25.5 7zM639 920q14 0 27.5 -7.5t20.5 -20.5t7 -28
q0 -12 -6 -25.5t-20.5 -20.5t-28.5 -7q-12 0 -25.5 7t-20.5 20.5t-7 25.5q0 15 7 28t20.5 20.5t25.5 7.5z" />
    <glyph glyph-name="fi" unicode="fi" horiz-adv-x="845" 
d="M371 821q-70 0 -70 -80v-43h129v-127h-129v-571h-188v571h-113v127h113v56q0 96 57 153q26 26 69 42t103 16l100 -4v-144zM533 807v158h188v-158h-188zM533 0v698h188v-698h-188z" />
    <glyph glyph-name="fl" unicode="fl" horiz-adv-x="833" 
d="M371 821q-70 0 -70 -80v-43h129v-127h-129v-571h-188v571h-113v127h113v56q0 96 57 153q26 26 69 42t103 16l100 -4v-144zM540 0v963h188v-963h-188z" />
    <glyph glyph-name="ffi" unicode="ffi" horiz-adv-x="1390" 
d="M371 821q-70 0 -70 -80v-43h129v-127h-129v-571h-188v571h-113v127h113v56q0 96 57 153q26 26 69 42t103 16l100 -4v-144zM897 821q-70 0 -70 -80v-43h129v-127h-129v-571h-188v571h-113v127h113v56q0 96 57 153q26 26 69 42t103 16l100 -4v-144zM1059 807v158h188v-158
h-188zM1059 0v698h188v-698h-188z" />
    <glyph glyph-name="ffl" unicode="ffl" horiz-adv-x="1347" 
d="M371 821q-70 0 -70 -80v-43h129v-127h-129v-571h-188v571h-113v127h113v56q0 96 57 153q26 26 69 42t103 16l100 -4v-144zM897 821q-70 0 -70 -80v-43h129v-127h-129v-571h-188v571h-113v127h113v56q0 96 57 153q26 26 69 42t103 16l100 -4v-144zM1059 0v963h188v-963
h-188z" />
    <glyph glyph-name="Rulakkhangyao" unicode="&#xc4;&#xd2;" horiz-adv-x="1509" 
d="M553 -305v878q0 31 -10.5 54t-36.5 43q-25 17 -52.5 26t-58.5 9q-28 0 -52 -4.5t-44 -12.5q-17 -6 -33.5 -17t-32.5 -28q25 -12 40.5 -21.5t33.5 -23.5q17 -11 32 -24t26 -27q-109 -35 -109 -137v-107l18 2q36 0 64 -10.5t53 -36.5q49 -43 49 -108q0 -32 -13 -60.5
t-35.5 -50t-54 -34.5t-67.5 -13q-43 0 -73 10t-56 35q-49 47 -49 121v258q0 45 26.5 82t69.5 57q-27 24 -98 51l-65 23q29 46 66.5 82.5t82.5 64.5q51 29 107 44.5t118 15.5q68 0 126 -18t101 -52t67 -83.5t24 -111.5v-876h-164zM326 150q0 20 -13.5 34.5t-38.5 16.5
q-22 0 -36 -15q-12 -8 -15 -36q0 -23 15 -37q10 -12 36 -15q23 0 35 13q6 8 10.5 17t6.5 22zM1232 -305v858q0 68 -37 113q-17 17 -43.5 28t-57.5 11q-58 0 -98 -39q-36 -38 -51 -95h-170q14 60 42.5 109t70.5 83.5t96 53.5t119 19q32 0 62 -4.5t54 -12.5q52 -15 95 -55
q82 -73 82 -189v-880h-164z" />
    <glyph glyph-name="Lulakkhangyao" unicode="&#xc6;&#xd2;" horiz-adv-x="1563" 
d="M1292 -305v858q0 68 -37 113q-17 17 -43.5 28t-57.5 11q-58 0 -98 -39q-36 -38 -51 -95h-170q14 60 42.5 109t70.5 83.5t96 53.5t119 19q32 0 62 -4.5t54 -12.5q52 -15 95 -55q82 -73 82 -189v-880h-164zM614 -305v858q0 67 -45 109q-20 20 -47.5 31.5t-64.5 11.5
q-29 0 -53 -4.5t-44 -12.5l-34 -18q-16 -9 -31 -27q81 -40 131 -96q-109 -35 -109 -137v-177q8 -7 11 -20l6 -16q6 -29 6 -45q0 -33 -13 -62.5t-36 -51t-54 -34t-67 -12.5q-70 0 -121 45q-49 49 -49 115q0 63 45 108q20 20 46.5 33.5t62.5 19.5v103q0 23 6 44t20 40l31 32
q6 5 17 11.5t22 11.5q-36 25 -98 51l-66 23q58 93 150 147q51 29 106.5 44.5t118.5 15.5q67 0 125 -18t101 -52t67 -83.5t24 -111.5v-876h-164zM221 152q0 22 -14 36q-8 12 -37 15q-23 0 -34.5 -12.5t-16.5 -38.5q0 -23 14 -37q8 -12 37 -15q23 0 37 15q8 8 14 37z" />
    <glyph glyph-name=".notdef" horiz-adv-x="1536" 
d="M256 0v1280h1024v-1280h-1024zM299 33h938q10 0 10 10v1194q0 10 -10 10h-938q-10 0 -10 -10v-1194q0 -10 10 -10zM715 -2h-2v0h2h-2v0h2zM768 -2v-2h-2v2h2zM768 -4v2h-2v-2h2zM780 -2v0v0v-2v2h-4v-2v2h2v0h2zM778 -2h2v0h-2zM799 -2h-4v-2h4v2h-2h2v-2h-4v2h4zM799 -2
v0h4v0v-2v2h-4v-2v2zM717 0v-4h-6v4h6zM717 -4v4h-6v-4h6zM731 -2v-2h-2v2h2zM731 -4v2h-2v-2h2zM733 -2v0h2v0v-2v2h-2zM770 -2v-2h2h-2v2zM844 -2v-2h-4v2h4zM844 -4v2h-4v-2h4zM834 -2v-2h2v2v-2h-2v2zM803 -2h4h-2v-2v2h-2zM758 -2h2v-2h-2v2h2v0h-2zM758 -4h2v2h-2v-2z
M766 -2v0h-4v-2v2h4zM762 -2h4v0h-4zM795 -2v-2v2zM725 -4h-4h4zM725 -2v0h-4v-2v2h4v0h-4h4zM678 -2h-4v-2h4h-4v2h4zM727 -2v-2h-2v2h2zM727 -4v2h-2v-2h2zM684 -2v0h-2v-2v2h2zM682 -2h2v0h-2zM682 -2v-2h-4v2h4zM682 -4v2h-4v-2h4zM686 -2v0h4v0v0h-2v-2v2h-2zM784 -2
v-2h2h-2v2zM782 -2v-2h2h-2v2zM754 -4v2h2v-2v2h-2v-2zM815 -2v0h2v-2v2h-4v-2v2h2zM813 -2h2v0h-2zM762 -2v-2v2zM698 -2h-2v-2h2v2h-2h2v-2h-2v2h2zM700 -2v0h2v0v-2v2h-2v-2v2zM705 -2h4h-2v-2v2h-2zM694 -2v-2v2zM692 -2v0h2v-2v2h-4v-2v2h2zM690 -2h2v0h-2zM831 -2v0h3
v-2v2h-5v-2v2h2zM829 -2h2v0h-2zM836 -4h4h-4zM836 -2h4h-4zM836 -2h4h-4zM750 -4h2h-2zM752 -2v0v0v-2v2h-2v-2v2v0h2zM750 -2h2v0h-2zM829 -4h-4h4zM825 -2h4h-4zM825 -2h4h-4zM809 -2h2v-2h-2h2v2h-2zM809 -2h2h-2v0zM821 -2h4v-2h-4h4v2h-4zM821 -2h4h-4v0zM817 -4h4h-4
zM817 -2h4h-4zM817 -2h4h-4zM793 -2v0v0v-2v2h-2v-2v2h2zM791 -2h2v0h-2zM745 -4h3h-3zM745 -2h3h-3zM745 -2h3h-3zM739 -2v-2h4v2v-2h-4v2zM741 -2v-2v2z" />
    <glyph glyph-name=".null" 
 />
    <glyph glyph-name="nonmarkingreturn" horiz-adv-x="580" 
 />
    <glyph glyph-name="space" unicode=" " horiz-adv-x="690" 
 />
    <glyph glyph-name="exclam" unicode="!" horiz-adv-x="375" 
d="M236 289h-97l-51 418v258h201v-258zM82 0v209h213v-209h-213z" />
    <glyph glyph-name="quotedbl" unicode="&#x22;" horiz-adv-x="627" 
d="M367 530v435h143v-435h-143zM115 530v435h145v-435h-145z" />
    <glyph glyph-name="numbersign" unicode="#" horiz-adv-x="752" 
d="M590 557l-23 -168h99v-121h-117l-37 -268h-131l37 268h-129l-39 -268h-131l39 268h-113v121h127l25 168h-111v121h127l39 268h131l-39 -268h131l37 268h131l-37 -268h101v-121h-117zM328 557l-25 -168h133l23 168h-131z" />
    <glyph glyph-name="dollar" unicode="$" horiz-adv-x="752" 
d="M754 260q0 -121 -113 -213q-91 -67 -225 -67v-115h-80v115q-147 0 -236 86q-42 42 -67 104t-33 143h190q0 -72 39 -120q20 -20 46.5 -35t60.5 -23v283l-43 12q-82 20 -137 49t-84 64q-49 58 -49 155q0 68 21 120.5t69 90.5q45 39 101 58.5t122 19.5v115h80v-115
q66 -6 118 -26t93 -52q92 -74 92 -209h-193q0 26 -7 47t-25 44q-17 18 -36 28t-42 10v-239l67 -17q173 -48 234 -149q37 -66 37 -164zM336 829q-26 0 -45.5 -7t-42.5 -21q-35 -29 -35 -84q0 -41 27 -68q19 -16 96 -39v219zM561 268q0 25 -7 42.5t-23.5 31.5t-44.5 26t-70 27
v-260q28 3 52 12t44 23q49 37 49 98z" />
    <glyph glyph-name="percent" unicode="%" horiz-adv-x="1352" 
d="M1249 242q0 -60 -12 -106.5t-41 -78.5q-58 -73 -174 -73q-119 0 -170 69q-26 37 -39.5 84.5t-13.5 110.5q0 57 15 105t44 82.5t71.5 53.5t98.5 19q116 0 174 -76q47 -65 47 -190zM461 -29h-117l559 1006h115zM553 692q0 -60 -12 -103.5t-41 -78.5q-60 -72 -176 -72
q-118 0 -172 70q-23 31 -37.5 80.5t-14.5 109.5q0 58 14.5 107.5t43.5 84.5t72.5 55t101.5 20q115 0 174 -80q47 -68 47 -193zM1112 268v25q-2 5 -2 6v4q0 11 -1.5 21.5t-6.5 19.5q-18 64 -74 64q-53 0 -78 -58q-3 -8 -5.5 -19.5t-4.5 -27.5l-4 -57v-31t2 -31q0 -11 1.5 -21
t6.5 -20q18 -61 78 -61q40 0 63 39q25 35 25 123v24zM416 719v24q-2 5 -2 8v5q0 23 -8 43q-23 65 -74 65q-56 0 -76 -51q-8 -29 -12 -56.5t-4 -62.5v-32t2 -27q0 -11 1.5 -21t6.5 -18q18 -57 76 -57q54 0 75 55l11 43l4 57v25z" />
    <glyph glyph-name="ampersand" unicode="&#x26;" horiz-adv-x="926" 
d="M707 0l-80 96q-51 -51 -123 -86q-17 -6 -34 -10.5t-36 -7.5q-18 -5 -36.5 -6.5t-41.5 -1.5q-69 0 -124.5 16.5t-100.5 58.5q-88 81 -88 211q0 92 66 170q27 34 65 61.5t86 49.5l-39 51l-26 43q-14 26 -20.5 54t-6.5 57q0 90 76 157q35 29 80.5 46.5t95.5 17.5
q111 0 188 -62q35 -29 55.5 -71.5t20.5 -98.5q0 -43 -10.5 -74.5t-36.5 -66.5q-22 -29 -52.5 -54.5t-72.5 -45.5l125 -152l8 19l12 32l15 64h166q-7 -66 -29.5 -125.5t-63.5 -112.5l195 -229h-233zM516 756q0 17 -6.5 33t-20.5 30q-24 29 -61 29q-35 0 -61 -25
q-25 -21 -25 -61t23 -78q3 -9 14 -20l39 -46q51 31 69 56q29 31 29 82zM360 426q-50 -23 -92 -61q-43 -48 -43 -99q0 -26 10.5 -48t30.5 -42q45 -37 99 -37q26 0 47.5 5t38.5 16q12 8 18 11t18 15q11 8 20.5 18t18.5 21z" />
    <glyph glyph-name="quotesingle" unicode="'" horiz-adv-x="375" 
d="M117 530v435h143v-435h-143z" />
    <glyph glyph-name="parenleft" unicode="(" horiz-adv-x="451" 
d="M430 987q-74 -137 -110.5 -293.5t-36.5 -318.5v-55t2 -37q2 -13 3 -30t3 -40q5 -45 11.5 -84t14.5 -74q17 -75 45 -149t66 -150h-160q-85 144 -131.5 295t-46.5 311q0 85 11.5 170t34 165.5t55.5 154t77 135.5h162v0z" />
    <glyph glyph-name="parenright" unicode=")" horiz-adv-x="451" 
d="M360 379q0 -86 -10.5 -171t-32.5 -165t-55.5 -153t-79.5 -134h-162q19 34 34 67.5t28.5 69t25 74t23.5 82.5q37 158 37 316q0 81 -9 161t-28 158q-17 82 -44 159.5t-64 143.5h159q86 -139 131 -297q23 -75 35 -154t12 -157z" />
    <glyph glyph-name="asterisk" unicode="*" horiz-adv-x="551" 
d="M360 698l101 -131l-90 -67l-99 139l-96 -139l-90 67l100 131l-155 54l35 104l153 -59v168h109v-168l155 59l37 -104z" />
    <glyph glyph-name="plus" unicode="+" horiz-adv-x="745" 
d="M444 270v-260h-143v260h-260v144h260v260h143v-260h261v-144h-261z" />
    <glyph glyph-name="comma" unicode="," horiz-adv-x="348" 
d="M279 82q0 -68 -33 -130t-94 -104l-74 50l28 18q5 3 8.5 5.5t6.5 4.5q0 1 10 13l21 22l18 31q-36 0 -72 28q-30 31 -30 72q0 37 30 72q17 15 34.5 23t37.5 8q41 0 76 -33q25 -30 33 -80z" />
    <glyph glyph-name="hyphen" unicode="-" horiz-adv-x="553" 
d="M72 307v144h409v-144h-409z" />
    <glyph glyph-name="period" unicode="." horiz-adv-x="348" 
d="M276 92q0 -38 -30 -72q-17 -14 -34.5 -21t-37.5 -7q-36 0 -72 28q-30 31 -30 72q0 37 30 72q17 15 34.5 23t37.5 8q36 0 72 -31q15 -17 22.5 -34.5t7.5 -37.5z" />
    <glyph glyph-name="slash" unicode="/" horiz-adv-x="502" 
d="M139 -20h-151l374 1007h154z" />
    <glyph glyph-name="zero" unicode="0" horiz-adv-x="745" 
d="M719 477q0 -262 -103 -389q-85 -104 -243 -104q-157 0 -242 104q-102 126 -102 389q0 258 102 381q88 107 242 107t243 -105q103 -127 103 -383zM530 477q0 177 -39 255.5t-118 78.5q-102 0 -135 -129q-11 -37 -16 -88t-5 -117q0 -69 4.5 -122.5t14.5 -88.5
q36 -131 137 -131q100 0 137 131q11 37 15.5 89.5t4.5 121.5z" />
    <glyph glyph-name="one" unicode="1" horiz-adv-x="745" 
d="M324 0v639h-250v152q119 0 184 36q74 44 86 138h168v-965h-188z" />
    <glyph glyph-name="two" unicode="2" horiz-adv-x="745" 
d="M719 672q0 -127 -96 -223q-22 -22 -72.5 -57t-128.5 -85q-126 -79 -164 -145h451v-162h-695q0 172 131 291q62 42 123 84t123 86q133 95 133 207q0 27 -10 51.5t-28.5 43t-45 29.5t-59.5 11q-79 0 -118.5 -60.5t-39.5 -167.5h-184q0 8 -1 19.5t-1 17.5q0 153 98 254
q101 101 246 101q143 0 240 -86q98 -84 98 -209z" />
    <glyph glyph-name="three" unicode="3" horiz-adv-x="745" 
d="M725 283q0 -133 -100 -215t-254 -82q-83 0 -147.5 23t-109 66.5t-68 106t-23.5 142.5h184q0 -88 42.5 -134.5t121.5 -46.5q34 0 63 10.5t50 29t32.5 44t11.5 56.5q0 64 -41 102q-43 41 -131 41h-34q-8 -2 -14 -2t-11 -2v147q104 0 149.5 32t45.5 89q0 51 -33.5 82
t-87.5 31q-66 0 -102 -45t-36 -117h-186q0 133 86 225q90 99 229 99q72 0 131.5 -19t103 -54t67.5 -84t24 -110q0 -28 -8.5 -55.5t-23.5 -52.5t-36.5 -45t-46.5 -33q70 -32 111 -90t41 -139z" />
    <glyph glyph-name="four" unicode="4" horiz-adv-x="745" 
d="M600 211v-211h-186v211h-396v143l420 611h162v-592h127v-162h-127zM414 694l-226 -321h226v321z" />
    <glyph glyph-name="five" unicode="5" horiz-adv-x="745" 
d="M721 328q0 -77 -26 -140t-73 -108t-114.5 -69.5t-149.5 -24.5q-145 0 -237 77q-98 83 -98 224h184q9 -67 45 -103q40 -39 108 -39q76 0 121 56q43 52 43 129q0 36 -11 66.5t-31.5 52.5t-50 34.5t-66.5 12.5q-44 0 -87.5 -26t-68.5 -71l-164 33l100 520h521v-164h-383
l-37 -217q8 14 24.5 26.5t40.5 23.5q61 28 117 28q127 0 207 -84q86 -89 86 -237z" />
    <glyph glyph-name="six" unicode="6" horiz-adv-x="745" 
d="M721 311q0 -136 -86 -225q-48 -51 -112 -75.5t-144 -24.5q-86 0 -151.5 32t-110 92.5t-67.5 148t-23 198.5q0 109 21.5 197t66.5 157q97 156 276 156q131 0 211 -67.5t103 -197.5h-187q-17 57 -47 84t-78 27q-81 0 -131 -90q-40 -75 -49 -176q20 20 40.5 34t43.5 25
q60 29 133 29q133 0 213 -92q38 -45 58 -102t20 -130zM535 313q0 38 -10.5 69.5t-30.5 54.5t-48.5 35.5t-64.5 12.5q-35 0 -63.5 -12.5t-49 -35.5t-32 -54.5t-11.5 -69.5t11.5 -70t32 -55.5t49 -37t63.5 -13.5q34 0 62.5 13t49 36t31.5 55.5t11 71.5z" />
    <glyph glyph-name="seven" unicode="7" horiz-adv-x="745" 
d="M700 805q-60 -60 -109 -127.5t-87 -142.5q-32 -65 -56.5 -135.5t-39.5 -145.5q-14 -63 -20.5 -126t-6.5 -128h-207q9 106 32 204t58 189q83 206 236 389h-455v170h655v-147v0z" />
    <glyph glyph-name="eight" unicode="8" horiz-adv-x="745" 
d="M725 285q0 -68 -26.5 -123t-74 -94t-113 -60.5t-142.5 -21.5q-78 0 -143.5 21.5t-113 60.5t-74 94t-26.5 123q0 40 12 77t34 67.5t53.5 52.5t70.5 32q-59 21 -94 68q-39 46 -39 118q0 113 90 191q92 76 230 76q69 0 126.5 -19t102.5 -57q90 -78 90 -191q0 -69 -36.5 -116
t-96.5 -70q39 -10 70.5 -32t53.5 -52.5t34 -67.5t12 -77zM512 692q0 28 -11 51t-30.5 40t-45.5 26.5t-56 9.5t-56.5 -9.5t-46 -26.5t-30.5 -40t-11 -51t11 -51t30.5 -39.5t45.5 -25.5t57 -9q30 0 56 9t45.5 25.5t30.5 39.5t11 51zM532 285q0 33 -12.5 60.5t-34.5 48
t-52 31.5t-64 11q-35 0 -65 -11t-52 -31.5t-34.5 -48t-12.5 -60.5q0 -34 12.5 -62t34.5 -48.5t52 -32t65 -11.5q34 0 63.5 11.5t51.5 32t35 48.5t13 62z" />
    <glyph glyph-name="nine" unicode="9" horiz-adv-x="745" 
d="M719 494q0 -218 -88 -355q-99 -153 -277 -153q-131 0 -210.5 67t-102.5 195h186q31 -111 125 -111q82 0 131 90q20 35 32 79.5t17 96.5q-20 -20 -41 -34t-42 -25q-29 -14 -62.5 -21.5t-71.5 -7.5q-68 0 -121.5 24t-91 67t-57.5 102.5t-20 130.5q0 66 21.5 121.5
t66.5 103.5q95 103 254 103q170 0 264 -127q88 -122 88 -346zM520 637q0 37 -11.5 69.5t-31.5 56t-49 37t-63 13.5q-35 0 -63.5 -13t-48.5 -36t-31 -55.5t-11 -71.5q0 -38 11 -69.5t31 -54t48.5 -35.5t63.5 -13q72 0 113.5 46.5t41.5 125.5z" />
    <glyph glyph-name="colon" unicode=":" horiz-adv-x="369" 
d="M287 606q0 -18 -8 -36.5t-22.5 -33t-33 -23.5t-39.5 -9q-39 0 -71 31q-31 30 -31 71q0 38 31 72q31 31 71 31q36 0 72 -31q31 -36 31 -72zM287 92q0 -36 -31 -72q-31 -28 -72 -28q-37 0 -71 28q-31 31 -31 72q0 38 31 72q31 31 71 31q36 0 72 -31q31 -36 31 -72z" />
    <glyph glyph-name="semicolon" unicode=";" horiz-adv-x="369" 
d="M287 606q0 -18 -8 -36.5t-22.5 -33t-33 -23.5t-39.5 -9q-39 0 -71 31q-31 30 -31 71q0 38 31 72q31 31 71 31q36 0 72 -31q31 -36 31 -72zM293 82v-22q0 -8 -1 -15t-2.5 -15t-4.5 -20q-6 -24 -27 -57q-30 -61 -92 -105l-74 50q32 18 53 41q11 11 21 23.5t18 29.5
q-37 0 -71 28q-31 31 -31 72q0 38 31 72q31 31 71 31q21 0 40.5 -9t35 -24t24.5 -35.5t9 -44.5z" />
    <glyph glyph-name="less" unicode="&#x3c;" horiz-adv-x="745" 
d="M59 264v160l635 272v-155l-461 -199l461 -197v-153z" />
    <glyph glyph-name="equal" unicode="=" horiz-adv-x="745" 
d="M41 414v145h664v-145h-664zM41 127v143h664v-143h-664z" />
    <glyph glyph-name="greater" unicode="&#x3e;" horiz-adv-x="745" 
d="M59 -8v153l459 197l-459 199v155l635 -272v-160z" />
    <glyph glyph-name="question" unicode="?" horiz-adv-x="752" 
d="M709 727q0 -45 -8.5 -79t-26.5 -66q-29 -44 -80 -82l-82 -66q-40 -39 -49 -94v-51h-182v61q0 74 36 133q5 7 11.5 14.5t17.5 18.5l49 43q58 43 58 47q43 41 43 103q0 120 -115 120q-34 0 -60 -14t-43.5 -38t-26.5 -56t-9 -68h-199q0 73 22.5 132.5t67.5 107.5
q45 45 103.5 69.5t134.5 24.5q169 0 264 -90q74 -74 74 -170zM475 98q0 -21 -8 -41t-25 -37q-31 -28 -75 -28q-41 0 -78 28q-31 31 -31 78q0 22 8 41.5t22.5 34.5t34.5 24t44 9q43 0 75 -33q33 -29 33 -76z" />
    <glyph glyph-name="at" unicode="@" horiz-adv-x="1081" 
d="M1032 575q0 -92 -31 -167t-94 -132q-98 -92 -192 -92l-35 2q-14 3 -37 19q-24 21 -27 55q-49 -78 -149 -78q-83 0 -148 68q-63 66 -63 164q0 139 82 239q82 105 213 105q14 0 25 -1t20 -3q19 -3 45 -19q40 -21 68 -71l20 73h113l-86 -350l-6 -29l-2 -16q0 -10 -3 -12
q0 -31 23 -31q61 0 106 70q26 37 40 82.5t14 95.5q0 149 -105 241q-101 93 -262 93q-172 0 -278 -113q-105 -114 -105 -289t111 -284q115 -109 289 -109q88 0 160.5 27.5t129.5 83.5h113q-63 -106 -176 -162q-51 -26 -109.5 -40.5t-126.5 -14.5q-219 0 -368 143
q-152 144 -152 360q0 212 148 357q150 147 366 147q187 0 326 -110q143 -119 143 -302zM666 514q0 12 -2 23t-7 20q-5 19 -22 39q-33 35 -74 35q-65 0 -117 -64q-51 -65 -51 -135q0 -53 29 -88q12 -15 33 -25q16 -8 45 -8q68 0 116 64q50 65 50 139z" />
    <glyph glyph-name="A" unicode="A" horiz-adv-x="907" 
d="M700 0l-71 215h-355l-73 -215h-209l358 965h211l357 -965h-218zM455 727l-125 -354h243z" />
    <glyph glyph-name="B" unicode="B" horiz-adv-x="934" 
d="M883 281q0 -136 -103 -213q-92 -68 -229 -68h-459v965h445q143 0 219 -52q84 -60 84 -188q0 -131 -129 -201q86 -24 129 -88q11 -14 18.5 -31.5t13.5 -37.5q11 -39 11 -86zM637 690q0 65 -41 86q-17 11 -42 18t-60 7h-195v-228h211q57 0 92 28.5t35 88.5zM676 293
q0 69 -41 102q-38 35 -109 35h-227v-264h223q66 0 107 24q23 17 35 42.5t12 60.5z" />
    <glyph glyph-name="C" unicode="C" horiz-adv-x="981" 
d="M932 371q-15 -173 -129 -287q-57 -54 -126.5 -79t-160.5 -25q-211 0 -340 141q-127 142 -127 358q0 222 125 365t342 143q79 0 147 -23t128 -69q108 -87 133 -254h-201q-4 37 -21.5 67.5t-45 53t-63.5 35t-77 12.5q-127 0 -199 -100q-31 -45 -45 -101.5t-14 -128.5
q0 -69 14 -124.5t43 -98.5q34 -51 84.5 -75.5t116.5 -24.5q94 0 148 57q12 12 23 29t22 37q8 18 12.5 41t9.5 51h201v0z" />
    <glyph glyph-name="D" unicode="D" horiz-adv-x="981" 
d="M930 487q0 -217 -107 -348q-113 -139 -323 -139h-408v965h408q187 0 307 -117q123 -126 123 -361zM721 467q0 78 -15 136.5t-44 96.5q-65 86 -213 86h-150v-608h186q100 0 164 64q35 38 53.5 94t18.5 131z" />
    <glyph glyph-name="E" unicode="E" horiz-adv-x="858" 
d="M92 0v965h707v-179h-500v-206h459v-164h-459v-238h510v-178h-717z" />
    <glyph glyph-name="F" unicode="F" horiz-adv-x="784" 
d="M299 786v-223h395v-164h-395v-399h-207v965h664v-179h-457z" />
    <glyph glyph-name="G" unicode="G" horiz-adv-x="1006" 
d="M797 0l-23 109q-48 -66 -119 -101q-70 -28 -139 -28q-211 0 -340 141q-127 142 -127 358q0 222 125 365t342 143q150 0 266 -92q113 -85 131 -248h-198q-14 79 -66 120.5t-133 41.5q-127 0 -199 -100q-31 -45 -45 -101.5t-14 -128.5q0 -69 14 -124.5t43 -98.5
q34 -51 84.5 -75.5t116.5 -24.5q204 0 225 209h-209v157h398v-522h-133z" />
    <glyph glyph-name="H" unicode="H" horiz-adv-x="981" 
d="M682 0v416h-383v-416h-207v965h207v-371h383v371h209v-965h-209z" />
    <glyph glyph-name="I" unicode="I" horiz-adv-x="391" 
d="M92 0v965h207v-965h-207z" />
    <glyph glyph-name="J" unicode="J" horiz-adv-x="737" 
d="M645 303q0 -66 -12.5 -118.5t-38.5 -90.5q-77 -114 -264 -114q-130 0 -215 67q-97 80 -97 229v84h189v-45q0 -73 24 -118q26 -41 97 -41q69 0 96 53q2 6 4.5 16.5t5.5 26.5l4 61v652h207v-662v0z" />
    <glyph glyph-name="K" unicode="K" horiz-adv-x="956" 
d="M702 0l-282 434l-121 -123v-311h-207v965h207v-400l369 400h262l-371 -381l404 -584h-261z" />
    <glyph glyph-name="L" unicode="L" horiz-adv-x="784" 
d="M92 0v965h207v-787h461v-178h-668z" />
    <glyph glyph-name="M" unicode="M" horiz-adv-x="1202" 
d="M915 0v684l-235 -684h-160l-231 678l-2 -678h-195v965h291l223 -664l211 664h293v-965h-195z" />
    <glyph glyph-name="N" unicode="N" horiz-adv-x="981" 
d="M682 0l-393 645l-2 -645h-195v965h205l395 -648l2 648h197v-965h-209z" />
    <glyph glyph-name="O" unicode="O" horiz-adv-x="1030" 
d="M979 479q0 -215 -121 -354q-133 -145 -342 -145q-211 0 -340 141q-127 142 -127 358q0 222 125 365t342 143q215 0 342 -145q121 -139 121 -363zM772 479q0 143 -57 228q-72 102 -199 102t-199 -100q-31 -45 -45 -101.5t-14 -128.5q0 -69 14 -124.5t43 -98.5
q34 -51 84.5 -75.5t116.5 -24.5q131 0 197 100q59 86 59 223z" />
    <glyph glyph-name="P" unicode="P" horiz-adv-x="883" 
d="M846 655q0 -125 -74 -213q-84 -96 -254 -96h-219v-346h-207v965h426q167 0 252 -95q76 -85 76 -215zM645 655q0 83 -55 119q-23 14 -55 20.5t-74 6.5h-162v-291h162q45 0 77 6.5t52 20.5q26 17 40.5 45t14.5 73z" />
    <glyph glyph-name="Q" unicode="Q" horiz-adv-x="1030" 
d="M979 479q0 -212 -123 -356l119 -109l-96 -102l-134 121q-98 -53 -229 -53q-211 0 -340 141q-127 142 -127 358q0 222 125 365t342 143q215 0 342 -145q121 -139 121 -363zM772 479q0 143 -57 228q-72 102 -199 102t-199 -100q-31 -45 -45 -101.5t-14 -128.5
q0 -69 14 -124.5t43 -98.5q34 -51 84.5 -75.5t116.5 -24.5h45q22 0 37 12l-88 84l96 104l109 -100q8 8 20 39q6 14 11 26.5t10 26.5q8 32 12 63t4 68z" />
    <glyph glyph-name="R" unicode="R" horiz-adv-x="956" 
d="M698 0q-8 20 -16 54t-8 71v12q0 71 -10 94q-3 35 -17 68q-5 12 -11.5 23t-17.5 20q-30 35 -110 35h-209v-377h-207v965h510q63 0 112.5 -18t86.5 -60q38 -38 58 -85t20 -104q0 -81 -35 -145t-115 -96q35 -11 61.5 -32.5t43.5 -55.5q20 -44 32 -140q1 -36 1.5 -69.5t4 -63
t11 -54t22.5 -42.5h-207zM670 666q0 135 -142 135h-229v-273h229q142 0 142 138z" />
    <glyph glyph-name="S" unicode="S" horiz-adv-x="858" 
d="M827 287q0 -69 -26 -125.5t-76 -97t-123.5 -62.5t-167.5 -22q-166 0 -278 79q-123 93 -123 260h200q0 -87 62 -137q29 -20 65.5 -30.5t81.5 -10.5q23 0 52 2t67 21q66 31 66 98q0 53 -52 86q-12 6 -69 24.5t-160 49.5q-45 10 -80.5 22t-63 26t-48.5 30.5t-39 36.5
q-52 61 -52 159q0 137 113 219q99 72 242 72q78 0 143.5 -17t118.5 -52q117 -81 117 -240h-203q0 78 -50 111.5t-136 33.5q-56 0 -101 -26q-20 -11 -31.5 -32t-11.5 -52q0 -49 51 -76q29 -14 234 -70q51 -11 92 -27t72 -36q114 -74 114 -217z" />
    <glyph glyph-name="T" unicode="T" horiz-adv-x="809" 
d="M508 786v-786h-207v786h-283v179h775v-179h-285z" />
    <glyph glyph-name="U" unicode="U" horiz-adv-x="981" 
d="M893 365q0 -191 -106 -288t-298 -97t-296.5 94.5t-104.5 290.5v600h207v-600q0 -48 8 -84.5t25 -59.5q45 -65 161 -65q55 0 93 12t61 37t33 64.5t10 95.5v600h207v-600v0z" />
    <glyph glyph-name="V" unicode="V" horiz-adv-x="836" 
d="M532 0h-235l-305 965h213l211 -678l215 678h215z" />
    <glyph glyph-name="W" unicode="W" horiz-adv-x="1251" 
d="M991 0h-207l-157 657l-162 -657h-211l-250 965h209l147 -658l168 658h195l162 -664l157 664h205z" />
    <glyph glyph-name="X" unicode="X" horiz-adv-x="883" 
d="M645 0l-207 334l-211 -334h-233l330 506l-306 459h240l188 -308l191 308h227l-303 -461l330 -504h-246z" />
    <glyph glyph-name="Y" unicode="Y" horiz-adv-x="883" 
d="M545 371v-371h-207v375l-348 590h233l221 -381l220 381h231z" />
    <glyph glyph-name="Z" unicode="Z" horiz-adv-x="858" 
d="M31 0v168l508 618h-469v179h745v-168l-508 -619h520v-178h-796z" />
    <glyph glyph-name="bracketleft" unicode="[" horiz-adv-x="451" 
d="M92 -244v1231h357v-149h-164v-930h164v-152h-357z" />
    <glyph glyph-name="backslash" unicode="\" horiz-adv-x="502" 
d="M362 -20l-374 1007h151l377 -1007h-154z" />
    <glyph glyph-name="bracketright" unicode="]" horiz-adv-x="451" 
d="M2 -244v152h164v930h-164v149h356v-1231h-356z" />
    <glyph glyph-name="asciicircum" unicode="^" horiz-adv-x="745" 
d="M526 426l-153 371l-152 -371h-145l215 520h166l215 -520h-146z" />
    <glyph glyph-name="underscore" unicode="_" horiz-adv-x="1491" 
d="M0 -203v103h1491v-103h-1491z" />
    <glyph glyph-name="grave" unicode="`" horiz-adv-x="350" 
d="M143 784l-206 193h210l129 -193h-133z" />
    <glyph glyph-name="a" unicode="a" horiz-adv-x="760" 
d="M520 0l-8 27l-6 41q-19 -20 -45 -36t-60 -30q-14 0 -45 -7.5t-82 -10.5q-98 0 -163 47q-68 56 -68 159q0 106 72 160q25 16 65 31q17 5 40 10.5t54 11.5q76 11 115 16t41 7q68 18 68 70q0 53 -31 75q-34 19 -92 19q-57 0 -88 -27q-31 -24 -37 -80h-187q0 123 103 185
q87 49 219 49q35 0 64.5 -1.5t52.5 -6.5q48 -6 86 -27q98 -50 98 -164v-362v-52q0 -26 3 -47.5t11 -38.5l11 -18h-191zM498 342q-8 -6 -26.5 -12.5t-47.5 -14.5l-82 -14q-17 -3 -28 -6t-19 -6q-16 -6 -31 -17q-33 -27 -33 -73q0 -48 31 -70q14 -8 36.5 -14t47.5 -6
q92 0 131 65q8 20 14.5 43.5t6.5 52.5v72z" />
    <glyph glyph-name="b" unicode="b" horiz-adv-x="809" 
d="M760 350q0 -175 -90 -280q-77 -86 -193 -86q-37 0 -71 5.5t-66 16.5q-12 5 -24.5 13.5t-24.5 19.5q-13 11 -20 21t-19 30l-2 -90h-178v965h186v-351q37 50 94 76.5t125 26.5q109 0 193 -86q45 -51 67.5 -120.5t22.5 -160.5zM573 348q0 48 -9 87t-27 71q-43 67 -123 67
q-39 0 -69.5 -17t-51 -47t-31 -71.5t-10.5 -89.5q0 -47 10 -87.5t30 -70.5t50.5 -47.5t71.5 -17.5q37 0 67 17.5t50 47.5t31 70.5t11 87.5z" />
    <glyph glyph-name="c" unicode="c" horiz-adv-x="760" 
d="M727 268q-19 -136 -105 -210t-227 -74q-152 0 -250 98q-96 99 -96 258q0 83 24 152t69 119t110 78t147 28q135 0 224 -64q48 -35 74 -84.5t26 -115.5h-184q-11 60 -45.5 90t-94.5 30q-83 0 -123 -67q-36 -68 -36 -160q0 -90 32 -147q41 -74 123 -74q62 0 99.5 37
t50.5 106h182v0z" />
    <glyph glyph-name="d" unicode="d" horiz-adv-x="809" 
d="M559 0v90q-14 -25 -36.5 -45t-51.5 -37q-12 -5 -26 -8t-31 -8q-14 -5 -30.5 -6.5t-33.5 -1.5q-75 0 -130.5 26t-100.5 86q-37 51 -56.5 118t-19.5 142q0 150 76 250q82 111 227 111q66 0 117 -23.5t88 -79.5v351h188v-965h-180zM557 352v30t-1 21.5t-2.5 19t-4.5 23.5
t-9.5 29t-17.5 31q-39 67 -127 67q-85 0 -125 -63q-8 -14 -15 -31.5t-13 -40.5q-5 -18 -8 -41.5t-3 -46.5q0 -90 37 -153q11 -19 24 -32.5t30 -21.5q27 -18 73 -18q86 0 127 70q35 58 35 157z" />
    <glyph glyph-name="e" unicode="e" horiz-adv-x="760" 
d="M227 303q0 -87 43 -135q43 -43 125 -43q56 0 96.5 27t53.5 65h164q-35 -122 -116 -177.5t-206 -55.5q-156 0 -254 98q-45 49 -69.5 115t-24.5 151q0 162 96 264q96 105 252 105q166 0 254 -125q80 -115 80 -289h-494zM532 424q-24 149 -149 149q-82 0 -123 -53
q-16 -19 -24 -45q-5 -11 -7 -22.5t-2 -28.5h305z" />
    <glyph glyph-name="f" unicode="f" horiz-adv-x="442" 
d="M371 821q-70 0 -70 -80v-43h129v-127h-129v-571h-188v571h-113v127h113v56q0 96 57 153q26 26 69 42t103 16l100 -4v-144z" />
    <glyph glyph-name="g" unicode="g" horiz-adv-x="809" 
d="M731 45q0 -32 -3 -57t-11 -49q-13 -49 -45 -89q-90 -112 -297 -112q-60 0 -110 12.5t-93 38.5q-100 60 -100 172h186q11 -45 50.5 -70.5t90.5 -25.5q39 0 66 10.5t47 36.5q19 23 29 55.5t10 69.5v92q-16 -25 -37 -45t-49 -37q-12 -6 -24 -10t-35 -10q-14 -2 -29.5 -4.5
t-32.5 -2.5q-71 0 -126 26t-92.5 72.5t-57 111t-19.5 141.5q0 144 80 245q79 101 217 101q34 0 63.5 -6.5t55.5 -20.5q23 -11 44 -32t40 -52l2 92h180v-653zM551 358q0 48 -8 86t-25 64q-39 65 -127 65q-37 0 -65 -16t-47 -43t-29 -63t-10 -76q0 -84 30 -142q37 -67 121 -67
q37 0 66.5 15t50.5 40.5t32 60.5t11 76z" />
    <glyph glyph-name="h" unicode="h" horiz-adv-x="784" 
d="M526 0v395q0 172 -120 172h-23q-13 0 -28 -4t-31 -14t-31 -29q-35 -47 -35 -153v-367h-186v965h186v-363q37 54 92.5 84.5t112.5 30.5q141 0 201 -78q23 -32 37 -87.5t14 -121.5v-430h-189z" />
    <glyph glyph-name="i" unicode="i" horiz-adv-x="342" 
d="M76 807v158h188v-158h-188zM76 0v698h188v-698h-188z" />
    <glyph glyph-name="j" unicode="j" horiz-adv-x="367" 
d="M88 807v158h188v-158h-188zM276 -33q0 -55 -11 -95t-38.5 -65.5t-73.5 -38t-116 -12.5l-62 6v158l41 -6q26 0 52 12q20 11 20 49v723h188v-731z" />
    <glyph glyph-name="k" unicode="k" horiz-adv-x="760" 
d="M539 0l-189 311l-74 -71v-240h-188v965h188v-519l238 252h223l-260 -256l287 -442h-225z" />
    <glyph glyph-name="l" unicode="l" horiz-adv-x="342" 
d="M76 0v965h188v-965h-188z" />
    <glyph glyph-name="m" unicode="m" horiz-adv-x="1200" 
d="M936 0v395q0 45 -4 74.5t-12 46.5q-25 51 -99 51q-71 0 -100 -51q-6 -12 -10 -22t-11 -35q-2 -19 -4 -35t-2 -35v-389h-188v391v31q0 72 -17 100q-23 45 -98 45q-31 0 -52.5 -10.5t-41.5 -36.5q-17 -23 -25 -51t-8 -63v-406h-188v698h178v-94q82 113 211 113
q35 0 66 -6.5t57 -20.5q43 -20 78 -88q34 51 82 80q55 35 124 35q112 0 181 -55q71 -62 71 -195v-467h-188z" />
    <glyph glyph-name="n" unicode="n" horiz-adv-x="784" 
d="M526 0v395q0 172 -120 172h-23q-13 0 -28 -4t-31 -14t-31 -29q-35 -47 -35 -153v-367h-186v698h178v-96q37 56 92 85.5t121 29.5q141 0 201 -78q23 -32 37 -87.5t14 -121.5v-430h-189z" />
    <glyph glyph-name="o" unicode="o" horiz-adv-x="809" 
d="M758 348q0 -161 -96 -268q-93 -96 -259 -96q-80 0 -145 25.5t-111.5 73t-72 114.5t-25.5 151q0 83 25 151t71.5 116.5t111.5 75t146 26.5q80 0 145.5 -26.5t112 -74.5t72 -116t25.5 -152zM569 348q0 102 -32 156q-40 69 -134 69q-85 0 -127 -63q-36 -62 -36 -162
q0 -54 7.5 -89t24.5 -64q42 -70 131 -70q45 0 78.5 17t53.5 53q34 59 34 153z" />
    <glyph glyph-name="p" unicode="p" horiz-adv-x="809" 
d="M768 342q0 -147 -74 -250q-83 -108 -227 -108q-135 0 -205 102l-4 -330h-186v942h178v-88q35 54 84.5 80.5t122.5 26.5q150 0 235 -113q17 -25 31 -54t25 -63q11 -32 15.5 -67t4.5 -78zM580 348q0 48 -9 86.5t-26 67.5q-44 71 -129 71q-41 0 -71.5 -18t-51 -48.5
t-31 -71.5t-10.5 -87q0 -47 10 -87.5t30 -70.5t51.5 -47.5t74.5 -17.5q84 0 127 68q17 29 26 68t9 87z" />
    <glyph glyph-name="q" unicode="q" horiz-adv-x="809" 
d="M551 -244v332q-17 -26 -40 -46t-52 -36q-28 -11 -59 -16.5t-66 -5.5q-56 0 -103.5 19.5t-89.5 57.5q-98 103 -98 283q0 154 76 258q83 115 231 115q23 0 34.5 -0.5t31.5 -5.5q30 -6 57 -21q54 -22 84 -80l2 88h180v-942h-188zM557 346v30t-1 20.5t-2.5 16t-4.5 17.5
q-3 20 -9.5 37t-17.5 33q-42 73 -125 73t-127 -65q-8 -14 -15 -31.5t-13 -40.5q-5 -18 -8 -41.5t-3 -46.5q0 -86 37 -160q37 -63 125 -63q81 0 127 68q37 56 37 153z" />
    <glyph glyph-name="r" unicode="r" horiz-adv-x="516" 
d="M512 532q-12 4 -29 5.5t-37 1.5q-93 0 -143 -62q-11 -14 -19 -32t-16 -39q-5 -20 -7.5 -43t-2.5 -48v-315h-186v698h178v-129q24 61 88 107q32 21 65 31q14 5 31.5 7.5t36.5 2.5l41 -6v-179v0z" />
    <glyph glyph-name="s" unicode="s" horiz-adv-x="711" 
d="M672 225q0 -125 -97 -190q-40 -26 -93 -38.5t-122 -12.5t-123 11.5t-98 37.5q-49 31 -74.5 79.5t-25.5 114.5h178q0 -29 10.5 -51t30.5 -39q11 -8 22.5 -12.5t22.5 -7.5q14 -5 26.5 -6.5t30.5 -1.5q49 0 82 18q43 24 43 72q0 56 -215 108q-100 22 -149 55q-68 47 -68 132
q0 123 94 178q39 20 89 32.5t116 12.5q124 0 207 -45q48 -28 71 -72t23 -104h-178q0 49 -35 71.5t-92 22.5q-54 0 -82 -19q-9 -8 -14.5 -19t-7.5 -28q0 -47 96 -78l115 -26q48 -11 85.5 -25t63.5 -33q68 -48 68 -137z" />
    <glyph glyph-name="t" unicode="t" horiz-adv-x="465" 
d="M338 -6q-97 0 -150 29q-65 36 -65 135v413h-115v127h115v211h186v-211h140v-127h-140v-346q0 -53 15 -67q3 -2 9 -4.5t15 -6.5l41 -4l60 7v-150z" />
    <glyph glyph-name="u" unicode="u" horiz-adv-x="784" 
d="M537 0v98q-17 -29 -41.5 -50.5t-55.5 -37.5q-31 -12 -58.5 -19t-59.5 -7q-71 0 -119 18t-77 53.5t-41.5 88.5t-12.5 124v430h186v-395q0 -170 121 -170q37 0 65 10.5t46 34t27 61.5t9 93v366h189v-698h-178z" />
    <glyph glyph-name="v" unicode="v" horiz-adv-x="688" 
d="M451 0h-209l-236 698h199l145 -477l146 477h186z" />
    <glyph glyph-name="w" unicode="w" horiz-adv-x="1077" 
d="M854 0h-195l-118 469l-121 -469h-195l-217 698h199l127 -473l117 473h182l117 -473l127 473h192z" />
    <glyph glyph-name="x" unicode="x" horiz-adv-x="711" 
d="M496 0l-144 221l-141 -221h-211l248 369l-225 329h213l120 -182l119 182h209l-227 -327l254 -371h-215z" />
    <glyph glyph-name="y" unicode="y" horiz-adv-x="688" 
d="M410 -86q-22 -66 -58 -99t-92 -48q-17 -5 -40 -8t-48 -3l-115 6v158l54 -2h26q8 0 15.5 -1t15.5 -3q32 0 53 29q8 12 14.5 26t6.5 31v10q0 10 -2 15q0 10 -7 18l-239 655h199l157 -477l150 477h194z" />
    <glyph glyph-name="z" unicode="z" horiz-adv-x="688" 
d="M31 0v145l354 410h-330v143h578v-143l-357 -410h381v-145h-626z" />
    <glyph glyph-name="braceleft" unicode="{" horiz-adv-x="451" 
d="M279 -244q-53 0 -105 45q-61 55 -61 138v262q0 28 -10.5 48t-30.5 34q-23 17 -42.5 22.5t-39.5 5.5v119q53 0 94 41q14 14 21.5 35.5t7.5 44.5v254q0 43 13.5 74.5t45.5 62.5q51 45 107 45h172v-149h-74q-32 0 -55 -23q-19 -18 -19 -78v-205q0 -85 -51 -126
q-16 -11 -36 -19.5t-46 -13.5q49 -9 82 -35q51 -39 51 -117v-217v-24q0 -8 1 -13t3 -10q12 -49 70 -49h74v-152h-172z" />
    <glyph glyph-name="bar" unicode="|" horiz-adv-x="301" 
d="M78 -20v1007h145v-1007h-145z" />
    <glyph glyph-name="braceright" unicode="}" horiz-adv-x="451" 
d="M463 311q-19 0 -41 -7t-40.5 -20.5t-31 -34.5t-12.5 -48v-262q0 -42 -15 -76t-44 -62q-53 -45 -107 -45h-172v152h74q43 0 57 26l10 31l4 39v217q0 72 52 115q36 27 84 33q-74 18 -105 55q-6 8 -11.5 19.5t-10.5 25.5t-7 28.5t-2 34.5v205v15v12q-2 6 -3 17t-7 22
q-19 35 -61 35h-74v149h172q55 0 104 -45q62 -56 62 -137v-254q0 -62 45 -94q21 -12 39 -21q18 -6 41 -6v-119v0z" />
    <glyph glyph-name="asciitilde" unicode="~" horiz-adv-x="811" 
d="M721 340q-11 -17 -21 -29t-18 -20l-29 -31q-43 -37 -102 -37q-44 0 -86 19l-23 10l-28 16l-35 19l-41 16q-35 12 -80 12q-38 0 -68 -28q-11 -14 -22.5 -32t-22.5 -38l-55 127q6 12 13.5 22.5t15.5 18.5l33 37q43 37 108 37q39 0 90 -19l58 -24l77 -33l12 -3t17.5 -4
t18 -4t14.5 -3q34 0 67 30q11 8 23.5 24.5t28.5 41.5l55 -125v0z" />
    <glyph glyph-name="thothannobasethai" horiz-adv-x="778" 
d="M739 748q-74 -105 -172 -105q-17 0 -53 9.5t-92 29.5l-55 14q-29 6 -43 6q-42 0 -68 -20q-20 -13 -31 -37q463 0 463 -190q0 -31 -12 -84.5t-37 -128.5q-47 -153 -47 -242h-178l-82 209l-33 -10h-23q-34 0 -63.5 11.5t-51.5 32.5t-35 49.5t-13 63.5q0 31 13 59t35.5 49.5
t52 34.5t62.5 13q36 0 63 -9t50 -32q20 -20 36.5 -46.5t27.5 -62.5l26 -88l39 166q0 45 -69 68q-69 24 -150 24h-299q12 109 106 203q50 50 107 75.5t123 25.5q22 0 51 -6.5t68 -18.5l59 -14l33 -9q35 0 69 48zM328 356q0 23 -13.5 35t-38.5 17q-20 0 -33 -11.5t-18 -40.5
q0 -22 15 -37q5 -5 13.5 -8.5t22.5 -5.5q23 0 35 12.5t17 38.5z" />
    <glyph glyph-name="thothannobasethai" unicode="&#xf700;" horiz-adv-x="778" 
d="M739 748q-74 -105 -172 -105q-17 0 -53 9.5t-92 29.5l-55 14q-29 6 -43 6q-42 0 -68 -20q-20 -13 -31 -37q463 0 463 -190q0 -31 -12 -84.5t-37 -128.5q-47 -153 -47 -242h-178l-82 209l-33 -10h-23q-34 0 -63.5 11.5t-51.5 32.5t-35 49.5t-13 63.5q0 31 13 59t35.5 49.5
t52 34.5t62.5 13q36 0 63 -9t50 -32q20 -20 36.5 -46.5t27.5 -62.5l26 -88l39 166q0 45 -69 68q-69 24 -150 24h-299q12 109 106 203q50 50 107 75.5t123 25.5q22 0 51 -6.5t68 -18.5l59 -14l33 -9q35 0 69 48zM328 356q0 23 -13.5 35t-38.5 17q-20 0 -33 -11.5t-18 -40.5
q0 -22 15 -37q5 -5 13.5 -8.5t22.5 -5.5q23 0 35 12.5t17 38.5z" />
    <glyph glyph-name="thothannobasethai" unicode="&#x20ac;" horiz-adv-x="778" 
d="M739 748q-74 -105 -172 -105q-17 0 -53 9.5t-92 29.5l-55 14q-29 6 -43 6q-42 0 -68 -20q-20 -13 -31 -37q463 0 463 -190q0 -31 -12 -84.5t-37 -128.5q-47 -153 -47 -242h-178l-82 209l-33 -10h-23q-34 0 -63.5 11.5t-51.5 32.5t-35 49.5t-13 63.5q0 31 13 59t35.5 49.5
t52 34.5t62.5 13q36 0 63 -9t50 -32q20 -20 36.5 -46.5t27.5 -62.5l26 -88l39 166q0 45 -69 68q-69 24 -150 24h-299q12 109 106 203q50 50 107 75.5t123 25.5q22 0 51 -6.5t68 -18.5l59 -14l33 -9q35 0 69 48zM328 356q0 23 -13.5 35t-38.5 17q-20 0 -33 -11.5t-18 -40.5
q0 -22 15 -37q5 -5 13.5 -8.5t22.5 -5.5q23 0 35 12.5t17 38.5z" />
    <glyph glyph-name="saraileftthai" 
d="M-285 901q-183 86 -372 86q-66 0 -135 -9t-140 -28q0 119 88 201q44 42 96 63t115 21q145 0 248 -92q100 -91 100 -242zM-473 1057q-19 34 -62 55q-14 8 -32.5 15.5t-59.5 7.5q-12 0 -22.5 -1.5t-20.5 -3.5q-11 -2 -21 -5.5t-20 -8.5q-36 -15 -51 -49l66 6l61 4
q47 0 87 -4.5t75 -15.5z" />
    <glyph glyph-name="saraileftthai" unicode="&#xf701;" 
d="M-285 901q-183 86 -372 86q-66 0 -135 -9t-140 -28q0 119 88 201q44 42 96 63t115 21q145 0 248 -92q100 -91 100 -242zM-473 1057q-19 34 -62 55q-14 8 -32.5 15.5t-59.5 7.5q-12 0 -22.5 -1.5t-20.5 -3.5q-11 -2 -21 -5.5t-20 -8.5q-36 -15 -51 -49l66 6l61 4
q47 0 87 -4.5t75 -15.5z" />
    <glyph glyph-name="saraiileftthai" 
d="M-305 901q-85 38 -181.5 63t-195.5 25h-31q-15 0 -35 -2q-14 0 -30 -1.5t-35 -6.5l-86 -12l-53 -15q0 127 86 209q82 84 213 84h19q8 0 19 -1.5t26.5 -4.5t39.5 -10q45 -12 80 -39v110h164v-399zM-494 1057q-19 35 -61 55q-14 6 -34 14.5t-58 8.5q-23 0 -43.5 -5
t-40.5 -14q-37 -16 -51 -49l65 6l62 4q45 0 85.5 -4.5t75.5 -15.5z" />
    <glyph glyph-name="saraiileftthai" unicode="&#xf702;" 
d="M-305 901q-85 38 -181.5 63t-195.5 25h-31q-15 0 -35 -2q-14 0 -30 -1.5t-35 -6.5l-86 -12l-53 -15q0 127 86 209q82 84 213 84h19q8 0 19 -1.5t26.5 -4.5t39.5 -10q45 -12 80 -39v110h164v-399zM-494 1057q-19 35 -61 55q-14 6 -34 14.5t-58 8.5q-23 0 -43.5 -5
t-40.5 -14q-37 -16 -51 -49l65 6l62 4q45 0 85.5 -4.5t75.5 -15.5z" />
    <glyph glyph-name="saraiileftthai" unicode="&#x201a;" 
d="M-305 901q-85 38 -181.5 63t-195.5 25h-31q-15 0 -35 -2q-14 0 -30 -1.5t-35 -6.5l-86 -12l-53 -15q0 127 86 209q82 84 213 84h19q8 0 19 -1.5t26.5 -4.5t39.5 -10q45 -12 80 -39v110h164v-399zM-494 1057q-19 35 -61 55q-14 6 -34 14.5t-58 8.5q-23 0 -43.5 -5
t-40.5 -14q-37 -16 -51 -49l65 6l62 4q45 0 85.5 -4.5t75.5 -15.5z" />
    <glyph glyph-name="saraueleftthai" 
d="M-254 1167q0 -42 -23.5 -75t-66.5 -52q6 -18 18.5 -50t12.5 -89q-91 43 -183.5 64.5t-189.5 21.5q-131 0 -275 -37q0 120 87 203q43 38 94.5 60t117.5 22q45 0 78 -6q19 -5 34.5 -10t35.5 -13q6 21 19 38.5t30 29.5t37 19t41 7q27 0 51 -10.5t42.5 -28.5t29 -42t10.5 -52
zM-336 1167q0 23 -12.5 35t-38.5 17q-22 0 -37 -15q-8 -8 -14 -37q0 -22 14 -37q5 -5 14 -8.5t23 -5.5q23 0 34.5 12.5t16.5 38.5zM-502 1057q-18 34 -61 55l-45 16q-21 7 -47 7q-23 0 -43.5 -5t-40.5 -14q-32 -11 -52 -49l66 6l61 4q47 0 87 -4.5t75 -15.5z" />
    <glyph glyph-name="saraueleftthai" unicode="&#xf703;" 
d="M-254 1167q0 -42 -23.5 -75t-66.5 -52q6 -18 18.5 -50t12.5 -89q-91 43 -183.5 64.5t-189.5 21.5q-131 0 -275 -37q0 120 87 203q43 38 94.5 60t117.5 22q45 0 78 -6q19 -5 34.5 -10t35.5 -13q6 21 19 38.5t30 29.5t37 19t41 7q27 0 51 -10.5t42.5 -28.5t29 -42t10.5 -52
zM-336 1167q0 23 -12.5 35t-38.5 17q-22 0 -37 -15q-8 -8 -14 -37q0 -22 14 -37q5 -5 14 -8.5t23 -5.5q23 0 34.5 12.5t16.5 38.5zM-502 1057q-18 34 -61 55l-45 16q-21 7 -47 7q-23 0 -43.5 -5t-40.5 -14q-32 -11 -52 -49l66 6l61 4q47 0 87 -4.5t75 -15.5z" />
    <glyph glyph-name="saraueleftthai" unicode="&#x192;" 
d="M-254 1167q0 -42 -23.5 -75t-66.5 -52q6 -18 18.5 -50t12.5 -89q-91 43 -183.5 64.5t-189.5 21.5q-131 0 -275 -37q0 120 87 203q43 38 94.5 60t117.5 22q45 0 78 -6q19 -5 34.5 -10t35.5 -13q6 21 19 38.5t30 29.5t37 19t41 7q27 0 51 -10.5t42.5 -28.5t29 -42t10.5 -52
zM-336 1167q0 23 -12.5 35t-38.5 17q-22 0 -37 -15q-8 -8 -14 -37q0 -22 14 -37q5 -5 14 -8.5t23 -5.5q23 0 34.5 12.5t16.5 38.5zM-502 1057q-18 34 -61 55l-45 16q-21 7 -47 7q-23 0 -43.5 -5t-40.5 -14q-32 -11 -52 -49l66 6l61 4q47 0 87 -4.5t75 -15.5z" />
    <glyph glyph-name="saraueeleftthai" 
d="M-305 901q-85 38 -181.5 63t-195.5 25h-31q-15 0 -35 -2q-14 0 -30 -1.5t-35 -6.5l-86 -12l-53 -15q0 127 86 209q82 84 213 84l41 -2v57h123v-88q15 -8 30 -13.5t31 -27.5v129h123v-399zM-494 1057q-19 35 -61 55q-14 6 -34 14.5t-58 8.5q-23 0 -43.5 -5t-40.5 -14
q-37 -16 -51 -49l65 6l62 4q45 0 85.5 -4.5t75.5 -15.5z" />
    <glyph glyph-name="saraueeleftthai" unicode="&#xf704;" 
d="M-305 901q-85 38 -181.5 63t-195.5 25h-31q-15 0 -35 -2q-14 0 -30 -1.5t-35 -6.5l-86 -12l-53 -15q0 127 86 209q82 84 213 84l41 -2v57h123v-88q15 -8 30 -13.5t31 -27.5v129h123v-399zM-494 1057q-19 35 -61 55q-14 6 -34 14.5t-58 8.5q-23 0 -43.5 -5t-40.5 -14
q-37 -16 -51 -49l65 6l62 4q45 0 85.5 -4.5t75.5 -15.5z" />
    <glyph glyph-name="saraueeleftthai" unicode="&#x201e;" 
d="M-305 901q-85 38 -181.5 63t-195.5 25h-31q-15 0 -35 -2q-14 0 -30 -1.5t-35 -6.5l-86 -12l-53 -15q0 127 86 209q82 84 213 84l41 -2v57h123v-88q15 -8 30 -13.5t31 -27.5v129h123v-399zM-494 1057q-19 35 -61 55q-14 6 -34 14.5t-58 8.5q-23 0 -43.5 -5t-40.5 -14
q-37 -16 -51 -49l65 6l62 4q45 0 85.5 -4.5t75.5 -15.5z" />
    <glyph glyph-name="ellipsis" unicode="&#x85;" horiz-adv-x="1352" 
d="M1020 0v209h211v-209h-211zM569 0v209h211v-209h-211zM119 0v209h213v-209h-213z" />
    <glyph glyph-name="ellipsis" unicode="&#x2026;" horiz-adv-x="1352" 
d="M1020 0v209h211v-209h-211zM569 0v209h211v-209h-211zM119 0v209h213v-209h-213z" />
    <glyph glyph-name="maieklowleftthai" 
d="M-489 942v266h163v-266h-163z" />
    <glyph glyph-name="maieklowleftthai" unicode="&#xf705;" 
d="M-489 942v266h163v-266h-163z" />
    <glyph glyph-name="maieklowleftthai" unicode="&#x2020;" 
d="M-489 942v266h163v-266h-163z" />
    <glyph glyph-name="maitholowleftthai" 
d="M-100 1235q0 -79 -29 -139t-86 -105q-54 -40 -121.5 -60t-152.5 -20h-21h-39l-22 4l-45 7q-8 0 -15.5 2t-25.5 8q37 17 57 36t33 50q-30 0 -57.5 10t-48.5 28.5t-33.5 44t-12.5 56.5q0 29 10.5 52t36.5 46q43 43 107 43q37 0 67 -11.5t51.5 -31.5t33.5 -46.5t12 -57.5
q0 -29 -4.5 -56.5t-12.5 -52.5q67 14 115 68q43 55 43 125h160zM-520 1159q0 38 -47 47q-38 0 -47 -47q0 -18 14 -33q5 -5 12.5 -8.5t20.5 -5.5q38 0 47 47z" />
    <glyph glyph-name="maitholowleftthai" unicode="&#xf706;" 
d="M-100 1235q0 -79 -29 -139t-86 -105q-54 -40 -121.5 -60t-152.5 -20h-21h-39l-22 4l-45 7q-8 0 -15.5 2t-25.5 8q37 17 57 36t33 50q-30 0 -57.5 10t-48.5 28.5t-33.5 44t-12.5 56.5q0 29 10.5 52t36.5 46q43 43 107 43q37 0 67 -11.5t51.5 -31.5t33.5 -46.5t12 -57.5
q0 -29 -4.5 -56.5t-12.5 -52.5q67 14 115 68q43 55 43 125h160zM-520 1159q0 38 -47 47q-38 0 -47 -47q0 -18 14 -33q5 -5 12.5 -8.5t20.5 -5.5q38 0 47 47z" />
    <glyph glyph-name="maitholowleftthai" unicode="&#x2021;" 
d="M-100 1235q0 -79 -29 -139t-86 -105q-54 -40 -121.5 -60t-152.5 -20h-21h-39l-22 4l-45 7q-8 0 -15.5 2t-25.5 8q37 17 57 36t33 50q-30 0 -57.5 10t-48.5 28.5t-33.5 44t-12.5 56.5q0 29 10.5 52t36.5 46q43 43 107 43q37 0 67 -11.5t51.5 -31.5t33.5 -46.5t12 -57.5
q0 -29 -4.5 -56.5t-12.5 -52.5q67 14 115 68q43 55 43 125h160zM-520 1159q0 38 -47 47q-38 0 -47 -47q0 -18 14 -33q5 -5 12.5 -8.5t20.5 -5.5q38 0 47 47z" />
    <glyph glyph-name="maitrilowleftthai" 
d="M-98 1214q0 -67 -23 -121t-64.5 -92t-100 -58.5t-130.5 -20.5q5 8 10 22.5t13 36.5l8 72q0 32 -12 65q-13 30 -27 33l-12 -6q-5 -2 -12.5 -7t-12.5 -10l-26 -14l-23 -6q-8 0 -21.5 6.5t-33.5 20.5l-33 18l-23 10q-11 0 -26 -18q38 -6 67 -41q27 -33 27 -72q0 -46 -39 -82
q-41 -35 -92 -35q-26 0 -50.5 9.5t-43.5 27.5t-31 44.5t-12 60.5q0 85 73 162q38 37 68.5 56t56.5 19q19 0 64 -32l49 -31l45 31q40 30 62 30q20 0 44 -13.5t50 -41.5q49 -58 49 -121q0 -48 -12 -82q13 3 32 49q7 20 10 42.5t3 45.5q0 31 -6 57.5t-17 49.5h148v-23l3 -7.5
t1 -4.5v-29zM-633 1034q0 17 -12 29.5t-35 17.5q-38 0 -47 -47q0 -18 14 -33q5 -5 13 -8.5t20 -5.5q38 0 47 47z" />
    <glyph glyph-name="maitrilowleftthai" unicode="&#xf707;" 
d="M-98 1214q0 -67 -23 -121t-64.5 -92t-100 -58.5t-130.5 -20.5q5 8 10 22.5t13 36.5l8 72q0 32 -12 65q-13 30 -27 33l-12 -6q-5 -2 -12.5 -7t-12.5 -10l-26 -14l-23 -6q-8 0 -21.5 6.5t-33.5 20.5l-33 18l-23 10q-11 0 -26 -18q38 -6 67 -41q27 -33 27 -72q0 -46 -39 -82
q-41 -35 -92 -35q-26 0 -50.5 9.5t-43.5 27.5t-31 44.5t-12 60.5q0 85 73 162q38 37 68.5 56t56.5 19q19 0 64 -32l49 -31l45 31q40 30 62 30q20 0 44 -13.5t50 -41.5q49 -58 49 -121q0 -48 -12 -82q13 3 32 49q7 20 10 42.5t3 45.5q0 31 -6 57.5t-17 49.5h148v-23l3 -7.5
t1 -4.5v-29zM-633 1034q0 17 -12 29.5t-35 17.5q-38 0 -47 -47q0 -18 14 -33q5 -5 13 -8.5t20 -5.5q38 0 47 47z" />
    <glyph glyph-name="maitrilowleftthai" unicode="&#xf08d;" 
d="M-98 1214q0 -67 -23 -121t-64.5 -92t-100 -58.5t-130.5 -20.5q5 8 10 22.5t13 36.5l8 72q0 32 -12 65q-13 30 -27 33l-12 -6q-5 -2 -12.5 -7t-12.5 -10l-26 -14l-23 -6q-8 0 -21.5 6.5t-33.5 20.5l-33 18l-23 10q-11 0 -26 -18q38 -6 67 -41q27 -33 27 -72q0 -46 -39 -82
q-41 -35 -92 -35q-26 0 -50.5 9.5t-43.5 27.5t-31 44.5t-12 60.5q0 85 73 162q38 37 68.5 56t56.5 19q19 0 64 -32l49 -31l45 31q40 30 62 30q20 0 44 -13.5t50 -41.5q49 -58 49 -121q0 -48 -12 -82q13 3 32 49q7 20 10 42.5t3 45.5q0 31 -6 57.5t-17 49.5h148v-23l3 -7.5
t1 -4.5v-29zM-633 1034q0 17 -12 29.5t-35 17.5q-38 0 -47 -47q0 -18 14 -33q5 -5 13 -8.5t20 -5.5q38 0 47 47z" />
    <glyph glyph-name="maitrilowleftthai" unicode="&#x2c6;" 
d="M-98 1214q0 -67 -23 -121t-64.5 -92t-100 -58.5t-130.5 -20.5q5 8 10 22.5t13 36.5l8 72q0 32 -12 65q-13 30 -27 33l-12 -6q-5 -2 -12.5 -7t-12.5 -10l-26 -14l-23 -6q-8 0 -21.5 6.5t-33.5 20.5l-33 18l-23 10q-11 0 -26 -18q38 -6 67 -41q27 -33 27 -72q0 -46 -39 -82
q-41 -35 -92 -35q-26 0 -50.5 9.5t-43.5 27.5t-31 44.5t-12 60.5q0 85 73 162q38 37 68.5 56t56.5 19q19 0 64 -32l49 -31l45 31q40 30 62 30q20 0 44 -13.5t50 -41.5q49 -58 49 -121q0 -48 -12 -82q13 3 32 49q7 20 10 42.5t3 45.5q0 31 -6 57.5t-17 49.5h148v-23l3 -7.5
t1 -4.5v-29zM-633 1034q0 17 -12 29.5t-35 17.5q-38 0 -47 -47q0 -18 14 -33q5 -5 13 -8.5t20 -5.5q38 0 47 47z" />
    <glyph glyph-name="maichattawalowleftthai" 
d="M-428 1057v-115h-164v115h-123v119h123v114h164v-114h123v-119h-123z" />
    <glyph glyph-name="maichattawalowleftthai" unicode="&#xf708;" 
d="M-428 1057v-115h-164v115h-123v119h123v114h164v-114h123v-119h-123z" />
    <glyph glyph-name="maichattawalowleftthai" unicode="&#x2030;" 
d="M-428 1057v-115h-164v115h-123v119h123v114h164v-114h123v-119h-123z" />
    <glyph glyph-name="thanthakhatlowleftthai" 
d="M-76 1376q0 -97 -49 -155q-25 -26 -57 -42t-70 -16q-9 0 -18 1t-19 3l-43 17l-45 16l-35 8q-36 0 -57 -18q-20 -13 -29 -41l11 6l18 10q18 6 39 6h12t19.5 -2.5t26 -9.5t30.5 -22q37 -34 37 -88q0 -53 -43 -93q-48 -34 -111 -34q-68 0 -123 43q-61 48 -61 131
q0 172 170 213l47 4q35 0 70 -6l69 -13q20 0 32.5 15.5t12.5 44.5v13q0 6 -2 9h168zM-395 1053q0 45 -45 45t-45 -45t45 -45t45 45z" />
    <glyph glyph-name="thanthakhatlowleftthai" unicode="&#xf709;" 
d="M-76 1376q0 -97 -49 -155q-25 -26 -57 -42t-70 -16q-9 0 -18 1t-19 3l-43 17l-45 16l-35 8q-36 0 -57 -18q-20 -13 -29 -41l11 6l18 10q18 6 39 6h12t19.5 -2.5t26 -9.5t30.5 -22q37 -34 37 -88q0 -53 -43 -93q-48 -34 -111 -34q-68 0 -123 43q-61 48 -61 131
q0 172 170 213l47 4q35 0 70 -6l69 -13q20 0 32.5 15.5t12.5 44.5v13q0 6 -2 9h168zM-395 1053q0 45 -45 45t-45 -45t45 -45t45 45z" />
    <glyph glyph-name="thanthakhatlowleftthai" unicode="&#x160;" 
d="M-76 1376q0 -97 -49 -155q-25 -26 -57 -42t-70 -16q-9 0 -18 1t-19 3l-43 17l-45 16l-35 8q-36 0 -57 -18q-20 -13 -29 -41l11 6l18 10q18 6 39 6h12t19.5 -2.5t26 -9.5t30.5 -22q37 -34 37 -88q0 -53 -43 -93q-48 -34 -111 -34q-68 0 -123 43q-61 48 -61 131
q0 172 170 213l47 4q35 0 70 -6l69 -13q20 0 32.5 15.5t12.5 44.5v13q0 6 -2 9h168zM-395 1053q0 45 -45 45t-45 -45t45 -45t45 45z" />
    <glyph glyph-name="maieklowrightthai" 
d="M-244 942v266h164v-266h-164z" />
    <glyph glyph-name="maieklowrightthai" unicode="&#xf70a;" 
d="M-244 942v266h164v-266h-164z" />
    <glyph glyph-name="maieklowrightthai" unicode="&#x2039;" 
d="M-244 942v266h164v-266h-164z" />
    <glyph glyph-name="maitholowrightthai" 
d="M18 1235q0 -79 -27.5 -139t-84.5 -105q-54 -40 -122 -60t-153 -20h-20h-39l-23 4l-49 7l-37 10q68 27 91 86q-30 0 -57.5 10t-48.5 28.5t-33.5 44t-12.5 56.5q0 29 10.5 52t36.5 46q43 43 107 43q37 0 67 -11.5t51.5 -31.5t33 -46.5t11.5 -57.5l-4 -55q-2 -14 -4.5 -27
t-7.5 -27q67 14 115 68q43 60 43 125h157zM-399 1159q0 19 -15 33q-5 5 -13 8t-19 6q-37 0 -48 -47q0 -17 15 -33q5 -5 13.5 -8.5t19.5 -5.5q18 0 32 14q12 17 15 33z" />
    <glyph glyph-name="maitholowrightthai" unicode="&#xf70b;" 
d="M18 1235q0 -79 -27.5 -139t-84.5 -105q-54 -40 -122 -60t-153 -20h-20h-39l-23 4l-49 7l-37 10q68 27 91 86q-30 0 -57.5 10t-48.5 28.5t-33.5 44t-12.5 56.5q0 29 10.5 52t36.5 46q43 43 107 43q37 0 67 -11.5t51.5 -31.5t33 -46.5t11.5 -57.5l-4 -55q-2 -14 -4.5 -27
t-7.5 -27q67 14 115 68q43 60 43 125h157zM-399 1159q0 19 -15 33q-5 5 -13 8t-19 6q-37 0 -48 -47q0 -17 15 -33q5 -5 13.5 -8.5t19.5 -5.5q18 0 32 14q12 17 15 33z" />
    <glyph glyph-name="maitholowrightthai" unicode="&#x152;" 
d="M18 1235q0 -79 -27.5 -139t-84.5 -105q-54 -40 -122 -60t-153 -20h-20h-39l-23 4l-49 7l-37 10q68 27 91 86q-30 0 -57.5 10t-48.5 28.5t-33.5 44t-12.5 56.5q0 29 10.5 52t36.5 46q43 43 107 43q37 0 67 -11.5t51.5 -31.5t33 -46.5t11.5 -57.5l-4 -55q-2 -14 -4.5 -27
t-7.5 -27q67 14 115 68q43 60 43 125h157zM-399 1159q0 19 -15 33q-5 5 -13 8t-19 6q-37 0 -48 -47q0 -17 15 -33q5 -5 13.5 -8.5t19.5 -5.5q18 0 32 14q12 17 15 33z" />
    <glyph glyph-name="maitrilowrightthai" 
d="M-4 1214q0 -67 -23 -121t-64.5 -92t-100 -58.5t-130.5 -20.5l11 16l12 43l8 72q0 18 -3 34.5t-8 30t-12 22.5t-16 11l-12 -6q-5 -2 -12.5 -7t-12.5 -10l-26 -14l-23 -6q-8 0 -21.5 6.5t-33.5 20.5l-33 18l-22 10q-12 0 -27 -18q19 -3 36 -14t30 -26.5t20.5 -34.5t7.5 -38
q0 -46 -39 -82q-41 -35 -92 -35q-26 0 -49.5 9.5t-46.5 27.5q-41 38 -41 105q0 81 74 160q71 77 125 77q18 0 63 -32l49 -31q2 0 13.5 7.5t31.5 23.5q40 30 62 30q42 0 94 -55q49 -55 49 -121q0 -48 -12 -82q13 3 33 49q6 20 9 42.5t3 45.5q0 17 -1 31t-3 27q-3 26 -19 49
h148v-23l3 -7.5t1 -4.5v-29zM-539 1034q0 17 -12 29.5t-35 17.5q-18 0 -32 -14q-5 -5 -9 -12.5t-6 -20.5q0 -18 15 -33q5 -5 13 -8.5t19 -5.5q38 0 47 47z" />
    <glyph glyph-name="maitrilowrightthai" unicode="&#xf70c;" 
d="M-4 1214q0 -67 -23 -121t-64.5 -92t-100 -58.5t-130.5 -20.5l11 16l12 43l8 72q0 18 -3 34.5t-8 30t-12 22.5t-16 11l-12 -6q-5 -2 -12.5 -7t-12.5 -10l-26 -14l-23 -6q-8 0 -21.5 6.5t-33.5 20.5l-33 18l-22 10q-12 0 -27 -18q19 -3 36 -14t30 -26.5t20.5 -34.5t7.5 -38
q0 -46 -39 -82q-41 -35 -92 -35q-26 0 -49.5 9.5t-46.5 27.5q-41 38 -41 105q0 81 74 160q71 77 125 77q18 0 63 -32l49 -31q2 0 13.5 7.5t31.5 23.5q40 30 62 30q42 0 94 -55q49 -55 49 -121q0 -48 -12 -82q13 3 33 49q6 20 9 42.5t3 45.5q0 17 -1 31t-3 27q-3 26 -19 49
h148v-23l3 -7.5t1 -4.5v-29zM-539 1034q0 17 -12 29.5t-35 17.5q-18 0 -32 -14q-5 -5 -9 -12.5t-6 -20.5q0 -18 15 -33q5 -5 13 -8.5t19 -5.5q38 0 47 47z" />
    <glyph glyph-name="maichattawalowrightthai" 
d="M-80 1057v-115h-164v115h-123v119h123v114h164v-114h121v-119h-121z" />
    <glyph glyph-name="maichattawalowrightthai" unicode="&#xf70d;" 
d="M-80 1057v-115h-164v115h-123v119h123v114h164v-114h121v-119h-121z" />
    <glyph glyph-name="maichattawalowrightthai" unicode="&#x17d;" 
d="M-80 1057v-115h-164v115h-123v119h123v114h164v-114h121v-119h-121z" />
    <glyph glyph-name="thanthakhatlowrightthai" 
d="M23 1376q0 -95 -48 -155q-23 -26 -55.5 -42t-71.5 -16q-9 0 -18 1t-18 3l-45 19l-35 12l-20 5t-23 5q-33 0 -58 -18q-18 -12 -28 -41q7 7 28 16q22 6 39 6q25 0 48 -9t40 -25t27 -38.5t10 -49.5q0 -56 -43 -93q-48 -34 -110 -34q-68 0 -123 43q-62 48 -62 131
q0 82 45 141q20 26 51.5 43.5t73.5 28.5l47 4q32 0 70 -6l70 -13q18 0 31.5 15.5t13.5 44.5v13q0 6 -2 9h166zM-295 1053q0 45 -45 45t-45 -45t45 -45t45 45z" />
    <glyph glyph-name="thanthakhatlowrightthai" unicode="&#xf70e;" 
d="M23 1376q0 -95 -48 -155q-23 -26 -55.5 -42t-71.5 -16q-9 0 -18 1t-18 3l-45 19l-35 12l-20 5t-23 5q-33 0 -58 -18q-18 -12 -28 -41q7 7 28 16q22 6 39 6q25 0 48 -9t40 -25t27 -38.5t10 -49.5q0 -56 -43 -93q-48 -34 -110 -34q-68 0 -123 43q-62 48 -62 131
q0 82 45 141q20 26 51.5 43.5t73.5 28.5l47 4q32 0 70 -6l70 -13q18 0 31.5 15.5t13.5 44.5v13q0 6 -2 9h166zM-295 1053q0 45 -45 45t-45 -45t45 -45t45 45z" />
    <glyph glyph-name="yoyingnobasethai" horiz-adv-x="1147" 
d="M1065 213q0 -53 -10.5 -93t-36.5 -66.5t-69 -40t-107 -13.5h-391v133h22h16q5 2 9 2h6q19 0 31 8q18 16 18 50v360q0 72 -45 111q-23 20 -50.5 30.5t-62.5 10.5q-28 0 -52 -4.5t-44 -12.5q-17 -6 -33.5 -17t-32.5 -28q25 -12 40.5 -21.5t33.5 -23.5q17 -11 32 -24t26 -27
q-109 -35 -109 -137v-107l18 2q33 0 62.5 -12t51.5 -32.5t35 -49t13 -61.5q0 -19 -2 -32t-8 -30q-9 -25 -37 -51q-23 -23 -53.5 -34t-65.5 -11q-43 0 -73 10t-56 35q-49 47 -49 121v258q0 45 26.5 82t69.5 57q-27 24 -98 51l-65 23q29 46 66.5 82.5t82.5 64.5
q51 29 107 44.5t118 15.5q68 0 126 -18t101 -52t67 -83.5t24 -111.5v-434h67q38 0 58.5 3t34.5 14q24 18 24 77v588h164v-606zM326 150q0 20 -13.5 34.5t-38.5 16.5q-22 0 -36 -15q-12 -8 -15 -36q0 -23 15 -37q10 -12 36 -15q23 0 35 13q6 8 10.5 17t6.5 22z" />
    <glyph glyph-name="yoyingnobasethai" unicode="&#xf70f;" horiz-adv-x="1147" 
d="M1065 213q0 -53 -10.5 -93t-36.5 -66.5t-69 -40t-107 -13.5h-391v133h22h16q5 2 9 2h6q19 0 31 8q18 16 18 50v360q0 72 -45 111q-23 20 -50.5 30.5t-62.5 10.5q-28 0 -52 -4.5t-44 -12.5q-17 -6 -33.5 -17t-32.5 -28q25 -12 40.5 -21.5t33.5 -23.5q17 -11 32 -24t26 -27
q-109 -35 -109 -137v-107l18 2q33 0 62.5 -12t51.5 -32.5t35 -49t13 -61.5q0 -19 -2 -32t-8 -30q-9 -25 -37 -51q-23 -23 -53.5 -34t-65.5 -11q-43 0 -73 10t-56 35q-49 47 -49 121v258q0 45 26.5 82t69.5 57q-27 24 -98 51l-65 23q29 46 66.5 82.5t82.5 64.5
q51 29 107 44.5t118 15.5q68 0 126 -18t101 -52t67 -83.5t24 -111.5v-434h67q38 0 58.5 3t34.5 14q24 18 24 77v588h164v-606zM326 150q0 20 -13.5 34.5t-38.5 16.5q-22 0 -36 -15q-12 -8 -15 -36q0 -23 15 -37q10 -12 36 -15q23 0 35 13q6 8 10.5 17t6.5 22z" />
    <glyph glyph-name="quoteleft" horiz-adv-x="375" 
d="M303 727q0 -34 -12.5 -52.5t-22.5 -27.5q-11 -11 -35 -24q-11 -5 -21.5 -7t-21.5 -2q-24 0 -45.5 9t-38.5 26q-34 39 -34 90q0 75 35.5 144t103.5 114l82 -53q-37 -21 -62 -47l-20 -25l-21 -32q22 0 42.5 -8.5t36.5 -24t25 -36t9 -44.5z" />
    <glyph glyph-name="quoteleft" unicode="&#x2018;" horiz-adv-x="375" 
d="M303 727q0 -34 -12.5 -52.5t-22.5 -27.5q-11 -11 -35 -24q-11 -5 -21.5 -7t-21.5 -2q-24 0 -45.5 9t-38.5 26q-34 39 -34 90q0 75 35.5 144t103.5 114l82 -53q-37 -21 -62 -47l-20 -25l-21 -32q22 0 42.5 -8.5t36.5 -24t25 -36t9 -44.5z" />
    <glyph glyph-name="quoteright" horiz-adv-x="375" 
d="M299 872q0 -75 -36.5 -144t-102.5 -114l-82 54q35 20 60 44.5t42 59.5q-47 0 -80 33q-32 32 -32 80q0 21 7.5 41t24.5 37q39 34 80 34q50 0 84 -34q35 -35 35 -91z" />
    <glyph glyph-name="quoteright" unicode="&#x2019;" horiz-adv-x="375" 
d="M299 872q0 -75 -36.5 -144t-102.5 -114l-82 54q35 20 60 44.5t42 59.5q-47 0 -80 33q-32 32 -32 80q0 21 7.5 41t24.5 37q39 34 80 34q50 0 84 -34q35 -35 35 -91z" />
    <glyph glyph-name="quotedblleft" horiz-adv-x="666" 
d="M596 727q0 -34 -13 -52.5t-22 -27.5q-11 -11 -35 -24q-9 -5 -19.5 -7t-23.5 -2q-24 0 -45.5 9t-38.5 26q-34 39 -34 90q0 75 35.5 142.5t103.5 115.5l82 -53q-35 -21 -62 -47l-20 -25l-21 -32q22 0 42.5 -8.5t36.5 -24t25 -36t9 -44.5zM303 727q0 -34 -12.5 -52.5
t-22.5 -27.5q-11 -11 -35 -24q-11 -5 -21.5 -7t-21.5 -2q-24 0 -45.5 9t-38.5 26q-34 39 -34 90q0 75 35.5 144t103.5 114l82 -53q-37 -21 -62 -47l-20 -25l-21 -32q22 0 42.5 -8.5t36.5 -24t25 -36t9 -44.5z" />
    <glyph glyph-name="quotedblleft" unicode="&#x201c;" horiz-adv-x="666" 
d="M596 727q0 -34 -13 -52.5t-22 -27.5q-11 -11 -35 -24q-9 -5 -19.5 -7t-23.5 -2q-24 0 -45.5 9t-38.5 26q-34 39 -34 90q0 75 35.5 142.5t103.5 115.5l82 -53q-35 -21 -62 -47l-20 -25l-21 -32q22 0 42.5 -8.5t36.5 -24t25 -36t9 -44.5zM303 727q0 -34 -12.5 -52.5
t-22.5 -27.5q-11 -11 -35 -24q-11 -5 -21.5 -7t-21.5 -2q-24 0 -45.5 9t-38.5 26q-34 39 -34 90q0 75 35.5 144t103.5 114l82 -53q-37 -21 -62 -47l-20 -25l-21 -32q22 0 42.5 -8.5t36.5 -24t25 -36t9 -44.5z" />
    <glyph glyph-name="quotedblright" horiz-adv-x="666" 
d="M592 872q0 -75 -37 -145q-20 -37 -42.5 -62.5t-59.5 -50.5l-82 54q17 11 32 21.5t27 23.5l23 26l20 33q-22 0 -42.5 8.5t-36 24t-25 36t-9.5 44.5q0 37 33 78q39 34 80 34q50 0 84 -34q35 -35 35 -91zM299 872q0 -75 -36.5 -144t-102.5 -114l-82 54q35 20 60 44.5
t42 59.5q-47 0 -80 33q-32 32 -32 80q0 21 7.5 41t24.5 37q39 34 80 34q50 0 84 -34q35 -35 35 -91z" />
    <glyph glyph-name="quotedblright" unicode="&#x201d;" horiz-adv-x="666" 
d="M592 872q0 -75 -37 -145q-20 -37 -42.5 -62.5t-59.5 -50.5l-82 54q17 11 32 21.5t27 23.5l23 26l20 33q-22 0 -42.5 8.5t-36 24t-25 36t-9.5 44.5q0 37 33 78q39 34 80 34q50 0 84 -34q35 -35 35 -91zM299 872q0 -75 -36.5 -144t-102.5 -114l-82 54q35 20 60 44.5
t42 59.5q-47 0 -80 33q-32 32 -32 80q0 21 7.5 41t24.5 37q39 34 80 34q50 0 84 -34q35 -35 35 -91z" />
    <glyph glyph-name="bullet" horiz-adv-x="676" 
d="M594 410q0 -104 -76 -181q-72 -75 -180 -75q-103 0 -180 71q-76 72 -76 185q0 107 74 180q33 33 82 55q23 11 47 16t53 5q104 0 180 -76q35 -35 55.5 -80.5t20.5 -99.5z" />
    <glyph glyph-name="bullet" unicode="&#x2022;" horiz-adv-x="676" 
d="M594 410q0 -104 -76 -181q-72 -75 -180 -75q-103 0 -180 71q-76 72 -76 185q0 107 74 180q33 33 82 55q23 11 47 16t53 5q104 0 180 -76q35 -35 55.5 -80.5t20.5 -99.5z" />
    <glyph glyph-name="endash" horiz-adv-x="745" 
d="M0 270v144h745v-144h-745z" />
    <glyph glyph-name="endash" unicode="&#x2013;" horiz-adv-x="745" 
d="M0 270v144h745v-144h-745z" />
    <glyph glyph-name="emdash" horiz-adv-x="1491" 
d="M0 270v144h1491v-144h-1491z" />
    <glyph glyph-name="emdash" unicode="&#x2014;" horiz-adv-x="1491" 
d="M0 270v144h1491v-144h-1491z" />
    <glyph glyph-name="maihanakatleftthai" 
d="M-78 1219q-12 -130 -123 -203q-113 -74 -258 -74q-62 0 -113.5 13t-89 35.5t-58.5 53.5t-21 68q0 30 11.5 56.5t32.5 46t49.5 31t63.5 11.5t61.5 -8.5t51.5 -31.5q41 -38 41 -97l-2 -30q-2 -7 -5.5 -13t-8.5 -14q42 0 74.5 9.5t64.5 29.5q54 34 63 117h166zM-537 1120
q0 17 -12 29.5t-35 17.5q-38 0 -47 -47q0 -18 15 -33q5 -5 13 -8.5t19 -5.5q38 0 47 47z" />
    <glyph glyph-name="maihanakatleftthai" unicode="&#xf710;" 
d="M-78 1219q-12 -130 -123 -203q-113 -74 -258 -74q-62 0 -113.5 13t-89 35.5t-58.5 53.5t-21 68q0 30 11.5 56.5t32.5 46t49.5 31t63.5 11.5t61.5 -8.5t51.5 -31.5q41 -38 41 -97l-2 -30q-2 -7 -5.5 -13t-8.5 -14q42 0 74.5 9.5t64.5 29.5q54 34 63 117h166zM-537 1120
q0 17 -12 29.5t-35 17.5q-38 0 -47 -47q0 -18 15 -33q5 -5 13 -8.5t19 -5.5q38 0 47 47z" />
    <glyph glyph-name="maihanakatleftthai" unicode="&#x2dc;" 
d="M-78 1219q-12 -130 -123 -203q-113 -74 -258 -74q-62 0 -113.5 13t-89 35.5t-58.5 53.5t-21 68q0 30 11.5 56.5t32.5 46t49.5 31t63.5 11.5t61.5 -8.5t51.5 -31.5q41 -38 41 -97l-2 -30q-2 -7 -5.5 -13t-8.5 -14q42 0 74.5 9.5t64.5 29.5q54 34 63 117h166zM-537 1120
q0 17 -12 29.5t-35 17.5q-38 0 -47 -47q0 -18 15 -33q5 -5 13 -8.5t19 -5.5q38 0 47 47z" />
    <glyph glyph-name="nikhahitleftthai" 
d="M-201 1114q0 -77 -53 -133q-14 -14 -29 -23.5t-30 -17.5q-35 -12 -74 -12q-37 0 -69.5 12t-61.5 41q-55 55 -55 133q0 37 14 70.5t39 59t59 41t74 15.5q37 0 70.5 -14.5t59 -39.5t41 -59t15.5 -73zM-315 1114q0 30 -21 51q-14 21 -51 21q-9 0 -16.5 -1t-12.5 -3
q-4 -2 -11 -6.5t-13.5 -12t-12 -19.5t-6.5 -30q0 -18 3.5 -28.5t17.5 -22.5q18 -18 51 -21q30 0 49 19q20 20 23 53z" />
    <glyph glyph-name="nikhahitleftthai" unicode="&#xf711;" 
d="M-201 1114q0 -77 -53 -133q-14 -14 -29 -23.5t-30 -17.5q-35 -12 -74 -12q-37 0 -69.5 12t-61.5 41q-55 55 -55 133q0 37 14 70.5t39 59t59 41t74 15.5q37 0 70.5 -14.5t59 -39.5t41 -59t15.5 -73zM-315 1114q0 30 -21 51q-14 21 -51 21q-9 0 -16.5 -1t-12.5 -3
q-4 -2 -11 -6.5t-13.5 -12t-12 -19.5t-6.5 -30q0 -18 3.5 -28.5t17.5 -22.5q18 -18 51 -21q30 0 49 19q20 20 23 53z" />
    <glyph glyph-name="nikhahitleftthai" unicode="&#x2122;" 
d="M-201 1114q0 -77 -53 -133q-14 -14 -29 -23.5t-30 -17.5q-35 -12 -74 -12q-37 0 -69.5 12t-61.5 41q-55 55 -55 133q0 37 14 70.5t39 59t59 41t74 15.5q37 0 70.5 -14.5t59 -39.5t41 -59t15.5 -73zM-315 1114q0 30 -21 51q-14 21 -51 21q-9 0 -16.5 -1t-12.5 -3
q-4 -2 -11 -6.5t-13.5 -12t-12 -19.5t-6.5 -30q0 -18 3.5 -28.5t17.5 -22.5q18 -18 51 -21q30 0 49 19q20 20 23 53z" />
    <glyph glyph-name="maitaikhuleftthai" 
d="M-260 1374q0 -88 -78 -145q-17 -11 -36 -19t-42 -16q-18 -5 -42.5 -7.5t-53.5 -2.5h-82h-31l-28 -4q-18 0 -49 -25q-11 -9 -17.5 -23t-9.5 -32q0 -41 33 -47l82 94l18 -17l23 -18l18 -8l18 -8q8 17 19 30q9 14 26 25q16 11 35.5 15.5t42.5 4.5q27 0 50.5 -9.5t41 -26
t27.5 -39t10 -49.5q0 -26 -10.5 -48.5t-29 -39.5t-45.5 -27t-60 -10q-51 0 -88 20q-22 8 -40.5 21.5t-35.5 31.5l-51 -63h-68q-34 0 -64 11.5t-52.5 33.5t-36 53.5t-13.5 71.5q0 34 15 67.5t42.5 59t67.5 41.5t90 16h150l33 2q6 2 12 6t14 9q29 21 29 71h166zM-371 1047
q0 36 -47 47q-18 0 -33 -15q-5 -5 -8.5 -13t-5.5 -19q0 -19 13.5 -32.5t33.5 -15.5q18 0 33 15q5 5 8 13.5t6 19.5z" />
    <glyph glyph-name="maitaikhuleftthai" unicode="&#xf712;" 
d="M-260 1374q0 -88 -78 -145q-17 -11 -36 -19t-42 -16q-18 -5 -42.5 -7.5t-53.5 -2.5h-82h-31l-28 -4q-18 0 -49 -25q-11 -9 -17.5 -23t-9.5 -32q0 -41 33 -47l82 94l18 -17l23 -18l18 -8l18 -8q8 17 19 30q9 14 26 25q16 11 35.5 15.5t42.5 4.5q27 0 50.5 -9.5t41 -26
t27.5 -39t10 -49.5q0 -26 -10.5 -48.5t-29 -39.5t-45.5 -27t-60 -10q-51 0 -88 20q-22 8 -40.5 21.5t-35.5 31.5l-51 -63h-68q-34 0 -64 11.5t-52.5 33.5t-36 53.5t-13.5 71.5q0 34 15 67.5t42.5 59t67.5 41.5t90 16h150l33 2q6 2 12 6t14 9q29 21 29 71h166zM-371 1047
q0 36 -47 47q-18 0 -33 -15q-5 -5 -8.5 -13t-5.5 -19q0 -19 13.5 -32.5t33.5 -15.5q18 0 33 15q5 5 8 13.5t6 19.5z" />
    <glyph glyph-name="maitaikhuleftthai" unicode="&#x161;" 
d="M-260 1374q0 -88 -78 -145q-17 -11 -36 -19t-42 -16q-18 -5 -42.5 -7.5t-53.5 -2.5h-82h-31l-28 -4q-18 0 -49 -25q-11 -9 -17.5 -23t-9.5 -32q0 -41 33 -47l82 94l18 -17l23 -18l18 -8l18 -8q8 17 19 30q9 14 26 25q16 11 35.5 15.5t42.5 4.5q27 0 50.5 -9.5t41 -26
t27.5 -39t10 -49.5q0 -26 -10.5 -48.5t-29 -39.5t-45.5 -27t-60 -10q-51 0 -88 20q-22 8 -40.5 21.5t-35.5 31.5l-51 -63h-68q-34 0 -64 11.5t-52.5 33.5t-36 53.5t-13.5 71.5q0 34 15 67.5t42.5 59t67.5 41.5t90 16h150l33 2q6 2 12 6t14 9q29 21 29 71h166zM-371 1047
q0 36 -47 47q-18 0 -33 -15q-5 -5 -8.5 -13t-5.5 -19q0 -19 13.5 -32.5t33.5 -15.5q18 0 33 15q5 5 8 13.5t6 19.5z" />
    <glyph glyph-name="maiekupperleftthai" 
d="M-469 1362v205h164v-205h-164z" />
    <glyph glyph-name="maiekupperleftthai" unicode="&#xf713;" 
d="M-469 1362v205h164v-205h-164z" />
    <glyph glyph-name="maiekupperleftthai" unicode="&#x203a;" 
d="M-469 1362v205h164v-205h-164z" />
    <glyph glyph-name="maithoupperleftthai" 
d="M-145 1632q0 -140 -103 -217q-93 -72 -241 -72h-43q-11 2 -17.5 2.5t-11.5 2.5q-17 2 -37 5.5t-43 8.5q62 24 80 76q-27 0 -52 9.5t-43.5 26t-30 39.5t-11.5 50q0 24 9 46t32 42q40 37 98 37q31 0 58 -10.5t46 -28.5t30 -42t11 -51l-4 -49q-2 -11 -3.5 -22t-6.5 -25
q33 6 59 22t44.5 39t28 51t9.5 60h142zM-518 1563q0 43 -43 43t-43 -43t43 -43t43 43z" />
    <glyph glyph-name="maithoupperleftthai" unicode="&#xf714;" 
d="M-145 1632q0 -140 -103 -217q-93 -72 -241 -72h-43q-11 2 -17.5 2.5t-11.5 2.5q-17 2 -37 5.5t-43 8.5q62 24 80 76q-27 0 -52 9.5t-43.5 26t-30 39.5t-11.5 50q0 24 9 46t32 42q40 37 98 37q31 0 58 -10.5t46 -28.5t30 -42t11 -51l-4 -49q-2 -11 -3.5 -22t-6.5 -25
q33 6 59 22t44.5 39t28 51t9.5 60h142zM-518 1563q0 43 -43 43t-43 -43t43 -43t43 43z" />
    <glyph glyph-name="maithoupperleftthai" unicode="&#x153;" 
d="M-145 1632q0 -140 -103 -217q-93 -72 -241 -72h-43q-11 2 -17.5 2.5t-11.5 2.5q-17 2 -37 5.5t-43 8.5q62 24 80 76q-27 0 -52 9.5t-43.5 26t-30 39.5t-11.5 50q0 24 9 46t32 42q40 37 98 37q31 0 58 -10.5t46 -28.5t30 -42t11 -51l-4 -49q-2 -11 -3.5 -22t-6.5 -25
q33 6 59 22t44.5 39t28 51t9.5 60h142zM-518 1563q0 43 -43 43t-43 -43t43 -43t43 43z" />
    <glyph glyph-name="maitriupperleftthai" 
d="M-115 1591q0 -55 -18 -98.5t-51 -74t-80 -46.5t-105 -16l17 49l6 27l2 30q0 28 -10 51q-10 24 -21 27q-3 -2 -4 -2q-2 0 -4 -2q-5 -3 -10.5 -6t-12.5 -8l-20 -13l-18 -4q-5 0 -9.5 1t-9.5 3l-24 19q-13 8 -23.5 13.5t-21.5 8.5q-3 -2 -5 -2q-9 -3 -18 -12q76 -12 76 -90
q0 -19 -6 -35t-23 -33q-17 -14 -36.5 -20t-39.5 -6t-39 7.5t-36 22.5q-35 32 -35 82q0 35 13.5 66.5t45.5 62.5q56 62 100 62q8 0 21 -6.5t33 -20.5l30 -20l7 -4q6 0 36 24q31 25 50 25q33 0 75 -45q39 -45 39 -97v-14q0 -8 -2 -23.5t-8 -27.5q9 6 25 39q5 14 7.5 34t2.5 40
v34l-2 23q-2 6 -6 12t-9 14h117zM-543 1446q0 17 -11.5 28t-25.5 11q-12 0 -25 -11t-13 -28q0 -11 12 -27q7 -7 26 -10q14 0 27 10l6 13z" />
    <glyph glyph-name="maitriupperleftthai" unicode="&#xf715;" 
d="M-115 1591q0 -55 -18 -98.5t-51 -74t-80 -46.5t-105 -16l17 49l6 27l2 30q0 28 -10 51q-10 24 -21 27q-3 -2 -4 -2q-2 0 -4 -2q-5 -3 -10.5 -6t-12.5 -8l-20 -13l-18 -4q-5 0 -9.5 1t-9.5 3l-24 19q-13 8 -23.5 13.5t-21.5 8.5q-3 -2 -5 -2q-9 -3 -18 -12q76 -12 76 -90
q0 -19 -6 -35t-23 -33q-17 -14 -36.5 -20t-39.5 -6t-39 7.5t-36 22.5q-35 32 -35 82q0 35 13.5 66.5t45.5 62.5q56 62 100 62q8 0 21 -6.5t33 -20.5l30 -20l7 -4q6 0 36 24q31 25 50 25q33 0 75 -45q39 -45 39 -97v-14q0 -8 -2 -23.5t-8 -27.5q9 6 25 39q5 14 7.5 34t2.5 40
v34l-2 23q-2 6 -6 12t-9 14h117zM-543 1446q0 17 -11.5 28t-25.5 11q-12 0 -25 -11t-13 -28q0 -11 12 -27q7 -7 26 -10q14 0 27 10l6 13z" />
    <glyph glyph-name="maichattawaupperleftthai" 
d="M-317 1458v-96h-140v96h-104v103h104v96h140v-96h104v-103h-104z" />
    <glyph glyph-name="maichattawaupperleftthai" unicode="&#xf716;" 
d="M-317 1458v-96h-140v96h-104v103h104v96h140v-96h104v-103h-104z" />
    <glyph glyph-name="maichattawaupperleftthai" unicode="&#x17e;" 
d="M-317 1458v-96h-140v96h-104v103h104v96h140v-96h104v-103h-104z" />
    <glyph glyph-name="thanthakhatupperleftthai" 
d="M-164 1683q0 -80 -38.5 -125t-100.5 -45q-6 0 -12.5 1.5t-14.5 3.5l-39 14q-39 18 -63 18q-14 0 -23.5 -4t-21.5 -12q-14 -9 -23 -33q17 19 54 19q20 0 37 -7.5t34 -21.5q29 -24 29 -70q0 -24 -10 -42.5t-27 -31t-39 -19.5t-47 -7q-56 0 -100 37q-47 36 -47 102t36 113
q33 42 99 57l37 2q26 0 61 -6l31 -4l20 -4q16 0 31 18q2 5 3 12t1 15v20h133zM-418 1434q-2 8 -8 14t-29 12q-37 0 -37 -35q0 -36 37 -36t37 36v9z" />
    <glyph glyph-name="thanthakhatupperleftthai" unicode="&#xf717;" 
d="M-164 1683q0 -80 -38.5 -125t-100.5 -45q-6 0 -12.5 1.5t-14.5 3.5l-39 14q-39 18 -63 18q-14 0 -23.5 -4t-21.5 -12q-14 -9 -23 -33q17 19 54 19q20 0 37 -7.5t34 -21.5q29 -24 29 -70q0 -24 -10 -42.5t-27 -31t-39 -19.5t-47 -7q-56 0 -100 37q-47 36 -47 102t36 113
q33 42 99 57l37 2q26 0 61 -6l31 -4l20 -4q16 0 31 18q2 5 3 12t1 15v20h133zM-418 1434q-2 8 -8 14t-29 12q-37 0 -37 -35q0 -36 37 -36t37 36v9z" />
    <glyph glyph-name="thanthakhatupperleftthai" unicode="&#x178;" 
d="M-164 1683q0 -80 -38.5 -125t-100.5 -45q-6 0 -12.5 1.5t-14.5 3.5l-39 14q-39 18 -63 18q-14 0 -23.5 -4t-21.5 -12q-14 -9 -23 -33q17 19 54 19q20 0 37 -7.5t34 -21.5q29 -24 29 -70q0 -24 -10 -42.5t-27 -31t-39 -19.5t-47 -7q-56 0 -100 37q-47 36 -47 102t36 113
q33 42 99 57l37 2q26 0 61 -6l31 -4l20 -4q16 0 31 18q2 5 3 12t1 15v20h133zM-418 1434q-2 8 -8 14t-29 12q-37 0 -37 -35q0 -36 37 -36t37 36v9z" />
    <glyph glyph-name="uni00A0" unicode="&#xa0;" horiz-adv-x="926" 
 />
    <glyph glyph-name="uni00A0" unicode="&#xe00;" horiz-adv-x="926" 
 />
    <glyph glyph-name="kokaithai" unicode="&#xa1;" horiz-adv-x="799" 
d="M553 0v553q0 72 -45 111q-23 20 -50.5 30.5t-62.5 10.5q-28 0 -52 -4.5t-44 -12.5q-17 -6 -33.5 -17t-32.5 -28q25 -12 40.5 -21.5t33.5 -23.5q17 -11 32 -24t26 -27q-109 -35 -109 -137v-410h-164v416q0 45 26.5 82t69.5 57q-27 24 -98 51l-65 23q29 46 66.5 82.5
t82.5 64.5q51 29 107 44.5t118 15.5q68 0 126 -18t101 -52t67 -83.5t24 -111.5v-571h-164z" />
    <glyph glyph-name="kokaithai" unicode="&#xe01;" horiz-adv-x="799" 
d="M553 0v553q0 72 -45 111q-23 20 -50.5 30.5t-62.5 10.5q-28 0 -52 -4.5t-44 -12.5q-17 -6 -33.5 -17t-32.5 -28q25 -12 40.5 -21.5t33.5 -23.5q17 -11 32 -24t26 -27q-109 -35 -109 -137v-410h-164v416q0 45 26.5 82t69.5 57q-27 24 -98 51l-65 23q29 46 66.5 82.5
t82.5 64.5q51 29 107 44.5t118 15.5q68 0 126 -18t101 -52t67 -83.5t24 -111.5v-571h-164z" />
    <glyph glyph-name="khokhaithai" unicode="&#xa2;" horiz-adv-x="819" 
d="M737 207q0 -31 -2 -51t-10 -43q-12 -54 -61.5 -83.5t-149.5 -29.5h-340v129q71 0 92 12q21 15 21 52v251q0 29 75 107q37 36 37 72q0 33 -30 57q-14 9 -27 12l-27 4h-8q27 -37 27 -86q0 -32 -13.5 -60t-36.5 -49t-53.5 -33.5t-64.5 -12.5t-64 11.5t-52.5 32t-36 49
t-13.5 62.5q0 25 5.5 45t19.5 43q28 39 100 74q5 2 18.5 7.5t29.5 11.5t32.5 12l27.5 10q31 8 55.5 12t43.5 4q35 0 68.5 -15t68.5 -50q70 -67 70 -143q0 -43 -45 -95q-43 -44 -43 -90v-303q68 0 96 19q26 20 26 75v592h164v-612zM217 608q0 23 -12.5 34.5t-38.5 16.5
q-23 0 -34.5 -12.5t-16.5 -38.5q0 -22 14 -37q5 -5 14 -8.5t23 -5.5q23 0 34.5 12.5t16.5 38.5z" />
    <glyph glyph-name="khokhaithai" unicode="&#xe02;" horiz-adv-x="819" 
d="M737 207q0 -31 -2 -51t-10 -43q-12 -54 -61.5 -83.5t-149.5 -29.5h-340v129q71 0 92 12q21 15 21 52v251q0 29 75 107q37 36 37 72q0 33 -30 57q-14 9 -27 12l-27 4h-8q27 -37 27 -86q0 -32 -13.5 -60t-36.5 -49t-53.5 -33.5t-64.5 -12.5t-64 11.5t-52.5 32t-36 49
t-13.5 62.5q0 25 5.5 45t19.5 43q28 39 100 74q5 2 18.5 7.5t29.5 11.5t32.5 12l27.5 10q31 8 55.5 12t43.5 4q35 0 68.5 -15t68.5 -50q70 -67 70 -143q0 -43 -45 -95q-43 -44 -43 -90v-303q68 0 96 19q26 20 26 75v592h164v-612zM217 608q0 23 -12.5 34.5t-38.5 16.5
q-23 0 -34.5 -12.5t-16.5 -38.5q0 -22 14 -37q5 -5 14 -8.5t23 -5.5q23 0 34.5 12.5t16.5 38.5z" />
    <glyph glyph-name="khokhuatthai" unicode="&#xa3;" horiz-adv-x="852" 
d="M770 207q0 -56 -10 -95t-34.5 -64t-67 -36.5t-107.5 -11.5h-385v129q78 0 113 12q30 16 30 62v254q0 23 82 108q39 39 39 78q0 6 -6.5 19t-20.5 18h-4q-8 -4 -16 -12l-27 -29q-20 26 -55 47l8 -35q6 -18 6 -43q0 -65 -49 -110q-11 -11 -24.5 -19t-30.5 -14
q-24 -12 -64 -12q-35 0 -65 11.5t-52 32t-35 49t-13 62.5v19q0 9 2.5 18.5t7.5 22.5t16 32q14 20 32 38t50 36l37 19l47 18q49 18 68 18q7 0 22 -6l29 -16q38 -19 55 -39l45 41q13 8 23 12.5t18 7.5q44 0 98 -61q58 -61 58 -121q0 -40 -78 -133q-39 -45 -39 -82v-299h12
q42 0 62.5 3t34.5 14q24 18 24 77v592h164v-612zM199 608q0 23 -13 34t-39 17q-20 0 -33 -12.5t-18 -38.5q0 -22 15 -37q5 -5 13.5 -8.5t22.5 -5.5q23 0 35 12.5t17 38.5z" />
    <glyph glyph-name="khokhuatthai" unicode="&#xe03;" horiz-adv-x="852" 
d="M770 207q0 -56 -10 -95t-34.5 -64t-67 -36.5t-107.5 -11.5h-385v129q78 0 113 12q30 16 30 62v254q0 23 82 108q39 39 39 78q0 6 -6.5 19t-20.5 18h-4q-8 -4 -16 -12l-27 -29q-20 26 -55 47l8 -35q6 -18 6 -43q0 -65 -49 -110q-11 -11 -24.5 -19t-30.5 -14
q-24 -12 -64 -12q-35 0 -65 11.5t-52 32t-35 49t-13 62.5v19q0 9 2.5 18.5t7.5 22.5t16 32q14 20 32 38t50 36l37 19l47 18q49 18 68 18q7 0 22 -6l29 -16q38 -19 55 -39l45 41q13 8 23 12.5t18 7.5q44 0 98 -61q58 -61 58 -121q0 -40 -78 -133q-39 -45 -39 -82v-299h12
q42 0 62.5 3t34.5 14q24 18 24 77v592h164v-612zM199 608q0 23 -13 34t-39 17q-20 0 -33 -12.5t-18 -38.5q0 -22 15 -37q5 -5 13.5 -8.5t22.5 -5.5q23 0 35 12.5t17 38.5z" />
    <glyph glyph-name="khokhwaithai" unicode="&#xa4;" horiz-adv-x="848" 
d="M602 0v526q0 75 -45 123q-50 56 -143 56q-87 0 -146 -50q-55 -45 -55 -116v-50l2 -34l8 -45l2 -56v-86l23 142l6 30l8 31q2 11 3.5 20t6.5 17l11 18q45 92 147 92q31 0 58 -10t46 -28t30 -44t11 -57q0 -30 -10.5 -56t-29 -44.5t-45.5 -29.5t-60 -11l-29 2l-36 12
q-8 -26 -20.5 -68t-29.5 -102l-43 -182h-166v150q0 23 -1.5 45.5t-6.5 44.5q-3 23 -7.5 50t-12.5 58q-29 122 -29 191q0 120 101 209q49 42 118.5 65t151.5 23q156 0 256 -86q45 -41 67.5 -91.5t22.5 -113.5v-545h-164zM481 477q0 23 -12.5 34.5t-38.5 16.5
q-23 0 -34.5 -12.5t-16.5 -38.5q0 -22 14 -37q5 -5 14 -8.5t23 -5.5q23 0 34.5 12.5t16.5 38.5z" />
    <glyph glyph-name="khokhwaithai" unicode="&#xe04;" horiz-adv-x="848" 
d="M602 0v526q0 75 -45 123q-50 56 -143 56q-87 0 -146 -50q-55 -45 -55 -116v-50l2 -34l8 -45l2 -56v-86l23 142l6 30l8 31q2 11 3.5 20t6.5 17l11 18q45 92 147 92q31 0 58 -10t46 -28t30 -44t11 -57q0 -30 -10.5 -56t-29 -44.5t-45.5 -29.5t-60 -11l-29 2l-36 12
q-8 -26 -20.5 -68t-29.5 -102l-43 -182h-166v150q0 23 -1.5 45.5t-6.5 44.5q-3 23 -7.5 50t-12.5 58q-29 122 -29 191q0 120 101 209q49 42 118.5 65t151.5 23q156 0 256 -86q45 -41 67.5 -91.5t22.5 -113.5v-545h-164zM481 477q0 23 -12.5 34.5t-38.5 16.5
q-23 0 -34.5 -12.5t-16.5 -38.5q0 -22 14 -37q5 -5 14 -8.5t23 -5.5q23 0 34.5 12.5t16.5 38.5z" />
    <glyph glyph-name="khokhonthai" unicode="&#xa5;" horiz-adv-x="848" 
d="M602 0v584v22q0 6 -3 13.5t-7 16t-8 15.5t-6 11l-11 10q-5 5 -9.5 9t-12.5 9l-119 -86l-135 88q-14 -5 -26.5 -18t-26.5 -33q-19 -39 -19 -80v-31l4 -45l6 -65l4 -47v-21l-2 -18v-19v-20v-14l-2 -19l27 144l6 34q9 29 21 45q51 93 147 93q30 0 56.5 -10t46 -28.5
t31 -44.5t11.5 -57q0 -30 -10.5 -56t-29 -44.5t-45.5 -29.5t-60 -11l-29 2l-36 12l-25 -61l-27 -84l-41 -166h-166v147q0 21 -2 45t-4.5 45.5t-4.5 38t-3 23.5q-2 8 -4.5 24t-7.5 39q-25 134 -25 193q0 109 76 188q36 36 86 62q23 11 50 17.5t59 11.5l98 -66l104 68
q122 -25 187 -93q11 -14 21 -29.5t18 -35.5q12 -38 12 -80v-598h-164zM481 436q0 23 -12.5 34.5t-38.5 16.5q-23 0 -34.5 -12.5t-16.5 -38.5q0 -22 14 -37q5 -5 14 -8.5t23 -5.5q23 0 34.5 12.5t16.5 38.5z" />
    <glyph glyph-name="khokhonthai" unicode="&#xe05;" horiz-adv-x="848" 
d="M602 0v584v22q0 6 -3 13.5t-7 16t-8 15.5t-6 11l-11 10q-5 5 -9.5 9t-12.5 9l-119 -86l-135 88q-14 -5 -26.5 -18t-26.5 -33q-19 -39 -19 -80v-31l4 -45l6 -65l4 -47v-21l-2 -18v-19v-20v-14l-2 -19l27 144l6 34q9 29 21 45q51 93 147 93q30 0 56.5 -10t46 -28.5
t31 -44.5t11.5 -57q0 -30 -10.5 -56t-29 -44.5t-45.5 -29.5t-60 -11l-29 2l-36 12l-25 -61l-27 -84l-41 -166h-166v147q0 21 -2 45t-4.5 45.5t-4.5 38t-3 23.5q-2 8 -4.5 24t-7.5 39q-25 134 -25 193q0 109 76 188q36 36 86 62q23 11 50 17.5t59 11.5l98 -66l104 68
q122 -25 187 -93q11 -14 21 -29.5t18 -35.5q12 -38 12 -80v-598h-164zM481 436q0 23 -12.5 34.5t-38.5 16.5q-23 0 -34.5 -12.5t-16.5 -38.5q0 -22 14 -37q5 -5 14 -8.5t23 -5.5q23 0 34.5 12.5t16.5 38.5z" />
    <glyph glyph-name="khorakhangthai" unicode="&#xa6;" horiz-adv-x="936" 
d="M854 133q0 -133 -125 -133h-55q-12 34 -33 61q-19 31 -42 54.5t-54 46.5q-14 8 -29.5 16.5t-34.5 16.5v-50q0 -32 -11 -59t-32 -47t-51.5 -31.5t-69.5 -11.5q-20 0 -35.5 1.5t-33.5 6.5q-32 8 -62 37q-55 50 -55 127q0 33 15 62.5t40.5 52.5t59 38.5t71.5 20.5v113
q0 32 37 69q86 80 86 119q0 6 -7 19t-19 18q-6 0 -21 -12l-26 -29q-11 14 -25 26t-31 21l11 -39q2 -11 3 -21t1 -18q0 -32 -13.5 -60t-36.5 -49t-53.5 -33.5t-64.5 -12.5t-64 11.5t-52.5 32t-36 49t-13.5 62.5q1 12 0.5 20t1 17.5t7 22t17.5 32.5q14 20 32 38t50 36l45 23
l39 14q49 18 68 18q5 0 20 -6q5 -2 14 -6t17 -10q33 -17 55 -39l45 41q13 8 23 12.5t18 7.5q44 0 99 -61q57 -60 57 -121q0 -41 -80 -133q-17 -20 -28 -42.5t-11 -39.5v-96q32 -6 58.5 -15.5t52.5 -21.5q25 -12 49 -29t49 -39v588h164v-686zM209 608q0 23 -12.5 34.5
t-38.5 16.5q-23 0 -37 -14q-7 -7 -15 -37q0 -18 15 -37q5 -5 14 -8.5t23 -5.5q22 0 37 14q5 5 8.5 14t5.5 23zM319 229q-12 -2 -23 -7t-22 -13q-13 -10 -16 -41q0 -18 12 -33q16 -12 25 -12q24 0 24 33v73z" />
    <glyph glyph-name="khorakhangthai" unicode="&#xe06;" horiz-adv-x="936" 
d="M854 133q0 -133 -125 -133h-55q-12 34 -33 61q-19 31 -42 54.5t-54 46.5q-14 8 -29.5 16.5t-34.5 16.5v-50q0 -32 -11 -59t-32 -47t-51.5 -31.5t-69.5 -11.5q-20 0 -35.5 1.5t-33.5 6.5q-32 8 -62 37q-55 50 -55 127q0 33 15 62.5t40.5 52.5t59 38.5t71.5 20.5v113
q0 32 37 69q86 80 86 119q0 6 -7 19t-19 18q-6 0 -21 -12l-26 -29q-11 14 -25 26t-31 21l11 -39q2 -11 3 -21t1 -18q0 -32 -13.5 -60t-36.5 -49t-53.5 -33.5t-64.5 -12.5t-64 11.5t-52.5 32t-36 49t-13.5 62.5q1 12 0.5 20t1 17.5t7 22t17.5 32.5q14 20 32 38t50 36l45 23
l39 14q49 18 68 18q5 0 20 -6q5 -2 14 -6t17 -10q33 -17 55 -39l45 41q13 8 23 12.5t18 7.5q44 0 99 -61q57 -60 57 -121q0 -41 -80 -133q-17 -20 -28 -42.5t-11 -39.5v-96q32 -6 58.5 -15.5t52.5 -21.5q25 -12 49 -29t49 -39v588h164v-686zM209 608q0 23 -12.5 34.5
t-38.5 16.5q-23 0 -37 -14q-7 -7 -15 -37q0 -18 15 -37q5 -5 14 -8.5t23 -5.5q22 0 37 14q5 5 8.5 14t5.5 23zM319 229q-12 -2 -23 -7t-22 -13q-13 -10 -16 -41q0 -18 12 -33q16 -12 25 -12q24 0 24 33v73z" />
    <glyph glyph-name="ngonguthai" unicode="&#xa7;" horiz-adv-x="694" 
d="M612 193q0 -53 -9.5 -89.5t-32 -59.5t-60 -33.5t-92.5 -10.5h-125q-26 62 -59 125t-68 113q-65 105 -184 231l149 70q23 -25 45 -50.5t45 -54.5l78 -102q17 -25 31 -48t26 -44l47 -90q46 0 46 57v309l-19 -2q-32 0 -62.5 11t-56.5 34q-23 25 -35 52.5t-12 58.5t13 60
t36 51t54 35t67 13q40 0 72 -12q17 -5 31 -13t26 -22q49 -45 49 -120v-469zM481 670q0 20 -12.5 33t-38.5 18q-23 0 -34.5 -12.5t-16.5 -38.5q0 -23 14 -37l15 -8l22 -7q22 0 37 15q8 8 14 37z" />
    <glyph glyph-name="ngonguthai" unicode="&#xe07;" horiz-adv-x="694" 
d="M612 193q0 -53 -9.5 -89.5t-32 -59.5t-60 -33.5t-92.5 -10.5h-125q-26 62 -59 125t-68 113q-65 105 -184 231l149 70q23 -25 45 -50.5t45 -54.5l78 -102q17 -25 31 -48t26 -44l47 -90q46 0 46 57v309l-19 -2q-32 0 -62.5 11t-56.5 34q-23 25 -35 52.5t-12 58.5t13 60
t36 51t54 35t67 13q40 0 72 -12q17 -5 31 -13t26 -22q49 -45 49 -120v-469zM481 670q0 20 -12.5 33t-38.5 18q-23 0 -34.5 -12.5t-16.5 -38.5q0 -23 14 -37l15 -8l22 -7q22 0 37 15q8 8 14 37z" />
    <glyph glyph-name="chochanthai" unicode="&#xa8;" horiz-adv-x="768" 
d="M709 565q0 -86 -58 -266q-26 -87 -43.5 -161.5t-25.5 -137.5h-179l-61 270l-33 -10h-22q-35 0 -64.5 11.5t-52 32.5t-35 50t-12.5 64q0 32 11 58t36 50q50 47 117 47q72 0 116 -43q45 -38 60 -106l22 -123l27 129l31 131q0 47 -47 94q-53 50 -129 50q-68 0 -123 -32
t-78 -100h-166q12 55 43.5 103.5t79.5 83.5t111.5 55.5t140.5 20.5q150 0 248 -88q86 -81 86 -183zM338 418q0 22 -14 37q-5 5 -14 8.5t-23 5.5q-23 0 -34.5 -12.5t-16.5 -38.5q0 -23 14 -37q8 -8 37 -14q11 0 19 3t16 9q13 10 16 39z" />
    <glyph glyph-name="chochanthai" unicode="&#xe08;" horiz-adv-x="768" 
d="M709 565q0 -86 -58 -266q-26 -87 -43.5 -161.5t-25.5 -137.5h-179l-61 270l-33 -10h-22q-35 0 -64.5 11.5t-52 32.5t-35 50t-12.5 64q0 32 11 58t36 50q50 47 117 47q72 0 116 -43q45 -38 60 -106l22 -123l27 129l31 131q0 47 -47 94q-53 50 -129 50q-68 0 -123 -32
t-78 -100h-166q12 55 43.5 103.5t79.5 83.5t111.5 55.5t140.5 20.5q150 0 248 -88q86 -81 86 -183zM338 418q0 22 -14 37q-5 5 -14 8.5t-23 5.5q-23 0 -34.5 -12.5t-16.5 -38.5q0 -23 14 -37q8 -8 37 -14q11 0 19 3t16 9q13 10 16 39z" />
    <glyph glyph-name="chochingthai" unicode="&#xa9;" horiz-adv-x="827" 
d="M823 154q0 -33 -14 -62t-37.5 -50t-55 -33.5t-65.5 -12.5q-54 0 -98 28.5t-64 77.5q-15 -9 -26 -20l-25 -25q-27 -27 -51 -57h-182v240l-19 -2q-34 0 -64 12t-52.5 32.5t-36 49t-13.5 61.5q0 31 13.5 60t37 51.5t54 35.5t65.5 13q81 0 129 -49q50 -47 50 -125v-193l43 33
l57 39q14 8 28 15.5t29 15.5l56 20v254q0 59 -50 103q-24 18 -55.5 28.5t-66.5 10.5q-65 0 -125 -37q-23 -17 -41 -40.5t-29 -54.5h-170q14 59 45 106.5t82 84.5t109 54.5t133 17.5q37 0 69.5 -4.5t61.5 -12.5q56 -14 106 -55q48 -35 71 -84t23 -109v-282q78 -47 78 -135z
M702 158q0 20 -12.5 33t-38.5 18q-22 0 -37 -14q-5 -5 -8.5 -14t-5.5 -23q0 -23 14 -37q5 -5 14 -8t23 -7q22 0 37 15q8 8 14 37zM238 393q0 22 -15 37q-8 8 -37 14q-20 0 -33 -12.5t-18 -38.5q0 -22 15 -37q5 -5 13.5 -8.5t22.5 -5.5q23 0 37 14q12 17 15 37z" />
    <glyph glyph-name="chochingthai" unicode="&#xe09;" horiz-adv-x="827" 
d="M823 154q0 -33 -14 -62t-37.5 -50t-55 -33.5t-65.5 -12.5q-54 0 -98 28.5t-64 77.5q-15 -9 -26 -20l-25 -25q-27 -27 -51 -57h-182v240l-19 -2q-34 0 -64 12t-52.5 32.5t-36 49t-13.5 61.5q0 31 13.5 60t37 51.5t54 35.5t65.5 13q81 0 129 -49q50 -47 50 -125v-193l43 33
l57 39q14 8 28 15.5t29 15.5l56 20v254q0 59 -50 103q-24 18 -55.5 28.5t-66.5 10.5q-65 0 -125 -37q-23 -17 -41 -40.5t-29 -54.5h-170q14 59 45 106.5t82 84.5t109 54.5t133 17.5q37 0 69.5 -4.5t61.5 -12.5q56 -14 106 -55q48 -35 71 -84t23 -109v-282q78 -47 78 -135z
M702 158q0 20 -12.5 33t-38.5 18q-22 0 -37 -14q-5 -5 -8.5 -14t-5.5 -23q0 -23 14 -37q5 -5 14 -8t23 -7q22 0 37 15q8 8 14 37zM238 393q0 22 -15 37q-8 8 -37 14q-20 0 -33 -12.5t-18 -38.5q0 -22 15 -37q5 -5 13.5 -8.5t22.5 -5.5q23 0 37 14q12 17 15 37z" />
    <glyph glyph-name="chochangthai" unicode="&#xaa;" horiz-adv-x="877" 
d="M836 840q0 -89 -37 -158q-38 -59 -94 -80q90 -31 90 -125v-268q0 -107 -50 -160q-23 -25 -67 -37t-107 -12h-401v129q71 0 92 12q8 7 14.5 19.5t6.5 32.5v251q0 29 75 107q37 36 37 72q0 33 -30 57q-14 9 -25 12l-29 4h-8q11 -14 19 -41q5 -11 6.5 -22.5t1.5 -22.5
q0 -32 -13.5 -60t-36.5 -49t-53.5 -33.5t-64.5 -12.5t-64 11.5t-52.5 32t-36 49t-13.5 62.5q0 49 24 88q13 17 38.5 36.5t62.5 37.5l49 21l59 20q31 8 55.5 12t43.5 4q35 0 68.5 -15t68.5 -50q70 -67 70 -143q0 -41 -46 -93q-43 -49 -43 -92v-303h68q36 0 59 4t35.5 14.5
t17.5 29t5 46.5v226q0 75 -82 75v113q26 3 48 15.5t42 33.5q35 44 35 109v14l-4 27h166zM213 608q0 23 -12.5 34.5t-38.5 16.5q-23 0 -34.5 -12.5t-16.5 -38.5q0 -22 14 -37q5 -5 14 -8.5t23 -5.5q22 0 37 14q5 5 8.5 14t5.5 23z" />
    <glyph glyph-name="chochangthai" unicode="&#xe0a;" horiz-adv-x="877" 
d="M836 840q0 -89 -37 -158q-38 -59 -94 -80q90 -31 90 -125v-268q0 -107 -50 -160q-23 -25 -67 -37t-107 -12h-401v129q71 0 92 12q8 7 14.5 19.5t6.5 32.5v251q0 29 75 107q37 36 37 72q0 33 -30 57q-14 9 -25 12l-29 4h-8q11 -14 19 -41q5 -11 6.5 -22.5t1.5 -22.5
q0 -32 -13.5 -60t-36.5 -49t-53.5 -33.5t-64.5 -12.5t-64 11.5t-52.5 32t-36 49t-13.5 62.5q0 49 24 88q13 17 38.5 36.5t62.5 37.5l49 21l59 20q31 8 55.5 12t43.5 4q35 0 68.5 -15t68.5 -50q70 -67 70 -143q0 -41 -46 -93q-43 -49 -43 -92v-303h68q36 0 59 4t35.5 14.5
t17.5 29t5 46.5v226q0 75 -82 75v113q26 3 48 15.5t42 33.5q35 44 35 109v14l-4 27h166zM213 608q0 23 -12.5 34.5t-38.5 16.5q-23 0 -34.5 -12.5t-16.5 -38.5q0 -22 14 -37q5 -5 14 -8.5t23 -5.5q22 0 37 14q5 5 8.5 14t5.5 23z" />
    <glyph glyph-name="sosothai" unicode="&#xab;" horiz-adv-x="922" 
d="M881 840q0 -89 -37 -158q-38 -59 -94 -80q90 -31 90 -125v-268q0 -52 -11 -91t-36.5 -65.5t-69 -39.5t-107.5 -13h-450v129q78 0 113 12q30 16 30 62v254q0 23 82 108q39 39 39 78q0 6 -6.5 19t-20.5 18h-4q-8 -4 -16 -12l-27 -29q-20 26 -55 47l8 -35q6 -18 6 -43
q0 -65 -49 -110q-11 -11 -24.5 -19t-30.5 -14q-24 -12 -64 -12q-35 0 -65 11.5t-52 32t-35 49t-13 62.5v19q0 9 2.5 18.5t7.5 22.5t16 32q14 20 32 38t50 36l37 19l47 18q49 18 68 18q7 0 22 -6l29 -16q38 -19 55 -39l45 41q13 8 23 12.5t18 7.5q44 0 98 -61q58 -61 58 -121
q0 -40 -78 -133q-39 -45 -39 -82v-299h86q36 0 59 4t35.5 14.5t17.5 29t5 46.5v226q0 75 -82 75v113q26 3 48 15.5t42 33.5q35 44 35 109v14l-4 27h166zM199 608q0 23 -13 34t-39 17q-20 0 -33 -12.5t-18 -38.5q0 -22 15 -37q5 -5 13.5 -8.5t22.5 -5.5q23 0 35 12.5t17 38.5
z" />
    <glyph glyph-name="sosothai" unicode="&#xe0b;" horiz-adv-x="922" 
d="M881 840q0 -89 -37 -158q-38 -59 -94 -80q90 -31 90 -125v-268q0 -52 -11 -91t-36.5 -65.5t-69 -39.5t-107.5 -13h-450v129q78 0 113 12q30 16 30 62v254q0 23 82 108q39 39 39 78q0 6 -6.5 19t-20.5 18h-4q-8 -4 -16 -12l-27 -29q-20 26 -55 47l8 -35q6 -18 6 -43
q0 -65 -49 -110q-11 -11 -24.5 -19t-30.5 -14q-24 -12 -64 -12q-35 0 -65 11.5t-52 32t-35 49t-13 62.5v19q0 9 2.5 18.5t7.5 22.5t16 32q14 20 32 38t50 36l37 19l47 18q49 18 68 18q7 0 22 -6l29 -16q38 -19 55 -39l45 41q13 8 23 12.5t18 7.5q44 0 98 -61q58 -61 58 -121
q0 -40 -78 -133q-39 -45 -39 -82v-299h86q36 0 59 4t35.5 14.5t17.5 29t5 46.5v226q0 75 -82 75v113q26 3 48 15.5t42 33.5q35 44 35 109v14l-4 27h166zM199 608q0 23 -13 34t-39 17q-20 0 -33 -12.5t-18 -38.5q0 -22 15 -37q5 -5 13.5 -8.5t22.5 -5.5q23 0 35 12.5t17 38.5
z" />
    <glyph glyph-name="chochoethai" unicode="&#xac;" horiz-adv-x="1176" 
d="M1094 133q0 -133 -125 -133h-51l-29 37l-37 33q-11 12 -27.5 24t-36.5 25q-9 -55 -57 -92q-44 -35 -110 -35q-34 0 -64.5 11.5t-53 31.5t-35.5 48.5t-13 63.5q0 23 6 46t20 43q9 18 31 34q6 7 15 12t26 11v260q0 72 -45 111q-23 20 -50.5 30.5t-62.5 10.5q-28 0 -52 -4.5
t-44 -12.5q-17 -6 -33.5 -17t-32.5 -28q25 -12 40.5 -21.5t33.5 -23.5q17 -11 32 -24t26 -27q-109 -35 -109 -137v-107l18 2q33 0 62.5 -12t51.5 -32.5t35 -49t13 -61.5q0 -19 -2 -32t-8 -30q-9 -25 -37 -51q-23 -23 -53.5 -34t-65.5 -11q-43 0 -73 10t-56 35
q-49 47 -49 121v258q0 45 26.5 82t69.5 57q-27 24 -98 51l-65 23q29 46 66.5 82.5t82.5 64.5q51 29 107 44.5t118 15.5q68 0 126 -18t101 -52t67 -83.5t24 -111.5v-270q21 -5 49 -18t63 -33q36 -20 60.5 -37t40.5 -31v637h164v-686zM672 150q0 22 -15 36q-8 12 -36 15
q-23 0 -37 -15q-12 -8 -15 -36q0 -23 15 -37q11 -12 37 -15q22 0 36 15q12 11 15 37zM326 150q0 20 -13.5 34.5t-38.5 16.5q-22 0 -36 -15q-12 -8 -15 -36q0 -23 15 -37q10 -12 36 -15q23 0 35 13q6 8 10.5 17t6.5 22z" />
    <glyph glyph-name="chochoethai" unicode="&#xe0c;" horiz-adv-x="1176" 
d="M1094 133q0 -133 -125 -133h-51l-29 37l-37 33q-11 12 -27.5 24t-36.5 25q-9 -55 -57 -92q-44 -35 -110 -35q-34 0 -64.5 11.5t-53 31.5t-35.5 48.5t-13 63.5q0 23 6 46t20 43q9 18 31 34q6 7 15 12t26 11v260q0 72 -45 111q-23 20 -50.5 30.5t-62.5 10.5q-28 0 -52 -4.5
t-44 -12.5q-17 -6 -33.5 -17t-32.5 -28q25 -12 40.5 -21.5t33.5 -23.5q17 -11 32 -24t26 -27q-109 -35 -109 -137v-107l18 2q33 0 62.5 -12t51.5 -32.5t35 -49t13 -61.5q0 -19 -2 -32t-8 -30q-9 -25 -37 -51q-23 -23 -53.5 -34t-65.5 -11q-43 0 -73 10t-56 35
q-49 47 -49 121v258q0 45 26.5 82t69.5 57q-27 24 -98 51l-65 23q29 46 66.5 82.5t82.5 64.5q51 29 107 44.5t118 15.5q68 0 126 -18t101 -52t67 -83.5t24 -111.5v-270q21 -5 49 -18t63 -33q36 -20 60.5 -37t40.5 -31v637h164v-686zM672 150q0 22 -15 36q-8 12 -36 15
q-23 0 -37 -15q-12 -8 -15 -36q0 -23 15 -37q11 -12 37 -15q22 0 36 15q12 11 15 37zM326 150q0 20 -13.5 34.5t-38.5 16.5q-22 0 -36 -15q-12 -8 -15 -36q0 -23 15 -37q10 -12 36 -15q23 0 35 13q6 8 10.5 17t6.5 22z" />
    <glyph glyph-name="yoyingthai" unicode="&#xad;" horiz-adv-x="1147" 
d="M1065 213q0 -53 -10.5 -93t-36.5 -66.5t-69 -40t-107 -13.5h-391v133h22h16q5 2 9 2h6q19 0 31 8q18 16 18 50v360q0 72 -45 111q-23 20 -50.5 30.5t-62.5 10.5q-28 0 -52 -4.5t-44 -12.5q-17 -6 -33.5 -17t-32.5 -28q25 -12 40.5 -21.5t33.5 -23.5q17 -11 32 -24t26 -27
q-109 -35 -109 -137v-107l18 2q33 0 62.5 -12t51.5 -32.5t35 -49t13 -61.5q0 -19 -2 -32t-8 -30q-9 -25 -37 -51q-23 -23 -53.5 -34t-65.5 -11q-43 0 -73 10t-56 35q-49 47 -49 121v258q0 45 26.5 82t69.5 57q-27 24 -98 51l-65 23q29 46 66.5 82.5t82.5 64.5
q51 29 107 44.5t118 15.5q68 0 126 -18t101 -52t67 -83.5t24 -111.5v-434h67q38 0 58.5 3t34.5 14q24 18 24 77v588h164v-606zM1077 -190q-18 -23 -36.5 -42.5t-36.5 -33.5q-20 -16 -42 -29t-47 -24q-48 -22 -97.5 -32.5t-100.5 -10.5q-42 0 -76.5 10.5t-60.5 32.5
q-25 23 -38.5 50t-13.5 62q0 30 12 57t33 47t49.5 32t61.5 12q63 0 111 -43q20 -20 32.5 -47t12.5 -58q37 9 75 47q23 17 37 34t25 36zM731 -205q0 38 -47 47q-18 0 -33 -14q-5 -5 -8.5 -12.5t-5.5 -20.5q0 -49 47 -49t47 49zM326 150q0 20 -13.5 34.5t-38.5 16.5
q-22 0 -36 -15q-12 -8 -15 -36q0 -23 15 -37q10 -12 36 -15q23 0 35 13q6 8 10.5 17t6.5 22z" />
    <glyph glyph-name="yoyingthai" unicode="&#xe0d;" horiz-adv-x="1147" 
d="M1065 213q0 -53 -10.5 -93t-36.5 -66.5t-69 -40t-107 -13.5h-391v133h22h16q5 2 9 2h6q19 0 31 8q18 16 18 50v360q0 72 -45 111q-23 20 -50.5 30.5t-62.5 10.5q-28 0 -52 -4.5t-44 -12.5q-17 -6 -33.5 -17t-32.5 -28q25 -12 40.5 -21.5t33.5 -23.5q17 -11 32 -24t26 -27
q-109 -35 -109 -137v-107l18 2q33 0 62.5 -12t51.5 -32.5t35 -49t13 -61.5q0 -19 -2 -32t-8 -30q-9 -25 -37 -51q-23 -23 -53.5 -34t-65.5 -11q-43 0 -73 10t-56 35q-49 47 -49 121v258q0 45 26.5 82t69.5 57q-27 24 -98 51l-65 23q29 46 66.5 82.5t82.5 64.5
q51 29 107 44.5t118 15.5q68 0 126 -18t101 -52t67 -83.5t24 -111.5v-434h67q38 0 58.5 3t34.5 14q24 18 24 77v588h164v-606zM1077 -190q-18 -23 -36.5 -42.5t-36.5 -33.5q-20 -16 -42 -29t-47 -24q-48 -22 -97.5 -32.5t-100.5 -10.5q-42 0 -76.5 10.5t-60.5 32.5
q-25 23 -38.5 50t-13.5 62q0 30 12 57t33 47t49.5 32t61.5 12q63 0 111 -43q20 -20 32.5 -47t12.5 -58q37 9 75 47q23 17 37 34t25 36zM731 -205q0 38 -47 47q-18 0 -33 -14q-5 -5 -8.5 -12.5t-5.5 -20.5q0 -49 47 -49t47 49zM326 150q0 20 -13.5 34.5t-38.5 16.5
q-22 0 -36 -15q-12 -8 -15 -36q0 -23 15 -37q10 -12 36 -15q23 0 35 13q6 8 10.5 17t6.5 22z" />
    <glyph glyph-name="yoyingthai" unicode="&#xde;" horiz-adv-x="1147" 
d="M1065 213q0 -53 -10.5 -93t-36.5 -66.5t-69 -40t-107 -13.5h-391v133h22h16q5 2 9 2h6q19 0 31 8q18 16 18 50v360q0 72 -45 111q-23 20 -50.5 30.5t-62.5 10.5q-28 0 -52 -4.5t-44 -12.5q-17 -6 -33.5 -17t-32.5 -28q25 -12 40.5 -21.5t33.5 -23.5q17 -11 32 -24t26 -27
q-109 -35 -109 -137v-107l18 2q33 0 62.5 -12t51.5 -32.5t35 -49t13 -61.5q0 -19 -2 -32t-8 -30q-9 -25 -37 -51q-23 -23 -53.5 -34t-65.5 -11q-43 0 -73 10t-56 35q-49 47 -49 121v258q0 45 26.5 82t69.5 57q-27 24 -98 51l-65 23q29 46 66.5 82.5t82.5 64.5
q51 29 107 44.5t118 15.5q68 0 126 -18t101 -52t67 -83.5t24 -111.5v-434h67q38 0 58.5 3t34.5 14q24 18 24 77v588h164v-606zM1077 -190q-18 -23 -36.5 -42.5t-36.5 -33.5q-20 -16 -42 -29t-47 -24q-48 -22 -97.5 -32.5t-100.5 -10.5q-42 0 -76.5 10.5t-60.5 32.5
q-25 23 -38.5 50t-13.5 62q0 30 12 57t33 47t49.5 32t61.5 12q63 0 111 -43q20 -20 32.5 -47t12.5 -58q37 9 75 47q23 17 37 34t25 36zM731 -205q0 38 -47 47q-18 0 -33 -14q-5 -5 -8.5 -12.5t-5.5 -20.5q0 -49 47 -49t47 49zM326 150q0 20 -13.5 34.5t-38.5 16.5
q-22 0 -36 -15q-12 -8 -15 -36q0 -23 15 -37q10 -12 36 -15q23 0 35 13q6 8 10.5 17t6.5 22z" />
    <glyph glyph-name="dochadathai" unicode="&#xae;" horiz-adv-x="860" 
d="M778 -236q0 -95 -41 -133q-17 -17 -50 -28t-77 -11h-57l-21 29l-20 25q-9 11 -21 22.5t-26 22.5q-11 -14 -20 -22t-21 -19q-31 -26 -72 -44t-88 -18q-44 0 -82 10t-66.5 29.5t-44.5 47.5t-16 65q0 61 58 119q48 42 116 57l54 4q45 0 92 -12l-4 51h166v-27l2 -38v-33
l-4 -27q24 -14 42.5 -29.5t36.5 -40.5v789q0 67 -45 109q-20 20 -47.5 31.5t-64.5 11.5q-29 0 -53 -4.5t-44 -12.5l-34 -18q-16 -9 -31 -27q81 -40 131 -96q-109 -35 -109 -137v-177q8 -7 11 -20l6 -16q6 -29 6 -45q0 -33 -13 -62.5t-36 -51t-54 -34t-67 -12.5
q-70 0 -121 45q-49 49 -49 115q0 63 45 108q20 20 46.5 33.5t62.5 19.5v103q0 23 6 44t20 40l31 32q6 5 17 11.5t22 11.5q-36 25 -98 51l-66 23q58 93 150 147q51 29 106.5 44.5t118.5 15.5q67 0 125 -18t101 -52t67 -83.5t24 -111.5v-807zM221 152q0 22 -14 36
q-8 12 -37 15q-23 0 -34.5 -12.5t-16.5 -38.5q0 -23 14 -37q8 -12 37 -15q23 0 37 15q8 8 14 37zM319 -207l-34 4q-9 0 -15.5 -0.5t-12.5 -2.5t-14 -6.5t-20 -12.5q-14 -14 -14 -37q6 -29 45 -29q17 0 27 2t18 8q36 19 51 62z" />
    <glyph glyph-name="dochadathai" unicode="&#xe0e;" horiz-adv-x="860" 
d="M778 -236q0 -95 -41 -133q-17 -17 -50 -28t-77 -11h-57l-21 29l-20 25q-9 11 -21 22.5t-26 22.5q-11 -14 -20 -22t-21 -19q-31 -26 -72 -44t-88 -18q-44 0 -82 10t-66.5 29.5t-44.5 47.5t-16 65q0 61 58 119q48 42 116 57l54 4q45 0 92 -12l-4 51h166v-27l2 -38v-33
l-4 -27q24 -14 42.5 -29.5t36.5 -40.5v789q0 67 -45 109q-20 20 -47.5 31.5t-64.5 11.5q-29 0 -53 -4.5t-44 -12.5l-34 -18q-16 -9 -31 -27q81 -40 131 -96q-109 -35 -109 -137v-177q8 -7 11 -20l6 -16q6 -29 6 -45q0 -33 -13 -62.5t-36 -51t-54 -34t-67 -12.5
q-70 0 -121 45q-49 49 -49 115q0 63 45 108q20 20 46.5 33.5t62.5 19.5v103q0 23 6 44t20 40l31 32q6 5 17 11.5t22 11.5q-36 25 -98 51l-66 23q58 93 150 147q51 29 106.5 44.5t118.5 15.5q67 0 125 -18t101 -52t67 -83.5t24 -111.5v-807zM221 152q0 22 -14 36
q-8 12 -37 15q-23 0 -34.5 -12.5t-16.5 -38.5q0 -23 14 -37q8 -12 37 -15q23 0 37 15q8 8 14 37zM319 -207l-34 4q-9 0 -15.5 -0.5t-12.5 -2.5t-14 -6.5t-20 -12.5q-14 -14 -14 -37q6 -29 45 -29q17 0 27 2t18 8q36 19 51 62z" />
    <glyph glyph-name="topatakthai" unicode="&#xaf;" horiz-adv-x="840" 
d="M778 -229q0 -100 -43 -140q-16 -16 -51 -28q-14 -5 -32.5 -8t-41.5 -3h-53l-61 80l-62 -80h-92l-8 21q-3 8 -8 15.5t-13 17.5q-71 -56 -163 -56q-65 0 -117 45q-23 20 -36 48t-13 59q0 72 51 117q14 11 29 19t32 16q17 5 35.5 7.5t38.5 2.5q23 0 44 -3.5t38 -11.5l-6 56
h168q0 -27 2 -31q0 -26 -6 -66q0 -15 -4.5 -35t-12.5 -46l43 51l62 61l59 -53q17 -17 31 -32.5t26 -31.5v791q0 73 -43 113q-11 9 -23 16t-28 12q-12 5 -28.5 8t-34.5 3q-29 0 -53 -4.5t-44 -12.5l-34 -18q-16 -9 -31 -27q81 -40 131 -96q-109 -35 -109 -137v-177
q8 -7 11 -20l6 -16q6 -29 6 -45q0 -33 -13 -62.5t-36 -51t-54 -34t-67 -12.5q-70 0 -121 45q-49 49 -49 115q0 63 45 108q20 20 46.5 33.5t62.5 19.5v103q0 23 6 44t20 40l31 32q6 5 17 11.5t22 11.5q-36 25 -98 51l-66 23q58 93 150 147q51 29 106.5 44.5t118.5 15.5
q67 0 125 -18t101 -52t67 -83.5t24 -111.5v-800zM221 152q0 22 -14 36q-8 12 -37 15q-23 0 -34.5 -12.5t-16.5 -38.5q0 -23 14 -37q8 -12 37 -15q23 0 37 15q8 8 14 37zM240 -248q-17 35 -70 35q-14 0 -41 -12q-16 -13 -16 -35q0 -16 20 -25q18 -6 37 -6q44 6 70 43z" />
    <glyph glyph-name="topatakthai" unicode="&#xe0f;" horiz-adv-x="840" 
d="M778 -229q0 -100 -43 -140q-16 -16 -51 -28q-14 -5 -32.5 -8t-41.5 -3h-53l-61 80l-62 -80h-92l-8 21q-3 8 -8 15.5t-13 17.5q-71 -56 -163 -56q-65 0 -117 45q-23 20 -36 48t-13 59q0 72 51 117q14 11 29 19t32 16q17 5 35.5 7.5t38.5 2.5q23 0 44 -3.5t38 -11.5l-6 56
h168q0 -27 2 -31q0 -26 -6 -66q0 -15 -4.5 -35t-12.5 -46l43 51l62 61l59 -53q17 -17 31 -32.5t26 -31.5v791q0 73 -43 113q-11 9 -23 16t-28 12q-12 5 -28.5 8t-34.5 3q-29 0 -53 -4.5t-44 -12.5l-34 -18q-16 -9 -31 -27q81 -40 131 -96q-109 -35 -109 -137v-177
q8 -7 11 -20l6 -16q6 -29 6 -45q0 -33 -13 -62.5t-36 -51t-54 -34t-67 -12.5q-70 0 -121 45q-49 49 -49 115q0 63 45 108q20 20 46.5 33.5t62.5 19.5v103q0 23 6 44t20 40l31 32q6 5 17 11.5t22 11.5q-36 25 -98 51l-66 23q58 93 150 147q51 29 106.5 44.5t118.5 15.5
q67 0 125 -18t101 -52t67 -83.5t24 -111.5v-800zM221 152q0 22 -14 36q-8 12 -37 15q-23 0 -34.5 -12.5t-16.5 -38.5q0 -23 14 -37q8 -12 37 -15q23 0 37 15q8 8 14 37zM240 -248q-17 35 -70 35q-14 0 -41 -12q-16 -13 -16 -35q0 -16 20 -25q18 -6 37 -6q44 6 70 43z" />
    <glyph glyph-name="thothanthai" unicode="&#xb0;" horiz-adv-x="778" 
d="M739 748q-74 -105 -172 -105q-17 0 -53 9.5t-92 29.5l-55 14q-29 6 -43 6q-42 0 -68 -20q-20 -13 -31 -37q463 0 463 -190q0 -31 -12 -84.5t-37 -128.5q-47 -153 -47 -242h-178l-82 209l-33 -10h-23q-34 0 -63.5 11.5t-51.5 32.5t-35 49.5t-13 63.5q0 31 13 59t35.5 49.5
t52 34.5t62.5 13q36 0 63 -9t50 -32q20 -20 36.5 -46.5t27.5 -62.5l26 -88l39 166q0 45 -69 68q-69 24 -150 24h-299q12 109 106 203q50 50 107 75.5t123 25.5q22 0 51 -6.5t68 -18.5l59 -14l33 -9q35 0 69 48zM719 -252q0 -84 -37 -121q-20 -17 -49.5 -26t-67.5 -9h-47
l-55 41l-60 -41h-98l-26 41q-63 -49 -146 -49q-14 0 -27.5 1.5t-27.5 6.5q-5 2 -9.5 4.5t-9.5 4.5q-11 7 -24.5 17.5t-25 25.5t-19.5 34t-8 43q0 31 13 57.5t35.5 46t54 31t67.5 11.5h19t19 -2q8 0 16.5 -1.5t16.5 -6.5l-6 47h158v-19v-30l-4 -31q0 -44 -13 -74l29 -47
l76 57l82 -57v41q-29 0 -52 10t-40 27t-26 39t-9 47q0 51 41 86q11 9 23 15.5t26 11.5t28 6.5t31 1.5q31 0 59 -9.5t48.5 -26t32.5 -38.5t12 -47v-119zM328 356q0 23 -13.5 35t-38.5 17q-20 0 -33 -11.5t-18 -40.5q0 -22 15 -37q5 -5 13.5 -8.5t22.5 -5.5q23 0 35 12.5
t17 38.5zM610 -133q0 18 -13.5 31.5t-33.5 13.5q-47 0 -47 -45q0 -36 47 -45q47 0 47 45zM215 -268q-6 35 -65 35q-19 0 -33 -10.5t-19 -35.5q0 -12 19 -24q11 -8 35 -8q45 6 63 43z" />
    <glyph glyph-name="thothanthai" unicode="&#xe10;" horiz-adv-x="778" 
d="M739 748q-74 -105 -172 -105q-17 0 -53 9.5t-92 29.5l-55 14q-29 6 -43 6q-42 0 -68 -20q-20 -13 -31 -37q463 0 463 -190q0 -31 -12 -84.5t-37 -128.5q-47 -153 -47 -242h-178l-82 209l-33 -10h-23q-34 0 -63.5 11.5t-51.5 32.5t-35 49.5t-13 63.5q0 31 13 59t35.5 49.5
t52 34.5t62.5 13q36 0 63 -9t50 -32q20 -20 36.5 -46.5t27.5 -62.5l26 -88l39 166q0 45 -69 68q-69 24 -150 24h-299q12 109 106 203q50 50 107 75.5t123 25.5q22 0 51 -6.5t68 -18.5l59 -14l33 -9q35 0 69 48zM719 -252q0 -84 -37 -121q-20 -17 -49.5 -26t-67.5 -9h-47
l-55 41l-60 -41h-98l-26 41q-63 -49 -146 -49q-14 0 -27.5 1.5t-27.5 6.5q-5 2 -9.5 4.5t-9.5 4.5q-11 7 -24.5 17.5t-25 25.5t-19.5 34t-8 43q0 31 13 57.5t35.5 46t54 31t67.5 11.5h19t19 -2q8 0 16.5 -1.5t16.5 -6.5l-6 47h158v-19v-30l-4 -31q0 -44 -13 -74l29 -47
l76 57l82 -57v41q-29 0 -52 10t-40 27t-26 39t-9 47q0 51 41 86q11 9 23 15.5t26 11.5t28 6.5t31 1.5q31 0 59 -9.5t48.5 -26t32.5 -38.5t12 -47v-119zM328 356q0 23 -13.5 35t-38.5 17q-20 0 -33 -11.5t-18 -40.5q0 -22 15 -37q5 -5 13.5 -8.5t22.5 -5.5q23 0 35 12.5
t17 38.5zM610 -133q0 18 -13.5 31.5t-33.5 13.5q-47 0 -47 -45q0 -36 47 -45q47 0 47 45zM215 -268q-6 35 -65 35q-19 0 -33 -10.5t-19 -35.5q0 -12 19 -24q11 -8 35 -8q45 6 63 43z" />
    <glyph glyph-name="thonangmonthothai" unicode="&#xb1;" horiz-adv-x="1001" 
d="M756 0v641v16l-2 19q-3 9 -15 12q-4 0 -14 -16l-12 -23l-289 -649h-166v455q0 35 64 90q12 11 25.5 25t21.5 26q8 14 12 25t4 22q0 13 -8 25q-6 12 -17 12l-6 -2l-14 -14l-23 -25q-14 20 -49 47q6 -20 9.5 -39t3.5 -39q0 -30 -12 -56.5t-32.5 -46t-47.5 -31t-58 -11.5
q-30 0 -57 10t-47.5 28.5t-32.5 45.5t-12 61q0 54 25 94.5t73 71.5q16 10 31.5 18t44.5 19q39 18 59 18q3 0 6 -1t8 -3l33 -18q14 -8 26 -18t23 -21l13 12l28 29q11 8 20 12.5t17 7.5q34 0 80 -61q49 -58 49 -121q0 -23 -6 -43t-23 -43q-67 -94 -67 -129v-31l-12 -139l14 51
q15 66 25 80l141 316q21 50 55 86q42 34 98 34q82 0 129 -51q25 -25 36.5 -61t11.5 -90v-627h-164zM180 608q0 23 -12 34t-37 17q-23 0 -34.5 -12.5t-16.5 -38.5q0 -22 14 -37q5 -5 14 -8.5t23 -5.5q49 0 49 51z" />
    <glyph glyph-name="thonangmonthothai" unicode="&#xe11;" horiz-adv-x="1001" 
d="M756 0v641v16l-2 19q-3 9 -15 12q-4 0 -14 -16l-12 -23l-289 -649h-166v455q0 35 64 90q12 11 25.5 25t21.5 26q8 14 12 25t4 22q0 13 -8 25q-6 12 -17 12l-6 -2l-14 -14l-23 -25q-14 20 -49 47q6 -20 9.5 -39t3.5 -39q0 -30 -12 -56.5t-32.5 -46t-47.5 -31t-58 -11.5
q-30 0 -57 10t-47.5 28.5t-32.5 45.5t-12 61q0 54 25 94.5t73 71.5q16 10 31.5 18t44.5 19q39 18 59 18q3 0 6 -1t8 -3l33 -18q14 -8 26 -18t23 -21l13 12l28 29q11 8 20 12.5t17 7.5q34 0 80 -61q49 -58 49 -121q0 -23 -6 -43t-23 -43q-67 -94 -67 -129v-31l-12 -139l14 51
q15 66 25 80l141 316q21 50 55 86q42 34 98 34q82 0 129 -51q25 -25 36.5 -61t11.5 -90v-627h-164zM180 608q0 23 -12 34t-37 17q-23 0 -34.5 -12.5t-16.5 -38.5q0 -22 14 -37q5 -5 14 -8.5t23 -5.5q49 0 49 51z" />
    <glyph glyph-name="thophuthaothai" unicode="&#xb2;" horiz-adv-x="1225" 
d="M1143 133q0 -133 -125 -133h-51l-23 27l-29 28l-28 25l-51 33q-4 -14 -9.5 -25t-13.5 -22q-13 -24 -37 -41q-40 -33 -106 -33t-121 43q-49 46 -49 112q0 48 26.5 87t75.5 59v291v22q0 6 -3 13.5t-7 16t-8 15.5t-6 11l-11 10q-5 5 -9.5 9t-12.5 9l-119 -84l-131 84
q-74 -47 -74 -141l6 -62l21 -139q12 -80 12 -121l41 47l18 19l19 22q-14 8 -26.5 21t-24.5 33q-8 11 -13.5 30.5t-5.5 36.5q0 54 43 99q48 43 105 43q31 0 58 -10.5t47 -29.5t31 -45t11 -57q0 -32 -12 -65l-8 -17l-29 -41l-127 -149l-57 -74l-64 -90h-160v147q0 73 -9 125
t-17 90q-13 67 -19 115.5t-6 77.5q0 109 76 188q36 36 86 62q23 11 50 17.5t59 11.5l100 -66l102 68q122 -25 187 -93q11 -14 21 -29.5t18 -35.5q12 -38 12 -80v-301q28 -8 57 -20t60 -29l55 -35l41 -29v633h164v-684zM463 436q0 38 -47 47q-19 0 -32 -13.5t-13 -33.5
q0 -45 45 -45q47 0 47 45zM723 147q0 52 -53 52q-54 0 -54 -52q0 -51 54 -51q53 0 53 51z" />
    <glyph glyph-name="thophuthaothai" unicode="&#xe12;" horiz-adv-x="1225" 
d="M1143 133q0 -133 -125 -133h-51l-23 27l-29 28l-28 25l-51 33q-4 -14 -9.5 -25t-13.5 -22q-13 -24 -37 -41q-40 -33 -106 -33t-121 43q-49 46 -49 112q0 48 26.5 87t75.5 59v291v22q0 6 -3 13.5t-7 16t-8 15.5t-6 11l-11 10q-5 5 -9.5 9t-12.5 9l-119 -84l-131 84
q-74 -47 -74 -141l6 -62l21 -139q12 -80 12 -121l41 47l18 19l19 22q-14 8 -26.5 21t-24.5 33q-8 11 -13.5 30.5t-5.5 36.5q0 54 43 99q48 43 105 43q31 0 58 -10.5t47 -29.5t31 -45t11 -57q0 -32 -12 -65l-8 -17l-29 -41l-127 -149l-57 -74l-64 -90h-160v147q0 73 -9 125
t-17 90q-13 67 -19 115.5t-6 77.5q0 109 76 188q36 36 86 62q23 11 50 17.5t59 11.5l100 -66l102 68q122 -25 187 -93q11 -14 21 -29.5t18 -35.5q12 -38 12 -80v-301q28 -8 57 -20t60 -29l55 -35l41 -29v633h164v-684zM463 436q0 38 -47 47q-19 0 -32 -13.5t-13 -33.5
q0 -45 45 -45q47 0 47 45zM723 147q0 52 -53 52q-54 0 -54 -52q0 -51 54 -51q53 0 53 51z" />
    <glyph glyph-name="nonenthai" unicode="&#xb3;" horiz-adv-x="1176" 
d="M1171 154q0 -33 -14 -62t-38 -50t-55 -33.5t-65 -12.5q-51 0 -97 28.5t-66 77.5q-25 -18 -53 -44t-54 -58h-176v553q0 72 -45 111q-23 20 -50.5 30.5t-62.5 10.5q-28 0 -52 -4.5t-44 -12.5q-17 -6 -33.5 -17t-32.5 -28q25 -12 40.5 -21.5t33.5 -23.5q17 -11 32 -24
t26 -27q-109 -35 -109 -137v-107l18 2q36 0 64 -10.5t53 -36.5q49 -43 49 -108q0 -32 -13 -60.5t-35.5 -50t-54 -34.5t-67.5 -13q-43 0 -73 10t-56 35q-49 47 -49 121v258q0 45 26.5 82t69.5 57q-27 24 -98 51l-65 23q29 46 66.5 82.5t82.5 64.5q51 29 107 44.5t118 15.5
q68 0 126 -18t101 -52t67 -83.5t24 -111.5v-389l61 45l41 27q28 17 55.5 30.5t55.5 24.5v510h164v-532q77 -47 77 -133zM1042 158q0 51 -53 51t-53 -51q0 -52 53 -52t53 52zM326 150q0 20 -13.5 34.5t-38.5 16.5q-22 0 -36 -15q-12 -8 -15 -36q0 -23 15 -37q10 -12 36 -15
q23 0 35 13q6 8 10.5 17t6.5 22z" />
    <glyph glyph-name="nonenthai" unicode="&#xe13;" horiz-adv-x="1176" 
d="M1171 154q0 -33 -14 -62t-38 -50t-55 -33.5t-65 -12.5q-51 0 -97 28.5t-66 77.5q-25 -18 -53 -44t-54 -58h-176v553q0 72 -45 111q-23 20 -50.5 30.5t-62.5 10.5q-28 0 -52 -4.5t-44 -12.5q-17 -6 -33.5 -17t-32.5 -28q25 -12 40.5 -21.5t33.5 -23.5q17 -11 32 -24
t26 -27q-109 -35 -109 -137v-107l18 2q36 0 64 -10.5t53 -36.5q49 -43 49 -108q0 -32 -13 -60.5t-35.5 -50t-54 -34.5t-67.5 -13q-43 0 -73 10t-56 35q-49 47 -49 121v258q0 45 26.5 82t69.5 57q-27 24 -98 51l-65 23q29 46 66.5 82.5t82.5 64.5q51 29 107 44.5t118 15.5
q68 0 126 -18t101 -52t67 -83.5t24 -111.5v-389l61 45l41 27q28 17 55.5 30.5t55.5 24.5v510h164v-532q77 -47 77 -133zM1042 158q0 51 -53 51t-53 -51q0 -52 53 -52t53 52zM326 150q0 20 -13.5 34.5t-38.5 16.5q-22 0 -36 -15q-12 -8 -15 -36q0 -23 15 -37q10 -12 36 -15
q23 0 35 13q6 8 10.5 17t6.5 22z" />
    <glyph glyph-name="dodekthai" unicode="&#xb4;" horiz-adv-x="844" 
d="M598 0v526q0 75 -45 123q-50 56 -139 56q-77 0 -140 -48q-26 -20 -41 -41.5t-18 -44.5l-4 -61q0 -32 6.5 -71t20.5 -105l20 -96l18 24l19 25l22 26l19 19q-31 17 -51 51q-19 34 -19 72q0 50 43 98q44 41 105 41q31 0 58 -10.5t47 -29t31 -44t11 -55.5q0 -37 -14 -66
q-2 -5 -6 -12t-9 -15l-22 -30l-123 -154l-27 -35l-41 -61l-53 -82h-160v139q0 21 -1 38.5t-3 35t-5 35.5t-7 41q-41 202 -41 250q0 119 96 206q109 91 273 91q149 0 250 -84q45 -42 69.5 -93t24.5 -114v-545h-164zM459 455q0 45 -45 45t-45 -45t45 -45t45 45z" />
    <glyph glyph-name="dodekthai" unicode="&#xe14;" horiz-adv-x="844" 
d="M598 0v526q0 75 -45 123q-50 56 -139 56q-77 0 -140 -48q-26 -20 -41 -41.5t-18 -44.5l-4 -61q0 -32 6.5 -71t20.5 -105l20 -96l18 24l19 25l22 26l19 19q-31 17 -51 51q-19 34 -19 72q0 50 43 98q44 41 105 41q31 0 58 -10.5t47 -29t31 -44t11 -55.5q0 -37 -14 -66
q-2 -5 -6 -12t-9 -15l-22 -30l-123 -154l-27 -35l-41 -61l-53 -82h-160v139q0 21 -1 38.5t-3 35t-5 35.5t-7 41q-41 202 -41 250q0 119 96 206q109 91 273 91q149 0 250 -84q45 -42 69.5 -93t24.5 -114v-545h-164zM459 455q0 45 -45 45t-45 -45t45 -45t45 45z" />
    <glyph glyph-name="totaothai" unicode="&#xb5;" horiz-adv-x="848" 
d="M602 0v584v22q0 6 -3 13.5t-7 16t-8 15.5t-6 11l-11 10q-5 5 -9.5 9t-12.5 9l-119 -84l-131 84q-74 -47 -74 -141l6 -62l21 -139q12 -80 12 -121l41 47l18 19l19 22q-14 8 -26.5 21t-24.5 33q-8 11 -13.5 30.5t-5.5 36.5q0 54 43 99q48 43 105 43q31 0 58 -10.5t47 -29.5
t31 -45t11 -57q0 -32 -12 -65l-8 -17l-29 -41l-127 -149l-57 -74l-64 -90h-160v147q0 73 -9 125t-17 90q-13 67 -19 115.5t-6 77.5q0 109 76 188q36 36 86 62q23 11 50 17.5t59 11.5l100 -66l102 68q122 -25 187 -93q11 -14 21 -29.5t18 -35.5q12 -38 12 -80v-598h-164z
M463 436q0 38 -47 47q-19 0 -32 -13.5t-13 -33.5q0 -45 45 -45q47 0 47 45z" />
    <glyph glyph-name="totaothai" unicode="&#xe15;" horiz-adv-x="848" 
d="M602 0v584v22q0 6 -3 13.5t-7 16t-8 15.5t-6 11l-11 10q-5 5 -9.5 9t-12.5 9l-119 -84l-131 84q-74 -47 -74 -141l6 -62l21 -139q12 -80 12 -121l41 47l18 19l19 22q-14 8 -26.5 21t-24.5 33q-8 11 -13.5 30.5t-5.5 36.5q0 54 43 99q48 43 105 43q31 0 58 -10.5t47 -29.5
t31 -45t11 -57q0 -32 -12 -65l-8 -17l-29 -41l-127 -149l-57 -74l-64 -90h-160v147q0 73 -9 125t-17 90q-13 67 -19 115.5t-6 77.5q0 109 76 188q36 36 86 62q23 11 50 17.5t59 11.5l100 -66l102 68q122 -25 187 -93q11 -14 21 -29.5t18 -35.5q12 -38 12 -80v-598h-164z
M463 436q0 38 -47 47q-19 0 -32 -13.5t-13 -33.5q0 -45 45 -45q47 0 47 45z" />
    <glyph glyph-name="thothungthai" unicode="&#xb6;" horiz-adv-x="799" 
d="M553 0v573q0 31 -10.5 54t-36.5 43q-25 17 -52.5 26t-58.5 9q-28 0 -52 -4.5t-44 -12.5q-17 -6 -33.5 -17t-32.5 -28q25 -12 40.5 -21.5t33.5 -23.5q17 -11 32 -24t26 -27q-109 -35 -109 -137v-107l18 2q36 0 64 -10.5t53 -36.5q49 -43 49 -108q0 -32 -13 -60.5
t-35.5 -50t-54 -34.5t-67.5 -13q-43 0 -73 10t-56 35q-49 47 -49 121v258q0 45 26.5 82t69.5 57q-27 24 -98 51l-65 23q29 46 66.5 82.5t82.5 64.5q51 29 107 44.5t118 15.5q68 0 126 -18t101 -52t67 -83.5t24 -111.5v-571h-164zM326 150q0 20 -13.5 34.5t-38.5 16.5
q-22 0 -36 -15q-12 -8 -15 -36q0 -23 15 -37q10 -12 36 -15q23 0 35 13q6 8 10.5 17t6.5 22z" />
    <glyph glyph-name="thothungthai" unicode="&#xe16;" horiz-adv-x="799" 
d="M553 0v573q0 31 -10.5 54t-36.5 43q-25 17 -52.5 26t-58.5 9q-28 0 -52 -4.5t-44 -12.5q-17 -6 -33.5 -17t-32.5 -28q25 -12 40.5 -21.5t33.5 -23.5q17 -11 32 -24t26 -27q-109 -35 -109 -137v-107l18 2q36 0 64 -10.5t53 -36.5q49 -43 49 -108q0 -32 -13 -60.5
t-35.5 -50t-54 -34.5t-67.5 -13q-43 0 -73 10t-56 35q-49 47 -49 121v258q0 45 26.5 82t69.5 57q-27 24 -98 51l-65 23q29 46 66.5 82.5t82.5 64.5q51 29 107 44.5t118 15.5q68 0 126 -18t101 -52t67 -83.5t24 -111.5v-571h-164zM326 150q0 20 -13.5 34.5t-38.5 16.5
q-22 0 -36 -15q-12 -8 -15 -36q0 -23 15 -37q10 -12 36 -15q23 0 35 13q6 8 10.5 17t6.5 22z" />
    <glyph glyph-name="thothahanthai" unicode="&#xb7;" horiz-adv-x="877" 
d="M631 0v616q0 69 -31 72q-13 0 -33 -47l-217 -641h-166v516l-18 -2q-32 0 -62.5 11t-56.5 34q-47 47 -47 111q0 31 13 60t36 51t54 35t67 13q43 0 72 -12q17 -5 31 -13t26 -22q49 -45 49 -120v-113q-6 -43 -12 -95t-6 -106v-6v-9t-2 -14v-9t-2 -9q-3 -16 -7 -25l25 117
q12 63 21 100t14 48l55 184q34 104 158 104q44 0 81 -13t64 -39t42.5 -64t15.5 -88v-625h-164zM217 670q0 20 -12.5 33t-38.5 18q-23 0 -34.5 -12.5t-16.5 -38.5q0 -23 14 -37l14 -8l23 -7q22 0 37 15q11 11 14 37z" />
    <glyph glyph-name="thothahanthai" unicode="&#xe17;" horiz-adv-x="877" 
d="M631 0v616q0 69 -31 72q-13 0 -33 -47l-217 -641h-166v516l-18 -2q-32 0 -62.5 11t-56.5 34q-47 47 -47 111q0 31 13 60t36 51t54 35t67 13q43 0 72 -12q17 -5 31 -13t26 -22q49 -45 49 -120v-113q-6 -43 -12 -95t-6 -106v-6v-9t-2 -14v-9t-2 -9q-3 -16 -7 -25l25 117
q12 63 21 100t14 48l55 184q34 104 158 104q44 0 81 -13t64 -39t42.5 -64t15.5 -88v-625h-164zM217 670q0 20 -12.5 33t-38.5 18q-23 0 -34.5 -12.5t-16.5 -38.5q0 -23 14 -37l14 -8l23 -7q22 0 37 15q11 11 14 37z" />
    <glyph glyph-name="thothongthai" unicode="&#xb8;" horiz-adv-x="778" 
d="M739 750q-59 -99 -172 -99q-15 0 -47 9t-82 26l-51 14l-37 5q-16 0 -31.5 -4.5t-28.5 -13t-22 -19.5t-12 -23l43 -2h51h37q8 -2 14 -2t11 -2l84 -12q46 -9 83 -23.5t63 -37t40 -53t14 -71.5v-233q0 -60 -12 -96q-5 -20 -13 -36t-22 -30q-42 -47 -176 -47h-412v129h45
q8 2 15.5 3.5t15.5 4.5q27 6 27 51v197q0 72 61 109h183q-80 -34 -80 -121v-240h88q34 0 56 4t35.5 14.5t19 29t5.5 46.5v201q0 46 -63 74q-14 5 -32 9t-38 9q-18 5 -37.5 6.5t-39.5 1.5l-140 2h-67q-9 0 -21 0.5t-23 0.5q-10 0 -18.5 0.5t-11.5 0.5q15 118 96 211
q79 93 195 93q26 0 57 -6t66 -17l57 -14q35 -3 35 -8q49 0 69 45l123 -86v0z" />
    <glyph glyph-name="thothongthai" unicode="&#xe18;" horiz-adv-x="778" 
d="M739 750q-59 -99 -172 -99q-15 0 -47 9t-82 26l-51 14l-37 5q-16 0 -31.5 -4.5t-28.5 -13t-22 -19.5t-12 -23l43 -2h51h37q8 -2 14 -2t11 -2l84 -12q46 -9 83 -23.5t63 -37t40 -53t14 -71.5v-233q0 -60 -12 -96q-5 -20 -13 -36t-22 -30q-42 -47 -176 -47h-412v129h45
q8 2 15.5 3.5t15.5 4.5q27 6 27 51v197q0 72 61 109h183q-80 -34 -80 -121v-240h88q34 0 56 4t35.5 14.5t19 29t5.5 46.5v201q0 46 -63 74q-14 5 -32 9t-38 9q-18 5 -37.5 6.5t-39.5 1.5l-140 2h-67q-9 0 -21 0.5t-23 0.5q-10 0 -18.5 0.5t-11.5 0.5q15 118 96 211
q79 93 195 93q26 0 57 -6t66 -17l57 -14q35 -3 35 -8q49 0 69 45l123 -86v0z" />
    <glyph glyph-name="nonuthai" unicode="&#xb9;" horiz-adv-x="868" 
d="M864 154q0 -33 -14 -62t-37.5 -50t-55 -33.5t-65.5 -12.5q-38 0 -66.5 9.5t-54.5 35.5q-49 47 -49 113l-35 -25l-47 -41q-23 -22 -42.5 -43.5t-35.5 -44.5h-178v516l-18 -2q-32 0 -62.5 11t-56.5 34q-47 47 -47 111q0 31 13 60t36 51t54 35t67 13q43 0 72 -12
q17 -5 31 -13t26 -22q49 -45 49 -120v-474q50 44 125 82q35 17 73 30t77 24v495h163v-532q78 -47 78 -133zM745 158q0 51 -53 51t-53 -51q0 -52 53 -52t53 52zM217 670q0 20 -12.5 33t-38.5 18q-23 0 -34.5 -12.5t-16.5 -38.5q0 -23 14 -37l14 -8l23 -7q22 0 37 15
q11 11 14 37z" />
    <glyph glyph-name="nonuthai" unicode="&#xe19;" horiz-adv-x="868" 
d="M864 154q0 -33 -14 -62t-37.5 -50t-55 -33.5t-65.5 -12.5q-38 0 -66.5 9.5t-54.5 35.5q-49 47 -49 113l-35 -25l-47 -41q-23 -22 -42.5 -43.5t-35.5 -44.5h-178v516l-18 -2q-32 0 -62.5 11t-56.5 34q-47 47 -47 111q0 31 13 60t36 51t54 35t67 13q43 0 72 -12
q17 -5 31 -13t26 -22q49 -45 49 -120v-474q50 44 125 82q35 17 73 30t77 24v495h163v-532q78 -47 78 -133zM745 158q0 51 -53 51t-53 -51q0 -52 53 -52t53 52zM217 670q0 20 -12.5 33t-38.5 18q-23 0 -34.5 -12.5t-16.5 -38.5q0 -23 14 -37l14 -8l23 -7q22 0 37 15
q11 11 14 37z" />
    <glyph glyph-name="bobaimaithai" unicode="&#xba;" horiz-adv-x="881" 
d="M799 207q0 -53 -10.5 -92t-36 -64.5t-68.5 -38t-109 -12.5h-493v129q34 0 54.5 2.5t31 9t13.5 18t3 29.5v328l-18 -2q-32 0 -62.5 11t-56.5 34q-47 47 -47 111q0 31 13 60t36 51t54 35t67 13q43 0 72 -12q17 -5 31 -13t26 -22q49 -45 49 -120v-529h170q36 0 59 4
t35.5 14.5t17.5 29t5 46.5v592h164v-612zM217 670q0 20 -12.5 33t-38.5 18q-23 0 -34.5 -12.5t-16.5 -38.5q0 -23 14 -37l14 -8l23 -7q22 0 37 15q11 11 14 37z" />
    <glyph glyph-name="bobaimaithai" unicode="&#xe1a;" horiz-adv-x="881" 
d="M799 207q0 -53 -10.5 -92t-36 -64.5t-68.5 -38t-109 -12.5h-493v129q34 0 54.5 2.5t31 9t13.5 18t3 29.5v328l-18 -2q-32 0 -62.5 11t-56.5 34q-47 47 -47 111q0 31 13 60t36 51t54 35t67 13q43 0 72 -12q17 -5 31 -13t26 -22q49 -45 49 -120v-529h170q36 0 59 4
t35.5 14.5t17.5 29t5 46.5v592h164v-612zM217 670q0 20 -12.5 33t-38.5 18q-23 0 -34.5 -12.5t-16.5 -38.5q0 -23 14 -37l14 -8l23 -7q22 0 37 15q11 11 14 37z" />
    <glyph glyph-name="poplathai" unicode="&#xbb;" horiz-adv-x="881" 
d="M799 207q0 -53 -10.5 -92t-36 -64.5t-68.5 -38t-109 -12.5h-493v129q34 0 54.5 2.5t31 9t13.5 18t3 29.5v328l-18 -2q-32 0 -62.5 11t-56.5 34q-47 47 -47 111q0 31 13 60t36 51t54 35t67 13q43 0 72 -12q17 -5 31 -13t26 -22q49 -45 49 -120v-529h170q36 0 59 4
t35.5 14.5t17.5 29t5 46.5v838h164v-858zM217 670q0 20 -12.5 33t-38.5 18q-23 0 -34.5 -12.5t-16.5 -38.5q0 -23 14 -37l14 -8l23 -7q22 0 37 15q11 11 14 37z" />
    <glyph glyph-name="poplathai" unicode="&#xe1b;" horiz-adv-x="881" 
d="M799 207q0 -53 -10.5 -92t-36 -64.5t-68.5 -38t-109 -12.5h-493v129q34 0 54.5 2.5t31 9t13.5 18t3 29.5v328l-18 -2q-32 0 -62.5 11t-56.5 34q-47 47 -47 111q0 31 13 60t36 51t54 35t67 13q43 0 72 -12q17 -5 31 -13t26 -22q49 -45 49 -120v-529h170q36 0 59 4
t35.5 14.5t17.5 29t5 46.5v838h164v-858zM217 670q0 20 -12.5 33t-38.5 18q-23 0 -34.5 -12.5t-16.5 -38.5q0 -23 14 -37l14 -8l23 -7q22 0 37 15q11 11 14 37z" />
    <glyph glyph-name="phophungthai" unicode="&#xbc;" horiz-adv-x="827" 
d="M745 147q0 -80 -34 -113.5t-97 -33.5h-55l-145 311l-146 -311h-186v662q0 38 11 67t36 53q50 47 131 47h21t27.5 -4t33.5 -14t39 -29q49 -45 49 -112q0 -31 -13.5 -59t-36 -49.5t-52.5 -34.5t-64 -13l-18 2v-254l110 232h115l111 -232v557h163v-672zM315 670
q0 20 -12.5 33t-38.5 18q-22 0 -37 -14q-5 -5 -8.5 -14t-5.5 -23q0 -23 14 -37q5 -5 14 -8t23 -7q22 0 37 15q8 8 14 37z" />
    <glyph glyph-name="phophungthai" unicode="&#xe1c;" horiz-adv-x="827" 
d="M745 147q0 -80 -34 -113.5t-97 -33.5h-55l-145 311l-146 -311h-186v662q0 38 11 67t36 53q50 47 131 47h21t27.5 -4t33.5 -14t39 -29q49 -45 49 -112q0 -31 -13.5 -59t-36 -49.5t-52.5 -34.5t-64 -13l-18 2v-254l110 232h115l111 -232v557h163v-672zM315 670
q0 20 -12.5 33t-38.5 18q-22 0 -37 -14q-5 -5 -8.5 -14t-5.5 -23q0 -23 14 -37q5 -5 14 -8t23 -7q22 0 37 15q8 8 14 37z" />
    <glyph glyph-name="fofathai" unicode="&#xbd;" horiz-adv-x="827" 
d="M745 147q0 -80 -34 -113.5t-97 -33.5h-55l-145 311l-146 -311h-186v662q0 38 11 67t36 53q50 47 131 47h21t27.5 -4t33.5 -14t39 -29q49 -45 49 -112q0 -31 -13.5 -59t-36 -49.5t-52.5 -34.5t-64 -13l-18 2v-254l110 232h115l111 -232v803h163v-918zM315 670
q0 20 -12.5 33t-38.5 18q-22 0 -37 -14q-5 -5 -8.5 -14t-5.5 -23q0 -23 14 -37q5 -5 14 -8t23 -7q22 0 37 15q8 8 14 37z" />
    <glyph glyph-name="fofathai" unicode="&#xe1d;" horiz-adv-x="827" 
d="M745 147q0 -80 -34 -113.5t-97 -33.5h-55l-145 311l-146 -311h-186v662q0 38 11 67t36 53q50 47 131 47h21t27.5 -4t33.5 -14t39 -29q49 -45 49 -112q0 -31 -13.5 -59t-36 -49.5t-52.5 -34.5t-64 -13l-18 2v-254l110 232h115l111 -232v803h163v-918zM315 670
q0 20 -12.5 33t-38.5 18q-22 0 -37 -14q-5 -5 -8.5 -14t-5.5 -23q0 -23 14 -37q5 -5 14 -8t23 -7q22 0 37 15q8 8 14 37z" />
    <glyph glyph-name="phophanthai" unicode="&#xbe;" horiz-adv-x="971" 
d="M889 147q0 -78 -31 -112.5t-100 -34.5h-80l-141 551l-162 -551h-191v516l-18 -2q-32 0 -62.5 11t-56.5 34q-47 47 -47 111q0 31 13 60t36 51t54 35t67 13q82 0 130 -43.5t48 -123.5v-95l-10 -315l18 94l17 80l24 94l78 299h123l78 -299l37 -174l18 -94l-6 315v252h164
v-672zM217 670q0 20 -12.5 33t-38.5 18q-23 0 -34.5 -12.5t-16.5 -38.5q0 -23 14 -37l14 -8l23 -7q22 0 37 15q11 11 14 37z" />
    <glyph glyph-name="phophanthai" unicode="&#xe1e;" horiz-adv-x="971" 
d="M889 147q0 -78 -31 -112.5t-100 -34.5h-80l-141 551l-162 -551h-191v516l-18 -2q-32 0 -62.5 11t-56.5 34q-47 47 -47 111q0 31 13 60t36 51t54 35t67 13q82 0 130 -43.5t48 -123.5v-95l-10 -315l18 94l17 80l24 94l78 299h123l78 -299l37 -174l18 -94l-6 315v252h164
v-672zM217 670q0 20 -12.5 33t-38.5 18q-23 0 -34.5 -12.5t-16.5 -38.5q0 -23 14 -37l14 -8l23 -7q22 0 37 15q11 11 14 37z" />
    <glyph glyph-name="fofanthai" unicode="&#xbf;" horiz-adv-x="971" 
d="M889 147q0 -78 -31 -112.5t-100 -34.5h-80l-141 551l-162 -551h-191v516l-18 -2q-32 0 -62.5 11t-56.5 34q-47 47 -47 111q0 31 13 60t36 51t54 35t67 13q82 0 130 -43.5t48 -123.5v-95l-10 -315l18 94l17 80l24 94l78 299h123l78 -299l37 -174l18 -94l-6 315v498h164
v-918zM217 670q0 20 -12.5 33t-38.5 18q-23 0 -34.5 -12.5t-16.5 -38.5q0 -23 14 -37l14 -8l23 -7q22 0 37 15q11 11 14 37z" />
    <glyph glyph-name="fofanthai" unicode="&#xe1f;" horiz-adv-x="971" 
d="M889 147q0 -78 -31 -112.5t-100 -34.5h-80l-141 551l-162 -551h-191v516l-18 -2q-32 0 -62.5 11t-56.5 34q-47 47 -47 111q0 31 13 60t36 51t54 35t67 13q82 0 130 -43.5t48 -123.5v-95l-10 -315l18 94l17 80l24 94l78 299h123l78 -299l37 -174l18 -94l-6 315v498h164
v-918zM217 670q0 20 -12.5 33t-38.5 18q-23 0 -34.5 -12.5t-16.5 -38.5q0 -23 14 -37l14 -8l23 -7q22 0 37 15q11 11 14 37z" />
    <glyph glyph-name="phosamphaothai" unicode="&#xc0;" horiz-adv-x="860" 
d="M614 0v553q0 67 -45 109q-20 20 -47.5 31.5t-64.5 11.5q-29 0 -53 -4.5t-44 -12.5l-34 -18q-16 -9 -31 -27q81 -40 131 -96q-109 -35 -109 -137v-177q8 -7 11 -20l6 -16q6 -29 6 -45q0 -33 -13 -62.5t-36 -51t-54 -34t-67 -12.5q-70 0 -121 45q-49 49 -49 115
q0 63 45 108q20 20 46.5 33.5t62.5 19.5v103q0 23 6 44t20 40l31 32q6 5 17 11.5t22 11.5q-36 25 -98 51l-66 23q58 93 150 147q51 29 106.5 44.5t118.5 15.5q67 0 125 -18t101 -52t67 -83.5t24 -111.5v-571h-164zM221 152q0 22 -14 36q-8 12 -37 15q-23 0 -34.5 -12.5
t-16.5 -38.5q0 -23 14 -37q8 -12 37 -15q23 0 37 15q8 8 14 37z" />
    <glyph glyph-name="phosamphaothai" unicode="&#xe20;" horiz-adv-x="860" 
d="M614 0v553q0 67 -45 109q-20 20 -47.5 31.5t-64.5 11.5q-29 0 -53 -4.5t-44 -12.5l-34 -18q-16 -9 -31 -27q81 -40 131 -96q-109 -35 -109 -137v-177q8 -7 11 -20l6 -16q6 -29 6 -45q0 -33 -13 -62.5t-36 -51t-54 -34t-67 -12.5q-70 0 -121 45q-49 49 -49 115
q0 63 45 108q20 20 46.5 33.5t62.5 19.5v103q0 23 6 44t20 40l31 32q6 5 17 11.5t22 11.5q-36 25 -98 51l-66 23q58 93 150 147q51 29 106.5 44.5t118.5 15.5q67 0 125 -18t101 -52t67 -83.5t24 -111.5v-571h-164zM221 152q0 22 -14 36q-8 12 -37 15q-23 0 -34.5 -12.5
t-16.5 -38.5q0 -23 14 -37q8 -12 37 -15q23 0 37 15q8 8 14 37z" />
    <glyph glyph-name="momathai" unicode="&#xc1;" horiz-adv-x="864" 
d="M782 133q0 -133 -125 -133h-57q-6 19 -14 35.5t-19 30.5q-18 30 -51 63q-29 32 -59 53.5t-68 38.5v-76q0 -32 -11.5 -59t-32.5 -47t-51.5 -31.5t-68.5 -11.5q-39 0 -74 12.5t-61 36.5t-41.5 57.5t-15.5 75.5q0 38 12 69t41 60q26 25 60 40.5t79 23.5v145l-18 -2
q-32 0 -62.5 11t-56.5 34q-47 47 -47 111q0 31 13 60t36 51t54 35t67 13q43 0 72 -12q17 -5 31 -13t26 -22q49 -45 49 -120v-297q25 -7 42 -13l34 -12q6 -5 18 -10.5t29 -16.5q60 -26 106 -80v586h164v-686zM258 670q0 20 -12.5 33t-38.5 18q-23 0 -34.5 -12.5t-16.5 -38.5
q0 -23 14 -37q7 -7 37 -15q17 0 37 15q11 11 14 37zM229 244q-28 0 -51 -23q-18 -18 -18 -47q0 -14 12 -33q11 -11 29 -14q28 0 28 35v82z" />
    <glyph glyph-name="momathai" unicode="&#xe21;" horiz-adv-x="864" 
d="M782 133q0 -133 -125 -133h-57q-6 19 -14 35.5t-19 30.5q-18 30 -51 63q-29 32 -59 53.5t-68 38.5v-76q0 -32 -11.5 -59t-32.5 -47t-51.5 -31.5t-68.5 -11.5q-39 0 -74 12.5t-61 36.5t-41.5 57.5t-15.5 75.5q0 38 12 69t41 60q26 25 60 40.5t79 23.5v145l-18 -2
q-32 0 -62.5 11t-56.5 34q-47 47 -47 111q0 31 13 60t36 51t54 35t67 13q43 0 72 -12q17 -5 31 -13t26 -22q49 -45 49 -120v-297q25 -7 42 -13l34 -12q6 -5 18 -10.5t29 -16.5q60 -26 106 -80v586h164v-686zM258 670q0 20 -12.5 33t-38.5 18q-23 0 -34.5 -12.5t-16.5 -38.5
q0 -23 14 -37q7 -7 37 -15q17 0 37 15q11 11 14 37zM229 244q-28 0 -51 -23q-18 -18 -18 -47q0 -14 12 -33q11 -11 29 -14q28 0 28 35v82z" />
    <glyph glyph-name="yoyakthai" unicode="&#xc2;" horiz-adv-x="788" 
d="M707 207q0 -53 -10.5 -92t-36 -64.5t-69 -38t-108.5 -12.5h-401v276q0 57 29 89q12 14 29 23t38 15q-25 2 -41 9.5t-33 19.5q-43 35 -43 88v142q0 36 12.5 66.5t36 53t56.5 35t74 12.5h20q13 0 29 -4t34 -14t37 -29q50 -45 50 -112q0 -30 -13.5 -58t-36 -50t-52.5 -35
t-64 -13q0 -39 78 -39h100v-133h-94q-82 0 -82 -72v-137h180q34 0 57 4t36 14.5t18.5 29t5.5 46.5v592h164v-612zM295 670q0 22 -14 37q-5 5 -14 8.5t-23 5.5q-23 0 -34.5 -12.5t-16.5 -38.5q0 -23 14 -37q7 -7 37 -15q17 0 37 15q11 11 14 37z" />
    <glyph glyph-name="yoyakthai" unicode="&#xe22;" horiz-adv-x="788" 
d="M707 207q0 -53 -10.5 -92t-36 -64.5t-69 -38t-108.5 -12.5h-401v276q0 57 29 89q12 14 29 23t38 15q-25 2 -41 9.5t-33 19.5q-43 35 -43 88v142q0 36 12.5 66.5t36 53t56.5 35t74 12.5h20q13 0 29 -4t34 -14t37 -29q50 -45 50 -112q0 -30 -13.5 -58t-36 -50t-52.5 -35
t-64 -13q0 -39 78 -39h100v-133h-94q-82 0 -82 -72v-137h180q34 0 57 4t36 14.5t18.5 29t5.5 46.5v592h164v-612zM295 670q0 22 -14 37q-5 5 -14 8.5t-23 5.5q-23 0 -34.5 -12.5t-16.5 -38.5q0 -23 14 -37q7 -7 37 -15q17 0 37 15q11 11 14 37z" />
    <glyph glyph-name="roruathai" unicode="&#xc3;" horiz-adv-x="707" 
d="M698 750q-62 -99 -172 -99q-14 0 -43 9t-77 26q-55 19 -82 19q-32 0 -62 -17.5t-41 -42.5q54 0 101 -6h16t12 -1t13.5 -2.5t19.5 -4.5l43 -10q50 -11 85 -26t58 -40q45 -45 45 -125v-272q0 -72 -49 -121q-44 -45 -129 -45q-38 0 -66.5 9.5t-54.5 35.5q-49 47 -49 113
q0 30 13 58t35.5 49.5t52.5 34.5t65 13l19 -2v123q0 39 -48 68q-19 11 -44.5 18.5t-55.5 12t-62.5 6t-66.5 1.5h-33h-10l-65 3h-66q18 117 109 204q102 97 227 97q35 0 82 -15l35 -10l55 -20q11 0 19 2t16 10l12 8q2 2 8 9.5t12 15.5zM483 150q0 20 -12.5 33t-38.5 18
q-22 0 -37 -15q-5 -5 -8.5 -13.5t-5.5 -22.5q0 -23 14 -37q8 -12 37 -15q23 0 37 15q8 8 14 37z" />
    <glyph glyph-name="roruathai" unicode="&#xe23;" horiz-adv-x="707" 
d="M698 750q-62 -99 -172 -99q-14 0 -43 9t-77 26q-55 19 -82 19q-32 0 -62 -17.5t-41 -42.5q54 0 101 -6h16t12 -1t13.5 -2.5t19.5 -4.5l43 -10q50 -11 85 -26t58 -40q45 -45 45 -125v-272q0 -72 -49 -121q-44 -45 -129 -45q-38 0 -66.5 9.5t-54.5 35.5q-49 47 -49 113
q0 30 13 58t35.5 49.5t52.5 34.5t65 13l19 -2v123q0 39 -48 68q-19 11 -44.5 18.5t-55.5 12t-62.5 6t-66.5 1.5h-33h-10l-65 3h-66q18 117 109 204q102 97 227 97q35 0 82 -15l35 -10l55 -20q11 0 19 2t16 10l12 8q2 2 8 9.5t12 15.5zM483 150q0 20 -12.5 33t-38.5 18
q-22 0 -37 -15q-5 -5 -8.5 -13.5t-5.5 -22.5q0 -23 14 -37q8 -12 37 -15q23 0 37 15q8 8 14 37z" />
    <glyph glyph-name="ruthai" unicode="&#xc4;" horiz-adv-x="799" 
d="M553 -305v878q0 31 -10.5 54t-36.5 43q-25 17 -52.5 26t-58.5 9q-28 0 -52 -4.5t-44 -12.5q-17 -6 -33.5 -17t-32.5 -28q25 -12 40.5 -21.5t33.5 -23.5q17 -11 32 -24t26 -27q-109 -35 -109 -137v-107l18 2q36 0 64 -10.5t53 -36.5q49 -43 49 -108q0 -32 -13 -60.5
t-35.5 -50t-54 -34.5t-67.5 -13q-43 0 -73 10t-56 35q-49 47 -49 121v258q0 45 26.5 82t69.5 57q-27 24 -98 51l-65 23q29 46 66.5 82.5t82.5 64.5q51 29 107 44.5t118 15.5q68 0 126 -18t101 -52t67 -83.5t24 -111.5v-876h-164zM326 150q0 20 -13.5 34.5t-38.5 16.5
q-22 0 -36 -15q-12 -8 -15 -36q0 -23 15 -37q10 -12 36 -15q23 0 35 13q6 8 10.5 17t6.5 22z" />
    <glyph glyph-name="ruthai" unicode="&#xe24;" horiz-adv-x="799" 
d="M553 -305v878q0 31 -10.5 54t-36.5 43q-25 17 -52.5 26t-58.5 9q-28 0 -52 -4.5t-44 -12.5q-17 -6 -33.5 -17t-32.5 -28q25 -12 40.5 -21.5t33.5 -23.5q17 -11 32 -24t26 -27q-109 -35 -109 -137v-107l18 2q36 0 64 -10.5t53 -36.5q49 -43 49 -108q0 -32 -13 -60.5
t-35.5 -50t-54 -34.5t-67.5 -13q-43 0 -73 10t-56 35q-49 47 -49 121v258q0 45 26.5 82t69.5 57q-27 24 -98 51l-65 23q29 46 66.5 82.5t82.5 64.5q51 29 107 44.5t118 15.5q68 0 126 -18t101 -52t67 -83.5t24 -111.5v-876h-164zM326 150q0 20 -13.5 34.5t-38.5 16.5
q-22 0 -36 -15q-12 -8 -15 -36q0 -23 15 -37q10 -12 36 -15q23 0 35 13q6 8 10.5 17t6.5 22z" />
    <glyph glyph-name="lolingthai" unicode="&#xc5;" horiz-adv-x="815" 
d="M578 0l-209 408q-11 17 -28.5 25.5t-43.5 8.5q-43 0 -43 -57v-82l18 2q35 0 63.5 -10.5t53.5 -36.5q49 -43 49 -108q0 -32 -13 -60.5t-35.5 -50t-54 -34.5t-67.5 -13q-43 0 -73 10t-56 35q-49 46 -49 121v237q0 34 12.5 62.5t34.5 51t51.5 38.5t63.5 24h16l17 2l20 5h11
t10 2q131 0 184 -105l37 -78l8 -24l16 -54l19 -65l-4 47q0 20 -6 41l-7 55l-4 52v102q0 34 -13 62t-36 48.5t-56 32t-73 11.5q-65 0 -125 -37q-52 -34 -67 -97h-168q24 116 129 189q106 76 241 76q140 0 238 -70q45 -32 69.5 -77.5t24.5 -102.5v-586h-155zM324 150
q0 20 -13 33t-39 18q-22 0 -36 -15q-12 -8 -15 -36q0 -23 15 -37q10 -12 36 -15q23 0 35 13q6 8 10.5 17t6.5 22z" />
    <glyph glyph-name="lolingthai" unicode="&#xe25;" horiz-adv-x="815" 
d="M578 0l-209 408q-11 17 -28.5 25.5t-43.5 8.5q-43 0 -43 -57v-82l18 2q35 0 63.5 -10.5t53.5 -36.5q49 -43 49 -108q0 -32 -13 -60.5t-35.5 -50t-54 -34.5t-67.5 -13q-43 0 -73 10t-56 35q-49 46 -49 121v237q0 34 12.5 62.5t34.5 51t51.5 38.5t63.5 24h16l17 2l20 5h11
t10 2q131 0 184 -105l37 -78l8 -24l16 -54l19 -65l-4 47q0 20 -6 41l-7 55l-4 52v102q0 34 -13 62t-36 48.5t-56 32t-73 11.5q-65 0 -125 -37q-52 -34 -67 -97h-168q24 116 129 189q106 76 241 76q140 0 238 -70q45 -32 69.5 -77.5t24.5 -102.5v-586h-155zM324 150
q0 20 -13 33t-39 18q-22 0 -36 -15q-12 -8 -15 -36q0 -23 15 -37q10 -12 36 -15q23 0 35 13q6 8 10.5 17t6.5 22z" />
    <glyph glyph-name="luthai" unicode="&#xc6;" horiz-adv-x="860" 
d="M614 -305v858q0 67 -45 109q-20 20 -47.5 31.5t-64.5 11.5q-29 0 -53 -4.5t-44 -12.5l-34 -18q-16 -9 -31 -27q81 -40 131 -96q-109 -35 -109 -137v-177q8 -7 11 -20l6 -16q6 -29 6 -45q0 -33 -13 -62.5t-36 -51t-54 -34t-67 -12.5q-70 0 -121 45q-49 49 -49 115
q0 63 45 108q20 20 46.5 33.5t62.5 19.5v103q0 23 6 44t20 40l31 32q6 5 17 11.5t22 11.5q-36 25 -98 51l-66 23q58 93 150 147q51 29 106.5 44.5t118.5 15.5q67 0 125 -18t101 -52t67 -83.5t24 -111.5v-876h-164zM221 152q0 22 -14 36q-8 12 -37 15q-23 0 -34.5 -12.5
t-16.5 -38.5q0 -23 14 -37q8 -12 37 -15q23 0 37 15q8 8 14 37z" />
    <glyph glyph-name="luthai" unicode="&#xe26;" horiz-adv-x="860" 
d="M614 -305v858q0 67 -45 109q-20 20 -47.5 31.5t-64.5 11.5q-29 0 -53 -4.5t-44 -12.5l-34 -18q-16 -9 -31 -27q81 -40 131 -96q-109 -35 -109 -137v-177q8 -7 11 -20l6 -16q6 -29 6 -45q0 -33 -13 -62.5t-36 -51t-54 -34t-67 -12.5q-70 0 -121 45q-49 49 -49 115
q0 63 45 108q20 20 46.5 33.5t62.5 19.5v103q0 23 6 44t20 40l31 32q6 5 17 11.5t22 11.5q-36 25 -98 51l-66 23q58 93 150 147q51 29 106.5 44.5t118.5 15.5q67 0 125 -18t101 -52t67 -83.5t24 -111.5v-876h-164zM221 152q0 22 -14 36q-8 12 -37 15q-23 0 -34.5 -12.5
t-16.5 -38.5q0 -23 14 -37q8 -12 37 -15q23 0 37 15q8 8 14 37z" />
    <glyph glyph-name="wowaenthai" unicode="&#xc7;" horiz-adv-x="764" 
d="M682 158q0 -36 -13 -66.5t-36.5 -52.5t-56 -34.5t-72.5 -12.5q-37 0 -66 9.5t-55 35.5q-49 46 -49 113q0 32 11 57.5t36 50.5q50 47 119 47l18 -2v250q0 35 -10.5 60.5t-36.5 48.5q-48 43 -119 43q-62 0 -119 -37q-43 -30 -65 -97h-168q11 62 40.5 108.5t80.5 84.5
q49 35 109 53.5t132 18.5q71 0 130 -18.5t101 -51.5t65.5 -79.5t23.5 -102.5v-426zM551 150q0 20 -12.5 33t-38.5 18q-23 0 -34.5 -12.5t-16.5 -38.5q0 -20 11 -33.5t40 -18.5q22 0 37 15q11 11 14 37z" />
    <glyph glyph-name="wowaenthai" unicode="&#xe27;" horiz-adv-x="764" 
d="M682 158q0 -36 -13 -66.5t-36.5 -52.5t-56 -34.5t-72.5 -12.5q-37 0 -66 9.5t-55 35.5q-49 46 -49 113q0 32 11 57.5t36 50.5q50 47 119 47l18 -2v250q0 35 -10.5 60.5t-36.5 48.5q-48 43 -119 43q-62 0 -119 -37q-43 -30 -65 -97h-168q11 62 40.5 108.5t80.5 84.5
q49 35 109 53.5t132 18.5q71 0 130 -18.5t101 -51.5t65.5 -79.5t23.5 -102.5v-426zM551 150q0 20 -12.5 33t-38.5 18q-23 0 -34.5 -12.5t-16.5 -38.5q0 -20 11 -33.5t40 -18.5q22 0 37 15q11 11 14 37z" />
    <glyph glyph-name="sosalathai" unicode="&#xc8;" horiz-adv-x="848" 
d="M860 825q-21 -45 -63 -75q-33 -27 -84 -39q53 -71 53 -166v-545h-164v526q0 75 -45 123q-50 56 -143 56q-42 0 -79 -13.5t-64 -36t-42.5 -52.5t-15.5 -64v-50l2 -34l8 -45l2 -56v-86l23 142l6 30l8 31q2 11 3.5 20t6.5 17l11 18q45 92 147 92q31 0 58 -10t46 -28t30 -44
t11 -57q0 -30 -10.5 -56t-29 -44.5t-45.5 -29.5t-60 -11l-29 2l-36 12q-8 -26 -20.5 -68t-29.5 -102l-43 -182h-166v150q0 23 -1.5 45.5t-6.5 44.5q-3 23 -7.5 50t-12.5 58q-29 122 -29 191q0 120 101 209q49 42 118.5 65t151.5 23h24q13 0 27 -2h12t10.5 -1t13 -3t19.5 -5
l68 -10q33 0 65 25q13 12 24 27t24 44zM481 477q0 23 -12.5 34.5t-38.5 16.5q-23 0 -34.5 -12.5t-16.5 -38.5q0 -22 14 -37q5 -5 14 -8.5t23 -5.5q23 0 34.5 12.5t16.5 38.5z" />
    <glyph glyph-name="sosalathai" unicode="&#xe28;" horiz-adv-x="848" 
d="M860 825q-21 -45 -63 -75q-33 -27 -84 -39q53 -71 53 -166v-545h-164v526q0 75 -45 123q-50 56 -143 56q-42 0 -79 -13.5t-64 -36t-42.5 -52.5t-15.5 -64v-50l2 -34l8 -45l2 -56v-86l23 142l6 30l8 31q2 11 3.5 20t6.5 17l11 18q45 92 147 92q31 0 58 -10t46 -28t30 -44
t11 -57q0 -30 -10.5 -56t-29 -44.5t-45.5 -29.5t-60 -11l-29 2l-36 12q-8 -26 -20.5 -68t-29.5 -102l-43 -182h-166v150q0 23 -1.5 45.5t-6.5 44.5q-3 23 -7.5 50t-12.5 58q-29 122 -29 191q0 120 101 209q49 42 118.5 65t151.5 23h24q13 0 27 -2h12t10.5 -1t13 -3t19.5 -5
l68 -10q33 0 65 25q13 12 24 27t24 44zM481 477q0 23 -12.5 34.5t-38.5 16.5q-23 0 -34.5 -12.5t-16.5 -38.5q0 -22 14 -37q5 -5 14 -8.5t23 -5.5q23 0 34.5 12.5t16.5 38.5z" />
    <glyph glyph-name="sorusithai" unicode="&#xc9;" horiz-adv-x="901" 
d="M911 475q-30 -30 -57 -51l-25 -16l-30 -17v-184q0 -53 -10.5 -92t-36 -64.5t-68.5 -38t-109 -12.5h-493v129q34 0 54.5 2.5t31 9t13.5 18t3 29.5v328l-18 -2q-32 0 -62.5 11t-56.5 34q-47 47 -47 111q0 31 13 60t36 51t54 35t67 13q43 0 72 -12q17 -5 31 -13t26 -22
q49 -45 49 -120v-529h170q36 0 59 4t35.5 14.5t17.5 29t5 46.5v84l-57 -12l-60 -4q-34 0 -63 10t-50 27.5t-33 42.5t-12 55q0 28 10 52t28 41.5t43.5 27.5t56.5 10q28 0 53 -10t43.5 -27t29.5 -41.5t11 -52.5v389h164v-278l22 26zM543 430q0 47 -45 47q-21 0 -35 -14
q-12 -12 -12 -33q0 -14 12 -33q12 -12 35 -12q45 0 45 45zM217 670q0 20 -12.5 33t-38.5 18q-23 0 -34.5 -12.5t-16.5 -38.5q0 -23 14 -37l14 -8l23 -7q22 0 37 15q11 11 14 37z" />
    <glyph glyph-name="sorusithai" unicode="&#xe29;" horiz-adv-x="901" 
d="M911 475q-30 -30 -57 -51l-25 -16l-30 -17v-184q0 -53 -10.5 -92t-36 -64.5t-68.5 -38t-109 -12.5h-493v129q34 0 54.5 2.5t31 9t13.5 18t3 29.5v328l-18 -2q-32 0 -62.5 11t-56.5 34q-47 47 -47 111q0 31 13 60t36 51t54 35t67 13q43 0 72 -12q17 -5 31 -13t26 -22
q49 -45 49 -120v-529h170q36 0 59 4t35.5 14.5t17.5 29t5 46.5v84l-57 -12l-60 -4q-34 0 -63 10t-50 27.5t-33 42.5t-12 55q0 28 10 52t28 41.5t43.5 27.5t56.5 10q28 0 53 -10t43.5 -27t29.5 -41.5t11 -52.5v389h164v-278l22 26zM543 430q0 47 -45 47q-21 0 -35 -14
q-12 -12 -12 -33q0 -14 12 -33q12 -12 35 -12q45 0 45 45zM217 670q0 20 -12.5 33t-38.5 18q-23 0 -34.5 -12.5t-16.5 -38.5q0 -23 14 -37l14 -8l23 -7q22 0 37 15q11 11 14 37z" />
    <glyph glyph-name="sosuathai" unicode="&#xca;" horiz-adv-x="836" 
d="M846 823q-13 -24 -29.5 -42.5t-36.5 -35.5q-23 -20 -82 -38q35 -53 35 -121v-586h-155l-209 408q-11 17 -28.5 25.5t-43.5 8.5q-43 0 -43 -57v-82l18 2q35 0 63.5 -10.5t53.5 -36.5q49 -43 49 -108q0 -32 -13 -60.5t-35.5 -50t-54 -34.5t-67.5 -13q-43 0 -73 10t-56 35
q-49 46 -49 121v237q0 34 12.5 62.5t34.5 51t51.5 38.5t63.5 24h16l17 2l20 5h11t10 2q131 0 184 -105l37 -78l8 -24l16 -54l19 -65l-4 47q0 20 -6 41l-7 55l-4 52v102q0 34 -13 62t-36 48.5t-56 32t-73 11.5q-65 0 -125 -37q-52 -34 -67 -97h-168q24 116 129 189
q106 76 241 76h21t24 -2q11 0 17 -1t29 -8l45 -6l51 -10q14 0 30 6t33 23q16 11 25 30q5 8 8 18.5t8 24.5zM324 150q0 20 -13 33t-39 18q-22 0 -36 -15q-12 -8 -15 -36q0 -23 15 -37q10 -12 36 -15q23 0 35 13q6 8 10.5 17t6.5 22z" />
    <glyph glyph-name="sosuathai" unicode="&#xe2a;" horiz-adv-x="836" 
d="M846 823q-13 -24 -29.5 -42.5t-36.5 -35.5q-23 -20 -82 -38q35 -53 35 -121v-586h-155l-209 408q-11 17 -28.5 25.5t-43.5 8.5q-43 0 -43 -57v-82l18 2q35 0 63.5 -10.5t53.5 -36.5q49 -43 49 -108q0 -32 -13 -60.5t-35.5 -50t-54 -34.5t-67.5 -13q-43 0 -73 10t-56 35
q-49 46 -49 121v237q0 34 12.5 62.5t34.5 51t51.5 38.5t63.5 24h16l17 2l20 5h11t10 2q131 0 184 -105l37 -78l8 -24l16 -54l19 -65l-4 47q0 20 -6 41l-7 55l-4 52v102q0 34 -13 62t-36 48.5t-56 32t-73 11.5q-65 0 -125 -37q-52 -34 -67 -97h-168q24 116 129 189
q106 76 241 76h21t24 -2q11 0 17 -1t29 -8l45 -6l51 -10q14 0 30 6t33 23q16 11 25 30q5 8 8 18.5t8 24.5zM324 150q0 20 -13 33t-39 18q-22 0 -36 -15q-12 -8 -15 -36q0 -23 15 -37q10 -12 36 -15q23 0 35 13q6 8 10.5 17t6.5 22z" />
    <glyph glyph-name="hohipthai" unicode="&#xcb;" horiz-adv-x="887" 
d="M825 678q0 -66 -53 -113q8 -8 15 -17t12 -22q2 -11 4 -24.5t2 -36.5v-465h-164v469v18l-4 21q-4 11 -19 14q-12 0 -29 -11t-40 -36l-29 -39l-37 -55l-39 -76l-41 -98q-9 -26 -16.5 -53t-15.5 -56q-8 -24 -13 -48t-10 -50h-164v516l-18 -2q-32 0 -62.5 11t-56.5 34
q-47 47 -47 111q0 31 13 60t36 51t54 35t67 13q43 0 72 -12q17 -5 31 -13t26 -22q49 -45 49 -120v-154q0 -12 -3 -36.5t-11 -72.5l-6 -39q0 -8 -3 -22.5t-8 -28.5l21 76q11 38 18.5 61t14.5 31l22 35q6 8 15 17l20 20q20 20 38.5 35.5t35.5 27.5q-8 16 -12.5 32.5t-4.5 33.5
q0 33 13.5 62t37 50t54 33.5t65.5 12.5q65 0 119 -48q51 -41 51 -110zM709 676q0 22 -15 37q-11 11 -37 14q-22 0 -36 -14q-12 -8 -15 -37q0 -23 15 -37q8 -8 36 -14q23 0 35 12.5t17 38.5zM217 670q0 20 -12.5 33t-38.5 18q-23 0 -34.5 -12.5t-16.5 -38.5q0 -23 14 -37
l14 -8l23 -7q22 0 37 15q11 11 14 37z" />
    <glyph glyph-name="hohipthai" unicode="&#xe2b;" horiz-adv-x="887" 
d="M825 678q0 -66 -53 -113q8 -8 15 -17t12 -22q2 -11 4 -24.5t2 -36.5v-465h-164v469v18l-4 21q-4 11 -19 14q-12 0 -29 -11t-40 -36l-29 -39l-37 -55l-39 -76l-41 -98q-9 -26 -16.5 -53t-15.5 -56q-8 -24 -13 -48t-10 -50h-164v516l-18 -2q-32 0 -62.5 11t-56.5 34
q-47 47 -47 111q0 31 13 60t36 51t54 35t67 13q43 0 72 -12q17 -5 31 -13t26 -22q49 -45 49 -120v-154q0 -12 -3 -36.5t-11 -72.5l-6 -39q0 -8 -3 -22.5t-8 -28.5l21 76q11 38 18.5 61t14.5 31l22 35q6 8 15 17l20 20q20 20 38.5 35.5t35.5 27.5q-8 16 -12.5 32.5t-4.5 33.5
q0 33 13.5 62t37 50t54 33.5t65.5 12.5q65 0 119 -48q51 -41 51 -110zM709 676q0 22 -15 37q-11 11 -37 14q-22 0 -36 -14q-12 -8 -15 -37q0 -23 15 -37q8 -8 36 -14q23 0 35 12.5t17 38.5zM217 670q0 20 -12.5 33t-38.5 18q-23 0 -34.5 -12.5t-16.5 -38.5q0 -23 14 -37
l14 -8l23 -7q22 0 37 15q11 11 14 37z" />
    <glyph glyph-name="lochulathai" unicode="&#xcc;" horiz-adv-x="971" 
d="M958 948q-11 -34 -31.5 -62.5t-49.5 -51.5q12 -17 12 -56v-631q0 -78 -31 -112.5t-100 -34.5h-80l-141 449l-162 -449h-191v516l-18 -2q-32 0 -62.5 11t-56.5 34q-47 47 -47 111q0 31 13 60t36 51t54 35t67 13q82 0 130 -43.5t48 -123.5v-207l-2 -54v-53q0 -50 -6 -96
l18 63l41 123l74 217h127l74 -217l37 -121l18 -65l-2 96v49v33l-2 25v278l-68 -20l-32 -4l-29 -4q-96 0 -156 40q-57 45 -57 113q0 31 14 58t45 53q32 23 72.5 35t89.5 12l58 -2q11 -2 22.5 -5t24.5 -8q25 -6 41 -18q9 -5 19.5 -11t23.5 -16l28 62zM674 852q-23 53 -80 53
q-22 0 -49 -12q-20 -6 -23 -33q0 -17 23 -31l24 -6l29 -2q42 0 76 31zM217 670q0 20 -12.5 33t-38.5 18q-23 0 -34.5 -12.5t-16.5 -38.5q0 -23 14 -37l14 -8l23 -7q22 0 37 15q11 11 14 37z" />
    <glyph glyph-name="lochulathai" unicode="&#xe2c;" horiz-adv-x="971" 
d="M958 948q-11 -34 -31.5 -62.5t-49.5 -51.5q12 -17 12 -56v-631q0 -78 -31 -112.5t-100 -34.5h-80l-141 449l-162 -449h-191v516l-18 -2q-32 0 -62.5 11t-56.5 34q-47 47 -47 111q0 31 13 60t36 51t54 35t67 13q82 0 130 -43.5t48 -123.5v-207l-2 -54v-53q0 -50 -6 -96
l18 63l41 123l74 217h127l74 -217l37 -121l18 -65l-2 96v49v33l-2 25v278l-68 -20l-32 -4l-29 -4q-96 0 -156 40q-57 45 -57 113q0 31 14 58t45 53q32 23 72.5 35t89.5 12l58 -2q11 -2 22.5 -5t24.5 -8q25 -6 41 -18q9 -5 19.5 -11t23.5 -16l28 62zM674 852q-23 53 -80 53
q-22 0 -49 -12q-20 -6 -23 -33q0 -17 23 -31l24 -6l29 -2q42 0 76 31zM217 670q0 20 -12.5 33t-38.5 18q-23 0 -34.5 -12.5t-16.5 -38.5q0 -23 14 -37l14 -8l23 -7q22 0 37 15q11 11 14 37z" />
    <glyph glyph-name="oangthai" unicode="&#xcd;" horiz-adv-x="815" 
d="M733 209q0 -55 -11 -94.5t-37 -65t-68.5 -37.5t-106.5 -12h-408v391q0 36 12.5 66.5t36 53t56.5 35.5t74 13h20q13 0 29 -4t34 -14t37 -29q50 -47 50 -113q0 -65 -50 -110q-44 -43 -116 -43l-19 2v-115h187q33 0 55 4t35.5 14.5t19.5 29t6 46.5v328q0 35 -10.5 60.5
t-36.5 48.5q-23 20 -54 30.5t-73 10.5q-69 0 -121 -34t-75 -100h-170q18 60 52 109t85 86q48 32 108.5 51t133.5 19q74 0 128.5 -17t102.5 -55q94 -70 94 -180v-375zM336 399q0 23 -14 37q-17 12 -37 15q-22 0 -37 -15q-7 -7 -15 -37q0 -18 15 -37q5 -5 14 -8.5t23 -5.5
q22 0 37 14q5 5 8.5 14t5.5 23z" />
    <glyph glyph-name="oangthai" unicode="&#xe2d;" horiz-adv-x="815" 
d="M733 209q0 -55 -11 -94.5t-37 -65t-68.5 -37.5t-106.5 -12h-408v391q0 36 12.5 66.5t36 53t56.5 35.5t74 13h20q13 0 29 -4t34 -14t37 -29q50 -47 50 -113q0 -65 -50 -110q-44 -43 -116 -43l-19 2v-115h187q33 0 55 4t35.5 14.5t19.5 29t6 46.5v328q0 35 -10.5 60.5
t-36.5 48.5q-23 20 -54 30.5t-73 10.5q-69 0 -121 -34t-75 -100h-170q18 60 52 109t85 86q48 32 108.5 51t133.5 19q74 0 128.5 -17t102.5 -55q94 -70 94 -180v-375zM336 399q0 23 -14 37q-17 12 -37 15q-22 0 -37 -15q-7 -7 -15 -37q0 -18 15 -37q5 -5 14 -8.5t23 -5.5
q22 0 37 14q5 5 8.5 14t5.5 23z" />
    <glyph glyph-name="honokhukthai" unicode="&#xce;" horiz-adv-x="795" 
d="M782 776q-16 -41 -37 -61q-8 -13 -19.5 -23.5t-25.5 -21.5q13 -33 13 -68v-393q0 -108 -49 -162q-47 -47 -175 -47h-407v350q0 37 10.5 66t36.5 55q50 47 131 47h21t27.5 -4t33.5 -14t39 -29q49 -46 49 -113q0 -31 -12.5 -58.5t-34.5 -48.5t-52.5 -33.5t-66.5 -12.5
l-18 2v-74h186q34 0 57 4t36 14.5t18.5 29t5.5 46.5v340l-72 -20l-41 -8l-43 -9l-65 -4q-97 0 -183 37q-82 37 -82 103q0 72 95 122q43 23 102 37.5t125 14.5q124 0 215 -58l25 35l24 55zM494 688q-51 39 -142 39q-54 0 -86 -14q-37 -12 -37 -43q0 -7 25 -23l20 -6l39 -2h23
h14l12 2q39 0 69.5 11t62.5 36zM315 358q0 23 -12.5 35t-38.5 17q-22 0 -37 -15q-5 -5 -8.5 -14t-5.5 -23q0 -20 12.5 -33t38.5 -18q23 0 37 15q8 8 14 36z" />
    <glyph glyph-name="honokhukthai" unicode="&#xe2e;" horiz-adv-x="795" 
d="M782 776q-16 -41 -37 -61q-8 -13 -19.5 -23.5t-25.5 -21.5q13 -33 13 -68v-393q0 -108 -49 -162q-47 -47 -175 -47h-407v350q0 37 10.5 66t36.5 55q50 47 131 47h21t27.5 -4t33.5 -14t39 -29q49 -46 49 -113q0 -31 -12.5 -58.5t-34.5 -48.5t-52.5 -33.5t-66.5 -12.5
l-18 2v-74h186q34 0 57 4t36 14.5t18.5 29t5.5 46.5v340l-72 -20l-41 -8l-43 -9l-65 -4q-97 0 -183 37q-82 37 -82 103q0 72 95 122q43 23 102 37.5t125 14.5q124 0 215 -58l25 35l24 55zM494 688q-51 39 -142 39q-54 0 -86 -14q-37 -12 -37 -43q0 -7 25 -23l20 -6l39 -2h23
h14l12 2q39 0 69.5 11t62.5 36zM315 358q0 23 -12.5 35t-38.5 17q-22 0 -37 -15q-5 -5 -8.5 -14t-5.5 -23q0 -20 12.5 -33t38.5 -18q23 0 37 15q8 8 14 36z" />
    <glyph glyph-name="paiyannoithai" unicode="&#xcf;" horiz-adv-x="778" 
d="M532 0v555l-49 -27l-61 -26q-63 -19 -117 -19q-49 0 -92 14t-80 40q-74 54 -74 137q0 31 13.5 59.5t36.5 49.5t53.5 33.5t64.5 12.5t64.5 -11.5t53.5 -31.5t36.5 -49t13.5 -63l-4 -39q25 8 47.5 26t42.5 44q20 20 33.5 49.5t20.5 64.5h51q53 0 84 -37q12 -14 18 -45
q5 -12 6.5 -25t1.5 -30v-682h-164zM281 674q0 17 -15 37q-11 11 -37 14q-20 0 -33 -12.5t-18 -38.5q0 -23 15 -37q8 -8 36 -14q23 0 35 12.5t17 38.5z" />
    <glyph glyph-name="paiyannoithai" unicode="&#xe2f;" horiz-adv-x="778" 
d="M532 0v555l-49 -27l-61 -26q-63 -19 -117 -19q-49 0 -92 14t-80 40q-74 54 -74 137q0 31 13.5 59.5t36.5 49.5t53.5 33.5t64.5 12.5t64.5 -11.5t53.5 -31.5t36.5 -49t13.5 -63l-4 -39q25 8 47.5 26t42.5 44q20 20 33.5 49.5t20.5 64.5h51q53 0 84 -37q12 -14 18 -45
q5 -12 6.5 -25t1.5 -30v-682h-164zM281 674q0 17 -15 37q-11 11 -37 14q-20 0 -33 -12.5t-18 -38.5q0 -23 15 -37q8 -8 36 -14q23 0 35 12.5t17 38.5z" />
    <glyph glyph-name="saraathai" unicode="&#xd0;" horiz-adv-x="762" 
d="M700 770q-12 -139 -129 -221q-51 -35 -107.5 -53.5t-119.5 -18.5q-29 0 -54.5 3t-51.5 9q-23 8 -47.5 18.5t-47.5 24.5q-82 58 -82 138q0 30 12.5 57t33.5 47.5t50 32.5t62 12q62 0 109 -41q20 -18 32.5 -44t12.5 -58q0 -9 -1 -17t-3 -14l-2 -14q-2 -5 -4 -8.5t-5 -8.5
q59 0 113 37q26 20 42 50.5t24 68.5h163zM700 293q-12 -139 -129 -221q-51 -35 -107.5 -53.5t-119.5 -18.5q-116 0 -199 55q-42 29 -63 63t-21 75q0 30 12.5 57t33.5 47.5t50 32.5t62 12q62 0 109 -41q20 -20 32.5 -45t12.5 -57q0 -10 -1 -17.5t-3 -13.5l-2 -14
q-2 -5 -4 -8.5t-5 -8.5q59 0 113 37q26 20 42 50.5t24 68.5h163zM266 676q0 38 -47 47q-18 0 -33 -14q-5 -5 -8.5 -13.5t-5.5 -19.5q0 -38 47 -47q17 0 29.5 12t17.5 35zM266 199q0 18 -14 32q-8 12 -33 15q-18 0 -33 -15q-5 -5 -8.5 -13t-5.5 -19q0 -38 47 -47
q17 0 29.5 12t17.5 35z" />
    <glyph glyph-name="saraathai" unicode="&#xe30;" horiz-adv-x="762" 
d="M700 770q-12 -139 -129 -221q-51 -35 -107.5 -53.5t-119.5 -18.5q-29 0 -54.5 3t-51.5 9q-23 8 -47.5 18.5t-47.5 24.5q-82 58 -82 138q0 30 12.5 57t33.5 47.5t50 32.5t62 12q62 0 109 -41q20 -18 32.5 -44t12.5 -58q0 -9 -1 -17t-3 -14l-2 -14q-2 -5 -4 -8.5t-5 -8.5
q59 0 113 37q26 20 42 50.5t24 68.5h163zM700 293q-12 -139 -129 -221q-51 -35 -107.5 -53.5t-119.5 -18.5q-116 0 -199 55q-42 29 -63 63t-21 75q0 30 12.5 57t33.5 47.5t50 32.5t62 12q62 0 109 -41q20 -20 32.5 -45t12.5 -57q0 -10 -1 -17.5t-3 -13.5l-2 -14
q-2 -5 -4 -8.5t-5 -8.5q59 0 113 37q26 20 42 50.5t24 68.5h163zM266 676q0 38 -47 47q-18 0 -33 -14q-5 -5 -8.5 -13.5t-5.5 -19.5q0 -38 47 -47q17 0 29.5 12t17.5 35zM266 199q0 18 -14 32q-8 12 -33 15q-18 0 -33 -15q-5 -5 -8.5 -13t-5.5 -19q0 -38 47 -47
q17 0 29.5 12t17.5 35z" />
    <glyph glyph-name="maihanakatthai" unicode="&#xd1;" 
d="M137 1219q-12 -130 -123 -203q-107 -74 -256 -74q-62 0 -113.5 13t-89 35.5t-58.5 53.5t-21 68q0 30 11.5 56.5t32.5 46t49.5 31t63.5 11.5q36 0 62 -8.5t51 -31.5q41 -38 41 -97l-2 -30q-2 -7 -5.5 -13t-8.5 -14q40 0 75 9.5t64 29.5q54 34 63 117h164zM-319 1120
q0 17 -12.5 29.5t-35.5 17.5q-38 0 -47 -47q0 -18 15 -33q5 -5 13 -8.5t19 -5.5q37 0 48 47z" />
    <glyph glyph-name="maihanakatthai" unicode="&#xe31;" 
d="M137 1219q-12 -130 -123 -203q-107 -74 -256 -74q-62 0 -113.5 13t-89 35.5t-58.5 53.5t-21 68q0 30 11.5 56.5t32.5 46t49.5 31t63.5 11.5q36 0 62 -8.5t51 -31.5q41 -38 41 -97l-2 -30q-2 -7 -5.5 -13t-8.5 -14q40 0 75 9.5t64 29.5q54 34 63 117h164zM-319 1120
q0 17 -12.5 29.5t-35.5 17.5q-38 0 -47 -47q0 -18 15 -33q5 -5 13 -8.5t19 -5.5q37 0 48 47z" />
    <glyph glyph-name="saraaathai" unicode="&#xd2;" horiz-adv-x="702" 
d="M457 0v553q0 68 -37 113q-17 17 -43.5 28t-57.5 11q-58 0 -98 -39q-36 -38 -51 -95h-170q14 60 42.5 109t70.5 83.5t96 53.5t119 19q32 0 62 -4.5t54 -12.5q52 -15 95 -55q82 -73 82 -189v-575h-164z" />
    <glyph glyph-name="saraaathai" unicode="&#xe32;" horiz-adv-x="702" 
d="M457 0v553q0 68 -37 113q-17 17 -43.5 28t-57.5 11q-58 0 -98 -39q-36 -38 -51 -95h-170q14 60 42.5 109t70.5 83.5t96 53.5t119 19q32 0 62 -4.5t54 -12.5q52 -15 95 -55q82 -73 82 -189v-575h-164z" />
    <glyph glyph-name="saraamthai" unicode="&#xd3;" horiz-adv-x="682" 
d="M23 1114q0 -75 -52 -133q-14 -14 -29 -23.5t-30 -17.5q-35 -12 -74 -12q-38 0 -70 12t-61 41q-55 55 -55 133q0 37 14 70.5t39 59t59 41t74 15.5q75 0 133 -55q52 -52 52 -131zM436 0v553q0 73 -37 113q-18 18 -43.5 28.5t-56.5 10.5q-60 0 -95.5 -36t-53.5 -98h-168
q13 59 41 108t69 84t95.5 54t119.5 19q32 0 62 -4.5t55 -12.5q50 -14 94 -55q82 -73 82 -189v-575h-164zM-90 1114q0 19 -4 29t-17 22q-14 18 -51 21q-18 0 -28.5 -3.5t-22.5 -17.5q-8 -8 -13 -20t-7 -31q0 -31 20 -51q18 -18 51 -21q30 0 51 21q21 14 21 51z" />
    <glyph glyph-name="saraamthai" unicode="&#xe33;" horiz-adv-x="682" 
d="M23 1114q0 -75 -52 -133q-14 -14 -29 -23.5t-30 -17.5q-35 -12 -74 -12q-38 0 -70 12t-61 41q-55 55 -55 133q0 37 14 70.5t39 59t59 41t74 15.5q75 0 133 -55q52 -52 52 -131zM436 0v553q0 73 -37 113q-18 18 -43.5 28.5t-56.5 10.5q-60 0 -95.5 -36t-53.5 -98h-168
q13 59 41 108t69 84t95.5 54t119.5 19q32 0 62 -4.5t55 -12.5q50 -14 94 -55q82 -73 82 -189v-575h-164zM-90 1114q0 19 -4 29t-17 22q-14 18 -51 21q-18 0 -28.5 -3.5t-22.5 -17.5q-8 -8 -13 -20t-7 -31q0 -31 20 -51q18 -18 51 -21q30 0 51 21q21 14 21 51z" />
    <glyph glyph-name="saraithai" unicode="&#xd4;" 
d="M-59 901q-91 43 -183.5 64.5t-189.5 21.5q-131 0 -275 -37q0 120 86 203q44 38 95.5 60t117.5 22q147 0 248 -92t101 -242zM-248 1057q-18 34 -61 55l-45 16q-21 7 -47 7q-23 0 -43.5 -5t-40.5 -14q-32 -11 -52 -49l66 6l61 4q47 0 87 -4.5t75 -15.5z" />
    <glyph glyph-name="saraithai" unicode="&#xe34;" 
d="M-59 901q-91 43 -183.5 64.5t-189.5 21.5q-131 0 -275 -37q0 120 86 203q44 38 95.5 60t117.5 22q147 0 248 -92t101 -242zM-248 1057q-18 34 -61 55l-45 16q-21 7 -47 7q-23 0 -43.5 -5t-40.5 -14q-32 -11 -52 -49l66 6l61 4q47 0 87 -4.5t75 -15.5z" />
    <glyph glyph-name="saraiithai" unicode="&#xd5;" 
d="M-80 901q-85 38 -181.5 63t-195.5 25h-32t-33 -2q-14 0 -30.5 -1.5t-35.5 -6.5l-86 -12l-53 -15q0 126 86 209q82 84 213 84h19q8 0 19.5 -1.5t26.5 -4.5t39 -10q47 -15 80 -39v110h164v-399zM-268 1057q-24 35 -62 55q-12 8 -33 15.5t-59 7.5q-23 0 -43 -5
q-11 -2 -21.5 -5.5t-19.5 -8.5q-36 -15 -51 -49l65 6l62 4q45 0 86 -4.5t76 -15.5z" />
    <glyph glyph-name="saraiithai" unicode="&#xe35;" 
d="M-80 901q-85 38 -181.5 63t-195.5 25h-32t-33 -2q-14 0 -30.5 -1.5t-35.5 -6.5l-86 -12l-53 -15q0 126 86 209q82 84 213 84h19q8 0 19.5 -1.5t26.5 -4.5t39 -10q47 -15 80 -39v110h164v-399zM-268 1057q-24 35 -62 55q-12 8 -33 15.5t-59 7.5q-23 0 -43 -5
q-11 -2 -21.5 -5.5t-19.5 -8.5q-36 -15 -51 -49l65 6l62 4q45 0 86 -4.5t76 -15.5z" />
    <glyph glyph-name="sarauethai" unicode="&#xd6;" 
d="M-29 1167q0 -38 -24 -77q-24 -27 -66 -50q31 -66 31 -139q-91 43 -183.5 64.5t-189.5 21.5q-66 0 -134.5 -9t-139.5 -28q0 120 88 201q90 84 211 84q43 0 78 -6q18 -5 33.5 -10t35.5 -13q6 20 18 37t29 31q36 26 80 26q27 0 51 -10.5t42.5 -28.5t29 -42t10.5 -52z
M-111 1167q0 23 -12.5 35t-38.5 17q-18 0 -37 -15q-5 -5 -8.5 -14t-5.5 -23q0 -22 14 -37q5 -5 14 -8.5t23 -5.5q23 0 34.5 12.5t16.5 38.5zM-276 1057q-21 35 -62 55q-14 6 -34 14.5t-58 8.5q-23 0 -43.5 -5t-40.5 -14q-36 -14 -51 -49l65 6l62 4q45 0 85.5 -4.5
t76.5 -15.5z" />
    <glyph glyph-name="sarauethai" unicode="&#xe36;" 
d="M-29 1167q0 -38 -24 -77q-24 -27 -66 -50q31 -66 31 -139q-91 43 -183.5 64.5t-189.5 21.5q-66 0 -134.5 -9t-139.5 -28q0 120 88 201q90 84 211 84q43 0 78 -6q18 -5 33.5 -10t35.5 -13q6 20 18 37t29 31q36 26 80 26q27 0 51 -10.5t42.5 -28.5t29 -42t10.5 -52z
M-111 1167q0 23 -12.5 35t-38.5 17q-18 0 -37 -15q-5 -5 -8.5 -14t-5.5 -23q0 -22 14 -37q5 -5 14 -8.5t23 -5.5q23 0 34.5 12.5t16.5 38.5zM-276 1057q-21 35 -62 55q-14 6 -34 14.5t-58 8.5q-23 0 -43.5 -5t-40.5 -14q-36 -14 -51 -49l65 6l62 4q45 0 85.5 -4.5
t76.5 -15.5z" />
    <glyph glyph-name="saraueethai" unicode="&#xd7;" 
d="M-80 901q-85 38 -181.5 63t-195.5 25h-32t-33 -2q-14 0 -30.5 -1.5t-35.5 -6.5l-86 -12l-53 -15q0 126 86 209q82 84 213 84l41 -2v57h123v-88q23 -11 36.5 -19t24.5 -22v129h123v-399zM-268 1057q-24 35 -62 55q-12 8 -33 15.5t-59 7.5q-23 0 -43 -5q-11 -2 -21.5 -5.5
t-19.5 -8.5q-36 -15 -51 -49l65 6l62 4q45 0 86 -4.5t76 -15.5z" />
    <glyph glyph-name="saraueethai" unicode="&#xe37;" 
d="M-80 901q-85 38 -181.5 63t-195.5 25h-32t-33 -2q-14 0 -30.5 -1.5t-35.5 -6.5l-86 -12l-53 -15q0 126 86 209q82 84 213 84l41 -2v57h123v-88q23 -11 36.5 -19t24.5 -22v129h123v-399zM-268 1057q-24 35 -62 55q-12 8 -33 15.5t-59 7.5q-23 0 -43 -5q-11 -2 -21.5 -5.5
t-19.5 -8.5q-36 -15 -51 -49l65 6l62 4q45 0 86 -4.5t76 -15.5z" />
    <glyph glyph-name="sarauthai" unicode="&#xd8;" 
d="M-244 -530v170h-10q-65 0 -108 41q-44 39 -44 100q0 27 12 52t33 44.5t49.5 31t61.5 11.5q38 0 68 -9t55 -32q47 -47 47 -106v-303h-164zM-207 -219q0 17 -12 29.5t-35 17.5q-38 0 -47 -47q0 -19 14 -33q8 -8 33 -14q38 0 47 47z" />
    <glyph glyph-name="sarauthai" unicode="&#xe38;" 
d="M-244 -530v170h-10q-65 0 -108 41q-44 39 -44 100q0 27 12 52t33 44.5t49.5 31t61.5 11.5q38 0 68 -9t55 -32q47 -47 47 -106v-303h-164zM-207 -219q0 17 -12 29.5t-35 17.5q-38 0 -47 -47q0 -19 14 -33q8 -8 33 -14q38 0 47 47z" />
    <glyph glyph-name="sarauuthai" unicode="&#xd9;" 
d="M-80 -387q0 -23 -1.5 -40.5t-6.5 -31.5q-3 -14 -9.5 -26t-17.5 -23q-39 -43 -147 -43h-299v117q44 0 58 6.5t14 32.5v35h-11q-32 0 -59.5 10.5t-47.5 29t-32 44.5t-12 57q0 29 10.5 52t36.5 46q44 41 108 41q39 0 68.5 -9t54.5 -32q47 -47 47 -106v-203h27q32 0 47 12
q2 2 3.5 12.5t4.5 28.5v291h164v-301zM-453 -219q0 17 -12 29.5t-35 17.5q-18 0 -32 -14q-12 -12 -15 -33q0 -38 47 -47q38 0 47 47z" />
    <glyph glyph-name="sarauuthai" unicode="&#xe39;" 
d="M-80 -387q0 -23 -1.5 -40.5t-6.5 -31.5q-3 -14 -9.5 -26t-17.5 -23q-39 -43 -147 -43h-299v117q44 0 58 6.5t14 32.5v35h-11q-32 0 -59.5 10.5t-47.5 29t-32 44.5t-12 57q0 29 10.5 52t36.5 46q44 41 108 41q39 0 68.5 -9t54.5 -32q47 -47 47 -106v-203h27q32 0 47 12
q2 2 3.5 12.5t4.5 28.5v291h164v-301zM-453 -219q0 17 -12 29.5t-35 17.5q-18 0 -32 -14q-12 -12 -15 -33q0 -38 47 -47q38 0 47 47z" />
    <glyph glyph-name="phinthuthai" unicode="&#xda;" 
d="M-59 -182q0 -36 -31 -72q-36 -31 -72 -31q-37 0 -71 31q-31 31 -31 72q0 18 7.5 36t23.5 35q30 31 71 31q38 0 72 -31q31 -31 31 -71z" />
    <glyph glyph-name="phinthuthai" unicode="&#xe3a;" 
d="M-59 -182q0 -36 -31 -72q-36 -31 -72 -31q-37 0 -71 31q-31 31 -31 72q0 18 7.5 36t23.5 35q30 31 71 31q38 0 72 -31q31 -31 31 -71z" />
    <glyph glyph-name="PU2005.003" unicode="&#xdb;" 
 />
    <glyph glyph-name="PU2005.003" unicode="&#xe3b;" 
 />
    <glyph glyph-name="PU2005.002" unicode="&#xdc;" 
 />
    <glyph glyph-name="PU2005.002" unicode="&#xe3c;" 
 />
    <glyph glyph-name="PU2005.001" unicode="&#xdd;" 
 />
    <glyph glyph-name="PU2005.001" unicode="&#xe3d;" 
 />
    <glyph glyph-name="bahtthai" unicode="&#xdf;" horiz-adv-x="952" 
d="M901 281q0 -133 -104 -213q-45 -32 -104.5 -50t-131.5 -18h-49v-135h-80v135h-338v965h338v137h80v-137h35q147 0 223 -52q86 -59 86 -188q0 -134 -131 -201q85 -24 130.5 -87.5t45.5 -155.5zM649 690q0 58 -39 84q-31 27 -98 27v-228h8q60 0 94.5 28.5t34.5 88.5z
M432 801h-127v-228h127v228zM690 293q0 68 -40.5 102.5t-112.5 34.5h-25v-264h20q70 0 111 24q47 32 47 103zM432 430h-127v-264h127v264z" />
    <glyph glyph-name="bahtthai" unicode="&#xe3f;" horiz-adv-x="952" 
d="M901 281q0 -133 -104 -213q-45 -32 -104.5 -50t-131.5 -18h-49v-135h-80v135h-338v965h338v137h80v-137h35q147 0 223 -52q86 -59 86 -188q0 -134 -131 -201q85 -24 130.5 -87.5t45.5 -155.5zM649 690q0 58 -39 84q-31 27 -98 27v-228h8q60 0 94.5 28.5t34.5 88.5z
M432 801h-127v-228h127v228zM690 293q0 68 -40.5 102.5t-112.5 34.5h-25v-264h20q70 0 111 24q47 32 47 103zM432 430h-127v-264h127v264z" />
    <glyph glyph-name="saraethai" unicode="&#xe0;" horiz-adv-x="451" 
d="M451 150q0 -32 -13 -60.5t-36 -50t-54 -34.5t-67 -13q-44 0 -73.5 9.5t-55.5 35.5q-50 47 -50 121v661h164v-516l19 2q71 0 116 -47q25 -23 37.5 -49.5t12.5 -58.5zM336 150q0 20 -12.5 33t-38.5 18q-23 0 -37 -15q-7 -7 -15 -36q0 -22 15 -37q8 -12 37 -15q22 0 37 15
q11 11 14 37z" />
    <glyph glyph-name="saraethai" unicode="&#xe40;" horiz-adv-x="451" 
d="M451 150q0 -32 -13 -60.5t-36 -50t-54 -34.5t-67 -13q-44 0 -73.5 9.5t-55.5 35.5q-50 47 -50 121v661h164v-516l19 2q71 0 116 -47q25 -23 37.5 -49.5t12.5 -58.5zM336 150q0 20 -12.5 33t-38.5 18q-23 0 -37 -15q-7 -7 -15 -36q0 -22 15 -37q8 -12 37 -15q22 0 37 15
q11 11 14 37z" />
    <glyph glyph-name="saraaethai" unicode="&#xe1;" horiz-adv-x="860" 
d="M860 150q0 -32 -13 -60.5t-36 -50t-54 -34.5t-67 -13q-43 0 -73 10t-56 35q-49 46 -49 121v661h164v-516l18 2q35 0 63.5 -10.5t53.5 -36.5q49 -43 49 -108zM451 150q0 -32 -13 -60.5t-36 -50t-54 -34.5t-67 -13q-44 0 -73.5 9.5t-55.5 35.5q-50 47 -50 121v661h164v-516
l19 2q71 0 116 -47q25 -23 37.5 -49.5t12.5 -58.5zM745 150q0 20 -12.5 33t-38.5 18q-22 0 -37 -15q-5 -5 -8.5 -13.5t-5.5 -22.5q0 -23 12.5 -35t38.5 -17q23 0 37 15q8 8 14 37zM336 150q0 20 -12.5 33t-38.5 18q-23 0 -37 -15q-7 -7 -15 -36q0 -22 15 -37q8 -12 37 -15
q22 0 37 15q11 11 14 37z" />
    <glyph glyph-name="saraaethai" unicode="&#xe41;" horiz-adv-x="860" 
d="M860 150q0 -32 -13 -60.5t-36 -50t-54 -34.5t-67 -13q-43 0 -73 10t-56 35q-49 46 -49 121v661h164v-516l18 2q35 0 63.5 -10.5t53.5 -36.5q49 -43 49 -108zM451 150q0 -32 -13 -60.5t-36 -50t-54 -34.5t-67 -13q-44 0 -73.5 9.5t-55.5 35.5q-50 47 -50 121v661h164v-516
l19 2q71 0 116 -47q25 -23 37.5 -49.5t12.5 -58.5zM745 150q0 20 -12.5 33t-38.5 18q-22 0 -37 -15q-5 -5 -8.5 -13.5t-5.5 -22.5q0 -23 12.5 -35t38.5 -17q23 0 37 15q8 8 14 37zM336 150q0 20 -12.5 33t-38.5 18q-23 0 -37 -15q-7 -7 -15 -36q0 -22 15 -37q8 -12 37 -15
q22 0 37 15q11 11 14 37z" />
    <glyph glyph-name="saraothai" unicode="&#xe2;" horiz-adv-x="553" 
d="M575 1339q-86 -98 -182 -98q-35 0 -98 31q-19 9 -45 18t-64 13q-35 0 -62 -11.5t-38 -29.5q109 0 197 -50q86 -48 86 -137v-772l18 2q35 0 63.5 -10.5t53.5 -36.5q49 -43 49 -108q0 -32 -13 -60.5t-36 -50t-54 -34.5t-67 -13q-42 0 -72.5 10t-56.5 35q-49 46 -49 121v895
q0 62 -86 94q-32 9 -76 12l-117 4h-63q24 116 114 191q39 35 90 55.5t105 20.5q14 0 26 -1.5t23 -3.5q23 -3 64 -18q29 -9 52 -15t42 -8q36 0 80 50zM438 150q0 22 -14 36q-8 12 -37 15q-23 0 -34.5 -12.5t-16.5 -38.5q0 -23 14 -37q8 -12 37 -15q23 0 37 15q8 8 14 37z" />
    <glyph glyph-name="saraothai" unicode="&#xe42;" horiz-adv-x="553" 
d="M575 1339q-86 -98 -182 -98q-35 0 -98 31q-19 9 -45 18t-64 13q-35 0 -62 -11.5t-38 -29.5q109 0 197 -50q86 -48 86 -137v-772l18 2q35 0 63.5 -10.5t53.5 -36.5q49 -43 49 -108q0 -32 -13 -60.5t-36 -50t-54 -34.5t-67 -13q-42 0 -72.5 10t-56.5 35q-49 46 -49 121v895
q0 62 -86 94q-32 9 -76 12l-117 4h-63q24 116 114 191q39 35 90 55.5t105 20.5q14 0 26 -1.5t23 -3.5q23 -3 64 -18q29 -9 52 -15t42 -8q36 0 80 50zM438 150q0 22 -14 36q-8 12 -37 15q-23 0 -34.5 -12.5t-16.5 -38.5q0 -23 14 -37q8 -12 37 -15q23 0 37 15q8 8 14 37z" />
    <glyph glyph-name="saraaimaimuanthai" unicode="&#xe3;" horiz-adv-x="553" 
d="M553 150q0 -32 -13 -60.5t-36 -50t-54 -34.5t-67 -13q-42 0 -72.5 10t-56.5 35q-49 46 -49 121v846q0 21 15.5 45.5t47.5 50.5q66 54 66 117q0 20 -9 36t-26 27q-31 25 -82 25l12 -31l4 -37q0 -29 -11 -54.5t-31.5 -44.5t-48 -30.5t-60.5 -11.5q-64 0 -105 41
q-23 20 -34 44t-11 56q0 92 88 143q89 54 199 54q54 0 101.5 -14t91.5 -42q86 -56 86 -149q0 -78 -66 -144q-63 -63 -63 -120v-662l18 2q35 0 63.5 -10.5t53.5 -36.5q49 -43 49 -108zM131 1235q0 38 -47 47q-38 0 -47 -47q0 -19 14 -33q8 -8 33 -14q17 0 29.5 12t17.5 35z
M438 150q0 22 -14 36q-8 12 -37 15q-23 0 -34.5 -12.5t-16.5 -38.5q0 -23 14 -37q8 -12 37 -15q23 0 37 15q8 8 14 37z" />
    <glyph glyph-name="saraaimaimuanthai" unicode="&#xe43;" horiz-adv-x="553" 
d="M553 150q0 -32 -13 -60.5t-36 -50t-54 -34.5t-67 -13q-42 0 -72.5 10t-56.5 35q-49 46 -49 121v846q0 21 15.5 45.5t47.5 50.5q66 54 66 117q0 20 -9 36t-26 27q-31 25 -82 25l12 -31l4 -37q0 -29 -11 -54.5t-31.5 -44.5t-48 -30.5t-60.5 -11.5q-64 0 -105 41
q-23 20 -34 44t-11 56q0 92 88 143q89 54 199 54q54 0 101.5 -14t91.5 -42q86 -56 86 -149q0 -78 -66 -144q-63 -63 -63 -120v-662l18 2q35 0 63.5 -10.5t53.5 -36.5q49 -43 49 -108zM131 1235q0 38 -47 47q-38 0 -47 -47q0 -19 14 -33q8 -8 33 -14q17 0 29.5 12t17.5 35z
M438 150q0 22 -14 36q-8 12 -37 15q-23 0 -34.5 -12.5t-16.5 -38.5q0 -23 14 -37q8 -12 37 -15q23 0 37 15q8 8 14 37z" />
    <glyph glyph-name="saraaimaimalaithai" unicode="&#xe4;" horiz-adv-x="553" 
d="M553 150q0 -32 -13 -60.5t-36 -50t-54 -34.5t-67 -13q-42 0 -72.5 10t-56.5 35q-49 46 -49 121v1009l-119 -114q-23 62 -55 115t-70 98q-31 32 -69.5 63.5t-81.5 54.5l147 95q26 -17 55 -42t58 -59q14 -17 28 -39.5t31 -48.5l121 109q119 0 119 -121v-975l18 2
q35 0 63.5 -10.5t53.5 -36.5q49 -43 49 -108zM438 150q0 22 -14 36q-8 12 -37 15q-23 0 -34.5 -12.5t-16.5 -38.5q0 -23 14 -37q8 -12 37 -15q23 0 37 15q8 8 14 37z" />
    <glyph glyph-name="saraaimaimalaithai" unicode="&#xe44;" horiz-adv-x="553" 
d="M553 150q0 -32 -13 -60.5t-36 -50t-54 -34.5t-67 -13q-42 0 -72.5 10t-56.5 35q-49 46 -49 121v1009l-119 -114q-23 62 -55 115t-70 98q-31 32 -69.5 63.5t-81.5 54.5l147 95q26 -17 55 -42t58 -59q14 -17 28 -39.5t31 -48.5l121 109q119 0 119 -121v-975l18 2
q35 0 63.5 -10.5t53.5 -36.5q49 -43 49 -108zM438 150q0 22 -14 36q-8 12 -37 15q-23 0 -34.5 -12.5t-16.5 -38.5q0 -23 14 -37q8 -12 37 -15q23 0 37 15q8 8 14 37z" />
    <glyph glyph-name="lakkhangyaothai" unicode="&#xe5;" horiz-adv-x="702" 
d="M457 -305v858q0 68 -37 113q-17 17 -43.5 28t-57.5 11q-58 0 -98 -39q-36 -38 -51 -95h-170q14 60 42.5 109t70.5 83.5t96 53.5t119 19q32 0 62 -4.5t54 -12.5q52 -15 95 -55q82 -73 82 -189v-880h-164z" />
    <glyph glyph-name="lakkhangyaothai" unicode="&#xe45;" horiz-adv-x="702" 
d="M457 -305v858q0 68 -37 113q-17 17 -43.5 28t-57.5 11q-58 0 -98 -39q-36 -38 -51 -95h-170q14 60 42.5 109t70.5 83.5t96 53.5t119 19q32 0 62 -4.5t54 -12.5q52 -15 95 -55q82 -73 82 -189v-880h-164z" />
    <glyph glyph-name="maiyamokthai" unicode="&#xe6;" horiz-adv-x="874" 
d="M793 616q0 -17 -18.5 -49t-53.5 -82q-33 -43 -33 -77v-713h-164v731q0 36 49 90q51 54 54 84q0 15 -27 45q-24 31 -37 31q-8 0 -45 -25l-29 -18l-24 -21l-31 19l-37 20q-52 28 -92 37q42 -17 70 -57t28 -88q0 -65 -49 -111q-44 -43 -118 -43q-69 0 -123 45
q-52 49 -52 125q0 80 82 162q14 14 32.5 29t41.5 32q20 14 43 27.5t49 26.5l47 -21q7 -2 15 -5t22 -11q26 -11 43.5 -21t28.5 -18l76 43l51 24l26 9q30 0 101 -91q74 -89 74 -129zM289 543q0 22 -15 37q-11 11 -36 14q-23 0 -37 -14q-12 -17 -15 -37q0 -23 15 -37
q8 -8 37 -14q19 0 34 12q14 9 17 39z" />
    <glyph glyph-name="maiyamokthai" unicode="&#xe46;" horiz-adv-x="874" 
d="M793 616q0 -17 -18.5 -49t-53.5 -82q-33 -43 -33 -77v-713h-164v731q0 36 49 90q51 54 54 84q0 15 -27 45q-24 31 -37 31q-8 0 -45 -25l-29 -18l-24 -21l-31 19l-37 20q-52 28 -92 37q42 -17 70 -57t28 -88q0 -65 -49 -111q-44 -43 -118 -43q-69 0 -123 45
q-52 49 -52 125q0 80 82 162q14 14 32.5 29t41.5 32q20 14 43 27.5t49 26.5l47 -21q7 -2 15 -5t22 -11q26 -11 43.5 -21t28.5 -18l76 43l51 24l26 9q30 0 101 -91q74 -89 74 -129zM289 543q0 22 -15 37q-11 11 -36 14q-23 0 -37 -14q-12 -17 -15 -37q0 -23 15 -37
q8 -8 37 -14q19 0 34 12q14 9 17 39z" />
    <glyph glyph-name="maitaikhuthai" unicode="&#xe7;" 
d="M-55 1374q0 -88 -78 -145q-35 -23 -78.5 -34t-95.5 -11h-82h-31l-29 -4q-16 0 -49 -25q-20 -17 -26 -55q0 -44 32 -47l82 94l19 -17l22 -18l21 -10l16 -6q13 32 45.5 53.5t77.5 21.5q27 0 50.5 -9.5t41 -26t27.5 -39t10 -49.5q0 -26 -11 -48.5t-30.5 -39.5t-46 -27
t-57.5 -10q-51 0 -88 20q-22 9 -40.5 22.5t-35.5 30.5l-51 -63h-68q-35 0 -65 11.5t-52.5 33.5t-35.5 53.5t-13 71.5q0 34 15 67t42.5 59t67.5 42t90 16h150l33 2q6 2 12 6t14 9q29 21 29 71h166zM-166 1047q0 36 -47 47q-38 0 -47 -47q0 -37 47 -48q13 0 33 15q11 11 14 33
z" />
    <glyph glyph-name="maitaikhuthai" unicode="&#xe47;" 
d="M-55 1374q0 -88 -78 -145q-35 -23 -78.5 -34t-95.5 -11h-82h-31l-29 -4q-16 0 -49 -25q-20 -17 -26 -55q0 -44 32 -47l82 94l19 -17l22 -18l21 -10l16 -6q13 32 45.5 53.5t77.5 21.5q27 0 50.5 -9.5t41 -26t27.5 -39t10 -49.5q0 -26 -11 -48.5t-30.5 -39.5t-46 -27
t-57.5 -10q-51 0 -88 20q-22 9 -40.5 22.5t-35.5 30.5l-51 -63h-68q-35 0 -65 11.5t-52.5 33.5t-35.5 53.5t-13 71.5q0 34 15 67t42.5 59t67.5 42t90 16h150l33 2q6 2 12 6t14 9q29 21 29 71h166zM-166 1047q0 36 -47 47q-38 0 -47 -47q0 -37 47 -48q13 0 33 15q11 11 14 33
z" />
    <glyph glyph-name="maiekthai" unicode="&#xe8;" 
d="M-244 1362v205h164v-205h-164z" />
    <glyph glyph-name="maiekthai" unicode="&#xe48;" 
d="M-244 1362v205h164v-205h-164z" />
    <glyph glyph-name="maithothai" unicode="&#xe9;" 
d="M59 1632q0 -69 -24.5 -124t-75.5 -93q-93 -72 -242 -72h-43q-9 2 -16 2.5t-12 2.5q-17 2 -37 5.5t-43 8.5q58 24 80 76q-54 0 -97 37q-41 38 -41 88q0 24 10.5 46t30.5 42q45 37 99 37q31 0 58 -10.5t46 -28.5t30 -42t11 -51l-4 -49q0 -11 -2.5 -22t-7.5 -25q33 6 59 22
t44.5 39t28 51t9.5 60h139zM-311 1563q0 43 -43 43t-43 -43t43 -43t43 43z" />
    <glyph glyph-name="maithothai" unicode="&#xe49;" 
d="M59 1632q0 -69 -24.5 -124t-75.5 -93q-93 -72 -242 -72h-43q-9 2 -16 2.5t-12 2.5q-17 2 -37 5.5t-43 8.5q58 24 80 76q-54 0 -97 37q-41 38 -41 88q0 24 10.5 46t30.5 42q45 37 99 37q31 0 58 -10.5t46 -28.5t30 -42t11 -51l-4 -49q0 -11 -2.5 -22t-7.5 -25q33 6 59 22
t44.5 39t28 51t9.5 60h139zM-311 1563q0 43 -43 43t-43 -43t43 -43t43 43z" />
    <glyph glyph-name="maitrithai" unicode="&#xea;" 
d="M80 1591q0 -54 -17.5 -97.5t-50 -74t-79.5 -47t-105 -16.5l16 49l4 27l5 30q0 26 -9.5 49.5t-21.5 28.5q-3 0 -31 -18l-20 -11l-19 -6q-3 0 -7 1t-9 3l-25 17l-26 16l-21 8q-2 -2 -4 -2q-6 -3 -18 -12q75 -12 75 -90q0 -19 -5.5 -34t-22.5 -34q-8 -6 -16 -10.5t-19 -9.5
q-18 -6 -41 -6q-39 0 -76 30q-17 17 -26 37.5t-9 44.5q0 69 60 129q56 62 100 62q7 0 21 -6l32 -21l37 -24q4 0 37 24q31 25 49 25q29 0 76 -45q39 -45 39 -97v-14q0 -8 -2 -23.5t-8 -27.5q13 6 24 39q5 14 7.5 34t2.5 40v34l-4 23q-3 10 -12 26h115zM-346 1446q0 15 -10 27
q-17 12 -27 12q-11 0 -25 -11t-14 -28q0 -8 12 -27q2 -3 9 -5.5t18 -4.5q6 0 12.5 2.5t14.5 7.5l8 13z" />
    <glyph glyph-name="maitrithai" unicode="&#xe4a;" 
d="M80 1591q0 -54 -17.5 -97.5t-50 -74t-79.5 -47t-105 -16.5l16 49l4 27l5 30q0 26 -9.5 49.5t-21.5 28.5q-3 0 -31 -18l-20 -11l-19 -6q-3 0 -7 1t-9 3l-25 17l-26 16l-21 8q-2 -2 -4 -2q-6 -3 -18 -12q75 -12 75 -90q0 -19 -5.5 -34t-22.5 -34q-8 -6 -16 -10.5t-19 -9.5
q-18 -6 -41 -6q-39 0 -76 30q-17 17 -26 37.5t-9 44.5q0 69 60 129q56 62 100 62q7 0 21 -6l32 -21l37 -24q4 0 37 24q31 25 49 25q29 0 76 -45q39 -45 39 -97v-14q0 -8 -2 -23.5t-8 -27.5q13 6 24 39q5 14 7.5 34t2.5 40v34l-4 23q-3 10 -12 26h115zM-346 1446q0 15 -10 27
q-17 12 -27 12q-11 0 -25 -11t-14 -28q0 -8 12 -27q2 -3 9 -5.5t18 -4.5q6 0 12.5 2.5t14.5 7.5l8 13z" />
    <glyph glyph-name="maichattawathai" unicode="&#xeb;" 
d="M-92 1458v-96h-139v96h-105v103h105v96h139v-96h102v-103h-102z" />
    <glyph glyph-name="maichattawathai" unicode="&#xe4b;" 
d="M-92 1458v-96h-139v96h-105v103h105v96h139v-96h102v-103h-102z" />
    <glyph glyph-name="thanthakhatthai" unicode="&#xec;" 
d="M27 1683q0 -78 -37 -124q-21 -24 -43 -35q-14 -5 -28 -8t-30 -3q-6 0 -12 1.5l-14 3.5l-39 14q-41 18 -64 18l-22 -4q-11 -2 -24 -12t-21 -33q16 19 53 19q20 0 38 -7.5t34 -21.5q28 -25 28 -70t-34 -73q-36 -27 -88 -27q-27 0 -53.5 9t-47.5 26.5t-34 43.5t-13 60
q0 67 37 113q17 20 41.5 34.5t56.5 22.5l37 2q27 0 62 -6l28 -4q5 0 10 -1t13 -3q18 0 30 18q4 5 5.5 12.5t1.5 16.5l-2 18h131zM-227 1438q-2 6 -8.5 11.5t-26.5 10.5q-37 0 -37 -35q0 -36 37 -36t37 36z" />
    <glyph glyph-name="thanthakhatthai" unicode="&#xe4c;" 
d="M27 1683q0 -78 -37 -124q-21 -24 -43 -35q-14 -5 -28 -8t-30 -3q-6 0 -12 1.5l-14 3.5l-39 14q-41 18 -64 18l-22 -4q-11 -2 -24 -12t-21 -33q16 19 53 19q20 0 38 -7.5t34 -21.5q28 -25 28 -70t-34 -73q-36 -27 -88 -27q-27 0 -53.5 9t-47.5 26.5t-34 43.5t-13 60
q0 67 37 113q17 20 41.5 34.5t56.5 22.5l37 2q27 0 62 -6l28 -4q5 0 10 -1t13 -3q18 0 30 18q4 5 5.5 12.5t1.5 16.5l-2 18h131zM-227 1438q-2 6 -8.5 11.5t-26.5 10.5q-37 0 -37 -35q0 -36 37 -36t37 36z" />
    <glyph glyph-name="nikhahitthai" unicode="&#xed;" 
d="M23 1114q0 -75 -52 -133q-14 -14 -29 -23.5t-30 -17.5q-35 -12 -74 -12q-38 0 -70 12t-61 41q-55 55 -55 133q0 37 14 70.5t39 59t59 41t74 15.5q75 0 133 -55q52 -52 52 -131zM-90 1114q0 19 -4 29t-17 22q-14 18 -51 21q-18 0 -28.5 -3.5t-22.5 -17.5q-8 -8 -13 -20
t-7 -31q0 -31 20 -51q18 -18 51 -21q30 0 51 21q21 14 21 51z" />
    <glyph glyph-name="nikhahitthai" unicode="&#xe4d;" 
d="M23 1114q0 -75 -52 -133q-14 -14 -29 -23.5t-30 -17.5q-35 -12 -74 -12q-38 0 -70 12t-61 41q-55 55 -55 133q0 37 14 70.5t39 59t59 41t74 15.5q75 0 133 -55q52 -52 52 -131zM-90 1114q0 19 -4 29t-17 22q-14 18 -51 21q-18 0 -28.5 -3.5t-22.5 -17.5q-8 -8 -13 -20
t-7 -31q0 -31 20 -51q18 -18 51 -21q30 0 51 21q21 14 21 51z" />
    <glyph glyph-name="yamakkanthai" unicode="&#xee;" 
d="M-14 1446l-49 -2q-29 0 -54.5 -3t-48.5 -11q-14 -4 -25 -7t-20 -6q-6 -2 -16 -6.5t-21 -9.5q-15 -9 -22 -29q0 -20 28 -31l33 -6l37 -2h18h4v-94h-12l-33 2l-36 -2l-31 -2q-26 0 -64 -14q-37 -8 -57 -26.5t-18 -41.5q6 -16 41 -16l28 2l35 8l31 10q6 3 13 7.5t15 11.5
l54 -91l-56 -24q-8 -3 -16 -5.5t-16 -4.5q-2 -2 -11 -4t-24 -7q-17 -2 -31 -4t-27 -2h-12l-14 2q-62 7 -98.5 39t-36.5 74q0 43 26 76q24 35 64 53l35 14l32 11q-28 25 -28 67q0 37 39 82q35 39 92 64q20 8 51.5 14.5t75.5 11.5l137 8h25h4v-106h-41z" />
    <glyph glyph-name="yamakkanthai" unicode="&#xe4e;" 
d="M-14 1446l-49 -2q-29 0 -54.5 -3t-48.5 -11q-14 -4 -25 -7t-20 -6q-6 -2 -16 -6.5t-21 -9.5q-15 -9 -22 -29q0 -20 28 -31l33 -6l37 -2h18h4v-94h-12l-33 2l-36 -2l-31 -2q-26 0 -64 -14q-37 -8 -57 -26.5t-18 -41.5q6 -16 41 -16l28 2l35 8l31 10q6 3 13 7.5t15 11.5
l54 -91l-56 -24q-8 -3 -16 -5.5t-16 -4.5q-2 -2 -11 -4t-24 -7q-17 -2 -31 -4t-27 -2h-12l-14 2q-62 7 -98.5 39t-36.5 74q0 43 26 76q24 35 64 53l35 14l32 11q-28 25 -28 67q0 37 39 82q35 39 92 64q20 8 51.5 14.5t75.5 11.5l137 8h25h4v-106h-41z" />
    <glyph glyph-name="fongmanthai" unicode="&#xef;" horiz-adv-x="1004" 
d="M922 410q0 -169 -123 -295q-123 -123 -297 -123q-169 0 -295 123q-125 122 -125 295q0 169 123 295q125 124 297 124q168 0 295 -122q125 -122 125 -297zM860 410q0 146 -108 252q-107 106 -250 106q-148 0 -254 -106q-105 -105 -105 -252q0 -148 105 -254
q103 -105 254 -105q147 0 252 105q106 106 106 254zM758 410q0 -104 -76 -181q-72 -75 -180 -75q-103 0 -183 73q-73 70 -73 183q0 104 73 180q17 17 38 30.5t44 24.5q25 11 48.5 16t52.5 5q104 0 180 -76q35 -35 55.5 -80.5t20.5 -99.5z" />
    <glyph glyph-name="fongmanthai" unicode="&#xe4f;" horiz-adv-x="1004" 
d="M922 410q0 -169 -123 -295q-123 -123 -297 -123q-169 0 -295 123q-125 122 -125 295q0 169 123 295q125 124 297 124q168 0 295 -122q125 -122 125 -297zM860 410q0 146 -108 252q-107 106 -250 106q-148 0 -254 -106q-105 -105 -105 -252q0 -148 105 -254
q103 -105 254 -105q147 0 252 105q106 106 106 254zM758 410q0 -104 -76 -181q-72 -75 -180 -75q-103 0 -183 73q-73 70 -73 183q0 104 73 180q17 17 38 30.5t44 24.5q25 11 48.5 16t52.5 5q104 0 180 -76q35 -35 55.5 -80.5t20.5 -99.5z" />
    <glyph glyph-name="zerothai" unicode="&#xf0;" horiz-adv-x="848" 
d="M782 307q0 -134 -102 -225q-51 -45 -114.5 -67.5t-141.5 -22.5q-158 0 -260 90q-101 88 -101 225q0 134 101 225q100 93 260 93q154 0 256 -93q102 -92 102 -225zM621 307q0 39 -16 72.5t-43 58t-62.5 38t-75.5 13.5t-76 -13.5t-63.5 -37.5t-43.5 -57.5t-16 -73.5
q0 -39 16 -72.5t43.5 -57.5t63.5 -38t76 -14q39 0 74.5 13.5t63 37.5t43.5 57.5t16 73.5z" />
    <glyph glyph-name="zerothai" unicode="&#xe50;" horiz-adv-x="848" 
d="M782 307q0 -134 -102 -225q-51 -45 -114.5 -67.5t-141.5 -22.5q-158 0 -260 90q-101 88 -101 225q0 134 101 225q100 93 260 93q154 0 256 -93q102 -92 102 -225zM621 307q0 39 -16 72.5t-43 58t-62.5 38t-75.5 13.5t-76 -13.5t-63.5 -37.5t-43.5 -57.5t-16 -73.5
q0 -39 16 -72.5t43.5 -57.5t63.5 -38t76 -14q39 0 74.5 13.5t63 37.5t43.5 57.5t16 73.5z" />
    <glyph glyph-name="onethai" unicode="&#xf1;" horiz-adv-x="864" 
d="M803 287q0 -121 -82 -234q-62 -83 -141 -135l-91 76q60 44 99 110q51 82 51 172q0 46 -16 84.5t-44 66t-66 43t-81 15.5q-84 0 -145 -55q-62 -56 -62 -129q0 -48 23 -92q15 -33 39 -53q-2 5 -3 8.5t-3 5.5q-2 8 -3.5 15.5t-1.5 17.5q0 28 11 53t30 44t45 29.5t56 10.5
q31 0 58.5 -11.5t47.5 -31.5t31.5 -47t11.5 -57q0 -76 -65 -138q-65 -59 -154 -59q-110 0 -196 86q-91 93 -91 223q0 133 109 225q110 95 258 95q170 0 274 -99q101 -94 101 -239zM471 193q0 23 -14 37t-37 14q-20 0 -35.5 -15.5t-15.5 -35.5q0 -23 14 -37.5t37 -14.5
q20 0 35.5 14.5t15.5 37.5z" />
    <glyph glyph-name="onethai" unicode="&#xe51;" horiz-adv-x="864" 
d="M803 287q0 -121 -82 -234q-62 -83 -141 -135l-91 76q60 44 99 110q51 82 51 172q0 46 -16 84.5t-44 66t-66 43t-81 15.5q-84 0 -145 -55q-62 -56 -62 -129q0 -48 23 -92q15 -33 39 -53q-2 5 -3 8.5t-3 5.5q-2 8 -3.5 15.5t-1.5 17.5q0 28 11 53t30 44t45 29.5t56 10.5
q31 0 58.5 -11.5t47.5 -31.5t31.5 -47t11.5 -57q0 -76 -65 -138q-65 -59 -154 -59q-110 0 -196 86q-91 93 -91 223q0 133 109 225q110 95 258 95q170 0 274 -99q101 -94 101 -239zM471 193q0 23 -14 37t-37 14q-20 0 -35.5 -15.5t-15.5 -35.5q0 -23 14 -37.5t37 -14.5
q20 0 35.5 14.5t15.5 37.5z" />
    <glyph glyph-name="twothai" unicode="&#xf2;" horiz-adv-x="1036" 
d="M285 0q-51 0 -87 12t-65 41q-51 57 -51 135v457q0 41 -33 68q-14 12 -35.5 19t-44.5 7l160 90q29 -6 51.5 -18t36.5 -31q29 -37 29 -96v-483q0 -40 18 -62q19 -16 64 -16h463v330q0 49 -43 49q-19 0 -32.5 -13t-13.5 -30v-82h-133v76q0 47 -49 47q-23 0 -36 -13.5
t-13 -33.5v-58q28 0 54 -10t46 -27.5t31.5 -42.5t11.5 -55q0 -29 -11.5 -53.5t-31.5 -43.5t-46.5 -29.5t-57.5 -10.5q-67 0 -115 39q-11 11 -19 21.5t-16 23.5q-5 12 -7.5 26t-2.5 29v207q0 74 51 121q26 20 59 32.5t75 12.5q24 0 47 -5t42 -14t33 -20.5t21 -24.5
q12 26 51 43q20 11 40.5 16t43.5 5q40 0 74 -11.5t58.5 -32.5t38 -52t13.5 -70v-469h-669zM518 256q0 23 -12.5 34.5t-38.5 16.5q-23 0 -34.5 -12.5t-16.5 -38.5q0 -23 14 -37q5 -5 14 -8t23 -6q20 0 32.5 11t18.5 40z" />
    <glyph glyph-name="twothai" unicode="&#xe52;" horiz-adv-x="1036" 
d="M285 0q-51 0 -87 12t-65 41q-51 57 -51 135v457q0 41 -33 68q-14 12 -35.5 19t-44.5 7l160 90q29 -6 51.5 -18t36.5 -31q29 -37 29 -96v-483q0 -40 18 -62q19 -16 64 -16h463v330q0 49 -43 49q-19 0 -32.5 -13t-13.5 -30v-82h-133v76q0 47 -49 47q-23 0 -36 -13.5
t-13 -33.5v-58q28 0 54 -10t46 -27.5t31.5 -42.5t11.5 -55q0 -29 -11.5 -53.5t-31.5 -43.5t-46.5 -29.5t-57.5 -10.5q-67 0 -115 39q-11 11 -19 21.5t-16 23.5q-5 12 -7.5 26t-2.5 29v207q0 74 51 121q26 20 59 32.5t75 12.5q24 0 47 -5t42 -14t33 -20.5t21 -24.5
q12 26 51 43q20 11 40.5 16t43.5 5q40 0 74 -11.5t58.5 -32.5t38 -52t13.5 -70v-469h-669zM518 256q0 23 -12.5 34.5t-38.5 16.5q-23 0 -34.5 -12.5t-16.5 -38.5q0 -23 14 -37q5 -5 14 -8t23 -6q20 0 32.5 11t18.5 40z" />
    <glyph glyph-name="threethai" unicode="&#xf3;" horiz-adv-x="913" 
d="M668 0v424q0 65 -58 65q-29 0 -45 -16q-5 -5 -8.5 -15.5t-5.5 -27.5v-199h-158v183q0 75 -74 75q-34 0 -55 -22q-18 -18 -18 -51v-127h12q33 0 62.5 -12t52 -32.5t36 -47.5t13.5 -58t-10.5 -55t-36.5 -49q-46 -43 -117 -43t-127 41q-49 42 -49 112v279q0 48 18 86t49 64
t72 39.5t86 13.5q54 0 107 -27q21 -11 36 -25.5t23 -31.5q16 35 59 55q32 20 57 23.5t42 3.5q87 0 145 -52q55 -48 55 -135v-438h-163zM309 139q0 23 -12.5 34.5t-38.5 16.5q-23 0 -34.5 -12.5t-16.5 -38.5q0 -22 14 -37q11 -11 37 -14q23 0 34.5 12.5t16.5 38.5z" />
    <glyph glyph-name="threethai" unicode="&#xe53;" horiz-adv-x="913" 
d="M668 0v424q0 65 -58 65q-29 0 -45 -16q-5 -5 -8.5 -15.5t-5.5 -27.5v-199h-158v183q0 75 -74 75q-34 0 -55 -22q-18 -18 -18 -51v-127h12q33 0 62.5 -12t52 -32.5t36 -47.5t13.5 -58t-10.5 -55t-36.5 -49q-46 -43 -117 -43t-127 41q-49 42 -49 112v279q0 48 18 86t49 64
t72 39.5t86 13.5q54 0 107 -27q21 -11 36 -25.5t23 -31.5q16 35 59 55q32 20 57 23.5t42 3.5q87 0 145 -52q55 -48 55 -135v-438h-163zM309 139q0 23 -12.5 34.5t-38.5 16.5q-23 0 -34.5 -12.5t-16.5 -38.5q0 -22 14 -37q11 -11 37 -14q23 0 34.5 12.5t16.5 38.5z" />
    <glyph glyph-name="fourthai" unicode="&#xf4;" horiz-adv-x="872" 
d="M844 758q0 -65 -26.5 -114t-74.5 -81.5t-114.5 -48.5t-147.5 -16q-53 0 -98.5 -15.5t-79.5 -42.5t-53 -64t-19 -81q0 -66 43 -117q44 -47 107 -47q8 0 16.5 1t18.5 3l-29 55l-6 35l-4 29q0 69 51 117q28 23 60 35t67 12q34 0 63 -12t52 -35q49 -44 49 -107
q0 -89 -88 -135l26 -2q48 0 99 39l75 -119q-17 -14 -35.5 -25.5t-39.5 -19.5q-29 -5 -48 -7.5t-36 -2.5h-23h-11q-5 0 -11 2q-12 0 -33 6q-34 3 -74 31q-33 -16 -78 -31l-41 -4l-47 -4q-123 0 -209 86q-84 87 -84 211q0 143 117 241q120 99 289 99h12h27q16 0 34 1.5t36 6
t34 14.5q66 32 66 115q0 20 -6 53h170l2 -33zM606 264q0 23 -12.5 34.5t-38.5 16.5q-23 0 -34.5 -12.5t-16.5 -38.5q0 -22 14 -37q11 -11 37 -14q23 0 34.5 12.5t16.5 38.5z" />
    <glyph glyph-name="fourthai" unicode="&#xe54;" horiz-adv-x="872" 
d="M844 758q0 -65 -26.5 -114t-74.5 -81.5t-114.5 -48.5t-147.5 -16q-53 0 -98.5 -15.5t-79.5 -42.5t-53 -64t-19 -81q0 -66 43 -117q44 -47 107 -47q8 0 16.5 1t18.5 3l-29 55l-6 35l-4 29q0 69 51 117q28 23 60 35t67 12q34 0 63 -12t52 -35q49 -44 49 -107
q0 -89 -88 -135l26 -2q48 0 99 39l75 -119q-17 -14 -35.5 -25.5t-39.5 -19.5q-29 -5 -48 -7.5t-36 -2.5h-23h-11q-5 0 -11 2q-12 0 -33 6q-34 3 -74 31q-33 -16 -78 -31l-41 -4l-47 -4q-123 0 -209 86q-84 87 -84 211q0 143 117 241q120 99 289 99h12h27q16 0 34 1.5t36 6
t34 14.5q66 32 66 115q0 20 -6 53h170l2 -33zM606 264q0 23 -12.5 34.5t-38.5 16.5q-23 0 -34.5 -12.5t-16.5 -38.5q0 -22 14 -37q11 -11 37 -14q23 0 34.5 12.5t16.5 38.5z" />
    <glyph glyph-name="fivethai" unicode="&#xf5;" horiz-adv-x="872" 
d="M844 758q0 -65 -26.5 -114t-74.5 -81.5t-114.5 -48.5t-147.5 -16q-105 0 -178 -58q-18 -14 -32 -30t-23 -33q-8 -19 -12.5 -39t-4.5 -43q0 -66 43 -117q44 -47 107 -47q8 0 16.5 1t18.5 3l-29 55l-6 35l-4 29q0 69 51 117q28 23 60 35t67 12q34 0 63 -12t52 -35
q49 -44 49 -107q0 -89 -88 -135l28 -2q55 0 97 39l75 -119q-15 -14 -33.5 -26t-41.5 -21l-39 -4l-45 -4h-23h-11q-5 0 -11 2q-12 0 -33 6q-34 3 -74 31q-33 -16 -78 -31l-41 -4l-47 -4q-66 0 -116 19t-95 63q-82 88 -82 215q0 109 58 187t168 120q-19 29 -19 72
q0 29 12.5 55t36.5 51q51 45 123 45q38 0 69.5 -12t54.5 -32t35.5 -48t12.5 -59l-2 -21q66 29 66 113q0 20 -6 59h170l2 -33zM494 659q0 43 -52 52q-20 0 -34.5 -13.5t-16.5 -38.5q0 -22 15 -36q10 -12 36 -15q23 0 35 13.5t17 37.5zM606 264q0 23 -12.5 34.5t-38.5 16.5
q-23 0 -34.5 -12.5t-16.5 -38.5q0 -22 14 -37q11 -11 37 -14q23 0 34.5 12.5t16.5 38.5z" />
    <glyph glyph-name="fivethai" unicode="&#xe55;" horiz-adv-x="872" 
d="M844 758q0 -65 -26.5 -114t-74.5 -81.5t-114.5 -48.5t-147.5 -16q-105 0 -178 -58q-18 -14 -32 -30t-23 -33q-8 -19 -12.5 -39t-4.5 -43q0 -66 43 -117q44 -47 107 -47q8 0 16.5 1t18.5 3l-29 55l-6 35l-4 29q0 69 51 117q28 23 60 35t67 12q34 0 63 -12t52 -35
q49 -44 49 -107q0 -89 -88 -135l28 -2q55 0 97 39l75 -119q-15 -14 -33.5 -26t-41.5 -21l-39 -4l-45 -4h-23h-11q-5 0 -11 2q-12 0 -33 6q-34 3 -74 31q-33 -16 -78 -31l-41 -4l-47 -4q-66 0 -116 19t-95 63q-82 88 -82 215q0 109 58 187t168 120q-19 29 -19 72
q0 29 12.5 55t36.5 51q51 45 123 45q38 0 69.5 -12t54.5 -32t35.5 -48t12.5 -59l-2 -21q66 29 66 113q0 20 -6 59h170l2 -33zM494 659q0 43 -52 52q-20 0 -34.5 -13.5t-16.5 -38.5q0 -22 15 -36q10 -12 36 -15q23 0 35 13.5t17 37.5zM606 264q0 23 -12.5 34.5t-38.5 16.5
q-23 0 -34.5 -12.5t-16.5 -38.5q0 -22 14 -37q11 -11 37 -14q23 0 34.5 12.5t16.5 38.5z" />
    <glyph glyph-name="sixthai" unicode="&#xf6;" horiz-adv-x="766" 
d="M705 315q0 -132 -93 -231q-45 -45 -105.5 -68.5t-135.5 -23.5q-120 0 -209 59q-88 60 -88 154q0 65 47 104q51 45 117 45q33 0 62.5 -12t52 -32t35.5 -47t13 -58q0 -37 -20 -76q64 0 106 53q48 57 48 131q0 34 -11 66.5t-32 58t-51.5 41t-69.5 15.5q-107 0 -156 -101
l-133 45q0 23 -1 41.5t-3 32.5q-3 32 -19 66q-37 91 -129 149l129 104q79 -44 125 -133q17 -32 27 -65t10 -62q15 12 35 23t44 19.5t50 14t53 5.5q67 0 121 -23t99 -69q82 -89 82 -226zM293 205q0 22 -14 37q-5 5 -14 8.5t-23 5.5q-23 0 -37 -14q-5 -5 -8 -14t-7 -23
q0 -22 15 -37q8 -8 37 -14q19 0 34 12q14 9 17 39z" />
    <glyph glyph-name="sixthai" unicode="&#xe56;" horiz-adv-x="766" 
d="M705 315q0 -132 -93 -231q-45 -45 -105.5 -68.5t-135.5 -23.5q-120 0 -209 59q-88 60 -88 154q0 65 47 104q51 45 117 45q33 0 62.5 -12t52 -32t35.5 -47t13 -58q0 -37 -20 -76q64 0 106 53q48 57 48 131q0 34 -11 66.5t-32 58t-51.5 41t-69.5 15.5q-107 0 -156 -101
l-133 45q0 23 -1 41.5t-3 32.5q-3 32 -19 66q-37 91 -129 149l129 104q79 -44 125 -133q17 -32 27 -65t10 -62q15 12 35 23t44 19.5t50 14t53 5.5q67 0 121 -23t99 -69q82 -89 82 -226zM293 205q0 22 -14 37q-5 5 -14 8.5t-23 5.5q-23 0 -37 -14q-5 -5 -8 -14t-7 -23
q0 -22 15 -37q8 -8 37 -14q19 0 34 12q14 9 17 39z" />
    <glyph glyph-name="seventhai" unicode="&#xf7;" horiz-adv-x="1122" 
d="M1122 766q-23 -20 -39 -41.5t-24 -44.5q-8 -29 -12.5 -57.5t-4.5 -57.5v-47q0 -12 1.5 -20t3.5 -27q0 -32 1 -49.5t3 -22.5q0 -89 -19 -159.5t-59.5 -122.5t-103.5 -84t-152 -43l-135 73l24 19l19 16q18 19 30.5 41.5t12.5 42.5v242q0 65 -58 65q-29 0 -45 -16
q-5 -5 -8.5 -15.5t-5.5 -27.5v-199h-158v183q0 75 -74 75q-34 0 -55 -22q-18 -18 -18 -51v-127h12q33 0 62.5 -12t52 -32.5t36 -47.5t13.5 -58t-10.5 -55t-36.5 -49q-46 -43 -117 -43t-127 41q-49 42 -49 112v279q0 48 18 86t49 64t72 39.5t86 13.5q54 0 107 -27
q21 -11 36 -25.5t23 -31.5q16 35 59 55q32 20 57 23.5t42 3.5q87 0 145 -52q55 -48 55 -135v-245q62 45 62 194l-2 31v18l-4 27q0 24 -6 69l-4 76l4 68q2 18 4 27.5t8 27.5q8 25 23 49.5t38 50.5zM309 139q0 23 -12.5 34.5t-38.5 16.5q-23 0 -34.5 -12.5t-16.5 -38.5
q0 -22 14 -37q11 -11 37 -14q23 0 34.5 12.5t16.5 38.5z" />
    <glyph glyph-name="seventhai" unicode="&#xe57;" horiz-adv-x="1122" 
d="M1122 766q-23 -20 -39 -41.5t-24 -44.5q-8 -29 -12.5 -57.5t-4.5 -57.5v-47q0 -12 1.5 -20t3.5 -27q0 -32 1 -49.5t3 -22.5q0 -89 -19 -159.5t-59.5 -122.5t-103.5 -84t-152 -43l-135 73l24 19l19 16q18 19 30.5 41.5t12.5 42.5v242q0 65 -58 65q-29 0 -45 -16
q-5 -5 -8.5 -15.5t-5.5 -27.5v-199h-158v183q0 75 -74 75q-34 0 -55 -22q-18 -18 -18 -51v-127h12q33 0 62.5 -12t52 -32.5t36 -47.5t13.5 -58t-10.5 -55t-36.5 -49q-46 -43 -117 -43t-127 41q-49 42 -49 112v279q0 48 18 86t49 64t72 39.5t86 13.5q54 0 107 -27
q21 -11 36 -25.5t23 -31.5q16 35 59 55q32 20 57 23.5t42 3.5q87 0 145 -52q55 -48 55 -135v-245q62 45 62 194l-2 31v18l-4 27q0 24 -6 69l-4 76l4 68q2 18 4 27.5t8 27.5q8 25 23 49.5t38 50.5zM309 139q0 23 -12.5 34.5t-38.5 16.5q-23 0 -34.5 -12.5t-16.5 -38.5
q0 -22 14 -37q11 -11 37 -14q23 0 34.5 12.5t16.5 38.5z" />
    <glyph glyph-name="eightthai" unicode="&#xf8;" horiz-adv-x="885" 
d="M823 145q0 -32 -13.5 -59.5t-37 -48.5t-54.5 -33t-65 -12q-28 0 -53.5 5.5t-50.5 16.5q-23 13 -41 29t-41 39q-9 -14 -22 -29.5t-39 -34.5q-42 -26 -99 -26q-119 0 -182 88q-16 23 -27.5 47.5t-19.5 52.5q-8 29 -12.5 59.5t-4.5 61.5q0 151 107 240q49 42 121 65t153 23
q52 0 87 8.5t56.5 25.5t30.5 44t9 65v29q0 16 -2 18h170q0 -20 2 -24v-23q0 -278 -338 -278q-97 0 -164 -52q-33 -25 -47 -57q-8 -19 -12.5 -36t-4.5 -40q0 -31 6.5 -62t18.5 -56t28 -40.5t35 -15.5q37 0 37 58q0 41 -24 88l143 55q8 -34 22.5 -63t34.5 -52q44 72 136 72
q32 0 60.5 -10.5t50 -29.5t34 -46.5t12.5 -61.5zM719 143q0 23 -14 37q-17 12 -37 15q-23 0 -35 -13t-17 -39q0 -18 15 -37q11 -11 37 -14q22 0 37 14q5 5 8.5 14t5.5 23z" />
    <glyph glyph-name="eightthai" unicode="&#xe58;" horiz-adv-x="885" 
d="M823 145q0 -32 -13.5 -59.5t-37 -48.5t-54.5 -33t-65 -12q-28 0 -53.5 5.5t-50.5 16.5q-23 13 -41 29t-41 39q-9 -14 -22 -29.5t-39 -34.5q-42 -26 -99 -26q-119 0 -182 88q-16 23 -27.5 47.5t-19.5 52.5q-8 29 -12.5 59.5t-4.5 61.5q0 151 107 240q49 42 121 65t153 23
q52 0 87 8.5t56.5 25.5t30.5 44t9 65v29q0 16 -2 18h170q0 -20 2 -24v-23q0 -278 -338 -278q-97 0 -164 -52q-33 -25 -47 -57q-8 -19 -12.5 -36t-4.5 -40q0 -31 6.5 -62t18.5 -56t28 -40.5t35 -15.5q37 0 37 58q0 41 -24 88l143 55q8 -34 22.5 -63t34.5 -52q44 72 136 72
q32 0 60.5 -10.5t50 -29.5t34 -46.5t12.5 -61.5zM719 143q0 23 -14 37q-17 12 -37 15q-23 0 -35 -13t-17 -39q0 -18 15 -37q11 -11 37 -14q22 0 37 14q5 5 8.5 14t5.5 23z" />
    <glyph glyph-name="ninethai" unicode="&#xf9;" horiz-adv-x="897" 
d="M958 723q-24 -12 -41.5 -34.5t-29 -50.5t-17.5 -59.5t-6 -62.5l2 -31q0 -22 2 -24l-159 -68q0 44 -22 71t-54 32q-21 0 -37 -19q-10 -17 -10 -43l22 -108q6 -25 12 -45t11 -35q17 -56 48 -98.5t79 -71.5l-164 -84q-35 32 -64 78t-51 108q-5 17 -15.5 67.5t-27.5 135.5
q-5 26 -12 46t-16 34q-11 20 -29 31.5t-43 11.5q-40 0 -74 -37q-11 -17 -18.5 -37t-14.5 -43l-6 -55v-23q0 -5 1 -11.5t3 -14.5q34 18 78 18q62 0 111 -43q23 -23 35 -48t12 -54q0 -61 -51 -113q-52 -43 -121 -43q-97 0 -160 84q-70 101 -70 270q0 121 76 203q78 84 197 84
q61 0 106 -18q47 -17 74 -54q9 28 41 52q33 20 68 20q32 0 65 -12l25 -15q5 -3 9 -7l9 -9q-12 27 -12 59q0 50 26 101q14 23 32.5 41t41.5 30zM358 154q0 20 -12.5 33t-38.5 18q-22 0 -37 -15q-5 -5 -8.5 -13.5t-5.5 -22.5q0 -23 14 -37q17 -12 37 -15q23 0 37 15q8 8 14 37
z" />
    <glyph glyph-name="ninethai" unicode="&#xe59;" horiz-adv-x="897" 
d="M958 723q-24 -12 -41.5 -34.5t-29 -50.5t-17.5 -59.5t-6 -62.5l2 -31q0 -22 2 -24l-159 -68q0 44 -22 71t-54 32q-21 0 -37 -19q-10 -17 -10 -43l22 -108q6 -25 12 -45t11 -35q17 -56 48 -98.5t79 -71.5l-164 -84q-35 32 -64 78t-51 108q-5 17 -15.5 67.5t-27.5 135.5
q-5 26 -12 46t-16 34q-11 20 -29 31.5t-43 11.5q-40 0 -74 -37q-11 -17 -18.5 -37t-14.5 -43l-6 -55v-23q0 -5 1 -11.5t3 -14.5q34 18 78 18q62 0 111 -43q23 -23 35 -48t12 -54q0 -61 -51 -113q-52 -43 -121 -43q-97 0 -160 84q-70 101 -70 270q0 121 76 203q78 84 197 84
q61 0 106 -18q47 -17 74 -54q9 28 41 52q33 20 68 20q32 0 65 -12l25 -15q5 -3 9 -7l9 -9q-12 27 -12 59q0 50 26 101q14 23 32.5 41t41.5 30zM358 154q0 20 -12.5 33t-38.5 18q-22 0 -37 -15q-5 -5 -8.5 -13.5t-5.5 -22.5q0 -23 14 -37q17 -12 37 -15q23 0 37 15q8 8 14 37
z" />
    <glyph glyph-name="angkhankhuthai" unicode="&#xfa;" horiz-adv-x="1085" 
d="M840 0v618q-41 -36 -101 -61l-43 -16v-541h-164v555l-49 -27l-61 -26q-63 -19 -117 -19q-49 0 -92 14t-80 40q-74 54 -74 137q0 31 13.5 59.5t36.5 49.5t53.5 33.5t64.5 12.5t64.5 -11.5t53.5 -31.5t36.5 -49t13.5 -63l-4 -39q25 8 47.5 26t42.5 44q20 20 33.5 49.5
t20.5 64.5h51q53 0 84 -37q12 -14 18 -45q5 -12 6.5 -25t1.5 -30l58 33q20 13 33 24t22.5 22.5t16.5 25.5l16 32h51q53 0 84 -37q12 -14 18 -45q5 -12 7 -24t2 -31v-682h-164zM281 674q0 17 -15 37q-11 11 -37 14q-20 0 -33 -12.5t-18 -38.5q0 -23 15 -37q8 -8 36 -14
q23 0 35 12.5t17 38.5z" />
    <glyph glyph-name="angkhankhuthai" unicode="&#xe5a;" horiz-adv-x="1085" 
d="M840 0v618q-41 -36 -101 -61l-43 -16v-541h-164v555l-49 -27l-61 -26q-63 -19 -117 -19q-49 0 -92 14t-80 40q-74 54 -74 137q0 31 13.5 59.5t36.5 49.5t53.5 33.5t64.5 12.5t64.5 -11.5t53.5 -31.5t36.5 -49t13.5 -63l-4 -39q25 8 47.5 26t42.5 44q20 20 33.5 49.5
t20.5 64.5h51q53 0 84 -37q12 -14 18 -45q5 -12 6.5 -25t1.5 -30l58 33q20 13 33 24t22.5 22.5t16.5 25.5l16 32h51q53 0 84 -37q12 -14 18 -45q5 -12 7 -24t2 -31v-682h-164zM281 674q0 17 -15 37q-11 11 -37 14q-20 0 -33 -12.5t-18 -38.5q0 -23 15 -37q8 -8 36 -14
q23 0 35 12.5t17 38.5z" />
    <glyph glyph-name="khomutthai" unicode="&#xfb;" horiz-adv-x="1495" 
d="M1495 434q0 -36 -63 -45l-168 -16q-6 -22 -23 -39q-8 -8 -33 -15q-7 0 -28 21l-13 20l-14 23q-9 -42 -27 -61q-15 -25 -39 -25q-16 0 -34 29l-33 61q-6 -30 -12 -45l-4.5 -10.5t-3 -6t-3 -5.5l-4.5 -9q-19 -37 -47 -37q-25 0 -43 52l-22 63q-38 -139 -103 -139
q-42 0 -57 59l-16 66q-11 -37 -22 -64.5t-24 -46.5q-22 -44 -61 -86q-110 -119 -246 -119q-122 0 -209 99q-38 49 -60 112t-22 144q0 75 19 139t57 115q77 104 193 104q48 0 90 -19.5t73 -54t48.5 -83.5t17.5 -107q0 -85 -43 -146q-20 -26 -48 -41.5t-60 -15.5q-56 0 -97 41
q-8 9 -15 20t-13 25q-11 30 -11 58q0 30 10 57t28 47t42.5 31.5t53.5 11.5h10q-23 66 -84 66t-105 -74q-17 -34 -30 -82q-5 -25 -8 -49.5t-3 -50.5q0 -53 12.5 -97.5t36 -76t56.5 -49t74 -17.5q45 0 85.5 25t74 70.5t57.5 110.5t36 146q5 29 10 48t13 28q12 18 47 18
q53 0 103 -135l2 51q0 64 53 64q11 0 22.5 -7.5t22.5 -21.5q12 -12 24.5 -32t26.5 -46l4 27q5 12 13 25t28 18q27 0 62 -41l32 -53q8 29 20.5 47t31.5 18q11 0 41 -28l30 -37l15 16l6 6q12 13 28 13l179 -17q63 -6 63 -45zM455 453q0 20 -13 34.5t-36 16.5q-48 0 -48 -51
q0 -52 48 -52q49 0 49 52z" />
    <glyph glyph-name="khomutthai" unicode="&#xe5b;" horiz-adv-x="1495" 
d="M1495 434q0 -36 -63 -45l-168 -16q-6 -22 -23 -39q-8 -8 -33 -15q-7 0 -28 21l-13 20l-14 23q-9 -42 -27 -61q-15 -25 -39 -25q-16 0 -34 29l-33 61q-6 -30 -12 -45l-4.5 -10.5t-3 -6t-3 -5.5l-4.5 -9q-19 -37 -47 -37q-25 0 -43 52l-22 63q-38 -139 -103 -139
q-42 0 -57 59l-16 66q-11 -37 -22 -64.5t-24 -46.5q-22 -44 -61 -86q-110 -119 -246 -119q-122 0 -209 99q-38 49 -60 112t-22 144q0 75 19 139t57 115q77 104 193 104q48 0 90 -19.5t73 -54t48.5 -83.5t17.5 -107q0 -85 -43 -146q-20 -26 -48 -41.5t-60 -15.5q-56 0 -97 41
q-8 9 -15 20t-13 25q-11 30 -11 58q0 30 10 57t28 47t42.5 31.5t53.5 11.5h10q-23 66 -84 66t-105 -74q-17 -34 -30 -82q-5 -25 -8 -49.5t-3 -50.5q0 -53 12.5 -97.5t36 -76t56.5 -49t74 -17.5q45 0 85.5 25t74 70.5t57.5 110.5t36 146q5 29 10 48t13 28q12 18 47 18
q53 0 103 -135l2 51q0 64 53 64q11 0 22.5 -7.5t22.5 -21.5q12 -12 24.5 -32t26.5 -46l4 27q5 12 13 25t28 18q27 0 62 -41l32 -53q8 29 20.5 47t31.5 18q11 0 41 -28l30 -37l15 16l6 6q12 13 28 13l179 -17q63 -6 63 -45zM455 453q0 20 -13 34.5t-36 16.5q-48 0 -48 -51
q0 -52 48 -52q49 0 49 52z" />
    <glyph glyph-name="saraulowthai" unicode="&#xfc;" 
d="M-205 -901v178q-18 -6 -41 -6q-53 0 -91 38t-38 91t38 91t91 38q62 0 103 -39t41 -98v-293h-103zM-190 -600q0 22 -16.5 38.5t-39.5 16.5q-22 0 -38.5 -16.5t-16.5 -38.5q0 -23 16.5 -39t38.5 -16q23 0 39.5 16t16.5 39z" />
    <glyph glyph-name="saraulowthai" unicode="&#xf718;" 
d="M-205 -901v178q-18 -6 -41 -6q-53 0 -91 38t-38 91t38 91t91 38q62 0 103 -39t41 -98v-293h-103zM-190 -600q0 22 -16.5 38.5t-39.5 16.5q-22 0 -38.5 -16.5t-16.5 -38.5q0 -23 16.5 -39t38.5 -16q23 0 39.5 16t16.5 39z" />
    <glyph glyph-name="sarauulowthai" unicode="&#xfd;" 
d="M-102 -745q0 -74 -33 -115t-119 -41h-248v72q43 0 57.5 13t14.5 50v43q-19 -6 -41 -6q-53 0 -91 38t-38 91t38 91t91 38q61 0 102 -39t41 -98v-217h37q60 0 73 22.5t13 69.5v256h103v-268zM-416 -600q0 22 -16.5 38.5t-38.5 16.5q-23 0 -39 -16.5t-16 -38.5q0 -23 16 -39
t39 -16q22 0 38.5 16t16.5 39z" />
    <glyph glyph-name="sarauulowthai" unicode="&#xf719;" 
d="M-102 -745q0 -74 -33 -115t-119 -41h-248v72q43 0 57.5 13t14.5 50v43q-19 -6 -41 -6q-53 0 -91 38t-38 91t38 91t91 38q61 0 102 -39t41 -98v-217h37q60 0 73 22.5t13 69.5v256h103v-268zM-416 -600q0 22 -16.5 38.5t-38.5 16.5q-23 0 -39 -16.5t-16 -38.5q0 -23 16 -39
t39 -16q22 0 38.5 16t16.5 39z" />
    <glyph glyph-name="phinthulowthai" unicode="&#xfe;" 
d="M-82 -543q0 -28 -21.5 -49.5t-50.5 -21.5q-28 0 -49.5 21.5t-21.5 49.5q0 29 21.5 50.5t49.5 21.5q29 0 50.5 -21.5t21.5 -50.5z" />
    <glyph glyph-name="phinthulowthai" unicode="&#xf71a;" 
d="M-82 -543q0 -28 -21.5 -49.5t-50.5 -21.5q-28 0 -49.5 21.5t-21.5 49.5q0 29 21.5 50.5t49.5 21.5q29 0 50.5 -21.5t21.5 -50.5z" />
    <glyph glyph-name="Naipol" unicode="&#xff;" horiz-adv-x="1942" 
 />
    <glyph glyph-name="dochadathai.short" unicode="&#x12a;" horiz-adv-x="887" 
d="M778 -171q0 -63 -36 -88q-16 -11 -45 -18.5t-68 -7.5h-51l-18 19l-18 17q-8 7 -19 15t-23 15q-10 -9 -18 -14.5t-18 -12.5q-28 -18 -64.5 -30t-77.5 -12q-40 0 -73.5 7t-59 20t-39.5 31.5t-14 42.5q0 41 51 80q43 27 103 37l48 3q40 0 82 -8l-3 34h147v-18l2 -25v-22
l-4 -18q22 -9 31.5 -19.5t25.5 -27.5l-5 724q0 67 -45 109q-20 20 -47.5 31.5t-64.5 11.5q-29 0 -53 -4.5t-44 -12.5l-34 -18q-16 -9 -31 -27q81 -40 131 -96q-109 -35 -109 -137v-177q8 -7 11 -20l6 -16q6 -29 6 -45q0 -33 -13 -62.5t-36 -51t-54 -34t-67 -12.5
q-70 0 -121 45q-49 49 -49 115q0 63 45 108q20 20 46.5 33.5t62.5 19.5v103q0 23 6 44t20 40l31 32q6 5 17 11.5t22 11.5q-36 25 -98 51l-66 23q58 93 150 147q51 29 106.5 44.5t118.5 15.5q67 0 125 -18t101 -52t67 -83.5t24 -111.5v-742zM221 152q0 22 -14 36
q-8 12 -37 15q-23 0 -34.5 -12.5t-16.5 -38.5q0 -23 14 -37q8 -12 37 -15q23 0 37 15q8 8 14 37zM370 -151l-30 2h-13.5t-11 -1.5t-12.5 -4.5t-18 -8q-12 -10 -12 -25q5 -19 40 -19q15 0 23.5 1t16.5 5q32 13 45 42z" />
    <glyph glyph-name="dochadathai.short" unicode="&#xf71b;" horiz-adv-x="887" 
d="M778 -171q0 -63 -36 -88q-16 -11 -45 -18.5t-68 -7.5h-51l-18 19l-18 17q-8 7 -19 15t-23 15q-10 -9 -18 -14.5t-18 -12.5q-28 -18 -64.5 -30t-77.5 -12q-40 0 -73.5 7t-59 20t-39.5 31.5t-14 42.5q0 41 51 80q43 27 103 37l48 3q40 0 82 -8l-3 34h147v-18l2 -25v-22
l-4 -18q22 -9 31.5 -19.5t25.5 -27.5l-5 724q0 67 -45 109q-20 20 -47.5 31.5t-64.5 11.5q-29 0 -53 -4.5t-44 -12.5l-34 -18q-16 -9 -31 -27q81 -40 131 -96q-109 -35 -109 -137v-177q8 -7 11 -20l6 -16q6 -29 6 -45q0 -33 -13 -62.5t-36 -51t-54 -34t-67 -12.5
q-70 0 -121 45q-49 49 -49 115q0 63 45 108q20 20 46.5 33.5t62.5 19.5v103q0 23 6 44t20 40l31 32q6 5 17 11.5t22 11.5q-36 25 -98 51l-66 23q58 93 150 147q51 29 106.5 44.5t118.5 15.5q67 0 125 -18t101 -52t67 -83.5t24 -111.5v-742zM221 152q0 22 -14 36
q-8 12 -37 15q-23 0 -34.5 -12.5t-16.5 -38.5q0 -23 14 -37q8 -12 37 -15q23 0 37 15q8 8 14 37zM370 -151l-30 2h-13.5t-11 -1.5t-12.5 -4.5t-18 -8q-12 -10 -12 -25q5 -19 40 -19q15 0 23.5 1t16.5 5q32 13 45 42z" />
    <glyph glyph-name="topatakthai.short" unicode="&#x12b;" horiz-adv-x="878" 
d="M778 -157q0 -72 -41 -100q-15 -11 -47 -20q-13 -3 -30.5 -5.5t-39.5 -2.5h-49l-58 58l-58 -58h-87l-8 15q-2 6 -7 11t-11 13q-68 -41 -154 -41q-61 0 -110 33q-21 14 -33.5 34t-12.5 43q0 52 48 84q12 8 26.5 13.5t30.5 11.5q16 4 33.5 5.5t36.5 1.5q21 0 41 -2t36 -9
l-6 41h158q0 -20 2 -22q0 -19 -6 -48q0 -11 -4 -25t-12 -33l41 36l58 44l48 -38q16 -12 28.5 -23t24.5 -22l-2 715q0 73 -43 113q-11 9 -23 16t-28 12q-12 5 -28.5 8t-34.5 3q-29 0 -53 -4.5t-44 -12.5l-34 -18q-16 -9 -31 -27q81 -40 131 -96q-109 -35 -109 -137v-177
q8 -7 11 -20l6 -16q6 -29 6 -45q0 -33 -13 -62.5t-36 -51t-54 -34t-67 -12.5q-70 0 -121 45q-49 49 -49 115q0 63 45 108q20 20 46.5 33.5t62.5 19.5v103q0 23 6 44t20 40l31 32q6 5 17 11.5t22 11.5q-36 25 -98 51l-66 23q58 93 150 147q51 29 106.5 44.5t118.5 15.5
q67 0 125 -18t101 -52t67 -83.5t24 -111.5v-728zM221 152q0 22 -14 36q-8 12 -37 15q-23 0 -34.5 -12.5t-16.5 -38.5q0 -23 14 -37q8 -12 37 -15q23 0 37 15q8 8 14 37zM272 -170q-16 25 -65 25q-13 0 -39 -9q-15 -8 -15 -25q0 -11 19 -18q17 -4 35 -4q41 4 65 31z" />
    <glyph glyph-name="topatakthai.short" unicode="&#xf71c;" horiz-adv-x="878" 
d="M778 -157q0 -72 -41 -100q-15 -11 -47 -20q-13 -3 -30.5 -5.5t-39.5 -2.5h-49l-58 58l-58 -58h-87l-8 15q-2 6 -7 11t-11 13q-68 -41 -154 -41q-61 0 -110 33q-21 14 -33.5 34t-12.5 43q0 52 48 84q12 8 26.5 13.5t30.5 11.5q16 4 33.5 5.5t36.5 1.5q21 0 41 -2t36 -9
l-6 41h158q0 -20 2 -22q0 -19 -6 -48q0 -11 -4 -25t-12 -33l41 36l58 44l48 -38q16 -12 28.5 -23t24.5 -22l-2 715q0 73 -43 113q-11 9 -23 16t-28 12q-12 5 -28.5 8t-34.5 3q-29 0 -53 -4.5t-44 -12.5l-34 -18q-16 -9 -31 -27q81 -40 131 -96q-109 -35 -109 -137v-177
q8 -7 11 -20l6 -16q6 -29 6 -45q0 -33 -13 -62.5t-36 -51t-54 -34t-67 -12.5q-70 0 -121 45q-49 49 -49 115q0 63 45 108q20 20 46.5 33.5t62.5 19.5v103q0 23 6 44t20 40l31 32q6 5 17 11.5t22 11.5q-36 25 -98 51l-66 23q58 93 150 147q51 29 106.5 44.5t118.5 15.5
q67 0 125 -18t101 -52t67 -83.5t24 -111.5v-728zM221 152q0 22 -14 36q-8 12 -37 15q-23 0 -34.5 -12.5t-16.5 -38.5q0 -23 14 -37q8 -12 37 -15q23 0 37 15q8 8 14 37zM272 -170q-16 25 -65 25q-13 0 -39 -9q-15 -8 -15 -25q0 -11 19 -18q17 -4 35 -4q41 4 65 31z" />
    <glyph glyph-name="PU2005" unicode="&#xe3e;" 
 />
    <glyph glyph-name="ZWSP" unicode="&#x200b;" 
 />
    <glyph glyph-name="uni25CC" unicode="&#x25cc;" horiz-adv-x="1372" 
d="M426 221l-162 -53l58 162q43 -64 104 -109zM608 1020l78 154l76 -152q-37 4 -72 4q-41 0 -82 -6zM756 141l-70 -141l-72 141q37 -6 76 -6q35 0 66 6zM1128 657l146 -73l-144 -68q7 33 7 66q0 39 -9 75zM252 512l-152 78l152 74q-6 -41 -6 -82q0 -37 6 -70zM332 848
l-45 158l153 -56q-63 -41 -108 -102zM1044 309l41 -141l-139 47q58 41 98 94zM942 950l166 56l-57 -160q-45 61 -109 104z" />
    <glyph glyph-name="lochula.short" unicode="&#xf71d;" horiz-adv-x="1024" 
d="M958 948q-11 -34 -31.5 -62.5t-49.5 -51.5q12 -17 12 -56v-631q0 -78 -31 -112.5t-100 -34.5h-80l-141 449l-162 -449h-191v516l-18 -2q-32 0 -62.5 11t-56.5 34q-47 47 -47 111q0 31 13 60t36 51t54 35t67 13q82 0 130 -43.5t48 -123.5v-207l-2 -54v-53q0 -50 -6 -96
l18 63l41 123l74 217h127l74 -217l37 -121l18 -65l-2 96v49v33l-2 25v278l-68 -20l-32 -4l-29 -4q-96 0 -156 40q-57 45 -57 113q0 31 14 58t45 53q32 23 72.5 35t89.5 12l58 -2q11 -2 22.5 -5t24.5 -8q25 -6 41 -18q9 -5 19.5 -11t23.5 -16l28 62zM674 852q-23 53 -80 53
q-22 0 -49 -12q-20 -6 -23 -33q0 -17 23 -31l24 -6l29 -2q42 0 76 31zM217 670q0 20 -12.5 33t-38.5 18q-23 0 -34.5 -12.5t-16.5 -38.5q0 -23 14 -37l14 -8l23 -7q22 0 37 15q11 11 14 37z" />
    <glyph glyph-name="saraamthaileft" horiz-adv-x="739" 
d="M-212 1114q0 -75 -52 -133q-14 -14 -29 -23.5t-30 -17.5q-35 -12 -74 -12q-38 0 -70 12t-61 41q-55 55 -55 133q0 37 14 70.5t39 59t59 41t74 15.5q75 0 133 -55q52 -52 52 -131zM436 0v553q0 73 -37 113q-18 18 -43.5 28.5t-56.5 10.5q-60 0 -95.5 -36t-53.5 -98h-168
q13 59 41 108t69 84t95.5 54t119.5 19q32 0 62 -4.5t55 -12.5q50 -14 94 -55q82 -73 82 -189v-575h-164zM-325 1114q0 19 -4 29t-17 22q-14 18 -51 21q-18 0 -28.5 -3.5t-22.5 -17.5q-8 -8 -13 -20t-7 -31q0 -31 20 -51q18 -18 51 -21q30 0 51 21q21 14 21 51z" />
    <glyph glyph-name="yamakkanleftthai" 
d="M-524 1233q-31 24 -31 59q0 72 90 119q78 41 156 41q63 0 127 -20q20 -9 20 -29q0 -33 -31 -33q-4 0 -10 2q-53 19 -106 19q-47 0 -111 -27q-74 -33 -74 -72q0 -14 76 -43q25 -8 25 -28q0 -31 -33 -31q-2 0 -9 1t-11 1q-39 0 -81 -33t-42 -59q0 -33 28.5 -53.5
t69.5 -20.5q84 0 119 61q8 17 24 17q33 0 33 -31q0 -6 -4 -14q-53 -94 -172 -94q-59 0 -107 30q-55 39 -55 105q0 82 109 133z" />
    </font>
</defs>
</svg>
