<svg xmlns="http://www.w3.org/2000/svg">
<defs>
<font id="PSL-Text" horiz-adv-x="0" >
  <font-face 
    font-family="PSL-Text"
    font-weight="400"
    font-stretch="normal"
    units-per-em="2048"
    panose-1="2 0 5 6 0 0 0 2 0 3"
    ascent="1638"
    descent="-410"
    x-height="698"
    cap-height="965"
    bbox="-856 -901 1894 1651"
    underline-thickness="51"
    underline-position="-186"
    unicode-range="U+0020-F882"
  />
<missing-glyph horiz-adv-x="1536" 
d="M256 0v1280h1024v-1280h-1024zM299 33h938q10 0 10 10v1194q0 10 -10 10h-938q-10 0 -10 -10v-1194q0 -10 10 -10zM715 -2h-2v0h2h-2v0h2zM768 -2v-2h-2v2h2zM768 -4v2h-2v-2h2zM780 -2v0v0v-2v2h-4v-2v2h2v0h2zM778 -2h2v0h-2zM799 -2h-4v-2h4v2h-2h2v-2h-4v2h4zM799 -2
v0h4v0v-2v2h-4v-2v2zM717 0v-4h-6v4h6zM717 -4v4h-6v-4h6zM731 -2v-2h-2v2h2zM731 -4v2h-2v-2h2zM733 -2v0h2v0v-2v2h-2zM770 -2v-2h2h-2v2zM844 -2v-2h-4v2h4zM844 -4v2h-4v-2h4zM834 -2v-2h2v2v-2h-2v2zM803 -2h4h-2v-2v2h-2zM758 -2h2v-2h-2v2h2v0h-2zM758 -4h2v2h-2v-2z
M766 -2v0h-4v-2v2h4zM762 -2h4v0h-4zM795 -2v-2v2zM725 -4h-4h4zM725 -2v0h-4v-2v2h4v0h-4h4zM678 -2h-4v-2h4h-4v2h4zM727 -2v-2h-2v2h2zM727 -4v2h-2v-2h2zM684 -2v0h-2v-2v2h2zM682 -2h2v0h-2zM682 -2v-2h-4v2h4zM682 -4v2h-4v-2h4zM686 -2v0h4v0v0h-2v-2v2h-2zM784 -2
v-2h2h-2v2zM782 -2v-2h2h-2v2zM754 -4v2h2v-2v2h-2v-2zM815 -2v0h2v-2v2h-4v-2v2h2zM813 -2h2v0h-2zM762 -2v-2v2zM698 -2h-2v-2h2v2h-2h2v-2h-2v2h2zM700 -2v0h2v0v-2v2h-2v-2v2zM705 -2h4h-2v-2v2h-2zM694 -2v-2v2zM692 -2v0h2v-2v2h-4v-2v2h2zM690 -2h2v0h-2zM831 -2v0h3
v-2v2h-5v-2v2h2zM829 -2h2v0h-2zM836 -4h4h-4zM836 -2h4h-4zM836 -2h4h-4zM750 -4h2h-2zM752 -2v0v0v-2v2h-2v-2v2v0h2zM750 -2h2v0h-2zM829 -4h-4h4zM825 -2h4h-4zM825 -2h4h-4zM809 -2h2v-2h-2h2v2h-2zM809 -2h2h-2v0zM821 -2h4v-2h-4h4v2h-4zM821 -2h4h-4v0zM817 -4h4h-4
zM817 -2h4h-4zM817 -2h4h-4zM793 -2v0v0v-2v2h-2v-2v2h2zM791 -2h2v0h-2zM745 -4h3h-3zM745 -2h3h-3zM745 -2h3h-3zM739 -2v-2h4v2v-2h-4v2zM741 -2v-2v2z" />
    <glyph glyph-name="trademark" unicode="&#x3b;&#x3b;Trademark&#x3b;&#x3b;" horiz-adv-x="1993" 
d="M121 1165h801q30 0 30 -28q0 -33 -30 -33h-371v-506q0 -14 -31 -14t-31 14v506h-368q-33 0 -33 33q0 28 33 28zM1833 618v459l-342 -485q-10 -10 -29 -10q-18 0 -28 10l-340 485v-459q0 -34 -31 -34q-33 0 -33 34v521q0 28 31 28q18 0 39 -12l362 -510l363 510
q20 12 41 12q28 0 28 -28v-521q0 -34 -30 -34q-31 0 -31 34z" />
    <glyph glyph-name="multiply" unicode="&#x3b;&#x3b;Multiply&#x3b;&#x3b;" horiz-adv-x="1083" 
d="M803 270l-262 260l-260 -260q-13 -12 -23 -12t-22 12q-11 11 -11 23q0 10 11 20l262 262l-262 261q-11 10 -11 20q0 12 11 23q12 12 22 12t23 -12l260 -261l262 261q10 12 20 12q13 0 23 -12q10 -11 10 -23q0 -10 -10 -20l-260 -261l260 -262q10 -10 10 -20
q0 -12 -10 -23q-10 -12 -23 -12q-10 0 -20 12z" />
    <glyph glyph-name="divide" unicode="&#x3b;&#x3b;Divide&#x3b;&#x3b;" horiz-adv-x="1292" 
d="M246 606h801q30 0 30 -31q0 -30 -30 -30h-801q-31 0 -31 30q0 31 31 31zM639 362q14 0 27.5 -7t20.5 -20t7 -28q0 -14 -6 -27.5t-20.5 -20.5t-28.5 -7q-12 0 -25.5 7t-20.5 20.5t-7 27.5q0 15 7 28t20.5 20t25.5 7zM639 920q14 0 27.5 -7.5t20.5 -20.5t7 -28
q0 -12 -6 -25.5t-20.5 -20.5t-28.5 -7q-12 0 -25.5 7t-20.5 20.5t-7 25.5q0 15 7 28t20.5 20.5t25.5 7.5z" />
    <glyph glyph-name="fi" unicode="fi" horiz-adv-x="691" 
d="M401 864q-16 6 -32.5 8t-32.5 2q-41 0 -64.5 -16t-23.5 -61v-99h135v-100h-135v-598h-115v598h-117v100h117v105q0 174 195 174q16 0 36.5 -3t36.5 -9v-101zM457 825v140h115v-140h-115zM457 0v698h115v-698h-115z" />
    <glyph glyph-name="fl" unicode="fl" horiz-adv-x="718" 
d="M401 864q-16 6 -32.5 8t-32.5 2q-41 0 -64.5 -16t-23.5 -61v-99h135v-100h-135v-598h-115v598h-117v100h117v105q0 174 195 174q16 0 36.5 -3t36.5 -9v-101zM486 3v962h115v-962h-115z" />
    <glyph glyph-name="ffi" unicode="ffi" horiz-adv-x="1136" 
d="M401 864q-16 6 -32.5 8t-32.5 2q-41 0 -64.5 -16t-23.5 -61v-99h135v-100h-135v-598h-115v598h-117v100h117v105q0 174 195 174q16 0 36.5 -3t36.5 -9v-101zM845 864q-16 6 -32.5 8t-32.5 2q-41 0 -64.5 -16t-23.5 -61v-99h135v-100h-135v-598h-115v598h-117v100h117v105
q0 174 195 174q16 0 36.5 -3t36.5 -9v-101zM901 825v140h115v-140h-115zM901 0v698h115v-698h-115z" />
    <glyph glyph-name="ffl" unicode="ffl" horiz-adv-x="1165" 
d="M401 864q-16 6 -32.5 8t-32.5 2q-41 0 -64.5 -16t-23.5 -61v-99h135v-100h-135v-598h-115v598h-117v100h117v105q0 174 195 174q16 0 36.5 -3t36.5 -9v-101zM845 864q-16 6 -32.5 8t-32.5 2q-41 0 -64.5 -16t-23.5 -61v-99h135v-100h-135v-598h-115v598h-117v100h117v105
q0 174 195 174q16 0 36.5 -3t36.5 -9v-101zM928 3v962h115v-962h-115z" />
    <glyph glyph-name="Rulakkhangyao" unicode="&#xc4;&#xd2;" horiz-adv-x="1430" 
d="M573 -307v893q0 43 -17 74.5t-44 53t-60.5 32t-66.5 10.5q-121 0 -195 -82q27 -10 66 -35t66 -53q-107 -37 -107 -144v-184q10 4 24.5 6t24.5 2q58 0 96.5 -40t38.5 -95q0 -57 -40 -99t-99 -42q-67 0 -107 42t-40 107v305q0 54 25.5 92.5t60.5 49.5q-15 12 -34.5 23.5
t-40 20.5t-37.5 16t-28 11q56 86 138 132.5t192 46.5q57 0 109.5 -15.5t91.5 -47.5t62.5 -79t23.5 -110v-891h-103zM324 131q0 25 -17.5 42t-42.5 17q-24 0 -41.5 -17t-17.5 -42t17.5 -42t41.5 -17q25 0 42.5 17t17.5 42zM1206 -307v893q0 73 -42 121.5t-120 48.5
q-67 0 -112.5 -38t-65.5 -104h-107q23 95 100 158.5t187 63.5q117 0 189.5 -62.5t72.5 -169.5v-911h-102z" />
    <glyph glyph-name="Lulakkhangyao" unicode="&#xc6;&#xd2;" horiz-adv-x="1509" 
d="M1263 -307v893q0 73 -42 121.5t-120 48.5q-67 0 -112.5 -38t-65.5 -104h-107q23 95 100 158.5t187 63.5q117 0 189.5 -62.5t72.5 -169.5v-911h-102zM635 -307v893q0 43 -17.5 74.5t-44 53t-60.5 32t-67 10.5q-120 0 -194 -82q27 -10 65.5 -35t65.5 -53
q-107 -37 -107 -144v-235q23 -31 23 -78q0 -57 -41 -98t-98 -41q-58 0 -99 41t-41 98t41 98t99 41h14v176q0 54 25.5 92.5t60.5 49.5q-14 12 -33.5 23.5t-40 20.5t-38 16l-27.5 11q55 86 137 132.5t193 46.5q57 0 109 -15.5t91 -47.5t62.5 -79t23.5 -110v-891h-102zM219 129
q0 25 -17.5 42t-41.5 17q-25 0 -42.5 -17t-17.5 -42t17.5 -42t42.5 -17q24 0 41.5 17t17.5 42z" />
    <glyph glyph-name=".notdef" horiz-adv-x="1536" 
d="M256 0v1280h1024v-1280h-1024zM299 33h938q10 0 10 10v1194q0 10 -10 10h-938q-10 0 -10 -10v-1194q0 -10 10 -10zM715 -2h-2v0h2h-2v0h2zM768 -2v-2h-2v2h2zM768 -4v2h-2v-2h2zM780 -2v0v0v-2v2h-4v-2v2h2v0h2zM778 -2h2v0h-2zM799 -2h-4v-2h4v2h-2h2v-2h-4v2h4zM799 -2
v0h4v0v-2v2h-4v-2v2zM717 0v-4h-6v4h6zM717 -4v4h-6v-4h6zM731 -2v-2h-2v2h2zM731 -4v2h-2v-2h2zM733 -2v0h2v0v-2v2h-2zM770 -2v-2h2h-2v2zM844 -2v-2h-4v2h4zM844 -4v2h-4v-2h4zM834 -2v-2h2v2v-2h-2v2zM803 -2h4h-2v-2v2h-2zM758 -2h2v-2h-2v2h2v0h-2zM758 -4h2v2h-2v-2z
M766 -2v0h-4v-2v2h4zM762 -2h4v0h-4zM795 -2v-2v2zM725 -4h-4h4zM725 -2v0h-4v-2v2h4v0h-4h4zM678 -2h-4v-2h4h-4v2h4zM727 -2v-2h-2v2h2zM727 -4v2h-2v-2h2zM684 -2v0h-2v-2v2h2zM682 -2h2v0h-2zM682 -2v-2h-4v2h4zM682 -4v2h-4v-2h4zM686 -2v0h4v0v0h-2v-2v2h-2zM784 -2
v-2h2h-2v2zM782 -2v-2h2h-2v2zM754 -4v2h2v-2v2h-2v-2zM815 -2v0h2v-2v2h-4v-2v2h2zM813 -2h2v0h-2zM762 -2v-2v2zM698 -2h-2v-2h2v2h-2h2v-2h-2v2h2zM700 -2v0h2v0v-2v2h-2v-2v2zM705 -2h4h-2v-2v2h-2zM694 -2v-2v2zM692 -2v0h2v-2v2h-4v-2v2h2zM690 -2h2v0h-2zM831 -2v0h3
v-2v2h-5v-2v2h2zM829 -2h2v0h-2zM836 -4h4h-4zM836 -2h4h-4zM836 -2h4h-4zM750 -4h2h-2zM752 -2v0v0v-2v2h-2v-2v2v0h2zM750 -2h2v0h-2zM829 -4h-4h4zM825 -2h4h-4zM825 -2h4h-4zM809 -2h2v-2h-2h2v2h-2zM809 -2h2h-2v0zM821 -2h4v-2h-4h4v2h-4zM821 -2h4h-4v0zM817 -4h4h-4
zM817 -2h4h-4zM817 -2h4h-4zM793 -2v0v0v-2v2h-2v-2v2h2zM791 -2h2v0h-2zM745 -4h3h-3zM745 -2h3h-3zM745 -2h3h-3zM739 -2v-2h4v2v-2h-4v2zM741 -2v-2v2z" />
    <glyph glyph-name=".null" 
 />
    <glyph glyph-name="nonmarkingreturn" horiz-adv-x="580" 
 />
    <glyph glyph-name="space" unicode=" " horiz-adv-x="690" 
 />
    <glyph glyph-name="exclam" unicode="!" horiz-adv-x="350" 
d="M205 248h-60l-34 420v297h129v-297zM100 0v150h150v-150h-150z" />
    <glyph glyph-name="quotedbl" unicode="&#x22;" horiz-adv-x="575" 
d="M336 616v349h92v-349h-92zM147 616v349h93v-349h-93z" />
    <glyph glyph-name="numbersign" unicode="#" horiz-adv-x="752" 
d="M573 573l-28 -202h123v-92h-138l-38 -279h-93l39 279h-168l-39 -279h-94l39 279h-131v92h145l29 202h-137v93h149l39 276h95l-41 -276h168l38 276h95l-39 -276h121v-93h-134zM311 573l-26 -202h166l28 202h-168z" />
    <glyph glyph-name="dollar" unicode="$" horiz-adv-x="752" 
d="M709 270q0 -131 -83 -206.5t-212 -86.5v-110h-74v110q-135 13 -215 95t-92 223h117q4 -92 56 -144.5t134 -64.5v356q-72 19 -124 39.5t-87 50t-51.5 71.5t-16.5 102q0 61 21.5 112t59.5 88t89.5 58.5t108.5 23.5v111h74v-111q110 -14 174.5 -82.5t91.5 -185.5h-115
q-28 133 -151 158v-334l82 -21q24 -6 61 -23.5t71 -47t57.5 -74.5t23.5 -107zM340 881q-66 -9 -111 -47.5t-45 -116.5q0 -72 43 -102.5t113 -51.5v318zM588 258q0 39 -13.5 65.5t-37 45t-55 32t-68.5 23.5v-338q75 6 124.5 45t49.5 127z" />
    <glyph glyph-name="percent" unicode="%" horiz-adv-x="1352" 
d="M1227 256q0 -53 -11.5 -102.5t-38 -87t-66.5 -60t-99 -22.5q-62 0 -104 21.5t-67.5 57t-36.5 85t-11 104.5q0 53 10 103.5t35.5 88t67.5 60t106 22.5q63 0 104 -21.5t65.5 -58t35 -86t10.5 -104.5zM371 -31h-117l727 1008h115zM559 688q0 -53 -11 -102t-38 -87t-67 -60.5
t-99 -22.5q-61 0 -103 21.5t-68 58t-37 85t-11 103.5t10 104.5t36 87t68 60t105 22.5q62 0 103.5 -21.5t66.5 -58t35 -86t10 -104.5zM1126 256q0 31 -4 64.5t-16 62.5t-34.5 48.5t-59.5 19.5t-60.5 -19.5t-37 -48.5t-17.5 -63.5t-4 -65.5q0 -29 3 -63.5t15.5 -64.5t35 -49.5
t61.5 -19.5t62.5 19.5t35.5 48.5t16 64.5t4 66.5zM459 688q0 31 -4 64.5t-16.5 63.5t-35 49.5t-59.5 19.5t-60.5 -19.5t-37 -49.5t-17.5 -64.5t-4 -65.5q0 -29 3 -62.5t15.5 -63.5t35 -49t61.5 -19t62.5 18t36 48t16.5 64.5t4 65.5z" />
    <glyph glyph-name="ampersand" unicode="&#x26;" horiz-adv-x="852" 
d="M721 0l-103 121q-43 -68 -118.5 -102.5t-153.5 -34.5q-98 0 -156.5 29.5t-91 71.5t-43 87t-10.5 76q0 57 18.5 100t49 78t71.5 61.5t86 51.5q-20 28 -38.5 53.5t-34 52.5t-24.5 55.5t-9 65.5q0 80 56 139.5t161 59.5q45 0 87 -12.5t74.5 -37t52 -61.5t19.5 -86
q0 -86 -55 -147.5t-125 -102.5l174 -213q27 70 31 150h111q-5 -43 -10 -73t-12 -56.5t-17.5 -51t-26.5 -57.5l188 -217h-151zM500 762q0 41 -29 71.5t-82 30.5q-41 0 -75.5 -24.5t-34.5 -77.5q0 -45 30.5 -87t61.5 -81q43 27 86 66.5t43 101.5zM334 467q-33 -18 -63.5 -38.5
t-54 -46.5t-37 -58.5t-13.5 -75.5q0 -37 15.5 -66.5t41 -51t59 -33t68.5 -11.5q66 0 118 30.5t87 84.5z" />
    <glyph glyph-name="quotesingle" unicode="'" horiz-adv-x="375" 
d="M141 616v349h92v-349h-92z" />
    <glyph glyph-name="parenleft" unicode="(" horiz-adv-x="432" 
d="M317 -268q-98 153 -155.5 303.5t-57.5 329.5q0 159 54.5 322t158.5 300h89q-99 -153 -140 -305t-41 -317q0 -172 41 -325t140 -308h-89z" />
    <glyph glyph-name="parenright" unicode=")" horiz-adv-x="432" 
d="M328 356q0 -159 -54.5 -322t-158.5 -302h-88q98 153 139 305.5t41 318.5q0 170 -41 322.5t-139 308.5h88q98 -153 155.5 -302.5t57.5 -328.5z" />
    <glyph glyph-name="asterisk" unicode="*" horiz-adv-x="475" 
d="M297 750l88 -123l-55 -41l-94 129l-86 -129l-62 41l88 123l-143 51l24 65l144 -53v152h71v-152l144 53l26 -65z" />
    <glyph glyph-name="plus" unicode="+" horiz-adv-x="737" 
d="M418 297v-287h-90v287h-287v90h287v287h90v-287h287v-90h-287z" />
    <glyph glyph-name="comma" unicode="," horiz-adv-x="287" 
d="M221 49q4 -59 -25.5 -113.5t-72.5 -82.5l-31 20q33 23 54.5 55.5t23.5 67.5q-12 -6 -27 -6q-28 0 -49.5 21.5t-21.5 49.5q0 29 21.5 50.5t49.5 21.5q33 0 54.5 -23.5t23.5 -60.5z" />
    <glyph glyph-name="hyphen" unicode="-" horiz-adv-x="526" 
d="M68 338v82h391v-82h-391z" />
    <glyph glyph-name="period" unicode="." horiz-adv-x="287" 
d="M215 61q0 -28 -21.5 -49.5t-50.5 -21.5q-28 0 -49.5 21.5t-21.5 49.5q0 29 21.5 50.5t49.5 21.5q29 0 50.5 -21.5t21.5 -50.5z" />
    <glyph glyph-name="slash" unicode="/" horiz-adv-x="451" 
d="M74 -23h-99l400 1010h100z" />
    <glyph glyph-name="zero" unicode="0" horiz-adv-x="737" 
d="M684 471q0 -80 -7 -166t-38 -157.5t-94.5 -117.5t-175.5 -46q-111 0 -174.5 46t-94 117.5t-38 157.5t-7.5 166t7.5 166t38 157.5t94 117.5t174.5 46q112 0 175.5 -46t94.5 -117.5t38 -157.5t7 -166zM571 471q0 55 -4 124t-23.5 128t-60.5 100t-114 41q-74 0 -115 -41
t-59.5 -100t-22.5 -128t-4 -124t4 -123.5t22.5 -128t59.5 -100.5t115 -41q73 0 114 41t60.5 100.5t23.5 128t4 123.5z" />
    <glyph glyph-name="one" unicode="1" horiz-adv-x="737" 
d="M365 0v692h-250v84q49 0 94 8.5t82 29t63.5 56t36.5 88.5h80v-958h-106z" />
    <glyph glyph-name="two" unicode="2" horiz-adv-x="737" 
d="M657 684q0 -63 -19.5 -111.5t-51 -87.5t-73.5 -69.5t-85 -59.5q-45 -28 -90 -55t-82 -57.5t-63.5 -66.5t-34.5 -83h489v-94h-616q8 84 31.5 143.5t59.5 102.5t81 76.5t94 64.5q61 39 107.5 70.5t78 65.5t47 73t15.5 90q0 80 -56.5 129t-134.5 49q-49 0 -86 -21.5
t-60.5 -55t-33.5 -76.5t-10 -86h-107q-2 71 16.5 132.5t58.5 105.5t98.5 69.5t131.5 25.5q62 0 116 -17t94 -52t62.5 -86t22.5 -119z" />
    <glyph glyph-name="three" unicode="3" horiz-adv-x="737" 
d="M680 274q0 -71 -25.5 -125.5t-70.5 -91.5t-104.5 -55t-125.5 -18q-143 0 -230 79.5t-85 227.5h106q5 -94 58 -153.5t151 -59.5q43 0 81 13t66.5 38t46 59.5t17.5 79.5q0 94 -60.5 142.5t-146.5 48.5q-16 0 -32.5 -1t-32.5 -3v88h45q76 0 131 41t55 121q0 77 -49 118
t-125 41q-47 0 -80.5 -16.5t-57.5 -45t-35 -66.5t-11 -81h-107q7 136 78.5 219.5t212.5 83.5q62 0 115 -15t91 -46t60.5 -79t22.5 -113q0 -62 -40 -115t-93 -78v-4q86 -19 130 -83.5t44 -150.5z" />
    <glyph glyph-name="four" unicode="4" horiz-adv-x="737" 
d="M559 225v-225h-104v225h-420v105l436 628h86v-636h129v-97h-127zM455 784l-316 -462h316v462z" />
    <glyph glyph-name="five" unicode="5" horiz-adv-x="737" 
d="M678 301q0 -59 -20.5 -116.5t-62.5 -101.5t-103.5 -71.5t-145.5 -27.5q-61 0 -114.5 18t-94.5 52t-65.5 84t-26.5 114h107q6 -74 62 -124t144 -50q84 0 145.5 58.5t61.5 172.5q0 99 -61.5 162.5t-159.5 63.5q-57 0 -101 -26t-79 -67l-92 7l88 493h465v-94h-385l-54 -285
h4q31 33 83.5 49.5t99.5 16.5q63 0 118.5 -20.5t97.5 -61.5t65.5 -102.5t23.5 -143.5z" />
    <glyph glyph-name="six" unicode="6" horiz-adv-x="737" 
d="M692 303q0 -51 -16.5 -107.5t-53 -103.5t-97 -77.5t-150.5 -30.5q-105 0 -169.5 44t-99 111.5t-46 148.5t-11.5 156q0 99 16.5 192t56.5 164.5t107.5 114.5t167.5 43q117 0 186.5 -61t80.5 -178h-107q-10 65 -53 105t-111 40q-74 0 -120 -38t-71.5 -94t-34.5 -121.5
t-11 -123.5h4q41 64 102.5 95.5t138.5 31.5q68 0 122.5 -23.5t92 -65.5t57 -98t19.5 -124zM578 295q0 92 -48.5 157.5t-148.5 65.5q-98 0 -150.5 -63.5t-52.5 -157.5q0 -92 52.5 -155.5t150.5 -63.5q47 0 84 17.5t61.5 48t38 69.5t13.5 82z" />
    <glyph glyph-name="seven" unicode="7" horiz-adv-x="737" 
d="M678 848q-74 -74 -137.5 -172t-112.5 -211t-80 -231.5t-39 -233.5h-119q9 121 40.5 236.5t80.5 223t113.5 204t140.5 176.5h-499v102h612v-94z" />
    <glyph glyph-name="eight" unicode="8" horiz-adv-x="737" 
d="M688 274q0 -69 -24.5 -123.5t-67.5 -91t-100.5 -56t-122.5 -19.5q-68 0 -126.5 17t-102.5 54t-68.5 91.5t-24.5 127.5q0 86 45 147.5t133 92.5q-67 29 -105 83t-38 118q0 59 22.5 105t61.5 77t88 46t104 15q78 0 132.5 -21.5t88 -55t50 -77.5t16.5 -89q0 -62 -38 -117
t-103 -84q180 -57 180 -240zM537 711q0 73 -47.5 113t-118.5 40q-72 0 -122 -40t-50 -113q0 -80 51 -120t123 -40q71 0 117.5 43t46.5 117zM573 270q0 41 -15 75t-43 59.5t-64.5 40t-77.5 14.5q-88 0 -147.5 -52.5t-59.5 -138.5q0 -88 57.5 -139t149.5 -51q90 0 145 55
t55 137z" />
    <glyph glyph-name="nine" unicode="9" horiz-adv-x="737" 
d="M680 500q0 -250 -78 -383t-252 -133q-117 0 -194.5 59t-92.5 182h107q8 -71 59.5 -109t120.5 -38q109 0 163 98t58 289h-4q-37 -66 -96 -101.5t-129 -35.5q-145 0 -222 89t-77 230q0 70 22.5 127t64.5 98t99.5 63.5t124.5 22.5q66 0 125.5 -20t104.5 -72.5t70.5 -141.5
t25.5 -224zM551 641q0 45 -13.5 85t-39 70.5t-62.5 49t-86 18.5q-51 0 -88 -19.5t-60.5 -51t-33.5 -73.5t-10 -87q0 -41 14 -79t40 -66.5t60.5 -46t77.5 -17.5q92 0 146.5 63.5t54.5 153.5z" />
    <glyph glyph-name="colon" unicode=":" horiz-adv-x="307" 
d="M225 637q0 -29 -21.5 -50.5t-49.5 -21.5q-29 0 -50.5 21.5t-21.5 50.5t21.5 50.5t50.5 21.5q28 0 49.5 -21.5t21.5 -50.5zM225 61q0 -28 -21.5 -49.5t-49.5 -21.5q-29 0 -50.5 21.5t-21.5 49.5q0 29 21.5 50.5t50.5 21.5q28 0 49.5 -21.5t21.5 -50.5z" />
    <glyph glyph-name="semicolon" unicode=";" horiz-adv-x="307" 
d="M225 637q0 -29 -21.5 -50.5t-49.5 -21.5q-29 0 -50.5 21.5t-21.5 50.5t21.5 50.5t50.5 21.5q28 0 49.5 -21.5t21.5 -50.5zM231 49q5 -59 -25 -113.5t-73 -82.5l-31 20q33 23 54.5 55.5t23.5 67.5q-12 -6 -26 -6q-29 0 -50.5 21.5t-21.5 49.5q0 29 21.5 50.5t50.5 21.5
q32 0 53.5 -23.5t23.5 -60.5z" />
    <glyph glyph-name="less" unicode="&#x3c;" horiz-adv-x="737" 
d="M55 301v82l627 311v-92l-524 -260l524 -260v-92z" />
    <glyph glyph-name="equal" unicode="=" horiz-adv-x="737" 
d="M41 412v92h664v-92h-664zM41 180v92h664v-92h-664z" />
    <glyph glyph-name="greater" unicode="&#x3e;" horiz-adv-x="737" 
d="M55 -10v92l525 260l-525 260v92l627 -311v-82z" />
    <glyph glyph-name="question" unicode="?" horiz-adv-x="752" 
d="M74 664q0 69 20.5 128.5t59.5 102.5t96 67.5t127 24.5q125 0 205 -70.5t80 -199.5q0 -84 -35 -135.5t-80 -94.5q-45 -41 -82 -86t-37 -112v-53h-115v63q0 41 11.5 74t30 60.5t40 49l41.5 41.5q19 21 39.5 41.5t35.5 44t23.5 53t6.5 66.5q-4 74 -48 116t-116 42
q-98 0 -143.5 -64.5t-45.5 -158.5h-114zM371 150q35 0 57.5 -23t22.5 -57q0 -35 -22.5 -57.5t-57.5 -22.5t-57.5 22.5t-22.5 57.5q0 34 22.5 57t57.5 23z" />
    <glyph glyph-name="at" unicode="@" horiz-adv-x="1081" 
d="M1018 571q0 -88 -32 -160.5t-79 -123.5t-102 -79t-103 -28q-34 0 -59 21.5t-29 66.5h-4q-28 -35 -72 -63.5t-96 -28.5q-86 0 -139 62.5t-53 152.5q0 70 22.5 138.5t64.5 123t100.5 88t129.5 33.5q47 0 88 -24.5t64 -85.5l31 86h86l-115 -385q-4 -17 -9 -35.5t-5 -32.5
q0 -18 8 -30.5t24 -12.5q31 0 64 28.5t60.5 72.5t45 99.5t17.5 110.5q0 80 -31 144.5t-81 109.5t-116.5 69.5t-138.5 24.5q-86 0 -160.5 -34.5t-130 -93t-87 -137.5t-31.5 -169t33.5 -168t90 -136t132 -91t161.5 -33q97 0 187 45t147 119h86q-65 -113 -179 -175.5
t-245 -62.5q-106 0 -198.5 39t-161 109t-107.5 163t-39 199q0 105 40 196t108.5 158.5t160 106.5t193.5 39q94 0 177 -30.5t145.5 -86t99.5 -131t37 -168.5zM678 557q0 49 -34 87t-77 38q-47 0 -87 -27.5t-68.5 -69.5t-44 -91.5t-15.5 -94.5q0 -57 32 -94t83 -37q45 0 83 30
t66.5 74t45 94t16.5 91z" />
    <glyph glyph-name="A" unicode="A" horiz-adv-x="877" 
d="M745 0l-106 291h-408l-108 -291h-133l379 965h141l377 -965h-142zM438 848h-2l-164 -449h326z" />
    <glyph glyph-name="B" unicode="B" horiz-adv-x="926" 
d="M864 276q0 -53 -18.5 -103t-55 -88t-92 -61.5t-127.5 -23.5h-467v965h351q32 0 68 -1t71 -4.5t65.5 -10.5t51.5 -19q47 -29 80.5 -79t33.5 -122q0 -78 -38.5 -133t-104.5 -84v-2q90 -18 136 -80.5t46 -153.5zM696 705q0 49 -16 79.5t-44 46t-66 20.5t-78 5h-259v-305h259
q110 0 157 38t47 116zM737 281q0 47 -17.5 78.5t-47 50t-67.5 25.5t-79 7h-293v-333h322q84 0 133 47t49 125z" />
    <glyph glyph-name="C" unicode="C" horiz-adv-x="977" 
d="M922 365q-19 -183 -126.5 -285.5t-291.5 -102.5q-113 0 -197 39t-139 106.5t-83 160t-28 196.5q0 105 30 198t87 161.5t143 108.5t197 40q154 0 264.5 -79t132.5 -234h-127q-20 104 -95 155.5t-175 51.5q-86 0 -147.5 -33t-101.5 -87t-59.5 -125t-19.5 -147
q0 -81 19.5 -155t59.5 -129t101.5 -87t147.5 -32q129 0 198.5 79t80.5 200h129z" />
    <glyph glyph-name="D" unicode="D" horiz-adv-x="952" 
d="M901 506q0 -244 -111.5 -375t-353.5 -131h-332v965h332q223 0 344 -112t121 -347zM772 487q0 172 -72.5 270.5t-248.5 98.5h-218v-747h213q33 0 88.5 9t107.5 47t91 113.5t39 208.5z" />
    <glyph glyph-name="E" unicode="E" horiz-adv-x="825" 
d="M104 0v965h668v-109h-539v-305h502v-109h-502v-333h543v-109h-672z" />
    <glyph glyph-name="F" unicode="F" horiz-adv-x="776" 
d="M233 856v-305h445v-109h-445v-442h-129v965h635v-109h-506z" />
    <glyph glyph-name="G" unicode="G" horiz-adv-x="1026" 
d="M860 0l-33 121q-55 -78 -139 -111t-170 -33q-108 0 -193 41t-144.5 109t-91.5 155t-32 181q0 106 29 201.5t87 167t144 113.5t201 42q80 0 149.5 -18.5t124 -57.5t91.5 -99t49 -144h-127q-21 110 -99.5 161.5t-187.5 51.5q-88 0 -150.5 -35t-102.5 -92.5t-59.5 -131
t-19.5 -151.5q0 -76 21.5 -145.5t63.5 -122.5t104.5 -85t142.5 -32q74 0 133.5 24.5t99.5 66.5t60 99.5t16 122.5h-309v109h424v-508h-82z" />
    <glyph glyph-name="H" unicode="H" horiz-adv-x="977" 
d="M741 0v442h-508v-442h-129v965h129v-414h508v414h129v-965h-129z" />
    <glyph glyph-name="I" unicode="I" horiz-adv-x="350" 
d="M111 0v965h129v-965h-129z" />
    <glyph glyph-name="J" unicode="J" horiz-adv-x="702" 
d="M596 240q0 -50 -14.5 -97t-47 -83.5t-88 -59.5t-135.5 -23q-135 0 -207.5 73t-72.5 208v59h127v-41q0 -40 7 -75t24.5 -60.5t47 -40t76.5 -14.5q90 0 122 47t32 127v705h129v-725z" />
    <glyph glyph-name="K" unicode="K" horiz-adv-x="901" 
d="M743 0l-348 487l-162 -149v-338h-129v965h129v-482l490 482h166l-406 -390l422 -575h-162z" />
    <glyph glyph-name="L" unicode="L" horiz-adv-x="752" 
d="M104 0v965h129v-856h512v-109h-641z" />
    <glyph glyph-name="M" unicode="M" horiz-adv-x="1178" 
d="M948 0v803h-4l-301 -803h-108l-302 803h-4v-803h-120v965h176l303 -811l305 811h176v-965h-121z" />
    <glyph glyph-name="N" unicode="N" horiz-adv-x="977" 
d="M733 0l-504 774h-4v-774h-121v965h136l510 -783h2v783h120v-965h-139z" />
    <glyph glyph-name="O" unicode="O" horiz-adv-x="1028" 
d="M977 483q0 -98 -28.5 -189t-87 -162t-145.5 -113t-202 -42t-202 42t-145 113t-87 162t-29 189q0 99 29 190t87 160.5t145 111.5t202 42t202 -42t145.5 -111.5t87 -160.5t28.5 -190zM848 483q0 74 -19.5 144.5t-59.5 127t-103.5 91.5t-151.5 35t-151.5 -35t-103.5 -91.5
t-59.5 -127t-19.5 -144.5q0 -73 19.5 -144t59.5 -127t103.5 -91t151.5 -35t151.5 35t103.5 91t59.5 127t19.5 144z" />
    <glyph glyph-name="P" unicode="P" horiz-adv-x="877" 
d="M825 680q0 -135 -75.5 -211t-221.5 -74h-295v-395h-129v965h424q146 0 221.5 -75t75.5 -210zM696 680q0 86 -50 131t-161 45h-252v-352h252q111 -2 161 44t50 132z" />
    <glyph glyph-name="Q" unicode="Q" horiz-adv-x="1028" 
d="M977 483q0 -110 -37 -211.5t-111 -173.5l127 -100l-63 -82l-148 119q-98 -58 -231 -58q-115 0 -202 42t-145 113t-87 162t-29 189q0 99 29 190t87 160.5t145 111.5t202 42t202 -42t145.5 -111.5t87 -160.5t28.5 -190zM848 483q0 74 -19.5 144.5t-59.5 127t-103.5 91.5
t-151.5 35t-151.5 -35t-103.5 -91.5t-59.5 -127t-19.5 -144.5q0 -73 19.5 -144t59.5 -127t103.5 -91t151.5 -35q74 0 133 27l-106 84l67 79l129 -104q58 57 84.5 140t26.5 171z" />
    <glyph glyph-name="R" unicode="R" horiz-adv-x="926" 
d="M743 0q-14 14 -18 40t-6 58.5t-3 68.5t-7 71q-7 34 -15 66t-25.5 55.5t-46 38t-75.5 14.5h-314v-412h-129v965h455q137 0 215 -68t78 -184q0 -88 -40 -154.5t-126 -91.5v-2q41 -8 67.5 -27.5t42 -45t23.5 -58.5t10 -68q5 -35 6 -71.5t6 -71.5t15 -66.5t31 -56.5h-144z
M725 692q0 72 -40 118t-132 46h-320v-336h269q45 0 86 7.5t71.5 25.5t48 52t17.5 87z" />
    <glyph glyph-name="S" unicode="S" horiz-adv-x="877" 
d="M825 264q0 -76 -33.5 -131t-88 -89t-122 -50.5t-132.5 -16.5q-80 0 -153 20.5t-128 61.5t-87 105.5t-32 152.5h123q0 -61 23.5 -104t62.5 -71.5t89 -42t106 -13.5q43 0 87 7t79.5 27.5t57 54.5t21.5 85q0 49 -26.5 81t-70.5 51.5t-99.5 32.5t-112.5 26
q-57 12 -112.5 28.5t-99.5 45t-70.5 71.5t-26.5 111q0 73 29.5 125.5t79 87t113 51t128.5 16.5q74 0 137.5 -17.5t110.5 -55t75.5 -95t30.5 -137.5h-120q-11 104 -75.5 151.5t-164.5 47.5q-41 0 -80 -8.5t-68.5 -28t-48 -51t-18.5 -78.5q0 -45 26.5 -73t69.5 -45t99.5 -29.5
t113.5 -24.5q57 -13 112.5 -31t98.5 -50t69.5 -79t26.5 -119z" />
    <glyph glyph-name="T" unicode="T" horiz-adv-x="776" 
d="M453 856v-856h-129v856h-322v109h772v-109h-321z" />
    <glyph glyph-name="U" unicode="U" horiz-adv-x="977" 
d="M877 348q0 -184 -99.5 -277.5t-281.5 -93.5q-187 0 -291.5 89.5t-104.5 281.5v617h129v-617q0 -129 69 -195.5t198 -66.5q122 0 187 66.5t65 195.5v617h129v-617z" />
    <glyph glyph-name="V" unicode="V" horiz-adv-x="825" 
d="M485 0h-145l-342 965h139l277 -836h2l278 836h135z" />
    <glyph glyph-name="W" unicode="W" horiz-adv-x="1251" 
d="M977 0h-133l-221 811h-2l-224 -811h-133l-248 965h131l189 -803h4l215 803h139l215 -803h2l197 803h127z" />
    <glyph glyph-name="X" unicode="X" horiz-adv-x="825" 
d="M670 0l-258 399l-269 -399h-145l338 496l-318 469h154l240 -377l252 377h143l-320 -469l340 -496h-157z" />
    <glyph glyph-name="Y" unicode="Y" horiz-adv-x="877" 
d="M504 395v-395h-129v395l-373 570h154l288 -459l283 459h145z" />
    <glyph glyph-name="Z" unicode="Z" horiz-adv-x="825" 
d="M31 0v109l600 747h-555v109h704v-109l-598 -747h615v-109h-766z" />
    <glyph glyph-name="bracketleft" unicode="[" horiz-adv-x="350" 
d="M98 -268v1255h252v-90h-145v-1073h145v-92h-252z" />
    <glyph glyph-name="backslash" unicode="\" horiz-adv-x="451" 
d="M375 -23l-400 1010h99l401 -1010h-100z" />
    <glyph glyph-name="bracketright" unicode="]" horiz-adv-x="350" 
d="M0 -268v92h145v1073h-145v90h252v-1255h-252z" />
    <glyph glyph-name="asciicircum" unicode="^" horiz-adv-x="737" 
d="M590 356l-223 488l-217 -488h-89l269 586h78l268 -586h-86z" />
    <glyph glyph-name="underscore" unicode="_" horiz-adv-x="1475" 
d="M0 -164v62h1475v-62h-1475z" />
    <glyph glyph-name="grave" unicode="`" horiz-adv-x="301" 
d="M145 795l-176 192h148l116 -192h-88z" />
    <glyph glyph-name="a" unicode="a" horiz-adv-x="725" 
d="M707 2q-31 -18 -84 -18q-45 0 -71 25.5t-26 82.5q-47 -55 -110.5 -81.5t-134.5 -26.5q-48 0 -89.5 11t-73.5 34.5t-50.5 61.5t-18.5 89q0 60 20.5 97.5t53.5 60t75 36t87 21.5q47 11 90 15t75.5 13t51 25.5t18.5 49.5q0 37 -14 60.5t-35.5 35.5t-49.5 16t-56 4
q-72 0 -121 -27.5t-54 -105.5h-114q2 66 26.5 110t65.5 71.5t93 40t110 12.5q47 0 94 -7.5t85 -28t61.5 -58t23.5 -99.5v-358q0 -41 4 -59.5t31 -18.5q8 0 16 1t21 5v-90zM518 360q-33 -24 -91 -30t-116 -17q-57 -10 -99 -35.5t-42 -89.5q0 -57 41 -79.5t94 -22.5
q57 0 97 15.5t66 39t38 51t12 52.5v116z" />
    <glyph glyph-name="b" unicode="b" horiz-adv-x="801" 
d="M754 348q0 -74 -19.5 -140.5t-59.5 -116.5t-100.5 -78.5t-140.5 -28.5q-26 0 -58 5t-62.5 18t-58.5 34.5t-46 52.5h-4v-94h-115v965h115v-361h4q29 60 90 85.5t133 25.5q80 0 140.5 -30t100.5 -80t60.5 -116.5t20.5 -140.5zM631 356q0 50 -13.5 96t-39 82.5t-66.5 58
t-96 21.5q-58 0 -99 -22.5t-67.5 -60t-37.5 -85t-11 -96.5q0 -51 12 -99t39 -85t68.5 -58.5t101.5 -21.5q59 0 99 22.5t64.5 60.5t35 87t10.5 100z" />
    <glyph glyph-name="c" unicode="c" horiz-adv-x="725" 
d="M684 256q-20 -129 -98 -200.5t-211 -71.5q-80 0 -140.5 26.5t-102.5 73.5t-62.5 112.5t-20.5 143.5q0 80 20.5 147.5t61.5 118.5t103.5 80t144.5 29q119 0 204 -57.5t97 -182.5h-119q-14 66 -58 102.5t-116 36.5q-61 0 -103 -22.5t-68 -60t-36 -88t-10 -103.5
q0 -47 11.5 -93t36 -82t63 -57.5t94.5 -21.5q84 0 132 45t60 125h117z" />
    <glyph glyph-name="d" unicode="d" horiz-adv-x="801" 
d="M596 0v94h-2q-29 -57 -90.5 -83.5t-132.5 -26.5q-80 0 -140.5 29.5t-100.5 79.5t-60.5 118t-20.5 141q0 74 19.5 139.5t59.5 115.5t100.5 79t140.5 29q53 0 119.5 -23.5t105.5 -85.5h2v359h115v-965h-115zM600 348q0 53 -12.5 101.5t-39 85t-68.5 58t-101 21.5
q-57 0 -97 -23.5t-64.5 -61t-36 -86t-11.5 -99.5q0 -49 13.5 -95t40 -83t67.5 -58.5t96 -21.5q57 0 98 22.5t67 59.5t37 84t11 96z" />
    <glyph glyph-name="e" unicode="e" horiz-adv-x="725" 
d="M170 315q-2 -45 10.5 -87t40 -73.5t68.5 -50t98 -18.5q72 0 119 34t63 101h113q-23 -117 -101.5 -177t-197.5 -60q-82 0 -144.5 27.5t-103.5 76.5t-62.5 116.5t-23.5 147.5q0 78 24.5 144.5t67.5 114.5t103.5 76t132.5 28q92 0 154.5 -39t99.5 -98.5t51 -129t12 -133.5
h-524zM571 416q-4 84 -59 141t-141 57q-92 0 -143.5 -59t-57.5 -139h401z" />
    <glyph glyph-name="f" unicode="f" horiz-adv-x="399" 
d="M401 864q-16 6 -32.5 8t-32.5 2q-41 0 -64.5 -16t-23.5 -61v-99h135v-100h-135v-598h-115v598h-117v100h117v105q0 174 195 174q16 0 36.5 -3t36.5 -9v-101z" />
    <glyph glyph-name="g" unicode="g" horiz-adv-x="776" 
d="M690 59q0 -172 -80 -258t-245 -86q-50 0 -100 10.5t-92 35t-68.5 64.5t-28.5 97h114q3 -31 21 -53.5t44 -35.5t57.5 -19.5t58.5 -6.5q114 0 162.5 74t48.5 193v45h-4q-29 -66 -90.5 -96.5t-127.5 -30.5q-77 0 -135.5 28.5t-97.5 76.5t-58.5 112.5t-19.5 136.5
q0 62 16.5 127.5t54.5 118.5t99.5 88t151.5 35q65 0 121.5 -29t87.5 -88h-2h4v100h108v-639zM575 365q0 47 -10 91t-33.5 79.5t-61.5 57t-93 21.5t-94 -20.5t-64.5 -56t-37 -81.5t-11.5 -96q0 -47 10 -95t33 -86t60.5 -61.5t95.5 -23.5q55 0 95 23.5t64.5 62.5t35.5 87
t11 98z" />
    <glyph glyph-name="h" unicode="h" horiz-adv-x="752" 
d="M551 0v473q0 66 -39 103.5t-104 37.5q-105 0 -156 -62.5t-51 -156.5v-395h-115v965h115v-369h4q28 63 91.5 91t127.5 28q70 0 116 -18.5t73.5 -52.5t40 -81t12.5 -104v-459h-115z" />
    <glyph glyph-name="i" unicode="i" horiz-adv-x="301" 
d="M94 825v140h115v-140h-115zM94 0v698h115v-698h-115z" />
    <glyph glyph-name="j" unicode="j" horiz-adv-x="301" 
d="M94 825v140h115v-140h-115zM209 -90q0 -92 -46 -135t-122 -43q-29 0 -59 6v98q12 -2 23 -2h24q37 0 51 21.5t14 74.5v768h115v-788z" />
    <glyph glyph-name="k" unicode="k" horiz-adv-x="702" 
d="M555 0l-240 365l-106 -101v-264h-115v965h115v-572l317 305h156l-279 -254l299 -444h-147z" />
    <glyph glyph-name="l" unicode="l" horiz-adv-x="301" 
d="M94 0v965h115v-965h-115z" />
    <glyph glyph-name="m" unicode="m" horiz-adv-x="1153" 
d="M952 0v459q0 33 -5 60.5t-20.5 49t-42 33.5t-67.5 12q-84 0 -133 -49t-49 -129v-436h-117v459q0 67 -26.5 111t-104.5 44q-51 0 -86 -20.5t-57.5 -49t-32.5 -59t-10 -49.5v-436h-115v698h109v-102h2q77 119 227 119q63 0 115.5 -26.5t74.5 -92.5q35 55 94.5 87t125.5 32
q104 0 168.5 -46t64.5 -157v-512h-115z" />
    <glyph glyph-name="n" unicode="n" horiz-adv-x="752" 
d="M551 0v473q0 66 -39 103.5t-104 37.5q-105 0 -156 -62.5t-51 -156.5v-395h-115v698h109v-110h2q71 127 227 127q70 0 116 -18.5t73.5 -52.5t40 -81t12.5 -104v-459h-115z" />
    <glyph glyph-name="o" unicode="o" horiz-adv-x="776" 
d="M727 348q0 -76 -21.5 -142.5t-64.5 -115.5t-106.5 -77.5t-147.5 -28.5q-82 0 -145.5 28.5t-106.5 77.5t-64.5 115.5t-21.5 142.5q0 78 21.5 144.5t64.5 115.5t106.5 78t145.5 29q84 0 147.5 -29t106.5 -78t64.5 -115.5t21.5 -144.5zM606 348q0 129 -63.5 197.5
t-155.5 68.5q-90 0 -153.5 -68.5t-63.5 -197.5q0 -127 63.5 -194.5t153.5 -67.5q92 0 155.5 67.5t63.5 194.5z" />
    <glyph glyph-name="p" unicode="p" horiz-adv-x="801" 
d="M754 348q0 -74 -19.5 -140.5t-59.5 -116.5t-100.5 -78.5t-140.5 -28.5q-26 0 -58 5t-62.5 18t-58.5 34.5t-46 52.5h-4v-362h-115v966h115v-94h4q29 60 90 85.5t133 25.5q80 0 140.5 -30t100.5 -80t60.5 -116.5t20.5 -140.5zM631 356q0 50 -13.5 96t-39 82.5t-66.5 58
t-96 21.5q-58 0 -99 -22.5t-67.5 -60t-37.5 -85t-11 -96.5q0 -51 12 -99t39 -85t68.5 -58.5t101.5 -21.5q59 0 99 22.5t64.5 60.5t35 87t10.5 100z" />
    <glyph glyph-name="q" unicode="q" horiz-adv-x="801" 
d="M596 -268v362h-2q-29 -57 -90.5 -83.5t-132.5 -26.5q-80 0 -140.5 29.5t-100.5 79.5t-60.5 118t-20.5 141q0 74 19.5 139.5t59.5 115.5t100.5 79t140.5 29q53 0 119.5 -23.5t105.5 -85.5h2v92h115v-966h-115zM600 348q0 53 -12.5 101.5t-39 85t-68.5 58t-101 21.5
q-57 0 -97 -23.5t-64.5 -61t-36 -86t-11.5 -99.5q0 -49 13.5 -95t40 -83t67.5 -58.5t96 -21.5q57 0 98 22.5t67 59.5t37 84t11 96z" />
    <glyph glyph-name="r" unicode="r" horiz-adv-x="451" 
d="M451 594q-140 0 -197 -75t-57 -208v-311h-115v698h108v-147h3q40 86 101.5 127t156.5 37v-121z" />
    <glyph glyph-name="s" unicode="s" horiz-adv-x="676" 
d="M635 205q0 -64 -26.5 -106t-68.5 -67.5t-95.5 -36.5t-106.5 -11q-59 0 -111.5 12t-92.5 41t-64.5 74t-28.5 110h117q4 -78 59 -106.5t127 -28.5q27 0 56.5 4t55 14.5t42 31t16.5 52.5q0 35 -19.5 55.5t-52 34t-73.5 22.5t-84 19q-43 11 -83 23t-73 34.5t-52.5 56.5
t-19.5 83q0 53 23.5 91t61.5 61.5t84 35t91 11.5q58 0 109 -10.5t89 -36t61.5 -67.5t27.5 -105h-115q-6 67 -55 92.5t-106 25.5q-27 0 -53.5 -4t-48 -14t-35 -27.5t-13.5 -44.5q0 -30 20.5 -49.5t54.5 -32t75 -20.5t80 -19q43 -10 83.5 -23t72.5 -34.5t51.5 -55.5t19.5 -85z
" />
    <glyph glyph-name="t" unicode="t" horiz-adv-x="426" 
d="M297 0q-88 0 -127 28.5t-39 125.5v444h-119v100h119v211h115v-211h139v-100h-139v-434q0 -41 16.5 -52.5t69.5 -11.5h53v-100h-88z" />
    <glyph glyph-name="u" unicode="u" horiz-adv-x="752" 
d="M557 0v111h-2q-72 -127 -227 -127q-70 0 -116 19.5t-73.5 53t-40 80.5t-12.5 103v458h115v-473q0 -63 39 -101t104 -38q105 0 156 61.5t51 155.5v395h115v-698h-109z" />
    <glyph glyph-name="v" unicode="v" horiz-adv-x="676" 
d="M401 0h-122l-261 698h129l197 -581h2l191 581h120z" />
    <glyph glyph-name="w" unicode="w" horiz-adv-x="1024" 
d="M778 0h-121l-143 555h-2l-141 -555h-123l-225 698h127l157 -571h4l140 571h127l145 -571h2l158 571h118z" />
    <glyph glyph-name="x" unicode="x" horiz-adv-x="700" 
d="M541 0l-195 289l-194 -289h-140l262 369l-243 329h147l168 -243l174 243h137l-239 -321l270 -377h-147z" />
    <glyph glyph-name="y" unicode="y" horiz-adv-x="676" 
d="M360 -94q-20 -51 -39.5 -86t-43 -57.5t-52 -33t-67.5 -10.5t-80 13v106q16 -4 33.5 -10t33.5 -6q35 0 56.5 16.5t38.5 46.5l49 119l-279 694h131l203 -571h4l195 571h123z" />
    <glyph glyph-name="z" unicode="z" horiz-adv-x="649" 
d="M31 0v88l420 510h-394v100h543v-77l-428 -521h446v-100h-587z" />
    <glyph glyph-name="braceleft" unicode="{" horiz-adv-x="451" 
d="M324 -268q-25 0 -51.5 11t-48 34.5t-35 56.5t-13.5 76v246q0 73 -35 115t-75 42v93q40 0 75 44t35 115v246q0 43 13.5 76t35 55.5t48 33.5t51.5 11h94v-80h-68q-41 0 -53 -36.5t-12 -79.5v-248q0 -47 -14.5 -80t-33 -54.5t-38 -31.5t-31.5 -15v-4q12 -2 31.5 -11
t38 -29.5t33 -54.5t14.5 -87v-246q0 -41 12 -78.5t53 -37.5h68v-82h-94z" />
    <glyph glyph-name="bar" unicode="|" horiz-adv-x="301" 
d="M104 -23v1010h93v-1010h-93z" />
    <glyph glyph-name="braceright" unicode="}" horiz-adv-x="451" 
d="M385 313q-43 0 -78 -43t-35 -114v-246q0 -43 -13 -76t-33.5 -56.5t-47 -34.5t-51.5 -11h-94v82h67q41 0 53.5 36.5t12.5 79.5v246q0 47 14.5 81t32.5 55.5t37.5 32.5t32.5 13v4q-13 3 -32.5 12t-37.5 29.5t-32.5 54.5t-14.5 85v245q0 43 -12.5 81t-53.5 38h-67v80h94
q51 0 98 -45t47 -131v-246q0 -73 35 -116t78 -43v-93z" />
    <glyph glyph-name="asciitilde" unicode="~" horiz-adv-x="811" 
d="M717 365q-29 -43 -67 -80t-101 -37q-37 0 -71 13t-66 32q-33 16 -71 33.5t-85 17.5q-45 0 -71.5 -34t-43.5 -68l-47 67q23 43 62 80t106 37q35 0 73 -13.5t77 -29.5t74.5 -35.5t64.5 -19.5q41 0 68.5 33.5t50.5 70.5z" />
    <glyph glyph-name="thothannobasethai" horiz-adv-x="760" 
d="M674 768q-29 -33 -57.5 -53.5t-69.5 -20.5q-31 0 -61.5 8.5t-60.5 19.5t-58.5 20.5t-59.5 9.5q-69 2 -104 -21.5t-47 -48.5q53 -2 117.5 -6t129.5 -14q48 -7 90 -19t74.5 -30.5t51 -46t18.5 -66.5q0 -54 -11.5 -109t-25.5 -115.5t-29.5 -129t-25.5 -146.5h-127l-86 287
q-33 -25 -78 -25q-57 0 -97 40t-40 97q0 58 40 98t97 40q61 0 98 -38t54 -96l67 -243q4 41 12.5 84t18.5 84t17 81t7 74q0 31 -21.5 51.5t-54 33t-73.5 19.5t-82 11q-72 8 -147.5 9t-129.5 3q29 107 99.5 166.5t195.5 59.5q31 0 61 -7.5t56.5 -16.5t51 -17.5t42.5 -8.5
q23 0 38.5 11.5t31.5 27.5zM313 399q0 25 -17 42.5t-42 17.5t-42 -17.5t-17 -42.5q0 -24 17 -41.5t42 -17.5t42 17.5t17 41.5z" />
    <glyph glyph-name="thothannobasethai" unicode="&#xf700;" horiz-adv-x="760" 
d="M674 768q-29 -33 -57.5 -53.5t-69.5 -20.5q-31 0 -61.5 8.5t-60.5 19.5t-58.5 20.5t-59.5 9.5q-69 2 -104 -21.5t-47 -48.5q53 -2 117.5 -6t129.5 -14q48 -7 90 -19t74.5 -30.5t51 -46t18.5 -66.5q0 -54 -11.5 -109t-25.5 -115.5t-29.5 -129t-25.5 -146.5h-127l-86 287
q-33 -25 -78 -25q-57 0 -97 40t-40 97q0 58 40 98t97 40q61 0 98 -38t54 -96l67 -243q4 41 12.5 84t18.5 84t17 81t7 74q0 31 -21.5 51.5t-54 33t-73.5 19.5t-82 11q-72 8 -147.5 9t-129.5 3q29 107 99.5 166.5t195.5 59.5q31 0 61 -7.5t56.5 -16.5t51 -17.5t42.5 -8.5
q23 0 38.5 11.5t31.5 27.5zM313 399q0 25 -17 42.5t-42 17.5t-42 -17.5t-17 -42.5q0 -24 17 -41.5t42 -17.5t42 17.5t17 41.5z" />
    <glyph glyph-name="thothannobasethai" unicode="&#x20ac;" horiz-adv-x="760" 
d="M674 768q-29 -33 -57.5 -53.5t-69.5 -20.5q-31 0 -61.5 8.5t-60.5 19.5t-58.5 20.5t-59.5 9.5q-69 2 -104 -21.5t-47 -48.5q53 -2 117.5 -6t129.5 -14q48 -7 90 -19t74.5 -30.5t51 -46t18.5 -66.5q0 -54 -11.5 -109t-25.5 -115.5t-29.5 -129t-25.5 -146.5h-127l-86 287
q-33 -25 -78 -25q-57 0 -97 40t-40 97q0 58 40 98t97 40q61 0 98 -38t54 -96l67 -243q4 41 12.5 84t18.5 84t17 81t7 74q0 31 -21.5 51.5t-54 33t-73.5 19.5t-82 11q-72 8 -147.5 9t-129.5 3q29 107 99.5 166.5t195.5 59.5q31 0 61 -7.5t56.5 -16.5t51 -17.5t42.5 -8.5
q23 0 38.5 11.5t31.5 27.5zM313 399q0 25 -17 42.5t-42 17.5t-42 -17.5t-17 -42.5q0 -24 17 -41.5t42 -17.5t42 17.5t17 41.5z" />
    <glyph glyph-name="saraileftthai" 
d="M-256 901q-127 76 -282.5 85t-303.5 -38q0 56 20.5 108t56.5 92t85 63.5t107 23.5q69 0 126.5 -27.5t98.5 -74t65.5 -106.5t26.5 -126zM-379 1032q-20 51 -73.5 86t-112.5 35q-62 0 -101 -28.5t-57 -75.5q37 10 81 15t90 3t90 -10t83 -25z" />
    <glyph glyph-name="saraileftthai" unicode="&#xf701;" 
d="M-256 901q-127 76 -282.5 85t-303.5 -38q0 56 20.5 108t56.5 92t85 63.5t107 23.5q69 0 126.5 -27.5t98.5 -74t65.5 -106.5t26.5 -126zM-379 1032q-20 51 -73.5 86t-112.5 35q-62 0 -101 -28.5t-57 -75.5q37 10 81 15t90 3t90 -10t83 -25z" />
    <glyph glyph-name="saraiileftthai" 
d="M-266 901q-127 76 -283 85t-303 -38q0 56 20.5 108t56.5 92t85 63.5t106 23.5q66 0 120 -24.5t95 -65.5v141h103v-385zM-389 1032q-21 51 -74 86t-112 35q-62 0 -101 -28.5t-57 -75.5q37 10 81 15t90 3t90 -10t83 -25z" />
    <glyph glyph-name="saraiileftthai" unicode="&#xf702;" 
d="M-266 901q-127 76 -283 85t-303 -38q0 56 20.5 108t56.5 92t85 63.5t106 23.5q66 0 120 -24.5t95 -65.5v141h103v-385zM-389 1032q-21 51 -74 86t-112 35q-62 0 -101 -28.5t-57 -75.5q37 10 81 15t90 3t90 -10t83 -25z" />
    <glyph glyph-name="saraiileftthai" unicode="&#x201a;" 
d="M-266 901q-127 76 -283 85t-303 -38q0 56 20.5 108t56.5 92t85 63.5t106 23.5q66 0 120 -24.5t95 -65.5v141h103v-385zM-389 1032q-21 51 -74 86t-112 35q-62 0 -101 -28.5t-57 -75.5q37 10 81 15t90 3t90 -10t83 -25z" />
    <glyph glyph-name="saraueleftthai" 
d="M-205 1163q0 -45 -28.5 -77.5t-69.5 -43.5q16 -32 23.5 -68t9.5 -73q-127 76 -283 85t-303 -38q0 56 20.5 108t56.5 92t85 63.5t106 23.5q78 0 144 -35q10 37 42.5 61.5t73.5 24.5q52 0 87.5 -36t35.5 -87zM-276 1163q0 23 -14.5 37t-37.5 14q-22 0 -36.5 -14t-14.5 -37
q0 -22 14.5 -36.5t36.5 -14.5q23 0 37.5 14.5t14.5 36.5zM-393 1032q-21 51 -74 86t-113 35q-61 0 -100 -28.5t-57 -75.5q37 10 81 15t90 3t90 -10t83 -25z" />
    <glyph glyph-name="saraueleftthai" unicode="&#xf703;" 
d="M-205 1163q0 -45 -28.5 -77.5t-69.5 -43.5q16 -32 23.5 -68t9.5 -73q-127 76 -283 85t-303 -38q0 56 20.5 108t56.5 92t85 63.5t106 23.5q78 0 144 -35q10 37 42.5 61.5t73.5 24.5q52 0 87.5 -36t35.5 -87zM-276 1163q0 23 -14.5 37t-37.5 14q-22 0 -36.5 -14t-14.5 -37
q0 -22 14.5 -36.5t36.5 -14.5q23 0 37.5 14.5t14.5 36.5zM-393 1032q-21 51 -74 86t-113 35q-61 0 -100 -28.5t-57 -75.5q37 10 81 15t90 3t90 -10t83 -25z" />
    <glyph glyph-name="saraueleftthai" unicode="&#x192;" 
d="M-205 1163q0 -45 -28.5 -77.5t-69.5 -43.5q16 -32 23.5 -68t9.5 -73q-127 76 -283 85t-303 -38q0 56 20.5 108t56.5 92t85 63.5t106 23.5q78 0 144 -35q10 37 42.5 61.5t73.5 24.5q52 0 87.5 -36t35.5 -87zM-276 1163q0 23 -14.5 37t-37.5 14q-22 0 -36.5 -14t-14.5 -37
q0 -22 14.5 -36.5t36.5 -14.5q23 0 37.5 14.5t14.5 36.5zM-393 1032q-21 51 -74 86t-113 35q-61 0 -100 -28.5t-57 -75.5q37 10 81 15t90 3t90 -10t83 -25z" />
    <glyph glyph-name="saraueeleftthai" 
d="M-389 1032q-21 51 -74 86t-112 35q-62 0 -101 -28.5t-57 -75.5q37 10 81 15t90 3t90 -10t83 -25zM-502 1286h72v-92q33 -20 61 -49v141h103v-385q-127 76 -283 85t-303 -38q0 56 20.5 108t56.5 92t85 63.5t106 23.5q23 0 42.5 -3t39.5 -7v61z" />
    <glyph glyph-name="saraueeleftthai" unicode="&#xf704;" 
d="M-389 1032q-21 51 -74 86t-112 35q-62 0 -101 -28.5t-57 -75.5q37 10 81 15t90 3t90 -10t83 -25zM-502 1286h72v-92q33 -20 61 -49v141h103v-385q-127 76 -283 85t-303 -38q0 56 20.5 108t56.5 92t85 63.5t106 23.5q23 0 42.5 -3t39.5 -7v61z" />
    <glyph glyph-name="saraueeleftthai" unicode="&#x201e;" 
d="M-389 1032q-21 51 -74 86t-112 35q-62 0 -101 -28.5t-57 -75.5q37 10 81 15t90 3t90 -10t83 -25zM-502 1286h72v-92q33 -20 61 -49v141h103v-385q-127 76 -283 85t-303 -38q0 56 20.5 108t56.5 92t85 63.5t106 23.5q23 0 42.5 -3t39.5 -7v61z" />
    <glyph glyph-name="ellipsis" unicode="&#x85;" horiz-adv-x="1352" 
d="M1051 0v150h149v-150h-149zM600 0v150h150v-150h-150zM150 0v150h151v-150h-151z" />
    <glyph glyph-name="ellipsis" unicode="&#x2026;" horiz-adv-x="1352" 
d="M1051 0v150h149v-150h-149zM600 0v150h150v-150h-150zM150 0v150h151v-150h-151z" />
    <glyph glyph-name="maieklowleftthai" 
d="M-420 942v266h103v-266h-103z" />
    <glyph glyph-name="maieklowleftthai" unicode="&#xf705;" 
d="M-420 942v266h103v-266h-103z" />
    <glyph glyph-name="maieklowleftthai" unicode="&#x2020;" 
d="M-420 942v266h103v-266h-103z" />
    <glyph glyph-name="maitholowleftthai" 
d="M-197 1190q-8 -92 -55 -151.5t-112.5 -91.5t-142.5 -38t-144 13q28 16 48.5 40.5t29.5 55.5q-9 -2 -23 -2q-49 0 -84 34.5t-35 84.5q0 49 35 83.5t84 34.5q59 0 93 -37.5t36 -89.5q2 -41 -9 -78.5t-26 -60.5q45 4 83 23.5t65.5 47t43 62.5t15.5 70h98zM-545 1135
q0 22 -14 36.5t-37 14.5q-22 0 -36.5 -14.5t-14.5 -36.5q0 -23 14.5 -37.5t36.5 -14.5q23 0 37 14.5t14 37.5z" />
    <glyph glyph-name="maitholowleftthai" unicode="&#xf706;" 
d="M-197 1190q-8 -92 -55 -151.5t-112.5 -91.5t-142.5 -38t-144 13q28 16 48.5 40.5t29.5 55.5q-9 -2 -23 -2q-49 0 -84 34.5t-35 84.5q0 49 35 83.5t84 34.5q59 0 93 -37.5t36 -89.5q2 -41 -9 -78.5t-26 -60.5q45 4 83 23.5t65.5 47t43 62.5t15.5 70h98zM-545 1135
q0 22 -14 36.5t-37 14.5q-22 0 -36.5 -14.5t-14.5 -36.5q0 -23 14.5 -37.5t36.5 -14.5q23 0 37 14.5t14 37.5z" />
    <glyph glyph-name="maitholowleftthai" unicode="&#x2021;" 
d="M-197 1190q-8 -92 -55 -151.5t-112.5 -91.5t-142.5 -38t-144 13q28 16 48.5 40.5t29.5 55.5q-9 -2 -23 -2q-49 0 -84 34.5t-35 84.5q0 49 35 83.5t84 34.5q59 0 93 -37.5t36 -89.5q2 -41 -9 -78.5t-26 -60.5q45 4 83 23.5t65.5 47t43 62.5t15.5 70h98zM-545 1135
q0 22 -14 36.5t-37 14.5q-22 0 -36.5 -14.5t-14.5 -36.5q0 -23 14.5 -37.5t36.5 -14.5q23 0 37 14.5t14 37.5z" />
    <glyph glyph-name="maitrilowleftthai" 
d="M-145 1251q14 -80 -3.5 -145.5t-56.5 -109.5t-91 -63.5t-105 -10.5q18 28 30.5 64t12.5 75q0 41 -17.5 73.5t-34.5 32.5q-6 0 -15 -7t-19.5 -16t-21.5 -16.5t-19 -7.5q-13 0 -26 8.5t-27.5 19.5t-29 19.5t-26.5 8.5q-8 0 -21.5 -13.5t-13.5 -17.5h11q49 0 83.5 -33
t34.5 -80t-34.5 -79.5t-83.5 -32.5q-54 0 -92 38.5t-38 98.5q0 43 17.5 81t43 67.5t52.5 46t45 16.5q12 0 27.5 -10.5t31 -22.5t26.5 -22.5t18 -10.5q6 0 17 10.5t24.5 21.5t28 21.5t26.5 10.5q16 0 36.5 -13.5t38 -36t30 -51t12.5 -59.5q0 -53 -13 -88q17 12 29 37.5
t17 57.5t4 69t-13 69h105zM-573 1032q0 19 -13.5 32t-31.5 13q-19 0 -32.5 -13t-13.5 -32q0 -18 13.5 -31.5t32.5 -13.5q18 0 31.5 13.5t13.5 31.5z" />
    <glyph glyph-name="maitrilowleftthai" unicode="&#xf707;" 
d="M-145 1251q14 -80 -3.5 -145.5t-56.5 -109.5t-91 -63.5t-105 -10.5q18 28 30.5 64t12.5 75q0 41 -17.5 73.5t-34.5 32.5q-6 0 -15 -7t-19.5 -16t-21.5 -16.5t-19 -7.5q-13 0 -26 8.5t-27.5 19.5t-29 19.5t-26.5 8.5q-8 0 -21.5 -13.5t-13.5 -17.5h11q49 0 83.5 -33
t34.5 -80t-34.5 -79.5t-83.5 -32.5q-54 0 -92 38.5t-38 98.5q0 43 17.5 81t43 67.5t52.5 46t45 16.5q12 0 27.5 -10.5t31 -22.5t26.5 -22.5t18 -10.5q6 0 17 10.5t24.5 21.5t28 21.5t26.5 10.5q16 0 36.5 -13.5t38 -36t30 -51t12.5 -59.5q0 -53 -13 -88q17 12 29 37.5
t17 57.5t4 69t-13 69h105zM-573 1032q0 19 -13.5 32t-31.5 13q-19 0 -32.5 -13t-13.5 -32q0 -18 13.5 -31.5t32.5 -13.5q18 0 31.5 13.5t13.5 31.5z" />
    <glyph glyph-name="maitrilowleftthai" unicode="&#xf08d;" 
d="M-145 1251q14 -80 -3.5 -145.5t-56.5 -109.5t-91 -63.5t-105 -10.5q18 28 30.5 64t12.5 75q0 41 -17.5 73.5t-34.5 32.5q-6 0 -15 -7t-19.5 -16t-21.5 -16.5t-19 -7.5q-13 0 -26 8.5t-27.5 19.5t-29 19.5t-26.5 8.5q-8 0 -21.5 -13.5t-13.5 -17.5h11q49 0 83.5 -33
t34.5 -80t-34.5 -79.5t-83.5 -32.5q-54 0 -92 38.5t-38 98.5q0 43 17.5 81t43 67.5t52.5 46t45 16.5q12 0 27.5 -10.5t31 -22.5t26.5 -22.5t18 -10.5q6 0 17 10.5t24.5 21.5t28 21.5t26.5 10.5q16 0 36.5 -13.5t38 -36t30 -51t12.5 -59.5q0 -53 -13 -88q17 12 29 37.5
t17 57.5t4 69t-13 69h105zM-573 1032q0 19 -13.5 32t-31.5 13q-19 0 -32.5 -13t-13.5 -32q0 -18 13.5 -31.5t32.5 -13.5q18 0 31.5 13.5t13.5 31.5z" />
    <glyph glyph-name="maitrilowleftthai" unicode="&#x2c6;" 
d="M-145 1251q14 -80 -3.5 -145.5t-56.5 -109.5t-91 -63.5t-105 -10.5q18 28 30.5 64t12.5 75q0 41 -17.5 73.5t-34.5 32.5q-6 0 -15 -7t-19.5 -16t-21.5 -16.5t-19 -7.5q-13 0 -26 8.5t-27.5 19.5t-29 19.5t-26.5 8.5q-8 0 -21.5 -13.5t-13.5 -17.5h11q49 0 83.5 -33
t34.5 -80t-34.5 -79.5t-83.5 -32.5q-54 0 -92 38.5t-38 98.5q0 43 17.5 81t43 67.5t52.5 46t45 16.5q12 0 27.5 -10.5t31 -22.5t26.5 -22.5t18 -10.5q6 0 17 10.5t24.5 21.5t28 21.5t26.5 10.5q16 0 36.5 -13.5t38 -36t30 -51t12.5 -59.5q0 -53 -13 -88q17 12 29 37.5
t17 57.5t4 69t-13 69h105zM-573 1032q0 19 -13.5 32t-31.5 13q-19 0 -32.5 -13t-13.5 -32q0 -18 13.5 -31.5t32.5 -13.5q18 0 31.5 13.5t13.5 31.5z" />
    <glyph glyph-name="maichattawalowleftthai" 
d="M-379 1044v-112h-102v112h-123v82h123v113h102v-113h123v-82h-123z" />
    <glyph glyph-name="maichattawalowleftthai" unicode="&#xf708;" 
d="M-379 1044v-112h-102v112h-123v82h123v113h102v-113h123v-82h-123z" />
    <glyph glyph-name="maichattawalowleftthai" unicode="&#x2030;" 
d="M-379 1044v-112h-102v112h-123v82h123v113h102v-113h123v-82h-123z" />
    <glyph glyph-name="thanthakhatlowleftthai" 
d="M-68 1360q-2 -33 -12 -63.5t-28.5 -55t-42 -39t-54.5 -14.5q-24 0 -44.5 5t-40 12t-41 12.5t-46.5 5.5q-72 0 -96 -60q10 11 29.5 17t37.5 6q48 0 82.5 -35t34.5 -82q0 -51 -38 -85t-91 -34q-24 0 -52 9.5t-50.5 29t-37.5 48t-17 67.5q-3 39 10.5 73.5t38 61.5t58.5 43
t73 18q59 5 94 -8.5t65 -13.5q39 0 50.5 22.5t11.5 59.5h106zM-360 1069q0 23 -14.5 37t-37.5 14q-22 0 -36.5 -14t-14.5 -37q0 -22 14.5 -36.5t36.5 -14.5q23 0 37.5 14.5t14.5 36.5z" />
    <glyph glyph-name="thanthakhatlowleftthai" unicode="&#xf709;" 
d="M-68 1360q-2 -33 -12 -63.5t-28.5 -55t-42 -39t-54.5 -14.5q-24 0 -44.5 5t-40 12t-41 12.5t-46.5 5.5q-72 0 -96 -60q10 11 29.5 17t37.5 6q48 0 82.5 -35t34.5 -82q0 -51 -38 -85t-91 -34q-24 0 -52 9.5t-50.5 29t-37.5 48t-17 67.5q-3 39 10.5 73.5t38 61.5t58.5 43
t73 18q59 5 94 -8.5t65 -13.5q39 0 50.5 22.5t11.5 59.5h106zM-360 1069q0 23 -14.5 37t-37.5 14q-22 0 -36.5 -14t-14.5 -37q0 -22 14.5 -36.5t36.5 -14.5q23 0 37.5 14.5t14.5 36.5z" />
    <glyph glyph-name="thanthakhatlowleftthai" unicode="&#x160;" 
d="M-68 1360q-2 -33 -12 -63.5t-28.5 -55t-42 -39t-54.5 -14.5q-24 0 -44.5 5t-40 12t-41 12.5t-46.5 5.5q-72 0 -96 -60q10 11 29.5 17t37.5 6q48 0 82.5 -35t34.5 -82q0 -51 -38 -85t-91 -34q-24 0 -52 9.5t-50.5 29t-37.5 48t-17 67.5q-3 39 10.5 73.5t38 61.5t58.5 43
t73 18q59 5 94 -8.5t65 -13.5q39 0 50.5 22.5t11.5 59.5h106zM-360 1069q0 23 -14.5 37t-37.5 14q-22 0 -36.5 -14t-14.5 -37q0 -22 14.5 -36.5t36.5 -14.5q23 0 37.5 14.5t14.5 36.5z" />
    <glyph glyph-name="maieklowrightthai" 
d="M-205 942v266h103v-266h-103z" />
    <glyph glyph-name="maieklowrightthai" unicode="&#xf70a;" 
d="M-205 942v266h103v-266h-103z" />
    <glyph glyph-name="maieklowrightthai" unicode="&#x2039;" 
d="M-205 942v266h103v-266h-103z" />
    <glyph glyph-name="maitholowrightthai" 
d="M-29 1190q-8 -92 -55 -151.5t-112.5 -91.5t-142.5 -38t-144 13q28 16 48.5 40.5t28.5 55.5q-8 -2 -22 -2q-49 0 -84 34.5t-35 84.5q0 49 35 83.5t84 34.5q59 0 93 -37.5t36 -89.5q2 -41 -9 -78.5t-26 -60.5q45 4 83 23.5t65.5 47t43 62.5t15.5 70h98zM-377 1135
q0 22 -14.5 36.5t-36.5 14.5q-23 0 -37 -14.5t-14 -36.5q0 -23 14 -37.5t37 -14.5q22 0 36.5 14.5t14.5 37.5z" />
    <glyph glyph-name="maitholowrightthai" unicode="&#xf70b;" 
d="M-29 1190q-8 -92 -55 -151.5t-112.5 -91.5t-142.5 -38t-144 13q28 16 48.5 40.5t28.5 55.5q-8 -2 -22 -2q-49 0 -84 34.5t-35 84.5q0 49 35 83.5t84 34.5q59 0 93 -37.5t36 -89.5q2 -41 -9 -78.5t-26 -60.5q45 4 83 23.5t65.5 47t43 62.5t15.5 70h98zM-377 1135
q0 22 -14.5 36.5t-36.5 14.5q-23 0 -37 -14.5t-14 -36.5q0 -23 14 -37.5t37 -14.5q22 0 36.5 14.5t14.5 37.5z" />
    <glyph glyph-name="maitholowrightthai" unicode="&#x152;" 
d="M-29 1190q-8 -92 -55 -151.5t-112.5 -91.5t-142.5 -38t-144 13q28 16 48.5 40.5t28.5 55.5q-8 -2 -22 -2q-49 0 -84 34.5t-35 84.5q0 49 35 83.5t84 34.5q59 0 93 -37.5t36 -89.5q2 -41 -9 -78.5t-26 -60.5q45 4 83 23.5t65.5 47t43 62.5t15.5 70h98zM-377 1135
q0 22 -14.5 36.5t-36.5 14.5q-23 0 -37 -14.5t-14 -36.5q0 -23 14 -37.5t37 -14.5q22 0 36.5 14.5t14.5 37.5z" />
    <glyph glyph-name="maitrilowrightthai" 
d="M-39 1251q14 -80 -3 -145.5t-56 -109.5t-91.5 -63.5t-105.5 -10.5q19 28 31 64t12 75q0 41 -17.5 73.5t-33.5 32.5q-6 0 -15.5 -7t-19.5 -16t-21.5 -16.5t-19.5 -7.5q-12 0 -25.5 8.5t-27.5 19.5t-28.5 19.5t-26.5 8.5q-9 0 -22 -13.5t-13 -17.5h10q49 0 84 -33t35 -80
t-35 -79.5t-84 -32.5q-53 0 -91 38.5t-38 98.5q0 43 17.5 81t43 67.5t52 46t45.5 16.5q12 0 27.5 -10.5t30.5 -22.5t26.5 -22.5t17.5 -10.5t17.5 10.5t24.5 21.5t27.5 21.5t26.5 10.5q17 0 37.5 -13.5t37.5 -36t29.5 -51t12.5 -59.5q0 -53 -12 -88q16 12 28.5 37.5
t17.5 57.5t4 69t-13 69h104zM-467 1032q0 19 -13.5 32t-31.5 13t-31.5 -13t-13.5 -32q0 -18 13.5 -31.5t31.5 -13.5t31.5 13.5t13.5 31.5z" />
    <glyph glyph-name="maitrilowrightthai" unicode="&#xf70c;" 
d="M-39 1251q14 -80 -3 -145.5t-56 -109.5t-91.5 -63.5t-105.5 -10.5q19 28 31 64t12 75q0 41 -17.5 73.5t-33.5 32.5q-6 0 -15.5 -7t-19.5 -16t-21.5 -16.5t-19.5 -7.5q-12 0 -25.5 8.5t-27.5 19.5t-28.5 19.5t-26.5 8.5q-9 0 -22 -13.5t-13 -17.5h10q49 0 84 -33t35 -80
t-35 -79.5t-84 -32.5q-53 0 -91 38.5t-38 98.5q0 43 17.5 81t43 67.5t52 46t45.5 16.5q12 0 27.5 -10.5t30.5 -22.5t26.5 -22.5t17.5 -10.5t17.5 10.5t24.5 21.5t27.5 21.5t26.5 10.5q17 0 37.5 -13.5t37.5 -36t29.5 -51t12.5 -59.5q0 -53 -12 -88q16 12 28.5 37.5
t17.5 57.5t4 69t-13 69h104zM-467 1032q0 19 -13.5 32t-31.5 13t-31.5 -13t-13.5 -32q0 -18 13.5 -31.5t31.5 -13.5t31.5 13.5t13.5 31.5z" />
    <glyph glyph-name="maichattawalowrightthai" 
d="M-102 1034v-112h-103v112h-123v82h123v113h103v-113h122v-82h-122z" />
    <glyph glyph-name="maichattawalowrightthai" unicode="&#xf70d;" 
d="M-102 1034v-112h-103v112h-123v82h123v113h103v-113h122v-82h-122z" />
    <glyph glyph-name="maichattawalowrightthai" unicode="&#x17d;" 
d="M-102 1034v-112h-103v112h-123v82h123v113h103v-113h122v-82h-122z" />
    <glyph glyph-name="thanthakhatlowrightthai" 
d="M35 1331q-2 -33 -12.5 -63.5t-29 -55t-42 -39t-53.5 -14.5q-25 0 -45.5 5t-40 12.5t-41 12.5t-45.5 5q-72 0 -97 -59q11 10 30 16t38 6q47 0 82 -35t35 -82q0 -51 -38 -84.5t-91 -33.5q-25 0 -52.5 9t-50 28.5t-38 48t-17.5 67.5t11 74t38 61.5t58.5 43t72.5 18.5
q60 4 94.5 -9.5t65.5 -13.5q39 0 50 22.5t11 59.5h107zM-258 1040q0 23 -14.5 37.5t-36.5 14.5q-23 0 -37 -14.5t-14 -37.5q0 -22 14 -36.5t37 -14.5q22 0 36.5 14.5t14.5 36.5z" />
    <glyph glyph-name="thanthakhatlowrightthai" unicode="&#xf70e;" 
d="M35 1331q-2 -33 -12.5 -63.5t-29 -55t-42 -39t-53.5 -14.5q-25 0 -45.5 5t-40 12.5t-41 12.5t-45.5 5q-72 0 -97 -59q11 10 30 16t38 6q47 0 82 -35t35 -82q0 -51 -38 -84.5t-91 -33.5q-25 0 -52.5 9t-50 28.5t-38 48t-17.5 67.5t11 74t38 61.5t58.5 43t72.5 18.5
q60 4 94.5 -9.5t65.5 -13.5q39 0 50 22.5t11 59.5h107zM-258 1040q0 23 -14.5 37.5t-36.5 14.5q-23 0 -37 -14.5t-14 -37.5q0 -22 14 -36.5t37 -14.5q22 0 36.5 14.5t14.5 36.5z" />
    <glyph glyph-name="yoyingnobasethai" horiz-adv-x="1126" 
d="M1024 193q0 -99 -40 -146t-153 -47h-360v78q59 0 80.5 18.5t21.5 75.5v414q0 43 -17 74.5t-44 53t-60.5 32t-66.5 10.5q-121 0 -195 -82q27 -10 66 -35t66 -53q-107 -37 -107 -144v-184q10 4 24.5 6t24.5 2q58 0 96.5 -40t38.5 -95q0 -57 -40 -99t-99 -42q-67 0 -107 42
t-40 107v305q0 54 25.5 92.5t60.5 49.5q-15 12 -34.5 23.5t-40 20.5t-37.5 16t-28 11q56 86 138 132.5t192 46.5q57 0 109.5 -15.5t91.5 -47.5t62.5 -79t23.5 -110v-502h98q45 0 74 5t45 19.5t22.5 40t6.5 66.5v606h102v-626zM324 131q0 25 -17.5 42t-42.5 17
q-24 0 -41.5 -17t-17.5 -42t17.5 -42t41.5 -17q25 0 42.5 17t17.5 42z" />
    <glyph glyph-name="yoyingnobasethai" unicode="&#xf70f;" horiz-adv-x="1126" 
d="M1024 193q0 -99 -40 -146t-153 -47h-360v78q59 0 80.5 18.5t21.5 75.5v414q0 43 -17 74.5t-44 53t-60.5 32t-66.5 10.5q-121 0 -195 -82q27 -10 66 -35t66 -53q-107 -37 -107 -144v-184q10 4 24.5 6t24.5 2q58 0 96.5 -40t38.5 -95q0 -57 -40 -99t-99 -42q-67 0 -107 42
t-40 107v305q0 54 25.5 92.5t60.5 49.5q-15 12 -34.5 23.5t-40 20.5t-37.5 16t-28 11q56 86 138 132.5t192 46.5q57 0 109.5 -15.5t91.5 -47.5t62.5 -79t23.5 -110v-502h98q45 0 74 5t45 19.5t22.5 40t6.5 66.5v606h102v-626zM324 131q0 25 -17.5 42t-42.5 17
q-24 0 -41.5 -17t-17.5 -42t17.5 -42t41.5 -17q25 0 42.5 17t17.5 42z" />
    <glyph glyph-name="quoteleft" horiz-adv-x="342" 
d="M260 739q0 -34 -25.5 -60t-60.5 -26q-39 0 -64.5 29t-27.5 74q-4 71 30.5 135.5t86.5 99.5l37 -24q-39 -29 -65 -68t-28 -80q13 6 31 6q35 0 60.5 -25.5t25.5 -60.5z" />
    <glyph glyph-name="quoteleft" unicode="&#x2018;" horiz-adv-x="342" 
d="M260 739q0 -34 -25.5 -60t-60.5 -26q-39 0 -64.5 29t-27.5 74q-4 71 30.5 135.5t86.5 99.5l37 -24q-39 -29 -65 -68t-28 -80q13 6 31 6q35 0 60.5 -25.5t25.5 -60.5z" />
    <glyph glyph-name="quoteright" horiz-adv-x="342" 
d="M248 889q4 -72 -31 -136.5t-88 -99.5l-37 25q39 29 65.5 67.5t28.5 79.5q-14 -6 -32 -6q-35 0 -60.5 25.5t-25.5 60.5t25.5 60.5t60.5 25.5q39 0 65.5 -28.5t28.5 -73.5z" />
    <glyph glyph-name="quoteright" unicode="&#x2019;" horiz-adv-x="342" 
d="M248 889q4 -72 -31 -136.5t-88 -99.5l-37 25q39 29 65.5 67.5t28.5 79.5q-14 -6 -32 -6q-35 0 -60.5 25.5t-25.5 60.5t25.5 60.5t60.5 25.5q39 0 65.5 -28.5t28.5 -73.5z" />
    <glyph glyph-name="quotedblleft" horiz-adv-x="594" 
d="M514 739q0 -34 -25.5 -60t-60.5 -26q-39 0 -65.5 29t-28.5 74q-4 71 30.5 135.5t88.5 99.5l36 -24q-38 -29 -65 -68t-29 -80q17 6 33 6q35 0 60.5 -25.5t25.5 -60.5zM260 739q0 -34 -25.5 -60t-60.5 -26q-39 0 -64.5 29t-27.5 74q-4 71 30.5 135.5t86.5 99.5l37 -24
q-39 -29 -65 -68t-28 -80q13 6 31 6q35 0 60.5 -25.5t25.5 -60.5z" />
    <glyph glyph-name="quotedblleft" unicode="&#x201c;" horiz-adv-x="594" 
d="M514 739q0 -34 -25.5 -60t-60.5 -26q-39 0 -65.5 29t-28.5 74q-4 71 30.5 135.5t88.5 99.5l36 -24q-38 -29 -65 -68t-29 -80q17 6 33 6q35 0 60.5 -25.5t25.5 -60.5zM260 739q0 -34 -25.5 -60t-60.5 -26q-39 0 -64.5 29t-27.5 74q-4 71 30.5 135.5t86.5 99.5l37 -24
q-39 -29 -65 -68t-28 -80q13 6 31 6q35 0 60.5 -25.5t25.5 -60.5z" />
    <glyph glyph-name="quotedblright" horiz-adv-x="594" 
d="M500 889q4 -72 -31 -136.5t-86 -99.5l-37 25q39 29 64.5 67.5t27.5 79.5q-12 -6 -30 -6q-35 0 -60.5 25.5t-25.5 60.5t25.5 60.5t60.5 25.5q38 0 64 -28.5t28 -73.5zM248 889q4 -72 -31 -136.5t-88 -99.5l-37 25q39 29 65.5 67.5t28.5 79.5q-14 -6 -32 -6
q-35 0 -60.5 25.5t-25.5 60.5t25.5 60.5t60.5 25.5q39 0 65.5 -28.5t28.5 -73.5z" />
    <glyph glyph-name="quotedblright" unicode="&#x201d;" horiz-adv-x="594" 
d="M500 889q4 -72 -31 -136.5t-86 -99.5l-37 25q39 29 64.5 67.5t27.5 79.5q-12 -6 -30 -6q-35 0 -60.5 25.5t-25.5 60.5t25.5 60.5t60.5 25.5q38 0 64 -28.5t28 -73.5zM248 889q4 -72 -31 -136.5t-88 -99.5l-37 25q39 29 65.5 67.5t28.5 79.5q-14 -6 -32 -6
q-35 0 -60.5 25.5t-25.5 60.5t25.5 60.5t60.5 25.5q39 0 65.5 -28.5t28.5 -73.5z" />
    <glyph glyph-name="bullet" horiz-adv-x="696" 
d="M604 410q0 -54 -20.5 -100t-55 -80.5t-81 -55t-99.5 -20.5t-99 20.5t-81 55t-55.5 80.5t-20.5 100q0 53 20.5 99t55.5 81t81 55.5t99 20.5t99.5 -20.5t81 -55.5t55 -81t20.5 -99z" />
    <glyph glyph-name="bullet" unicode="&#x2022;" horiz-adv-x="696" 
d="M604 410q0 -54 -20.5 -100t-55 -80.5t-81 -55t-99.5 -20.5t-99 20.5t-81 55t-55.5 80.5t-20.5 100q0 53 20.5 99t55.5 81t81 55.5t99 20.5t99.5 -20.5t81 -55.5t55 -81t20.5 -99z" />
    <glyph glyph-name="endash" horiz-adv-x="737" 
d="M0 297v90h737v-90h-737z" />
    <glyph glyph-name="endash" unicode="&#x2013;" horiz-adv-x="737" 
d="M0 297v90h737v-90h-737z" />
    <glyph glyph-name="emdash" horiz-adv-x="1475" 
d="M0 297v90h1475v-90h-1475z" />
    <glyph glyph-name="emdash" unicode="&#x2014;" horiz-adv-x="1475" 
d="M0 297v90h1475v-90h-1475z" />
    <glyph glyph-name="maihanakatleftthai" 
d="M-82 1192q-8 -62 -40 -112t-78 -86t-105.5 -54t-122.5 -18q-53 0 -98 13t-79 35.5t-54.5 55.5t-20.5 70q-2 55 36 93t91 38q51 0 87 -36t36 -87q0 -55 -43 -92q43 -11 90 -4.5t88 28t71.5 60.5t37.5 96h104zM-502 1104q0 22 -14 36.5t-37 14.5q-22 0 -36.5 -14.5
t-14.5 -36.5q0 -23 14.5 -37t36.5 -14q23 0 37 14t14 37z" />
    <glyph glyph-name="maihanakatleftthai" unicode="&#xf710;" 
d="M-82 1192q-8 -62 -40 -112t-78 -86t-105.5 -54t-122.5 -18q-53 0 -98 13t-79 35.5t-54.5 55.5t-20.5 70q-2 55 36 93t91 38q51 0 87 -36t36 -87q0 -55 -43 -92q43 -11 90 -4.5t88 28t71.5 60.5t37.5 96h104zM-502 1104q0 22 -14 36.5t-37 14.5q-22 0 -36.5 -14.5
t-14.5 -36.5q0 -23 14.5 -37t36.5 -14q23 0 37 14t14 37z" />
    <glyph glyph-name="maihanakatleftthai" unicode="&#x2dc;" 
d="M-82 1192q-8 -62 -40 -112t-78 -86t-105.5 -54t-122.5 -18q-53 0 -98 13t-79 35.5t-54.5 55.5t-20.5 70q-2 55 36 93t91 38q51 0 87 -36t36 -87q0 -55 -43 -92q43 -11 90 -4.5t88 28t71.5 60.5t37.5 96h104zM-502 1104q0 22 -14 36.5t-37 14.5q-22 0 -36.5 -14.5
t-14.5 -36.5q0 -23 14.5 -37t36.5 -14q23 0 37 14t14 37z" />
    <glyph glyph-name="nikhahitleftthai" 
d="M-188 1096q0 -60 -40 -100t-100 -40q-59 0 -99 40t-40 100q0 59 40 99t99 40q60 0 100 -40t40 -99zM-266 1096q0 26 -17.5 44.5t-44.5 18.5q-26 0 -43.5 -18.5t-17.5 -44.5q0 -25 18.5 -43.5t42.5 -18.5q25 0 43.5 18.5t18.5 43.5z" />
    <glyph glyph-name="nikhahitleftthai" unicode="&#xf711;" 
d="M-188 1096q0 -60 -40 -100t-100 -40q-59 0 -99 40t-40 100q0 59 40 99t99 40q60 0 100 -40t40 -99zM-266 1096q0 26 -17.5 44.5t-44.5 18.5q-26 0 -43.5 -18.5t-17.5 -44.5q0 -25 18.5 -43.5t42.5 -18.5q25 0 43.5 18.5t18.5 43.5z" />
    <glyph glyph-name="nikhahitleftthai" unicode="&#x2122;" 
d="M-188 1096q0 -60 -40 -100t-100 -40q-59 0 -99 40t-40 100q0 59 40 99t99 40q60 0 100 -40t40 -99zM-266 1096q0 26 -17.5 44.5t-44.5 18.5q-26 0 -43.5 -18.5t-17.5 -44.5q0 -25 18.5 -43.5t42.5 -18.5q25 0 43.5 18.5t18.5 43.5z" />
    <glyph glyph-name="maitaikhuleftthai" 
d="M-238 1360q0 -39 -19 -71t-50 -54.5t-71 -33.5t-79 -9q-32 2 -64 2t-54 -4q-39 -4 -71 -30.5t-32 -72.5q0 -22 8 -37.5t18.5 -25.5t20.5 -14t17 -4l73 104q11 -12 21 -23q10 -10 19 -20t20 -20q6 40 37.5 69t74.5 29q47 0 80 -33t33 -78q0 -47 -35 -79.5t-88 -32.5
q-49 0 -90 24.5t-68 54.5l-45 -69h-57q-49 0 -92 39t-43 112q0 68 51 118t135 59q31 4 66 0.5t63 -0.5q47 2 82 23.5t35 76.5h104zM-324 1034q0 45 -45 45t-45 -45t45 -45t45 45z" />
    <glyph glyph-name="maitaikhuleftthai" unicode="&#xf712;" 
d="M-238 1360q0 -39 -19 -71t-50 -54.5t-71 -33.5t-79 -9q-32 2 -64 2t-54 -4q-39 -4 -71 -30.5t-32 -72.5q0 -22 8 -37.5t18.5 -25.5t20.5 -14t17 -4l73 104q11 -12 21 -23q10 -10 19 -20t20 -20q6 40 37.5 69t74.5 29q47 0 80 -33t33 -78q0 -47 -35 -79.5t-88 -32.5
q-49 0 -90 24.5t-68 54.5l-45 -69h-57q-49 0 -92 39t-43 112q0 68 51 118t135 59q31 4 66 0.5t63 -0.5q47 2 82 23.5t35 76.5h104zM-324 1034q0 45 -45 45t-45 -45t45 -45t45 45z" />
    <glyph glyph-name="maitaikhuleftthai" unicode="&#x161;" 
d="M-238 1360q0 -39 -19 -71t-50 -54.5t-71 -33.5t-79 -9q-32 2 -64 2t-54 -4q-39 -4 -71 -30.5t-32 -72.5q0 -22 8 -37.5t18.5 -25.5t20.5 -14t17 -4l73 104q11 -12 21 -23q10 -10 19 -20t20 -20q6 40 37.5 69t74.5 29q47 0 80 -33t33 -78q0 -47 -35 -79.5t-88 -32.5
q-49 0 -90 24.5t-68 54.5l-45 -69h-57q-49 0 -92 39t-43 112q0 68 51 118t135 59q31 4 66 0.5t63 -0.5q47 2 82 23.5t35 76.5h104zM-324 1034q0 45 -45 45t-45 -45t45 -45t45 45z" />
    <glyph glyph-name="maiekupperleftthai" 
d="M-369 1348v184h103v-184h-103z" />
    <glyph glyph-name="maiekupperleftthai" unicode="&#xf713;" 
d="M-369 1348v184h103v-184h-103z" />
    <glyph glyph-name="maiekupperleftthai" unicode="&#x203a;" 
d="M-369 1348v184h103v-184h-103z" />
    <glyph glyph-name="maithoupperleftthai" 
d="M-119 1591q-8 -86 -52 -142t-105.5 -87t-133 -36t-135.5 11q25 15 44.5 38.5t27.5 51.5q-8 -2 -21 -2q-47 0 -79.5 33t-32.5 80t32.5 80t79.5 33q56 0 87.5 -36t35.5 -85q0 -37 -11 -74t-24 -57q44 4 78.5 22.5t61 45t41 59.5t14.5 65h92zM-444 1538q0 23 -13.5 37
t-36.5 14q-22 0 -36.5 -14t-14.5 -37q0 -22 14.5 -35.5t36.5 -13.5q23 0 36.5 13.5t13.5 35.5z" />
    <glyph glyph-name="maithoupperleftthai" unicode="&#xf714;" 
d="M-119 1591q-8 -86 -52 -142t-105.5 -87t-133 -36t-135.5 11q25 15 44.5 38.5t27.5 51.5q-8 -2 -21 -2q-47 0 -79.5 33t-32.5 80t32.5 80t79.5 33q56 0 87.5 -36t35.5 -85q0 -37 -11 -74t-24 -57q44 4 78.5 22.5t61 45t41 59.5t14.5 65h92zM-444 1538q0 23 -13.5 37
t-36.5 14q-22 0 -36.5 -14t-14.5 -37q0 -22 14.5 -35.5t36.5 -13.5q23 0 36.5 13.5t13.5 35.5z" />
    <glyph glyph-name="maithoupperleftthai" unicode="&#x153;" 
d="M-119 1591q-8 -86 -52 -142t-105.5 -87t-133 -36t-135.5 11q25 15 44.5 38.5t27.5 51.5q-8 -2 -21 -2q-47 0 -79.5 33t-32.5 80t32.5 80t79.5 33q56 0 87.5 -36t35.5 -85q0 -37 -11 -74t-24 -57q44 4 78.5 22.5t61 45t41 59.5t14.5 65h92zM-444 1538q0 23 -13.5 37
t-36.5 14q-22 0 -36.5 -14t-14.5 -37q0 -22 14.5 -35.5t36.5 -13.5q23 0 36.5 13.5t13.5 35.5z" />
    <glyph glyph-name="maitriupperleftthai" 
d="M-98 1630q12 -69 -2.5 -124.5t-47 -93.5t-77.5 -55.5t-90 -8.5q36 53 36 118q0 35 -14 64t-31 29q-8 0 -28.5 -20.5t-34.5 -20.5q-10 0 -21.5 7t-23.5 16t-24.5 16.5t-24.5 7.5q-4 0 -16.5 -11.5t-12.5 -15.5h8q41 0 72 -27.5t31 -66.5q0 -41 -31 -69.5t-72 -28.5
q-45 0 -76.5 33.5t-31.5 82.5q0 37 14 70t35.5 57.5t44 38.5t39.5 14q10 0 23.5 -8t26.5 -19t23.5 -19.5t14.5 -8.5q6 0 16.5 8.5t21.5 18.5t22.5 18t21.5 8q14 0 31.5 -11t33 -29.5t25.5 -43t10 -51.5q0 -45 -10 -75q29 22 40 81.5t-9 118.5h88zM-463 1444q0 14 -11 25.5
t-28 11.5q-16 0 -26.5 -11.5t-10.5 -25.5q0 -17 10.5 -28t26.5 -11q17 0 28 11t11 28z" />
    <glyph glyph-name="maitriupperleftthai" unicode="&#xf715;" 
d="M-98 1630q12 -69 -2.5 -124.5t-47 -93.5t-77.5 -55.5t-90 -8.5q36 53 36 118q0 35 -14 64t-31 29q-8 0 -28.5 -20.5t-34.5 -20.5q-10 0 -21.5 7t-23.5 16t-24.5 16.5t-24.5 7.5q-4 0 -16.5 -11.5t-12.5 -15.5h8q41 0 72 -27.5t31 -66.5q0 -41 -31 -69.5t-72 -28.5
q-45 0 -76.5 33.5t-31.5 82.5q0 37 14 70t35.5 57.5t44 38.5t39.5 14q10 0 23.5 -8t26.5 -19t23.5 -19.5t14.5 -8.5q6 0 16.5 8.5t21.5 18.5t22.5 18t21.5 8q14 0 31.5 -11t33 -29.5t25.5 -43t10 -51.5q0 -45 -10 -75q29 22 40 81.5t-9 118.5h88zM-463 1444q0 14 -11 25.5
t-28 11.5q-16 0 -26.5 -11.5t-10.5 -25.5q0 -17 10.5 -28t26.5 -11q17 0 28 11t11 28z" />
    <glyph glyph-name="maichattawaupperleftthai" 
d="M-266 1440v-92h-103v92h-102v82h102v92h103v-92h102v-82h-102z" />
    <glyph glyph-name="maichattawaupperleftthai" unicode="&#xf716;" 
d="M-266 1440v-92h-103v92h-102v82h102v92h103v-92h102v-82h-102z" />
    <glyph glyph-name="maichattawaupperleftthai" unicode="&#x17e;" 
d="M-266 1440v-92h-103v92h-102v82h102v92h103v-92h102v-82h-102z" />
    <glyph glyph-name="thanthakhatupperleftthai" 
d="M-113 1638q-2 -26 -11 -52.5t-24.5 -47t-36 -34t-44.5 -13.5q-41 0 -73 15.5t-75 15.5q-29 0 -50.5 -13.5t-31.5 -38.5q8 11 24.5 15t33.5 4q41 0 70.5 -28.5t29.5 -69.5q0 -43 -32 -73t-79 -30q-22 0 -44.5 8.5t-42 24.5t-33 40.5t-15.5 57.5q-4 66 41 115t113 53
q51 4 79.5 -8t55.5 -12q35 0 44 20.5t9 50.5h92zM-362 1391q0 16 -12.5 29.5t-33.5 13.5q-18 0 -30.5 -13.5t-12.5 -29.5q0 -19 12.5 -32t30.5 -13q21 0 33.5 13t12.5 32z" />
    <glyph glyph-name="thanthakhatupperleftthai" unicode="&#xf717;" 
d="M-113 1638q-2 -26 -11 -52.5t-24.5 -47t-36 -34t-44.5 -13.5q-41 0 -73 15.5t-75 15.5q-29 0 -50.5 -13.5t-31.5 -38.5q8 11 24.5 15t33.5 4q41 0 70.5 -28.5t29.5 -69.5q0 -43 -32 -73t-79 -30q-22 0 -44.5 8.5t-42 24.5t-33 40.5t-15.5 57.5q-4 66 41 115t113 53
q51 4 79.5 -8t55.5 -12q35 0 44 20.5t9 50.5h92zM-362 1391q0 16 -12.5 29.5t-33.5 13.5q-18 0 -30.5 -13.5t-12.5 -29.5q0 -19 12.5 -32t30.5 -13q21 0 33.5 13t12.5 32z" />
    <glyph glyph-name="thanthakhatupperleftthai" unicode="&#x178;" 
d="M-113 1638q-2 -26 -11 -52.5t-24.5 -47t-36 -34t-44.5 -13.5q-41 0 -73 15.5t-75 15.5q-29 0 -50.5 -13.5t-31.5 -38.5q8 11 24.5 15t33.5 4q41 0 70.5 -28.5t29.5 -69.5q0 -43 -32 -73t-79 -30q-22 0 -44.5 8.5t-42 24.5t-33 40.5t-15.5 57.5q-4 66 41 115t113 53
q51 4 79.5 -8t55.5 -12q35 0 44 20.5t9 50.5h92zM-362 1391q0 16 -12.5 29.5t-33.5 13.5q-18 0 -30.5 -13.5t-12.5 -29.5q0 -19 12.5 -32t30.5 -13q21 0 33.5 13t12.5 32z" />
    <glyph glyph-name="uni00A0" unicode="&#xa0;" horiz-adv-x="926" 
 />
    <glyph glyph-name="uni00A0" unicode="&#xe00;" horiz-adv-x="926" 
 />
    <glyph glyph-name="kokaithai" unicode="&#xa1;" horiz-adv-x="778" 
d="M573 0v586q0 43 -17 74.5t-44 53t-60.5 32t-66.5 10.5q-121 0 -195 -82q27 -10 66 -35t66 -53q-107 -37 -107 -144v-442h-102v444q0 54 25.5 92.5t60.5 49.5q-15 12 -34.5 23.5t-40 20.5t-37.5 16t-28 11q56 86 138 132.5t192 46.5q57 0 109.5 -15.5t91.5 -47.5t62.5 -79
t23.5 -110v-584h-103z" />
    <glyph glyph-name="kokaithai" unicode="&#xe01;" horiz-adv-x="778" 
d="M573 0v586q0 43 -17 74.5t-44 53t-60.5 32t-66.5 10.5q-121 0 -195 -82q27 -10 66 -35t66 -53q-107 -37 -107 -144v-442h-102v444q0 54 25.5 92.5t60.5 49.5q-15 12 -34.5 23.5t-40 20.5t-37.5 16t-28 11q56 86 138 132.5t192 46.5q57 0 109.5 -15.5t91.5 -47.5t62.5 -79
t23.5 -110v-584h-103z" />
    <glyph glyph-name="khokhaithai" unicode="&#xa2;" horiz-adv-x="778" 
d="M676 193q0 -99 -40 -146t-153 -47h-299v78q60 0 81.5 18.5t21.5 75.5v283q0 28 17.5 50.5t39 43t38.5 42t17 46.5q0 27 -22.5 65.5t-71.5 47.5q-18 4 -46 -6.5t-32 -16.5q21 -18 33 -44t12 -58q0 -58 -39.5 -98t-97.5 -40q-57 0 -97 40t-40 98q0 45 23.5 79.5t87.5 67.5
q59 31 117.5 45t103.5 12q28 0 58 -17t54.5 -45t40 -62.5t15.5 -69.5q0 -31 -17.5 -53.5t-37 -43t-37 -44t-17.5 -56.5v-356h37q45 0 73.5 5t45 19.5t22.5 40t6 66.5v606h103v-626zM195 623q0 24 -17.5 41.5t-42.5 17.5q-24 0 -41.5 -17.5t-17.5 -41.5q0 -25 17.5 -42.5
t41.5 -17.5q25 0 42.5 17.5t17.5 42.5z" />
    <glyph glyph-name="khokhaithai" unicode="&#xe02;" horiz-adv-x="778" 
d="M676 193q0 -99 -40 -146t-153 -47h-299v78q60 0 81.5 18.5t21.5 75.5v283q0 28 17.5 50.5t39 43t38.5 42t17 46.5q0 27 -22.5 65.5t-71.5 47.5q-18 4 -46 -6.5t-32 -16.5q21 -18 33 -44t12 -58q0 -58 -39.5 -98t-97.5 -40q-57 0 -97 40t-40 98q0 45 23.5 79.5t87.5 67.5
q59 31 117.5 45t103.5 12q28 0 58 -17t54.5 -45t40 -62.5t15.5 -69.5q0 -31 -17.5 -53.5t-37 -43t-37 -44t-17.5 -56.5v-356h37q45 0 73.5 5t45 19.5t22.5 40t6 66.5v606h103v-626zM195 623q0 24 -17.5 41.5t-42.5 17.5q-24 0 -41.5 -17.5t-17.5 -41.5q0 -25 17.5 -42.5
t41.5 -17.5q25 0 42.5 17.5t17.5 42.5z" />
    <glyph glyph-name="khokhuatthai" unicode="&#xa3;" horiz-adv-x="791" 
d="M688 193q0 -95 -39 -144t-149 -49h-314v78q60 0 81.5 18.5t21.5 75.5v287q0 30 22.5 54t49 46.5t48 46t21.5 53.5q0 27 -19.5 48.5t-27.5 21.5q-2 0 -11.5 -7t-19.5 -16.5t-18 -16.5t-12 -7q-7 6 -21 17.5t-31 23.5q-18 14 -39 29l-22 -13q29 -18 47 -49t18 -67
q0 -58 -39.5 -98t-97.5 -40q-57 0 -97 40t-40 98q0 53 27.5 89t68.5 62q33 21 75 38t60 17q7 0 18 -7t25.5 -16t25.5 -19.5t17 -14.5q7 4 19 14.5t24.5 19.5t24.5 16t18 7q11 0 32.5 -14t42 -37.5t35.5 -53.5t15 -60q0 -37 -21.5 -65t-47 -52.5t-47 -49t-21.5 -55.5v-360h43
q49 0 79 5t46 19.5t21.5 40t5.5 66.5v606h102v-626zM197 623q0 24 -17.5 41.5t-42.5 17.5q-24 0 -41.5 -17.5t-17.5 -41.5q0 -25 17.5 -42.5t41.5 -17.5q25 0 42.5 17.5t17.5 42.5z" />
    <glyph glyph-name="khokhuatthai" unicode="&#xe03;" horiz-adv-x="791" 
d="M688 193q0 -95 -39 -144t-149 -49h-314v78q60 0 81.5 18.5t21.5 75.5v287q0 30 22.5 54t49 46.5t48 46t21.5 53.5q0 27 -19.5 48.5t-27.5 21.5q-2 0 -11.5 -7t-19.5 -16.5t-18 -16.5t-12 -7q-7 6 -21 17.5t-31 23.5q-18 14 -39 29l-22 -13q29 -18 47 -49t18 -67
q0 -58 -39.5 -98t-97.5 -40q-57 0 -97 40t-40 98q0 53 27.5 89t68.5 62q33 21 75 38t60 17q7 0 18 -7t25.5 -16t25.5 -19.5t17 -14.5q7 4 19 14.5t24.5 19.5t24.5 16t18 7q11 0 32.5 -14t42 -37.5t35.5 -53.5t15 -60q0 -37 -21.5 -65t-47 -52.5t-47 -49t-21.5 -55.5v-360h43
q49 0 79 5t46 19.5t21.5 40t5.5 66.5v606h102v-626zM197 623q0 24 -17.5 41.5t-42.5 17.5q-24 0 -41.5 -17.5t-17.5 -41.5q0 -25 17.5 -42.5t41.5 -17.5q25 0 42.5 17.5t17.5 42.5z" />
    <glyph glyph-name="khokhwaithai" unicode="&#xa4;" horiz-adv-x="815" 
d="M610 0v535q0 40 -13 80t-39 71t-65.5 50.5t-95.5 19.5q-53 0 -94 -16.5t-69.5 -46t-44 -67.5t-17.5 -79q-2 -60 11.5 -121t23.5 -127q2 -8 2 -26.5t-2 -41.5q-2 -24 -4 -53h4q0 12 2 29.5t3 36t3 35t4 22.5q6 29 14.5 60.5t17.5 63.5t18.5 59.5t17.5 43.5q22 47 54 71
t81 24q57 0 97 -40t40 -98q0 -57 -40 -97t-97 -40q-27 0 -50.5 9.5t-39.5 23.5q-13 -35 -27 -86t-27.5 -105.5t-24.5 -104.5t-17 -85h-109v129q0 64 -9 116t-19.5 99t-19.5 96t-9 107q0 57 23.5 109.5t66.5 92t104.5 63.5t138.5 24q74 0 131.5 -22.5t97.5 -60.5t60.5 -89.5
t20.5 -108.5v-555h-103zM481 485q0 25 -17.5 42.5t-41.5 17.5q-25 0 -42.5 -17.5t-17.5 -42.5q0 -24 17.5 -41.5t42.5 -17.5q24 0 41.5 17.5t17.5 41.5z" />
    <glyph glyph-name="khokhwaithai" unicode="&#xe04;" horiz-adv-x="815" 
d="M610 0v535q0 40 -13 80t-39 71t-65.5 50.5t-95.5 19.5q-53 0 -94 -16.5t-69.5 -46t-44 -67.5t-17.5 -79q-2 -60 11.5 -121t23.5 -127q2 -8 2 -26.5t-2 -41.5q-2 -24 -4 -53h4q0 12 2 29.5t3 36t3 35t4 22.5q6 29 14.5 60.5t17.5 63.5t18.5 59.5t17.5 43.5q22 47 54 71
t81 24q57 0 97 -40t40 -98q0 -57 -40 -97t-97 -40q-27 0 -50.5 9.5t-39.5 23.5q-13 -35 -27 -86t-27.5 -105.5t-24.5 -104.5t-17 -85h-109v129q0 64 -9 116t-19.5 99t-19.5 96t-9 107q0 57 23.5 109.5t66.5 92t104.5 63.5t138.5 24q74 0 131.5 -22.5t97.5 -60.5t60.5 -89.5
t20.5 -108.5v-555h-103zM481 485q0 25 -17.5 42.5t-41.5 17.5q-25 0 -42.5 -17.5t-17.5 -42.5q0 -24 17.5 -41.5t42.5 -17.5q24 0 41.5 17.5t17.5 41.5z" />
    <glyph glyph-name="khokhonthai" unicode="&#xa5;" horiz-adv-x="815" 
d="M610 0v598q0 70 -31.5 101.5t-60.5 43.5l-110 -94l-121 94q-49 -16 -78 -63t-31 -107q-2 -65 12.5 -148t20.5 -157q6 29 16.5 67t20.5 77t22.5 73.5t20.5 55.5q18 43 55 62.5t76 19.5q57 0 97 -40t40 -98q0 -57 -40 -97t-97 -40q-27 0 -50.5 9.5t-39.5 23.5
q-13 -35 -27 -86t-27.5 -105.5t-24.5 -104.5t-17 -85h-109v129q0 64 -8 119t-17.5 106.5t-17.5 103.5t-8 109q0 56 18.5 103t49 82.5t72.5 57t89 26.5l103 -82l104 82q27 -7 61.5 -20t65.5 -38.5t52.5 -64.5t21.5 -99v-614h-103zM481 485q0 25 -17.5 42.5t-41.5 17.5
q-25 0 -42.5 -17.5t-17.5 -42.5q0 -24 17.5 -41.5t42.5 -17.5q24 0 41.5 17.5t17.5 41.5z" />
    <glyph glyph-name="khokhonthai" unicode="&#xe05;" horiz-adv-x="815" 
d="M610 0v598q0 70 -31.5 101.5t-60.5 43.5l-110 -94l-121 94q-49 -16 -78 -63t-31 -107q-2 -65 12.5 -148t20.5 -157q6 29 16.5 67t20.5 77t22.5 73.5t20.5 55.5q18 43 55 62.5t76 19.5q57 0 97 -40t40 -98q0 -57 -40 -97t-97 -40q-27 0 -50.5 9.5t-39.5 23.5
q-13 -35 -27 -86t-27.5 -105.5t-24.5 -104.5t-17 -85h-109v129q0 64 -8 119t-17.5 106.5t-17.5 103.5t-8 109q0 56 18.5 103t49 82.5t72.5 57t89 26.5l103 -82l104 82q27 -7 61.5 -20t65.5 -38.5t52.5 -64.5t21.5 -99v-614h-103zM481 485q0 25 -17.5 42.5t-41.5 17.5
q-25 0 -42.5 -17.5t-17.5 -42.5q0 -24 17.5 -41.5t42.5 -17.5q24 0 41.5 17.5t17.5 41.5z" />
    <glyph glyph-name="khorakhangthai" unicode="&#xa6;" horiz-adv-x="885" 
d="M782 113q0 -113 -94 -113h-35q-12 33 -34.5 67.5t-55.5 65.5t-71.5 54.5t-81.5 31.5v-94q0 -55 -36 -93t-98 -38q-61 0 -108 42t-47 114q0 34 16.5 64t42 50.5t59 31.5t68.5 11v152q0 30 22.5 54t49.5 46.5t48.5 46t21.5 53.5q0 27 -19.5 48.5t-28.5 21.5q-2 0 -11 -7
t-19.5 -16.5t-18.5 -16.5t-12 -7q-6 6 -20.5 17.5t-30.5 23.5q-19 14 -39 29l-23 -13q29 -18 47.5 -49t18.5 -67q0 -58 -40 -98t-97 -40q-58 0 -98 40t-40 98q0 53 28 89t69 62q32 21 74 38t61 17q6 0 17.5 -7t25.5 -16t25.5 -19.5t17.5 -14.5q6 4 18.5 14.5t24.5 19.5
t24.5 16t18.5 7q10 0 31.5 -14t42 -37.5t36 -53.5t15.5 -60q0 -37 -21.5 -65t-47 -52.5t-47 -49t-21.5 -55.5v-139q65 -8 141 -49t129 -115v680h102v-706zM215 623q0 24 -17.5 41.5t-41.5 17.5q-25 0 -42.5 -17.5t-17.5 -41.5q0 -25 17.5 -42.5t42.5 -17.5q24 0 41.5 17.5
t17.5 42.5zM307 219q-41 2 -67.5 -16.5t-26.5 -52.5q0 -25 14.5 -44.5t40.5 -19.5q39 0 39 51v82z" />
    <glyph glyph-name="khorakhangthai" unicode="&#xe06;" horiz-adv-x="885" 
d="M782 113q0 -113 -94 -113h-35q-12 33 -34.5 67.5t-55.5 65.5t-71.5 54.5t-81.5 31.5v-94q0 -55 -36 -93t-98 -38q-61 0 -108 42t-47 114q0 34 16.5 64t42 50.5t59 31.5t68.5 11v152q0 30 22.5 54t49.5 46.5t48.5 46t21.5 53.5q0 27 -19.5 48.5t-28.5 21.5q-2 0 -11 -7
t-19.5 -16.5t-18.5 -16.5t-12 -7q-6 6 -20.5 17.5t-30.5 23.5q-19 14 -39 29l-23 -13q29 -18 47.5 -49t18.5 -67q0 -58 -40 -98t-97 -40q-58 0 -98 40t-40 98q0 53 28 89t69 62q32 21 74 38t61 17q6 0 17.5 -7t25.5 -16t25.5 -19.5t17.5 -14.5q6 4 18.5 14.5t24.5 19.5
t24.5 16t18.5 7q10 0 31.5 -14t42 -37.5t36 -53.5t15.5 -60q0 -37 -21.5 -65t-47 -52.5t-47 -49t-21.5 -55.5v-139q65 -8 141 -49t129 -115v680h102v-706zM215 623q0 24 -17.5 41.5t-41.5 17.5q-25 0 -42.5 -17.5t-17.5 -41.5q0 -25 17.5 -42.5t42.5 -17.5q24 0 41.5 17.5
t17.5 42.5zM307 219q-41 2 -67.5 -16.5t-26.5 -52.5q0 -25 14.5 -44.5t40.5 -19.5q39 0 39 51v82z" />
    <glyph glyph-name="ngonguthai" unicode="&#xa7;" horiz-adv-x="655" 
d="M553 176q0 -92 -35 -134t-129 -42h-104q-47 117 -120 237.5t-165 225.5l92 47q94 -113 154.5 -211t109.5 -201h19q47 0 61.5 22.5t14.5 72.5v368q-11 -4 -25 -6t-25 -2q-57 0 -96 40t-39 95q0 57 40 99t100 42q67 0 107 -42t40 -107v-504zM461 688q0 25 -17.5 42.5
t-42.5 17.5q-24 0 -41.5 -17.5t-17.5 -42.5q0 -24 17.5 -41.5t41.5 -17.5q25 0 42.5 17.5t17.5 41.5z" />
    <glyph glyph-name="ngonguthai" unicode="&#xe07;" horiz-adv-x="655" 
d="M553 176q0 -92 -35 -134t-129 -42h-104q-47 117 -120 237.5t-165 225.5l92 47q94 -113 154.5 -211t109.5 -201h19q47 0 61.5 22.5t14.5 72.5v368q-11 -4 -25 -6t-25 -2q-57 0 -96 40t-39 95q0 57 40 99t100 42q67 0 107 -42t40 -107v-504zM461 688q0 25 -17.5 42.5
t-42.5 17.5q-24 0 -41.5 -17.5t-17.5 -42.5q0 -24 17.5 -41.5t41.5 -17.5q25 0 42.5 17.5t17.5 41.5z" />
    <glyph glyph-name="chochanthai" unicode="&#xa8;" horiz-adv-x="750" 
d="M647 600q-2 -68 -16.5 -136.5t-31.5 -142t-35.5 -152.5t-28.5 -169h-127l-74 348q-33 -24 -78 -24q-57 0 -97 39.5t-40 97.5q0 57 40 97t97 40q61 0 101 -37t51 -96l57 -297q6 59 18.5 115.5t25.5 109.5t23.5 105.5t10.5 101.5q0 29 -13.5 56.5t-39 49t-62.5 36t-84 14.5
q-78 0 -143.5 -34t-87.5 -106h-103q25 95 112 157.5t228 62.5q72 0 128.5 -20.5t95 -53.5t57 -76t16.5 -86zM315 461q0 24 -17 41.5t-42 17.5t-42 -17.5t-17 -41.5q0 -25 17 -42.5t42 -17.5t42 17.5t17 42.5z" />
    <glyph glyph-name="chochanthai" unicode="&#xe08;" horiz-adv-x="750" 
d="M647 600q-2 -68 -16.5 -136.5t-31.5 -142t-35.5 -152.5t-28.5 -169h-127l-74 348q-33 -24 -78 -24q-57 0 -97 39.5t-40 97.5q0 57 40 97t97 40q61 0 101 -37t51 -96l57 -297q6 59 18.5 115.5t25.5 109.5t23.5 105.5t10.5 101.5q0 29 -13.5 56.5t-39 49t-62.5 36t-84 14.5
q-78 0 -143.5 -34t-87.5 -106h-103q25 95 112 157.5t228 62.5q72 0 128.5 -20.5t95 -53.5t57 -76t16.5 -86zM315 461q0 24 -17 41.5t-42 17.5t-42 -17.5t-17 -41.5q0 -25 17 -42.5t42 -17.5t42 17.5t17 42.5z" />
    <glyph glyph-name="chochingthai" unicode="&#xa9;" horiz-adv-x="807" 
d="M762 135q0 -59 -41 -100t-100 -41q-60 0 -101 41t-41 100q-28 -22 -68 -56t-71 -79h-135v264q-10 -4 -24.5 -6t-24.5 -2q-58 0 -97 40t-39 95q0 58 40 99.5t100 41.5q67 0 107 -41.5t40 -107.5v-274q23 22 54.5 46.5t68.5 49t76 45t76 31.5v299q0 82 -59.5 129t-145.5 47
q-78 0 -137.5 -36t-83.5 -104h-103q13 48 41.5 87.5t71.5 68.5t98 46.5t119 17.5q131 0 216 -67t85 -183v-324q35 -18 56.5 -52t21.5 -75zM680 139q0 25 -17.5 42.5t-41.5 17.5q-25 0 -42.5 -17.5t-17.5 -42.5q0 -24 17.5 -41.5t42.5 -17.5q24 0 41.5 17.5t17.5 41.5z
M215 391q0 25 -17.5 42.5t-41.5 17.5q-25 0 -42.5 -17.5t-17.5 -42.5q0 -24 17.5 -41.5t42.5 -17.5q24 0 41.5 17.5t17.5 41.5z" />
    <glyph glyph-name="chochingthai" unicode="&#xe09;" horiz-adv-x="807" 
d="M762 135q0 -59 -41 -100t-100 -41q-60 0 -101 41t-41 100q-28 -22 -68 -56t-71 -79h-135v264q-10 -4 -24.5 -6t-24.5 -2q-58 0 -97 40t-39 95q0 58 40 99.5t100 41.5q67 0 107 -41.5t40 -107.5v-274q23 22 54.5 46.5t68.5 49t76 45t76 31.5v299q0 82 -59.5 129t-145.5 47
q-78 0 -137.5 -36t-83.5 -104h-103q13 48 41.5 87.5t71.5 68.5t98 46.5t119 17.5q131 0 216 -67t85 -183v-324q35 -18 56.5 -52t21.5 -75zM680 139q0 25 -17.5 42.5t-41.5 17.5q-25 0 -42.5 -17.5t-17.5 -42.5q0 -24 17.5 -41.5t42.5 -17.5q24 0 41.5 17.5t17.5 41.5z
M215 391q0 25 -17.5 42.5t-41.5 17.5q-25 0 -42.5 -17.5t-17.5 -42.5q0 -24 17.5 -41.5t42.5 -17.5q24 0 41.5 17.5t17.5 41.5z" />
    <glyph glyph-name="chochangthai" unicode="&#xaa;" horiz-adv-x="819" 
d="M758 840q0 -76 -29 -131.5t-96 -96.5q35 -10 59.5 -38.5t24.5 -69.5v-311q0 -99 -40 -146t-153 -47h-340v78q60 0 81.5 18.5t21.5 75.5v283q0 28 17.5 50.5t39 43t38.5 42t17 46.5q0 27 -22.5 65.5t-71.5 47.5q-18 4 -46 -6.5t-32 -16.5q21 -18 33 -44t12 -58
q0 -58 -39.5 -98t-97.5 -40q-57 0 -97 40t-40 98q0 45 23.5 79.5t87.5 67.5q59 31 117.5 45t103.5 12q28 0 58 -17t54.5 -45t40 -62.5t15.5 -69.5q0 -31 -17.5 -53.5t-37 -43t-37 -44t-17.5 -56.5v-356h78q45 0 73.5 5t45 19.5t22.5 40t6 66.5v264q0 41 -26.5 65.5
t-75.5 24.5v70q61 22 101 73.5t40 129.5h105zM195 623q0 24 -17.5 41.5t-42.5 17.5q-24 0 -41.5 -17.5t-17.5 -41.5q0 -25 17.5 -42.5t41.5 -17.5q25 0 42.5 17.5t17.5 42.5z" />
    <glyph glyph-name="chochangthai" unicode="&#xe0a;" horiz-adv-x="819" 
d="M758 840q0 -76 -29 -131.5t-96 -96.5q35 -10 59.5 -38.5t24.5 -69.5v-311q0 -99 -40 -146t-153 -47h-340v78q60 0 81.5 18.5t21.5 75.5v283q0 28 17.5 50.5t39 43t38.5 42t17 46.5q0 27 -22.5 65.5t-71.5 47.5q-18 4 -46 -6.5t-32 -16.5q21 -18 33 -44t12 -58
q0 -58 -39.5 -98t-97.5 -40q-57 0 -97 40t-40 98q0 45 23.5 79.5t87.5 67.5q59 31 117.5 45t103.5 12q28 0 58 -17t54.5 -45t40 -62.5t15.5 -69.5q0 -31 -17.5 -53.5t-37 -43t-37 -44t-17.5 -56.5v-356h78q45 0 73.5 5t45 19.5t22.5 40t6 66.5v264q0 41 -26.5 65.5
t-75.5 24.5v70q61 22 101 73.5t40 129.5h105zM195 623q0 24 -17.5 41.5t-42.5 17.5q-24 0 -41.5 -17.5t-17.5 -41.5q0 -25 17.5 -42.5t41.5 -17.5q25 0 42.5 17.5t17.5 42.5z" />
    <glyph glyph-name="sosothai" unicode="&#xab;" horiz-adv-x="831" 
d="M770 840q0 -76 -28.5 -131.5t-96.5 -96.5q35 -10 59.5 -38.5t24.5 -69.5v-311q0 -95 -39 -144t-149 -49h-353v78q60 0 81.5 18.5t21.5 75.5v287q0 30 21.5 54t48 47.5t47 47t20.5 54.5q0 26 -16.5 46.5t-26.5 20.5q-2 0 -11 -7t-19.5 -16.5t-18.5 -16.5t-12 -7
q-7 6 -21 17.5t-31 23.5q-18 14 -39 29l-22 -13q29 -18 47 -49t18 -67q0 -58 -39.5 -98t-97.5 -40q-57 0 -97 40t-40 98q0 53 27.5 89t68.5 62q33 21 75 38t60 17q7 0 18 -7t25.5 -16t25.5 -19.5t17 -14.5q7 4 19 14.5t24.5 19.5t24.5 16t19 7q10 0 30.5 -14t40 -37.5
t33.5 -53.5t14 -60q0 -37 -20.5 -65t-45 -52.5t-45 -49t-20.5 -55.5v-360h82q49 0 79 5t46 19.5t21.5 40t5.5 66.5v264q0 41 -27 65.5t-76 24.5v70q62 22 102 73.5t40 129.5h104zM199 623q0 24 -17.5 41.5t-42.5 17.5q-24 0 -41.5 -17.5t-17.5 -41.5q0 -25 17.5 -42.5
t41.5 -17.5q25 0 42.5 17.5t17.5 42.5z" />
    <glyph glyph-name="sosothai" unicode="&#xe0b;" horiz-adv-x="831" 
d="M770 840q0 -76 -28.5 -131.5t-96.5 -96.5q35 -10 59.5 -38.5t24.5 -69.5v-311q0 -95 -39 -144t-149 -49h-353v78q60 0 81.5 18.5t21.5 75.5v287q0 30 21.5 54t48 47.5t47 47t20.5 54.5q0 26 -16.5 46.5t-26.5 20.5q-2 0 -11 -7t-19.5 -16.5t-18.5 -16.5t-12 -7
q-7 6 -21 17.5t-31 23.5q-18 14 -39 29l-22 -13q29 -18 47 -49t18 -67q0 -58 -39.5 -98t-97.5 -40q-57 0 -97 40t-40 98q0 53 27.5 89t68.5 62q33 21 75 38t60 17q7 0 18 -7t25.5 -16t25.5 -19.5t17 -14.5q7 4 19 14.5t24.5 19.5t24.5 16t19 7q10 0 30.5 -14t40 -37.5
t33.5 -53.5t14 -60q0 -37 -20.5 -65t-45 -52.5t-45 -49t-20.5 -55.5v-360h82q49 0 79 5t46 19.5t21.5 40t5.5 66.5v264q0 41 -27 65.5t-76 24.5v70q62 22 102 73.5t40 129.5h104zM199 623q0 24 -17.5 41.5t-42.5 17.5q-24 0 -41.5 -17.5t-17.5 -41.5q0 -25 17.5 -42.5
t41.5 -17.5q25 0 42.5 17.5t17.5 42.5z" />
    <glyph glyph-name="chochoethai" unicode="&#xac;" horiz-adv-x="1155" 
d="M1053 113q0 -113 -95 -113h-34q-13 18 -33.5 37.5t-45 39t-50 37t-45.5 27.5v-12q0 -57 -41 -98t-99 -41q-57 0 -98 41t-41 98q0 47 29.5 85t72.5 50v322q0 43 -17 74.5t-44 53t-60.5 32t-66.5 10.5q-121 0 -195 -82q27 -10 66 -35t66 -53q-107 -37 -107 -144v-184
q10 4 24.5 6t24.5 2q58 0 96.5 -40t38.5 -95q0 -57 -40 -99t-99 -42q-67 0 -107 42t-40 107v305q0 54 25.5 92.5t60.5 49.5q-15 12 -34.5 23.5t-40 20.5t-37.5 16t-28 11q56 86 138 132.5t192 46.5q57 0 109.5 -15.5t91.5 -47.5t62.5 -79t23.5 -110v-322q37 -8 78 -26.5
t77.5 -41t67.5 -46t51 -44.5v715h103v-706zM670 129q0 25 -17.5 42t-42.5 17q-24 0 -41.5 -17t-17.5 -42t17.5 -42t41.5 -17q25 0 42.5 17t17.5 42zM324 131q0 25 -17.5 42t-42.5 17q-24 0 -41.5 -17t-17.5 -42t17.5 -42t41.5 -17q25 0 42.5 17t17.5 42z" />
    <glyph glyph-name="chochoethai" unicode="&#xe0c;" horiz-adv-x="1155" 
d="M1053 113q0 -113 -95 -113h-34q-13 18 -33.5 37.5t-45 39t-50 37t-45.5 27.5v-12q0 -57 -41 -98t-99 -41q-57 0 -98 41t-41 98q0 47 29.5 85t72.5 50v322q0 43 -17 74.5t-44 53t-60.5 32t-66.5 10.5q-121 0 -195 -82q27 -10 66 -35t66 -53q-107 -37 -107 -144v-184
q10 4 24.5 6t24.5 2q58 0 96.5 -40t38.5 -95q0 -57 -40 -99t-99 -42q-67 0 -107 42t-40 107v305q0 54 25.5 92.5t60.5 49.5q-15 12 -34.5 23.5t-40 20.5t-37.5 16t-28 11q56 86 138 132.5t192 46.5q57 0 109.5 -15.5t91.5 -47.5t62.5 -79t23.5 -110v-322q37 -8 78 -26.5
t77.5 -41t67.5 -46t51 -44.5v715h103v-706zM670 129q0 25 -17.5 42t-42.5 17q-24 0 -41.5 -17t-17.5 -42t17.5 -42t41.5 -17q25 0 42.5 17t17.5 42zM324 131q0 25 -17.5 42t-42.5 17q-24 0 -41.5 -17t-17.5 -42t17.5 -42t41.5 -17q25 0 42.5 17t17.5 42z" />
    <glyph glyph-name="yoyingthai" unicode="&#xad;" horiz-adv-x="1126" 
d="M1024 193q0 -99 -40 -146t-153 -47h-360v78q59 0 80.5 18.5t21.5 75.5v414q0 43 -17 74.5t-44 53t-60.5 32t-66.5 10.5q-121 0 -195 -82q27 -10 66 -35t66 -53q-107 -37 -107 -144v-184q10 4 24.5 6t24.5 2q58 0 96.5 -40t38.5 -95q0 -57 -40 -99t-99 -42q-67 0 -107 42
t-40 107v305q0 54 25.5 92.5t60.5 49.5q-15 12 -34.5 23.5t-40 20.5t-37.5 16t-28 11q56 86 138 132.5t192 46.5q57 0 109.5 -15.5t91.5 -47.5t62.5 -79t23.5 -110v-502h98q45 0 74 5t45 19.5t22.5 40t6.5 66.5v606h102v-626zM1024 -158q-66 -71 -140.5 -112t-176.5 -39
q-70 2 -114 37.5t-44 95.5q0 53 36 89t89 36t89 -36t36 -89q0 -23 -6 -41q22 4 48.5 15.5t51.5 28.5t44 36.5t32 40.5zM727 -176q0 22 -15.5 37.5t-37.5 15.5q-23 0 -38 -15.5t-15 -37.5q0 -23 15 -38t38 -15q22 0 37.5 15t15.5 38zM324 131q0 25 -17.5 42t-42.5 17
q-24 0 -41.5 -17t-17.5 -42t17.5 -42t41.5 -17q25 0 42.5 17t17.5 42z" />
    <glyph glyph-name="yoyingthai" unicode="&#xe0d;" horiz-adv-x="1126" 
d="M1024 193q0 -99 -40 -146t-153 -47h-360v78q59 0 80.5 18.5t21.5 75.5v414q0 43 -17 74.5t-44 53t-60.5 32t-66.5 10.5q-121 0 -195 -82q27 -10 66 -35t66 -53q-107 -37 -107 -144v-184q10 4 24.5 6t24.5 2q58 0 96.5 -40t38.5 -95q0 -57 -40 -99t-99 -42q-67 0 -107 42
t-40 107v305q0 54 25.5 92.5t60.5 49.5q-15 12 -34.5 23.5t-40 20.5t-37.5 16t-28 11q56 86 138 132.5t192 46.5q57 0 109.5 -15.5t91.5 -47.5t62.5 -79t23.5 -110v-502h98q45 0 74 5t45 19.5t22.5 40t6.5 66.5v606h102v-626zM1024 -158q-66 -71 -140.5 -112t-176.5 -39
q-70 2 -114 37.5t-44 95.5q0 53 36 89t89 36t89 -36t36 -89q0 -23 -6 -41q22 4 48.5 15.5t51.5 28.5t44 36.5t32 40.5zM727 -176q0 22 -15.5 37.5t-37.5 15.5q-23 0 -38 -15.5t-15 -37.5q0 -23 15 -38t38 -15q22 0 37.5 15t15.5 38zM324 131q0 25 -17.5 42t-42.5 17
q-24 0 -41.5 -17t-17.5 -42t17.5 -42t41.5 -17q25 0 42.5 17t17.5 42z" />
    <glyph glyph-name="yoyingthai" unicode="&#xde;" horiz-adv-x="1126" 
d="M1024 193q0 -99 -40 -146t-153 -47h-360v78q59 0 80.5 18.5t21.5 75.5v414q0 43 -17 74.5t-44 53t-60.5 32t-66.5 10.5q-121 0 -195 -82q27 -10 66 -35t66 -53q-107 -37 -107 -144v-184q10 4 24.5 6t24.5 2q58 0 96.5 -40t38.5 -95q0 -57 -40 -99t-99 -42q-67 0 -107 42
t-40 107v305q0 54 25.5 92.5t60.5 49.5q-15 12 -34.5 23.5t-40 20.5t-37.5 16t-28 11q56 86 138 132.5t192 46.5q57 0 109.5 -15.5t91.5 -47.5t62.5 -79t23.5 -110v-502h98q45 0 74 5t45 19.5t22.5 40t6.5 66.5v606h102v-626zM1024 -158q-66 -71 -140.5 -112t-176.5 -39
q-70 2 -114 37.5t-44 95.5q0 53 36 89t89 36t89 -36t36 -89q0 -23 -6 -41q22 4 48.5 15.5t51.5 28.5t44 36.5t32 40.5zM727 -176q0 22 -15.5 37.5t-37.5 15.5q-23 0 -38 -15.5t-15 -37.5q0 -23 15 -38t38 -15q22 0 37.5 15t15.5 38zM324 131q0 25 -17.5 42t-42.5 17
q-24 0 -41.5 -17t-17.5 -42t17.5 -42t41.5 -17q25 0 42.5 17t17.5 42z" />
    <glyph glyph-name="dochadathai" unicode="&#xae;" horiz-adv-x="840" 
d="M737 -201q0 -98 -36.5 -153.5t-100.5 -55.5h-41q-18 29 -49 69t-59 65q-33 -58 -83.5 -89.5t-115.5 -35.5q-72 -5 -123 29t-53 100q0 30 13 57t34.5 46t49.5 32.5t52 17.5q41 8 89 2t81 -22q2 10 2 21.5v21.5t-2 22h103v-41q0 -16 -2 -35.5t-7 -35.5q35 -27 60.5 -55.5
t42.5 -53.5q26 0 34.5 33t8.5 102v746q0 43 -17.5 74.5t-44 53t-60.5 32t-67 10.5q-120 0 -194 -82q27 -10 65.5 -35t65.5 -53q-107 -37 -107 -144v-235q23 -31 23 -78q0 -57 -41 -98t-98 -41q-58 0 -99 41t-41 98t41 98t99 41h14v176q0 54 25.5 92.5t60.5 49.5
q-14 12 -33.5 23.5t-40 20.5t-38 16l-27.5 11q55 86 137 132.5t193 46.5q57 0 109 -15.5t91 -47.5t62.5 -79t23.5 -110v-785zM219 129q0 25 -17.5 42t-41.5 17q-25 0 -42.5 -17t-17.5 -42t17.5 -42t42.5 -17q24 0 41.5 17t17.5 42zM371 -227q-23 22 -53.5 27t-57.5 1
q-31 -4 -58.5 -24.5t-23.5 -48.5q2 -17 14.5 -27t29 -15t35.5 -3t36 10q29 12 48 30.5t30 49.5z" />
    <glyph glyph-name="dochadathai" unicode="&#xe0e;" horiz-adv-x="840" 
d="M737 -201q0 -98 -36.5 -153.5t-100.5 -55.5h-41q-18 29 -49 69t-59 65q-33 -58 -83.5 -89.5t-115.5 -35.5q-72 -5 -123 29t-53 100q0 30 13 57t34.5 46t49.5 32.5t52 17.5q41 8 89 2t81 -22q2 10 2 21.5v21.5t-2 22h103v-41q0 -16 -2 -35.5t-7 -35.5q35 -27 60.5 -55.5
t42.5 -53.5q26 0 34.5 33t8.5 102v746q0 43 -17.5 74.5t-44 53t-60.5 32t-67 10.5q-120 0 -194 -82q27 -10 65.5 -35t65.5 -53q-107 -37 -107 -144v-235q23 -31 23 -78q0 -57 -41 -98t-98 -41q-58 0 -99 41t-41 98t41 98t99 41h14v176q0 54 25.5 92.5t60.5 49.5
q-14 12 -33.5 23.5t-40 20.5t-38 16l-27.5 11q55 86 137 132.5t193 46.5q57 0 109 -15.5t91 -47.5t62.5 -79t23.5 -110v-785zM219 129q0 25 -17.5 42t-41.5 17q-25 0 -42.5 -17t-17.5 -42t17.5 -42t42.5 -17q24 0 41.5 17t17.5 42zM371 -227q-23 22 -53.5 27t-57.5 1
q-31 -4 -58.5 -24.5t-23.5 -48.5q2 -17 14.5 -27t29 -15t35.5 -3t36 10q29 12 48 30.5t30 49.5z" />
    <glyph glyph-name="topatakthai" unicode="&#xaf;" horiz-adv-x="840" 
d="M737 -201q0 -98 -36.5 -153.5t-100.5 -55.5h-41q-14 23 -30.5 46.5t-45.5 56.5q-22 -27 -39.5 -51.5t-29.5 -42.5h-64q-6 10 -14 20q-6 10 -13.5 20.5t-17.5 20.5q-37 -37 -73.5 -54.5t-92.5 -17.5q-24 0 -48.5 10.5t-44 28t-32 41t-12.5 49.5q0 60 46 100t112 40
q33 0 60.5 -10.5t49.5 -26.5q4 10 3 23.5t-1 25.5q0 14 -2 29h103q0 -29 -2 -58q-2 -24 -6.5 -50t-14.5 -44l31 -37q18 21 37 43q16 19 33.5 37t33.5 33q37 -35 62.5 -64.5t44.5 -52.5q26 0 34.5 33t8.5 102v746q0 43 -17.5 74.5t-44 53t-60.5 32t-67 10.5q-120 0 -194 -82
q27 -10 65.5 -35t65.5 -53q-107 -37 -107 -144v-235q23 -31 23 -78q0 -57 -41 -98t-98 -41q-58 0 -99 41t-41 98t41 98t99 41h14v176q0 54 25.5 92.5t60.5 49.5q-14 12 -33.5 23.5t-40 20.5t-38 16l-27.5 11q55 86 137 132.5t193 46.5q57 0 109 -15.5t91 -47.5t62.5 -79
t23.5 -110v-785zM219 129q0 25 -17.5 42t-41.5 17q-25 0 -42.5 -17t-17.5 -42t17.5 -42t42.5 -17q24 0 41.5 17t17.5 42zM233 -268q-22 39 -73 39q-25 0 -44.5 -13.5t-19.5 -33.5q0 -21 19.5 -32t38.5 -11q26 0 49.5 14t29.5 37z" />
    <glyph glyph-name="topatakthai" unicode="&#xe0f;" horiz-adv-x="840" 
d="M737 -201q0 -98 -36.5 -153.5t-100.5 -55.5h-41q-14 23 -30.5 46.5t-45.5 56.5q-22 -27 -39.5 -51.5t-29.5 -42.5h-64q-6 10 -14 20q-6 10 -13.5 20.5t-17.5 20.5q-37 -37 -73.5 -54.5t-92.5 -17.5q-24 0 -48.5 10.5t-44 28t-32 41t-12.5 49.5q0 60 46 100t112 40
q33 0 60.5 -10.5t49.5 -26.5q4 10 3 23.5t-1 25.5q0 14 -2 29h103q0 -29 -2 -58q-2 -24 -6.5 -50t-14.5 -44l31 -37q18 21 37 43q16 19 33.5 37t33.5 33q37 -35 62.5 -64.5t44.5 -52.5q26 0 34.5 33t8.5 102v746q0 43 -17.5 74.5t-44 53t-60.5 32t-67 10.5q-120 0 -194 -82
q27 -10 65.5 -35t65.5 -53q-107 -37 -107 -144v-235q23 -31 23 -78q0 -57 -41 -98t-98 -41q-58 0 -99 41t-41 98t41 98t99 41h14v176q0 54 25.5 92.5t60.5 49.5q-14 12 -33.5 23.5t-40 20.5t-38 16l-27.5 11q55 86 137 132.5t193 46.5q57 0 109 -15.5t91 -47.5t62.5 -79
t23.5 -110v-785zM219 129q0 25 -17.5 42t-41.5 17q-25 0 -42.5 -17t-17.5 -42t17.5 -42t42.5 -17q24 0 41.5 17t17.5 42zM233 -268q-22 39 -73 39q-25 0 -44.5 -13.5t-19.5 -33.5q0 -21 19.5 -32t38.5 -11q26 0 49.5 14t29.5 37z" />
    <glyph glyph-name="thothanthai" unicode="&#xb0;" horiz-adv-x="760" 
d="M674 768q-29 -33 -57.5 -53.5t-69.5 -20.5q-31 0 -61.5 8.5t-60.5 19.5t-58.5 20.5t-59.5 9.5q-69 2 -104 -21.5t-47 -48.5q53 -2 117.5 -6t129.5 -14q48 -7 90 -19t74.5 -30.5t51 -46t18.5 -66.5q0 -54 -11.5 -109t-25.5 -115.5t-29.5 -129t-25.5 -146.5h-127l-86 287
q-33 -25 -78 -25q-57 0 -97 40t-40 97q0 58 40 98t97 40q61 0 98 -38t54 -96l67 -243q4 41 12.5 84t18.5 84t17 81t7 74q0 31 -21.5 51.5t-54 33t-73.5 19.5t-82 11q-72 8 -147.5 9t-129.5 3q29 107 99.5 166.5t195.5 59.5q31 0 61 -7.5t56.5 -16.5t51 -17.5t42.5 -8.5
q23 0 38.5 11.5t31.5 27.5zM668 -260q0 -156 -123 -156h-37q-16 10 -31.5 21.5t-38.5 27.5q-20 -12 -35.5 -23t-25.5 -18h-58q-4 11 -12 21q-6 10 -13 20.5t-15 20.5q-33 -37 -66 -54.5t-84 -17.5q-45 0 -84 38t-39 91q0 60 41 99.5t100 39.5q64 0 101 -36q4 10 3 23t-1 26
q0 14 -2 28h92q0 -28 -2 -57q-2 -24 -6 -50t-13 -44l41 -55q13 6 25 14q10 8 24.5 16.5t30.5 18.5q23 -15 40.5 -26t35.5 -23q25 0 37 7t12 34q-8 -2 -22 -2q-54 0 -89.5 32.5t-35.5 79.5t35.5 80t89.5 33q53 0 89 -33t36 -80v-96zM313 399q0 25 -17 42.5t-42 17.5
t-42 -17.5t-17 -42.5q0 -24 17 -41.5t42 -17.5t42 17.5t17 41.5zM596 -164q0 19 -15.5 33t-37.5 14q-23 0 -38.5 -14t-15.5 -33q0 -20 15.5 -33.5t38.5 -13.5q22 0 37.5 13.5t15.5 33.5zM215 -274q-25 38 -68 38q-22 0 -38.5 -13t-16.5 -34q0 -20 17.5 -31.5t33.5 -11.5
q23 0 44.5 14.5t27.5 37.5z" />
    <glyph glyph-name="thothanthai" unicode="&#xe10;" horiz-adv-x="760" 
d="M674 768q-29 -33 -57.5 -53.5t-69.5 -20.5q-31 0 -61.5 8.5t-60.5 19.5t-58.5 20.5t-59.5 9.5q-69 2 -104 -21.5t-47 -48.5q53 -2 117.5 -6t129.5 -14q48 -7 90 -19t74.5 -30.5t51 -46t18.5 -66.5q0 -54 -11.5 -109t-25.5 -115.5t-29.5 -129t-25.5 -146.5h-127l-86 287
q-33 -25 -78 -25q-57 0 -97 40t-40 97q0 58 40 98t97 40q61 0 98 -38t54 -96l67 -243q4 41 12.5 84t18.5 84t17 81t7 74q0 31 -21.5 51.5t-54 33t-73.5 19.5t-82 11q-72 8 -147.5 9t-129.5 3q29 107 99.5 166.5t195.5 59.5q31 0 61 -7.5t56.5 -16.5t51 -17.5t42.5 -8.5
q23 0 38.5 11.5t31.5 27.5zM668 -260q0 -156 -123 -156h-37q-16 10 -31.5 21.5t-38.5 27.5q-20 -12 -35.5 -23t-25.5 -18h-58q-4 11 -12 21q-6 10 -13 20.5t-15 20.5q-33 -37 -66 -54.5t-84 -17.5q-45 0 -84 38t-39 91q0 60 41 99.5t100 39.5q64 0 101 -36q4 10 3 23t-1 26
q0 14 -2 28h92q0 -28 -2 -57q-2 -24 -6 -50t-13 -44l41 -55q13 6 25 14q10 8 24.5 16.5t30.5 18.5q23 -15 40.5 -26t35.5 -23q25 0 37 7t12 34q-8 -2 -22 -2q-54 0 -89.5 32.5t-35.5 79.5t35.5 80t89.5 33q53 0 89 -33t36 -80v-96zM313 399q0 25 -17 42.5t-42 17.5
t-42 -17.5t-17 -42.5q0 -24 17 -41.5t42 -17.5t42 17.5t17 41.5zM596 -164q0 19 -15.5 33t-37.5 14q-23 0 -38.5 -14t-15.5 -33q0 -20 15.5 -33.5t38.5 -13.5q22 0 37.5 13.5t15.5 33.5zM215 -274q-25 38 -68 38q-22 0 -38.5 -13t-16.5 -34q0 -20 17.5 -31.5t33.5 -11.5
q23 0 44.5 14.5t27.5 37.5z" />
    <glyph glyph-name="thonangmonthothai" unicode="&#xb1;" horiz-adv-x="958" 
d="M754 0v623q0 55 -18.5 86.5t-57.5 31.5q-16 0 -24.5 -14t-12.5 -29l-242 -698h-112v494q0 30 17.5 52.5t36.5 42t36.5 40t17.5 45.5q0 22 -11 41.5t-19 19.5q-3 0 -11 -7t-18 -15t-18.5 -15.5t-10.5 -7.5q-6 6 -18.5 16.5t-26.5 20.5q-16 12 -33 25l-22 -13
q29 -18 47 -49t18 -67q0 -58 -39.5 -98t-97.5 -40q-57 0 -97 40t-40 98q0 53 27.5 89t68.5 62q33 21 75 38t60 17q7 0 17 -7t21.5 -16t21.5 -19.5t16 -14.5q6 4 17.5 14.5t23.5 19.5t22.5 16t14.5 7q12 0 30.5 -13t35 -34.5t27.5 -47t11 -50.5q0 -33 -15 -56.5t-33.5 -46
t-34 -45t-15.5 -53.5v-139q0 -16 -2 -45t-6 -57q-4 -33 -8 -70h2q4 31 10 59q4 25 11 49.5t12 41.5l147 417q16 41 46 65.5t83 24.5q74 0 123 -42t49 -144v-643h-102zM195 623q0 24 -17.5 41.5t-42.5 17.5q-24 0 -41.5 -17.5t-17.5 -41.5q0 -25 17.5 -42.5t41.5 -17.5
q25 0 42.5 17.5t17.5 42.5z" />
    <glyph glyph-name="thonangmonthothai" unicode="&#xe11;" horiz-adv-x="958" 
d="M754 0v623q0 55 -18.5 86.5t-57.5 31.5q-16 0 -24.5 -14t-12.5 -29l-242 -698h-112v494q0 30 17.5 52.5t36.5 42t36.5 40t17.5 45.5q0 22 -11 41.5t-19 19.5q-3 0 -11 -7t-18 -15t-18.5 -15.5t-10.5 -7.5q-6 6 -18.5 16.5t-26.5 20.5q-16 12 -33 25l-22 -13
q29 -18 47 -49t18 -67q0 -58 -39.5 -98t-97.5 -40q-57 0 -97 40t-40 98q0 53 27.5 89t68.5 62q33 21 75 38t60 17q7 0 17 -7t21.5 -16t21.5 -19.5t16 -14.5q6 4 17.5 14.5t23.5 19.5t22.5 16t14.5 7q12 0 30.5 -13t35 -34.5t27.5 -47t11 -50.5q0 -33 -15 -56.5t-33.5 -46
t-34 -45t-15.5 -53.5v-139q0 -16 -2 -45t-6 -57q-4 -33 -8 -70h2q4 31 10 59q4 25 11 49.5t12 41.5l147 417q16 41 46 65.5t83 24.5q74 0 123 -42t49 -144v-643h-102zM195 623q0 24 -17.5 41.5t-42.5 17.5q-24 0 -41.5 -17.5t-17.5 -41.5q0 -25 17.5 -42.5t41.5 -17.5
q25 0 42.5 17.5t17.5 42.5z" />
    <glyph glyph-name="thophuthaothai" unicode="&#xb2;" horiz-adv-x="1192" 
d="M1090 113q0 -113 -95 -113h-34q-13 18 -33.5 37.5t-45 39t-50 37t-46.5 27.5v-12q0 -57 -40.5 -98t-98.5 -41q-57 0 -98 41t-41 98q0 47 29.5 85t72.5 50v334q0 70 -31.5 101.5t-60.5 43.5l-110 -94l-121 94q-51 -26 -79 -75.5t-28 -106.5q0 -39 7.5 -90t15.5 -105.5
t15 -108.5t7 -99q19 28 38.5 56t43.5 58q23 29 38 46.5t30 33.5q-45 10 -75 48t-30 85q0 58 40 98t98 40q57 0 97 -40t40 -98q0 -43 -17.5 -72.5t-38.5 -54.5q-30 -39 -55.5 -69.5t-62.5 -79.5q-45 -59 -81 -116.5t-52 -92.5h-111v129q0 66 -8 121t-17.5 106.5t-17.5 102.5
t-8 108q0 56 18.5 103t49 82.5t72.5 57t89 26.5l103 -82l104 82q27 -7 61.5 -20t65.5 -38.5t52.5 -64.5t21.5 -99v-352q37 -8 77.5 -26.5t77.5 -41t68 -46t51 -44.5v715h103v-706zM467 485q0 25 -17.5 42.5t-41.5 17.5q-25 0 -42.5 -17.5t-17.5 -42.5q0 -24 17.5 -41.5
t42.5 -17.5q24 0 41.5 17.5t17.5 41.5zM707 129q0 25 -17.5 42t-42.5 17q-24 0 -41.5 -17t-17.5 -42t17.5 -42t41.5 -17q25 0 42.5 17t17.5 42z" />
    <glyph glyph-name="thophuthaothai" unicode="&#xe12;" horiz-adv-x="1192" 
d="M1090 113q0 -113 -95 -113h-34q-13 18 -33.5 37.5t-45 39t-50 37t-46.5 27.5v-12q0 -57 -40.5 -98t-98.5 -41q-57 0 -98 41t-41 98q0 47 29.5 85t72.5 50v334q0 70 -31.5 101.5t-60.5 43.5l-110 -94l-121 94q-51 -26 -79 -75.5t-28 -106.5q0 -39 7.5 -90t15.5 -105.5
t15 -108.5t7 -99q19 28 38.5 56t43.5 58q23 29 38 46.5t30 33.5q-45 10 -75 48t-30 85q0 58 40 98t98 40q57 0 97 -40t40 -98q0 -43 -17.5 -72.5t-38.5 -54.5q-30 -39 -55.5 -69.5t-62.5 -79.5q-45 -59 -81 -116.5t-52 -92.5h-111v129q0 66 -8 121t-17.5 106.5t-17.5 102.5
t-8 108q0 56 18.5 103t49 82.5t72.5 57t89 26.5l103 -82l104 82q27 -7 61.5 -20t65.5 -38.5t52.5 -64.5t21.5 -99v-352q37 -8 77.5 -26.5t77.5 -41t68 -46t51 -44.5v715h103v-706zM467 485q0 25 -17.5 42.5t-41.5 17.5q-25 0 -42.5 -17.5t-17.5 -42.5q0 -24 17.5 -41.5
t42.5 -17.5q24 0 41.5 17.5t17.5 41.5zM707 129q0 25 -17.5 42t-42.5 17q-24 0 -41.5 -17t-17.5 -42t17.5 -42t41.5 -17q25 0 42.5 17t17.5 42z" />
    <glyph glyph-name="nonenthai" unicode="&#xb3;" horiz-adv-x="1176" 
d="M1130 135q0 -59 -40.5 -100t-100.5 -41q-59 0 -100 41t-41 100q-29 -22 -70 -56t-76 -79h-129v586q0 43 -17 74.5t-44 53t-60.5 32t-66.5 10.5q-121 0 -195 -82q27 -10 66 -35t66 -53q-107 -37 -107 -144v-184q10 4 24.5 6t24.5 2q58 0 96.5 -40t38.5 -95q0 -57 -40 -99
t-99 -42q-67 0 -107 42t-40 107v305q0 54 25.5 92.5t60.5 49.5q-15 12 -34.5 23.5t-40 20.5t-37.5 16t-28 11q56 86 138 132.5t192 46.5q57 0 109.5 -15.5t91.5 -47.5t62.5 -79t23.5 -110v-486q22 23 55 49.5t71 53t77 48t71 30.5v540h103v-557q34 -18 55.5 -52t21.5 -75z
M1049 139q0 25 -17.5 42.5t-42.5 17.5q-24 0 -41.5 -17.5t-17.5 -42.5q0 -24 17.5 -41.5t41.5 -17.5q25 0 42.5 17.5t17.5 41.5zM324 131q0 25 -17.5 42t-42.5 17q-24 0 -41.5 -17t-17.5 -42t17.5 -42t41.5 -17q25 0 42.5 17t17.5 42z" />
    <glyph glyph-name="nonenthai" unicode="&#xe13;" horiz-adv-x="1176" 
d="M1130 135q0 -59 -40.5 -100t-100.5 -41q-59 0 -100 41t-41 100q-29 -22 -70 -56t-76 -79h-129v586q0 43 -17 74.5t-44 53t-60.5 32t-66.5 10.5q-121 0 -195 -82q27 -10 66 -35t66 -53q-107 -37 -107 -144v-184q10 4 24.5 6t24.5 2q58 0 96.5 -40t38.5 -95q0 -57 -40 -99
t-99 -42q-67 0 -107 42t-40 107v305q0 54 25.5 92.5t60.5 49.5q-15 12 -34.5 23.5t-40 20.5t-37.5 16t-28 11q56 86 138 132.5t192 46.5q57 0 109.5 -15.5t91.5 -47.5t62.5 -79t23.5 -110v-486q22 23 55 49.5t71 53t77 48t71 30.5v540h103v-557q34 -18 55.5 -52t21.5 -75z
M1049 139q0 25 -17.5 42.5t-42.5 17.5q-24 0 -41.5 -17.5t-17.5 -42.5q0 -24 17.5 -41.5t41.5 -17.5q25 0 42.5 17.5t17.5 41.5zM324 131q0 25 -17.5 42t-42.5 17q-24 0 -41.5 -17t-17.5 -42t17.5 -42t41.5 -17q25 0 42.5 17t17.5 42z" />
    <glyph glyph-name="dodekthai" unicode="&#xb4;" horiz-adv-x="815" 
d="M610 0v535q0 43 -12 81.5t-39 68.5t-65.5 49.5t-92.5 21.5q-98 4 -159.5 -56.5t-69.5 -146.5q-4 -49 4 -102.5t19.5 -104.5t20.5 -99t9 -91q13 22 36.5 55t45.5 61q23 27 38 45.5t30 34.5q-45 10 -75 48t-30 85q0 58 40 98t98 40q57 0 97 -40t40 -98q0 -43 -17.5 -72.5
t-38.5 -54.5q-30 -39 -55.5 -69.5t-62.5 -79.5q-45 -59 -81 -116.5t-52 -92.5h-111v119q0 57 -9 109.5t-20.5 103.5t-19.5 104t-8 111q0 57 22.5 110.5t65.5 93.5t104.5 62.5t140.5 22.5q74 0 131.5 -22.5t97.5 -61.5t60.5 -89.5t20.5 -107.5v-555h-103zM467 485
q0 25 -17.5 42.5t-41.5 17.5q-25 0 -42.5 -17.5t-17.5 -42.5q0 -24 17.5 -41.5t42.5 -17.5q24 0 41.5 17.5t17.5 41.5z" />
    <glyph glyph-name="dodekthai" unicode="&#xe14;" horiz-adv-x="815" 
d="M610 0v535q0 43 -12 81.5t-39 68.5t-65.5 49.5t-92.5 21.5q-98 4 -159.5 -56.5t-69.5 -146.5q-4 -49 4 -102.5t19.5 -104.5t20.5 -99t9 -91q13 22 36.5 55t45.5 61q23 27 38 45.5t30 34.5q-45 10 -75 48t-30 85q0 58 40 98t98 40q57 0 97 -40t40 -98q0 -43 -17.5 -72.5
t-38.5 -54.5q-30 -39 -55.5 -69.5t-62.5 -79.5q-45 -59 -81 -116.5t-52 -92.5h-111v119q0 57 -9 109.5t-20.5 103.5t-19.5 104t-8 111q0 57 22.5 110.5t65.5 93.5t104.5 62.5t140.5 22.5q74 0 131.5 -22.5t97.5 -61.5t60.5 -89.5t20.5 -107.5v-555h-103zM467 485
q0 25 -17.5 42.5t-41.5 17.5q-25 0 -42.5 -17.5t-17.5 -42.5q0 -24 17.5 -41.5t42.5 -17.5q24 0 41.5 17.5t17.5 41.5z" />
    <glyph glyph-name="totaothai" unicode="&#xb5;" horiz-adv-x="815" 
d="M610 0v598q0 70 -31.5 101.5t-60.5 43.5l-110 -94l-121 94q-51 -26 -79 -75.5t-28 -106.5q0 -39 7.5 -90t15.5 -105.5t15 -108.5t7 -99q19 28 38.5 56t43.5 58q23 29 38 46.5t30 33.5q-45 10 -75 48t-30 85q0 58 40 98t98 40q57 0 97 -40t40 -98q0 -43 -17.5 -72.5
t-38.5 -54.5q-30 -39 -55.5 -69.5t-62.5 -79.5q-45 -59 -81 -116.5t-52 -92.5h-111v129q0 66 -8 121t-17.5 106.5t-17.5 102.5t-8 108q0 56 18.5 103t49 82.5t72.5 57t89 26.5l103 -82l104 82q27 -7 61.5 -20t65.5 -38.5t52.5 -64.5t21.5 -99v-614h-103zM467 485
q0 25 -17.5 42.5t-41.5 17.5q-25 0 -42.5 -17.5t-17.5 -42.5q0 -24 17.5 -41.5t42.5 -17.5q24 0 41.5 17.5t17.5 41.5z" />
    <glyph glyph-name="totaothai" unicode="&#xe15;" horiz-adv-x="815" 
d="M610 0v598q0 70 -31.5 101.5t-60.5 43.5l-110 -94l-121 94q-51 -26 -79 -75.5t-28 -106.5q0 -39 7.5 -90t15.5 -105.5t15 -108.5t7 -99q19 28 38.5 56t43.5 58q23 29 38 46.5t30 33.5q-45 10 -75 48t-30 85q0 58 40 98t98 40q57 0 97 -40t40 -98q0 -43 -17.5 -72.5
t-38.5 -54.5q-30 -39 -55.5 -69.5t-62.5 -79.5q-45 -59 -81 -116.5t-52 -92.5h-111v129q0 66 -8 121t-17.5 106.5t-17.5 102.5t-8 108q0 56 18.5 103t49 82.5t72.5 57t89 26.5l103 -82l104 82q27 -7 61.5 -20t65.5 -38.5t52.5 -64.5t21.5 -99v-614h-103zM467 485
q0 25 -17.5 42.5t-41.5 17.5q-25 0 -42.5 -17.5t-17.5 -42.5q0 -24 17.5 -41.5t42.5 -17.5q24 0 41.5 17.5t17.5 41.5z" />
    <glyph glyph-name="thothungthai" unicode="&#xb6;" horiz-adv-x="778" 
d="M573 0v586q0 43 -17 74.5t-44 53t-60.5 32t-66.5 10.5q-121 0 -195 -82q27 -10 66 -35t66 -53q-107 -37 -107 -144v-184q10 4 24.5 6t24.5 2q58 0 96.5 -40t38.5 -95q0 -57 -40 -99t-99 -42q-67 0 -107 42t-40 107v305q0 54 25.5 92.5t60.5 49.5q-15 12 -34.5 23.5
t-40 20.5t-37.5 16t-28 11q56 86 138 132.5t192 46.5q57 0 109.5 -15.5t91.5 -47.5t62.5 -79t23.5 -110v-584h-103zM324 131q0 25 -17.5 42t-42.5 17q-24 0 -41.5 -17t-17.5 -42t17.5 -42t41.5 -17q25 0 42.5 17t17.5 42z" />
    <glyph glyph-name="thothungthai" unicode="&#xe16;" horiz-adv-x="778" 
d="M573 0v586q0 43 -17 74.5t-44 53t-60.5 32t-66.5 10.5q-121 0 -195 -82q27 -10 66 -35t66 -53q-107 -37 -107 -144v-184q10 4 24.5 6t24.5 2q58 0 96.5 -40t38.5 -95q0 -57 -40 -99t-99 -42q-67 0 -107 42t-40 107v305q0 54 25.5 92.5t60.5 49.5q-15 12 -34.5 23.5
t-40 20.5t-37.5 16t-28 11q56 86 138 132.5t192 46.5q57 0 109.5 -15.5t91.5 -47.5t62.5 -79t23.5 -110v-584h-103zM324 131q0 25 -17.5 42t-42.5 17q-24 0 -41.5 -17t-17.5 -42t17.5 -42t41.5 -17q25 0 42.5 17t17.5 42z" />
    <glyph glyph-name="thothahanthai" unicode="&#xb7;" horiz-adv-x="856" 
d="M651 0v621q0 55 -18.5 86.5t-57.5 31.5q-16 0 -24 -13t-12 -30l-222 -696h-112v561q-10 -4 -24.5 -6t-24.5 -2q-58 0 -97 40t-39 95q0 57 40 99t100 42q67 0 107 -42t40 -107v-281q0 -22 -3 -60t-7 -75q-6 -43 -10 -92h4q6 35 14 68q6 28 14.5 58t12.5 46l121 393
q28 92 129 92q73 0 122.5 -43t49.5 -145v-641h-103zM215 688q0 25 -17.5 42.5t-41.5 17.5q-25 0 -42.5 -17.5t-17.5 -42.5q0 -24 17.5 -41.5t42.5 -17.5q24 0 41.5 17.5t17.5 41.5z" />
    <glyph glyph-name="thothahanthai" unicode="&#xe17;" horiz-adv-x="856" 
d="M651 0v621q0 55 -18.5 86.5t-57.5 31.5q-16 0 -24 -13t-12 -30l-222 -696h-112v561q-10 -4 -24.5 -6t-24.5 -2q-58 0 -97 40t-39 95q0 57 40 99t100 42q67 0 107 -42t40 -107v-281q0 -22 -3 -60t-7 -75q-6 -43 -10 -92h4q6 35 14 68q6 28 14.5 58t12.5 46l121 393
q28 92 129 92q73 0 122.5 -43t49.5 -145v-641h-103zM215 688q0 25 -17.5 42.5t-41.5 17.5q-25 0 -42.5 -17.5t-17.5 -42.5q0 -24 17.5 -41.5t42.5 -17.5q24 0 41.5 17.5t17.5 41.5z" />
    <glyph glyph-name="thothongthai" unicode="&#xb8;" horiz-adv-x="727" 
d="M653 768q-28 -33 -57 -53.5t-70 -20.5q-28 0 -51.5 8.5t-46 19.5t-46.5 20.5t-54 9.5q-66 2 -102 -25t-50 -55q53 0 131 -5t137 -20q86 -20 133.5 -63t47.5 -117v-274q0 -99 -40 -146t-153 -47h-381v78q60 0 81.5 18.5t21.5 75.5v219q0 51 13 78t40 43h115
q-23 -14 -44.5 -44t-21.5 -77v-309h119q45 0 73.5 5t45 19.5t22.5 40t6 66.5v262q0 27 -17.5 46.5t-45 31.5t-61 19.5t-68.5 11.5q-72 8 -151 9t-138 1q27 104 98.5 173t196.5 69q29 0 54.5 -7.5t48 -16.5t40 -17.5t27.5 -8.5q22 0 37.5 11.5t31.5 27.5z" />
    <glyph glyph-name="thothongthai" unicode="&#xe18;" horiz-adv-x="727" 
d="M653 768q-28 -33 -57 -53.5t-70 -20.5q-28 0 -51.5 8.5t-46 19.5t-46.5 20.5t-54 9.5q-66 2 -102 -25t-50 -55q53 0 131 -5t137 -20q86 -20 133.5 -63t47.5 -117v-274q0 -99 -40 -146t-153 -47h-381v78q60 0 81.5 18.5t21.5 75.5v219q0 51 13 78t40 43h115
q-23 -14 -44.5 -44t-21.5 -77v-309h119q45 0 73.5 5t45 19.5t22.5 40t6 66.5v262q0 27 -17.5 46.5t-45 31.5t-61 19.5t-68.5 11.5q-72 8 -151 9t-138 1q27 104 98.5 173t196.5 69q29 0 54.5 -7.5t48 -16.5t40 -17.5t27.5 -8.5q22 0 37.5 11.5t31.5 27.5z" />
    <glyph glyph-name="nonuthai" unicode="&#xb9;" horiz-adv-x="889" 
d="M823 135q0 -59 -41 -100t-100 -41t-100 41t-41 100q0 10 1 18.5t3 18.5q-25 -6 -55.5 -21.5t-59.5 -39t-54.5 -52t-41.5 -59.5h-129v561q-10 -4 -24.5 -6t-24.5 -2q-58 0 -97 40t-39 95q0 57 40 99t100 42q67 0 107 -42t40 -107v-567q55 59 146.5 105t189.5 63v538h102
v-557q35 -18 56.5 -52t21.5 -75zM215 688q0 25 -17.5 42.5t-41.5 17.5q-25 0 -42.5 -17.5t-17.5 -42.5q0 -24 17.5 -41.5t42.5 -17.5q24 0 41.5 17.5t17.5 41.5zM741 139q0 25 -17 42.5t-42 17.5t-42 -17.5t-17 -42.5q0 -24 17 -41.5t42 -17.5t42 17.5t17 41.5z" />
    <glyph glyph-name="nonuthai" unicode="&#xe19;" horiz-adv-x="889" 
d="M823 135q0 -59 -41 -100t-100 -41t-100 41t-41 100q0 10 1 18.5t3 18.5q-25 -6 -55.5 -21.5t-59.5 -39t-54.5 -52t-41.5 -59.5h-129v561q-10 -4 -24.5 -6t-24.5 -2q-58 0 -97 40t-39 95q0 57 40 99t100 42q67 0 107 -42t40 -107v-567q55 59 146.5 105t189.5 63v538h102
v-557q35 -18 56.5 -52t21.5 -75zM215 688q0 25 -17.5 42.5t-41.5 17.5q-25 0 -42.5 -17.5t-17.5 -42.5q0 -24 17.5 -41.5t42.5 -17.5q24 0 41.5 17.5t17.5 41.5zM741 139q0 25 -17 42.5t-42 17.5t-42 -17.5t-17 -42.5q0 -24 17 -41.5t42 -17.5t42 17.5t17 41.5z" />
    <glyph glyph-name="bobaimaithai" unicode="&#xba;" horiz-adv-x="860" 
d="M758 193q0 -99 -40 -146t-153 -47h-463v78q60 0 81.5 18.5t21.5 75.5v389q-10 -4 -24.5 -6t-24.5 -2q-58 0 -97 40t-39 95q0 57 40 99t100 42q67 0 107 -42t40 -107v-598h201q45 0 73.5 5t45 19.5t22.5 40t6 66.5v606h103v-626zM215 688q0 25 -17.5 42.5t-41.5 17.5
q-25 0 -42.5 -17.5t-17.5 -42.5q0 -24 17.5 -41.5t42.5 -17.5q24 0 41.5 17.5t17.5 41.5z" />
    <glyph glyph-name="bobaimaithai" unicode="&#xe1a;" horiz-adv-x="860" 
d="M758 193q0 -99 -40 -146t-153 -47h-463v78q60 0 81.5 18.5t21.5 75.5v389q-10 -4 -24.5 -6t-24.5 -2q-58 0 -97 40t-39 95q0 57 40 99t100 42q67 0 107 -42t40 -107v-598h201q45 0 73.5 5t45 19.5t22.5 40t6 66.5v606h103v-626zM215 688q0 25 -17.5 42.5t-41.5 17.5
q-25 0 -42.5 -17.5t-17.5 -42.5q0 -24 17.5 -41.5t42.5 -17.5q24 0 41.5 17.5t17.5 41.5z" />
    <glyph glyph-name="poplathai" unicode="&#xbb;" horiz-adv-x="860" 
d="M758 193q0 -99 -40 -146t-153 -47h-463v78q60 0 81.5 18.5t21.5 75.5v389q-10 -4 -24.5 -6t-24.5 -2q-58 0 -97 40t-39 95q0 57 40 99t100 42q67 0 107 -42t40 -107v-598h201q45 0 73.5 5t45 19.5t22.5 40t6 66.5v913h103v-933zM215 688q0 25 -17.5 42.5t-41.5 17.5
q-25 0 -42.5 -17.5t-17.5 -42.5q0 -24 17.5 -41.5t42.5 -17.5q24 0 41.5 17.5t17.5 41.5z" />
    <glyph glyph-name="poplathai" unicode="&#xe1b;" horiz-adv-x="860" 
d="M758 193q0 -99 -40 -146t-153 -47h-463v78q60 0 81.5 18.5t21.5 75.5v389q-10 -4 -24.5 -6t-24.5 -2q-58 0 -97 40t-39 95q0 57 40 99t100 42q67 0 107 -42t40 -107v-598h201q45 0 73.5 5t45 19.5t22.5 40t6 66.5v913h103v-933zM215 688q0 25 -17.5 42.5t-41.5 17.5
q-25 0 -42.5 -17.5t-17.5 -42.5q0 -24 17.5 -41.5t42.5 -17.5q24 0 41.5 17.5t17.5 41.5z" />
    <glyph glyph-name="phophungthai" unicode="&#xbc;" horiz-adv-x="807" 
d="M705 127q0 -72 -27 -99.5t-74 -27.5h-35l-166 381l-165 -381h-136v680q0 65 40 107t108 42q59 0 99 -42t40 -99q0 -55 -39 -95t-96 -40q-10 0 -24.5 2t-24.5 6v-411l162 362h73l162 -362v669h103v-692zM313 688q0 25 -17 42.5t-42 17.5t-42 -17.5t-17 -42.5
q0 -24 17 -41.5t42 -17.5t42 17.5t17 41.5z" />
    <glyph glyph-name="phophungthai" unicode="&#xe1c;" horiz-adv-x="807" 
d="M705 127q0 -72 -27 -99.5t-74 -27.5h-35l-166 381l-165 -381h-136v680q0 65 40 107t108 42q59 0 99 -42t40 -99q0 -55 -39 -95t-96 -40q-10 0 -24.5 2t-24.5 6v-411l162 362h73l162 -362v669h103v-692zM313 688q0 25 -17 42.5t-42 17.5t-42 -17.5t-17 -42.5
q0 -24 17 -41.5t42 -17.5t42 17.5t17 41.5z" />
    <glyph glyph-name="fofathai" unicode="&#xbd;" horiz-adv-x="807" 
d="M705 127q0 -72 -27 -99.5t-74 -27.5h-35l-166 381l-165 -381h-136v680q0 65 40 107t108 42q59 0 99 -42t40 -99q0 -55 -39 -95t-96 -40q-10 0 -24.5 2t-24.5 6v-411l162 362h73l162 -362v976h103v-999zM313 688q0 25 -17 42.5t-42 17.5t-42 -17.5t-17 -42.5
q0 -24 17 -41.5t42 -17.5t42 17.5t17 41.5z" />
    <glyph glyph-name="fofathai" unicode="&#xe1d;" horiz-adv-x="807" 
d="M705 127q0 -72 -27 -99.5t-74 -27.5h-35l-166 381l-165 -381h-136v680q0 65 40 107t108 42q59 0 99 -42t40 -99q0 -55 -39 -95t-96 -40q-10 0 -24.5 2t-24.5 6v-411l162 362h73l162 -362v976h103v-999zM313 688q0 25 -17 42.5t-42 17.5t-42 -17.5t-17 -42.5
q0 -24 17 -41.5t42 -17.5t42 17.5t17 41.5z" />
    <glyph glyph-name="phophanthai" unicode="&#xbe;" horiz-adv-x="930" 
d="M827 127q0 -72 -26.5 -99.5t-73.5 -27.5h-35l-166 627q-4 10 -4 19t-2 16q-2 8 -2 14h-4q2 -6 0 -14q-2 -7 -3 -16t-5 -19l-174 -627h-133l6 561q-10 -4 -24.5 -6t-24.5 -2q-58 0 -97 40t-39 95q0 57 40 99t100 42q67 0 107 -42t40 -107l-6 -295q0 -20 -1 -59t-5 -78
q-4 -45 -6 -94h4q4 28 12 55q6 22 12.5 44.5t10.5 39.5l145 526h86l143 -528q5 -17 11 -40.5t10 -45.5q6 -25 10 -51h4q-2 49 -6 94q-4 39 -5 76.5t-1 60.5v434h102v-692zM215 688q0 25 -17.5 42.5t-41.5 17.5q-25 0 -42.5 -17.5t-17.5 -42.5q0 -24 17.5 -41.5t42.5 -17.5
q24 0 41.5 17.5t17.5 41.5z" />
    <glyph glyph-name="phophanthai" unicode="&#xe1e;" horiz-adv-x="930" 
d="M827 127q0 -72 -26.5 -99.5t-73.5 -27.5h-35l-166 627q-4 10 -4 19t-2 16q-2 8 -2 14h-4q2 -6 0 -14q-2 -7 -3 -16t-5 -19l-174 -627h-133l6 561q-10 -4 -24.5 -6t-24.5 -2q-58 0 -97 40t-39 95q0 57 40 99t100 42q67 0 107 -42t40 -107l-6 -295q0 -20 -1 -59t-5 -78
q-4 -45 -6 -94h4q4 28 12 55q6 22 12.5 44.5t10.5 39.5l145 526h86l143 -528q5 -17 11 -40.5t10 -45.5q6 -25 10 -51h4q-2 49 -6 94q-4 39 -5 76.5t-1 60.5v434h102v-692zM215 688q0 25 -17.5 42.5t-41.5 17.5q-25 0 -42.5 -17.5t-17.5 -42.5q0 -24 17.5 -41.5t42.5 -17.5
q24 0 41.5 17.5t17.5 41.5z" />
    <glyph glyph-name="fofanthai" unicode="&#xbf;" horiz-adv-x="930" 
d="M827 127q0 -72 -26.5 -99.5t-73.5 -27.5h-35l-166 627q-4 10 -4 19t-2 16q-2 8 -2 14h-4q2 -6 0 -14q-2 -7 -3 -16t-5 -19l-174 -627h-133l6 561q-10 -4 -24.5 -6t-24.5 -2q-58 0 -97 40t-39 95q0 57 40 99t100 42q67 0 107 -42t40 -107l-6 -295q0 -20 -1 -59t-5 -78
q-4 -45 -6 -94h4q4 28 12 55q6 22 12.5 44.5t10.5 39.5l145 526h86l143 -528q5 -17 11 -40.5t10 -45.5q6 -25 10 -51h4q-2 49 -6 94q-4 39 -5 76.5t-1 60.5v741h102v-999zM215 688q0 25 -17.5 42.5t-41.5 17.5q-25 0 -42.5 -17.5t-17.5 -42.5q0 -24 17.5 -41.5t42.5 -17.5
q24 0 41.5 17.5t17.5 41.5z" />
    <glyph glyph-name="fofanthai" unicode="&#xe1f;" horiz-adv-x="930" 
d="M827 127q0 -72 -26.5 -99.5t-73.5 -27.5h-35l-166 627q-4 10 -4 19t-2 16q-2 8 -2 14h-4q2 -6 0 -14q-2 -7 -3 -16t-5 -19l-174 -627h-133l6 561q-10 -4 -24.5 -6t-24.5 -2q-58 0 -97 40t-39 95q0 57 40 99t100 42q67 0 107 -42t40 -107l-6 -295q0 -20 -1 -59t-5 -78
q-4 -45 -6 -94h4q4 28 12 55q6 22 12.5 44.5t10.5 39.5l145 526h86l143 -528q5 -17 11 -40.5t10 -45.5q6 -25 10 -51h4q-2 49 -6 94q-4 39 -5 76.5t-1 60.5v741h102v-999zM215 688q0 25 -17.5 42.5t-41.5 17.5q-25 0 -42.5 -17.5t-17.5 -42.5q0 -24 17.5 -41.5t42.5 -17.5
q24 0 41.5 17.5t17.5 41.5z" />
    <glyph glyph-name="phosamphaothai" unicode="&#xc0;" horiz-adv-x="840" 
d="M635 0v586q0 43 -17.5 74.5t-44 53t-60.5 32t-67 10.5q-120 0 -194 -82q27 -10 65.5 -35t65.5 -53q-107 -37 -107 -144v-235q23 -31 23 -78q0 -57 -41 -98t-98 -41q-58 0 -99 41t-41 98t41 98t99 41h14v176q0 54 25.5 92.5t60.5 49.5q-14 12 -33.5 23.5t-40 20.5t-38 16
l-27.5 11q55 86 137 132.5t193 46.5q57 0 109 -15.5t91 -47.5t62.5 -79t23.5 -110v-584h-102zM219 129q0 25 -17.5 42t-41.5 17q-25 0 -42.5 -17t-17.5 -42t17.5 -42t42.5 -17q24 0 41.5 17t17.5 42z" />
    <glyph glyph-name="phosamphaothai" unicode="&#xe20;" horiz-adv-x="840" 
d="M635 0v586q0 43 -17.5 74.5t-44 53t-60.5 32t-67 10.5q-120 0 -194 -82q27 -10 65.5 -35t65.5 -53q-107 -37 -107 -144v-235q23 -31 23 -78q0 -57 -41 -98t-98 -41q-58 0 -99 41t-41 98t41 98t99 41h14v176q0 54 25.5 92.5t60.5 49.5q-14 12 -33.5 23.5t-40 20.5t-38 16
l-27.5 11q55 86 137 132.5t193 46.5q57 0 109 -15.5t91 -47.5t62.5 -79t23.5 -110v-584h-102zM219 129q0 25 -17.5 42t-41.5 17q-25 0 -42.5 -17t-17.5 -42t17.5 -42t42.5 -17q24 0 41.5 17t17.5 42z" />
    <glyph glyph-name="momathai" unicode="&#xc1;" horiz-adv-x="844" 
d="M741 113q0 -113 -94 -113h-35q-12 33 -37.5 72t-61.5 74.5t-79 64.5t-86 39v-125q0 -55 -36 -93t-97 -38t-108.5 45t-47.5 123q0 37 15.5 69.5t42 56t59.5 37t70 13.5v223q-10 -4 -24.5 -6t-24.5 -2q-58 0 -97 40t-39 95q0 57 40 99t100 42q67 0 107 -42t40 -107v-346
q33 -4 73 -21.5t80 -43t76.5 -59.5t61.5 -71v680h102v-706zM256 688q0 25 -17.5 42.5t-41.5 17.5q-25 0 -42.5 -17.5t-17.5 -42.5q0 -24 17.5 -41.5t42.5 -17.5q24 0 41.5 17.5t17.5 41.5zM246 250q-41 2 -66.5 -24.5t-27.5 -61.5q-2 -29 13 -53.5t42 -24.5q39 0 39 51v113z
" />
    <glyph glyph-name="momathai" unicode="&#xe21;" horiz-adv-x="844" 
d="M741 113q0 -113 -94 -113h-35q-12 33 -37.5 72t-61.5 74.5t-79 64.5t-86 39v-125q0 -55 -36 -93t-97 -38t-108.5 45t-47.5 123q0 37 15.5 69.5t42 56t59.5 37t70 13.5v223q-10 -4 -24.5 -6t-24.5 -2q-58 0 -97 40t-39 95q0 57 40 99t100 42q67 0 107 -42t40 -107v-346
q33 -4 73 -21.5t80 -43t76.5 -59.5t61.5 -71v680h102v-706zM256 688q0 25 -17.5 42.5t-41.5 17.5q-25 0 -42.5 -17.5t-17.5 -42.5q0 -24 17.5 -41.5t42.5 -17.5q24 0 41.5 17.5t17.5 41.5zM246 250q-41 2 -66.5 -24.5t-27.5 -61.5q-2 -29 13 -53.5t42 -24.5q39 0 39 51v113z
" />
    <glyph glyph-name="yoyakthai" unicode="&#xc2;" horiz-adv-x="778" 
d="M676 193q0 -99 -40 -146t-153 -47h-370v289q0 37 8 60.5t20.5 38.5t26.5 25.5t25 16.5q-39 10 -70 39t-31 82v129q0 65 40 107t108 42q59 0 99 -42t40 -99q0 -55 -39 -95t-96 -40q-11 0 -26 2t-23 6q0 -31 31.5 -60.5t103.5 -29.5h61v-82h-63q-60 0 -86.5 -28.5
t-26.5 -77.5v-201h211q45 0 73.5 5t45 19.5t22.5 40t6 66.5v606h103v-626zM303 688q0 25 -17.5 42.5t-41.5 17.5q-25 0 -42.5 -17.5t-17.5 -42.5q0 -24 17.5 -41.5t42.5 -17.5q24 0 41.5 17.5t17.5 41.5z" />
    <glyph glyph-name="yoyakthai" unicode="&#xe22;" horiz-adv-x="778" 
d="M676 193q0 -99 -40 -146t-153 -47h-370v289q0 37 8 60.5t20.5 38.5t26.5 25.5t25 16.5q-39 10 -70 39t-31 82v129q0 65 40 107t108 42q59 0 99 -42t40 -99q0 -55 -39 -95t-96 -40q-11 0 -26 2t-23 6q0 -31 31.5 -60.5t103.5 -29.5h61v-82h-63q-60 0 -86.5 -28.5
t-26.5 -77.5v-201h211q45 0 73.5 5t45 19.5t22.5 40t6 66.5v606h103v-626zM303 688q0 25 -17.5 42.5t-41.5 17.5q-25 0 -42.5 -17.5t-17.5 -42.5q0 -24 17.5 -41.5t42.5 -17.5q24 0 41.5 17.5t17.5 41.5z" />
    <glyph glyph-name="roruathai" unicode="&#xc3;" horiz-adv-x="686" 
d="M633 768q-29 -33 -57.5 -53.5t-69.5 -20.5q-29 0 -52.5 8.5t-46 19.5t-46 20.5t-54.5 9.5q-35 0 -60.5 -9.5t-44 -22.5t-29.5 -29.5t-17 -28.5q45 0 114.5 -3.5t137.5 -21.5q77 -23 116 -68t39 -123v-307q0 -65 -40 -107t-107 -42q-60 0 -100 42t-40 99q0 55 39 95t97 40
q10 0 24.5 -2t24.5 -6v197q0 57 -53.5 87.5t-120.5 39.5q-72 8 -144.5 8h-122.5q29 106 99.5 176t195.5 70q29 0 54.5 -7.5t48 -16.5t40 -17.5t27.5 -8.5q23 0 38.5 11.5t31.5 27.5zM471 131q0 25 -17.5 42t-41.5 17q-25 0 -42.5 -17t-17.5 -42t17.5 -42t42.5 -17
q24 0 41.5 17t17.5 42z" />
    <glyph glyph-name="roruathai" unicode="&#xe23;" horiz-adv-x="686" 
d="M633 768q-29 -33 -57.5 -53.5t-69.5 -20.5q-29 0 -52.5 8.5t-46 19.5t-46 20.5t-54.5 9.5q-35 0 -60.5 -9.5t-44 -22.5t-29.5 -29.5t-17 -28.5q45 0 114.5 -3.5t137.5 -21.5q77 -23 116 -68t39 -123v-307q0 -65 -40 -107t-107 -42q-60 0 -100 42t-40 99q0 55 39 95t97 40
q10 0 24.5 -2t24.5 -6v197q0 57 -53.5 87.5t-120.5 39.5q-72 8 -144.5 8h-122.5q29 106 99.5 176t195.5 70q29 0 54.5 -7.5t48 -16.5t40 -17.5t27.5 -8.5q23 0 38.5 11.5t31.5 27.5zM471 131q0 25 -17.5 42t-41.5 17q-25 0 -42.5 -17t-17.5 -42t17.5 -42t42.5 -17
q24 0 41.5 17t17.5 42z" />
    <glyph glyph-name="ruthai" unicode="&#xc4;" horiz-adv-x="778" 
d="M573 -307v893q0 43 -17 74.5t-44 53t-60.5 32t-66.5 10.5q-121 0 -195 -82q27 -10 66 -35t66 -53q-107 -37 -107 -144v-184q10 4 24.5 6t24.5 2q58 0 96.5 -40t38.5 -95q0 -57 -40 -99t-99 -42q-67 0 -107 42t-40 107v305q0 54 25.5 92.5t60.5 49.5q-15 12 -34.5 23.5
t-40 20.5t-37.5 16t-28 11q56 86 138 132.5t192 46.5q57 0 109.5 -15.5t91.5 -47.5t62.5 -79t23.5 -110v-891h-103zM324 131q0 25 -17.5 42t-42.5 17q-24 0 -41.5 -17t-17.5 -42t17.5 -42t41.5 -17q25 0 42.5 17t17.5 42z" />
    <glyph glyph-name="ruthai" unicode="&#xe24;" horiz-adv-x="778" 
d="M573 -307v893q0 43 -17 74.5t-44 53t-60.5 32t-66.5 10.5q-121 0 -195 -82q27 -10 66 -35t66 -53q-107 -37 -107 -144v-184q10 4 24.5 6t24.5 2q58 0 96.5 -40t38.5 -95q0 -57 -40 -99t-99 -42q-67 0 -107 42t-40 107v305q0 54 25.5 92.5t60.5 49.5q-15 12 -34.5 23.5
t-40 20.5t-37.5 16t-28 11q56 86 138 132.5t192 46.5q57 0 109.5 -15.5t91.5 -47.5t62.5 -79t23.5 -110v-891h-103zM324 131q0 25 -17.5 42t-42.5 17q-24 0 -41.5 -17t-17.5 -42t17.5 -42t41.5 -17q25 0 42.5 17t17.5 42z" />
    <glyph glyph-name="lolingthai" unicode="&#xc5;" horiz-adv-x="799" 
d="M592 0l-201 449q-10 24 -36.5 42.5t-63.5 12.5q-35 -6 -54.5 -30.5t-19.5 -61.5v-154q10 4 24.5 6t24.5 2q58 0 96.5 -40t38.5 -95q0 -57 -39.5 -99t-99.5 -42q-67 0 -107 42t-40 107v283q0 70 43 109.5t94 50.5q74 16 135.5 -5.5t87.5 -80.5l119 -275v365
q0 73 -58.5 121.5t-140.5 48.5t-140 -38t-83 -104h-106q34 111 124.5 166.5t210.5 55.5q62 0 115 -16.5t93 -46.5t63.5 -73t23.5 -96v-604h-104zM326 131q0 25 -17.5 42t-42.5 17q-24 0 -41.5 -17t-17.5 -42t17.5 -42t41.5 -17q25 0 42.5 17t17.5 42z" />
    <glyph glyph-name="lolingthai" unicode="&#xe25;" horiz-adv-x="799" 
d="M592 0l-201 449q-10 24 -36.5 42.5t-63.5 12.5q-35 -6 -54.5 -30.5t-19.5 -61.5v-154q10 4 24.5 6t24.5 2q58 0 96.5 -40t38.5 -95q0 -57 -39.5 -99t-99.5 -42q-67 0 -107 42t-40 107v283q0 70 43 109.5t94 50.5q74 16 135.5 -5.5t87.5 -80.5l119 -275v365
q0 73 -58.5 121.5t-140.5 48.5t-140 -38t-83 -104h-106q34 111 124.5 166.5t210.5 55.5q62 0 115 -16.5t93 -46.5t63.5 -73t23.5 -96v-604h-104zM326 131q0 25 -17.5 42t-42.5 17q-24 0 -41.5 -17t-17.5 -42t17.5 -42t41.5 -17q25 0 42.5 17t17.5 42z" />
    <glyph glyph-name="luthai" unicode="&#xc6;" horiz-adv-x="840" 
d="M635 -307v893q0 43 -17.5 74.5t-44 53t-60.5 32t-67 10.5q-120 0 -194 -82q27 -10 65.5 -35t65.5 -53q-107 -37 -107 -144v-235q23 -31 23 -78q0 -57 -41 -98t-98 -41q-58 0 -99 41t-41 98t41 98t99 41h14v176q0 54 25.5 92.5t60.5 49.5q-14 12 -33.5 23.5t-40 20.5
t-38 16l-27.5 11q55 86 137 132.5t193 46.5q57 0 109 -15.5t91 -47.5t62.5 -79t23.5 -110v-891h-102zM219 129q0 25 -17.5 42t-41.5 17q-25 0 -42.5 -17t-17.5 -42t17.5 -42t42.5 -17q24 0 41.5 17t17.5 42z" />
    <glyph glyph-name="luthai" unicode="&#xe26;" horiz-adv-x="840" 
d="M635 -307v893q0 43 -17.5 74.5t-44 53t-60.5 32t-67 10.5q-120 0 -194 -82q27 -10 65.5 -35t65.5 -53q-107 -37 -107 -144v-235q23 -31 23 -78q0 -57 -41 -98t-98 -41q-58 0 -99 41t-41 98t41 98t99 41h14v176q0 54 25.5 92.5t60.5 49.5q-14 12 -33.5 23.5t-40 20.5
t-38 16l-27.5 11q55 86 137 132.5t193 46.5q57 0 109 -15.5t91 -47.5t62.5 -79t23.5 -110v-891h-102zM219 129q0 25 -17.5 42t-41.5 17q-25 0 -42.5 -17t-17.5 -42t17.5 -42t42.5 -17q24 0 41.5 17t17.5 42z" />
    <glyph glyph-name="wowaenthai" unicode="&#xc7;" horiz-adv-x="733" 
d="M631 139q0 -65 -40 -107t-108 -42q-59 0 -99 42t-40 99q0 55 39 95t96 40q10 0 24.5 -2t24.5 -6v328q0 73 -54 121.5t-134 48.5q-78 0 -133 -37t-80 -105h-107q35 111 122 166.5t204 55.5q60 0 111 -16.5t90 -46.5t61.5 -73t22.5 -96v-465zM539 131q0 25 -17.5 42
t-42.5 17q-24 0 -41.5 -17t-17.5 -42t17.5 -42t41.5 -17q25 0 42.5 17t17.5 42z" />
    <glyph glyph-name="wowaenthai" unicode="&#xe27;" horiz-adv-x="733" 
d="M631 139q0 -65 -40 -107t-108 -42q-59 0 -99 42t-40 99q0 55 39 95t96 40q10 0 24.5 -2t24.5 -6v328q0 73 -54 121.5t-134 48.5q-78 0 -133 -37t-80 -105h-107q35 111 122 166.5t204 55.5q60 0 111 -16.5t90 -46.5t61.5 -73t22.5 -96v-465zM539 131q0 25 -17.5 42
t-42.5 17q-24 0 -41.5 -17t-17.5 -42t17.5 -42t41.5 -17q25 0 42.5 17t17.5 42z" />
    <glyph glyph-name="sosalathai" unicode="&#xc8;" horiz-adv-x="856" 
d="M795 850q-27 -39 -70 -62.5t-88 -31.5q76 -70 76 -181v-575h-103v535q0 40 -13 80t-39 71t-65.5 50.5t-95.5 19.5q-53 0 -94 -16.5t-69.5 -46t-44 -67.5t-17.5 -79q-2 -60 11.5 -121t23.5 -127q2 -8 2 -26.5t-2 -41.5q-2 -24 -4 -53h4q0 12 2 29.5t3 36t3 35t4 22.5
q6 29 14.5 60.5t17.5 63.5t18.5 59.5t17.5 43.5q22 47 54 71t81 24q57 0 97 -40t40 -98q0 -57 -40 -97t-97 -40q-27 0 -50.5 9.5t-39.5 23.5q-13 -35 -27 -86t-27.5 -105.5t-24.5 -104.5t-17 -85h-109v129q0 64 -9 116t-19.5 99t-19.5 96t-9 107q0 57 23.5 109.5t66.5 92
t104.5 63.5t138.5 24q43 0 88.5 -10.5t67.5 -14.5q39 -8 78 23.5t59 76.5zM481 485q0 25 -17.5 42.5t-41.5 17.5q-25 0 -42.5 -17.5t-17.5 -42.5q0 -24 17.5 -41.5t42.5 -17.5q24 0 41.5 17.5t17.5 41.5z" />
    <glyph glyph-name="sosalathai" unicode="&#xe28;" horiz-adv-x="856" 
d="M795 850q-27 -39 -70 -62.5t-88 -31.5q76 -70 76 -181v-575h-103v535q0 40 -13 80t-39 71t-65.5 50.5t-95.5 19.5q-53 0 -94 -16.5t-69.5 -46t-44 -67.5t-17.5 -79q-2 -60 11.5 -121t23.5 -127q2 -8 2 -26.5t-2 -41.5q-2 -24 -4 -53h4q0 12 2 29.5t3 36t3 35t4 22.5
q6 29 14.5 60.5t17.5 63.5t18.5 59.5t17.5 43.5q22 47 54 71t81 24q57 0 97 -40t40 -98q0 -57 -40 -97t-97 -40q-27 0 -50.5 9.5t-39.5 23.5q-13 -35 -27 -86t-27.5 -105.5t-24.5 -104.5t-17 -85h-109v129q0 64 -9 116t-19.5 99t-19.5 96t-9 107q0 57 23.5 109.5t66.5 92
t104.5 63.5t138.5 24q43 0 88.5 -10.5t67.5 -14.5q39 -8 78 23.5t59 76.5zM481 485q0 25 -17.5 42.5t-41.5 17.5q-25 0 -42.5 -17.5t-17.5 -42.5q0 -24 17.5 -41.5t42.5 -17.5q24 0 41.5 17.5t17.5 41.5z" />
    <glyph glyph-name="sorusithai" unicode="&#xc9;" horiz-adv-x="881" 
d="M870 471q-24 -25 -53 -47.5t-59 -38.5v-192q0 -99 -40 -146t-153 -47h-463v78q60 0 81.5 18.5t21.5 75.5v389q-10 -4 -24.5 -6t-24.5 -2q-58 0 -97 40t-39 95q0 57 40 99t100 42q67 0 107 -42t40 -107v-598h201q45 0 73.5 5t45 19.5t22.5 40t6 66.5v119q-26 -13 -68 -24
t-83 -9q-60 2 -105 37t-45 96q0 53 36 89t89 36t89 -36t36 -89q0 -22 -6 -41q12 4 29.5 11.5t27.5 15.5v401h103v-342q16 12 30.5 25.5t26.5 29.5zM528 432q0 21 -14 35t-35 14q-20 0 -34.5 -14t-14.5 -35q0 -20 14.5 -34.5t34.5 -14.5q21 0 35 14.5t14 34.5zM215 688
q0 25 -17.5 42.5t-41.5 17.5q-25 0 -42.5 -17.5t-17.5 -42.5q0 -24 17.5 -41.5t42.5 -17.5q24 0 41.5 17.5t17.5 41.5z" />
    <glyph glyph-name="sorusithai" unicode="&#xe29;" horiz-adv-x="881" 
d="M870 471q-24 -25 -53 -47.5t-59 -38.5v-192q0 -99 -40 -146t-153 -47h-463v78q60 0 81.5 18.5t21.5 75.5v389q-10 -4 -24.5 -6t-24.5 -2q-58 0 -97 40t-39 95q0 57 40 99t100 42q67 0 107 -42t40 -107v-598h201q45 0 73.5 5t45 19.5t22.5 40t6 66.5v119q-26 -13 -68 -24
t-83 -9q-60 2 -105 37t-45 96q0 53 36 89t89 36t89 -36t36 -89q0 -22 -6 -41q12 4 29.5 11.5t27.5 15.5v401h103v-342q16 12 30.5 25.5t26.5 29.5zM528 432q0 21 -14 35t-35 14q-20 0 -34.5 -14t-14.5 -35q0 -20 14.5 -34.5t34.5 -14.5q21 0 35 14.5t14 34.5zM215 688
q0 25 -17.5 42.5t-41.5 17.5q-25 0 -42.5 -17.5t-17.5 -42.5q0 -24 17.5 -41.5t42.5 -17.5q24 0 41.5 17.5t17.5 41.5z" />
    <glyph glyph-name="sosuathai" unicode="&#xca;" horiz-adv-x="840" 
d="M793 850q-27 -39 -70 -63.5t-88 -32.5q61 -62 61 -150v-604h-104l-201 449q-10 24 -36.5 42.5t-63.5 12.5q-35 -6 -54.5 -30.5t-19.5 -61.5v-154q10 4 24.5 6t24.5 2q58 0 96.5 -40t38.5 -95q0 -57 -39.5 -99t-99.5 -42q-67 0 -107 42t-40 107v283q0 70 43 109.5t94 50.5
q74 16 135.5 -5.5t87.5 -80.5l119 -275v365q0 73 -58.5 121.5t-140.5 48.5t-140 -38t-83 -104h-106q34 111 124.5 166.5t210.5 55.5q56 0 95 -10.5t61 -16.5q37 -10 77 23.5t60 78.5zM326 131q0 25 -17.5 42t-42.5 17q-24 0 -41.5 -17t-17.5 -42t17.5 -42t41.5 -17
q25 0 42.5 17t17.5 42z" />
    <glyph glyph-name="sosuathai" unicode="&#xe2a;" horiz-adv-x="840" 
d="M793 850q-27 -39 -70 -63.5t-88 -32.5q61 -62 61 -150v-604h-104l-201 449q-10 24 -36.5 42.5t-63.5 12.5q-35 -6 -54.5 -30.5t-19.5 -61.5v-154q10 4 24.5 6t24.5 2q58 0 96.5 -40t38.5 -95q0 -57 -39.5 -99t-99.5 -42q-67 0 -107 42t-40 107v283q0 70 43 109.5t94 50.5
q74 16 135.5 -5.5t87.5 -80.5l119 -275v365q0 73 -58.5 121.5t-140.5 48.5t-140 -38t-83 -104h-106q34 111 124.5 166.5t210.5 55.5q56 0 95 -10.5t61 -16.5q37 -10 77 23.5t60 78.5zM326 131q0 25 -17.5 42t-42.5 17q-24 0 -41.5 -17t-17.5 -42t17.5 -42t41.5 -17
q25 0 42.5 17t17.5 42z" />
    <glyph glyph-name="hohipthai" unicode="&#xcb;" horiz-adv-x="866" 
d="M784 696q0 -37 -18 -67.5t-47 -50.5q16 -17 30.5 -42.5t14.5 -76.5v-459h-102v459q0 35 -13.5 68.5t-40.5 33.5q-18 0 -40.5 -16.5t-44 -41t-42 -53t-35.5 -53.5q-20 -39 -41.5 -89t-40 -103t-33 -106.5t-20.5 -98.5h-106v561q-10 -4 -24.5 -6t-24.5 -2q-58 0 -97 40
t-39 95q0 57 40 99t100 42q67 0 107 -42t40 -107v-324q0 -14 -4 -42.5t-8 -57.5q-6 -35 -14 -72h2q8 39 16 72q6 29 13 55.5t12 34.5q14 35 35.5 74t49 77t59.5 69.5t64 49.5q-12 15 -19 36.5t-7 43.5q0 58 41 99t98 41t98 -41t41 -99zM707 694q0 25 -17.5 42.5t-42.5 17.5
q-24 0 -41.5 -17.5t-17.5 -42.5q0 -24 17.5 -41.5t41.5 -17.5q25 0 42.5 17.5t17.5 41.5zM215 688q0 25 -17.5 42.5t-41.5 17.5q-25 0 -42.5 -17.5t-17.5 -42.5q0 -24 17.5 -41.5t42.5 -17.5q24 0 41.5 17.5t17.5 41.5z" />
    <glyph glyph-name="hohipthai" unicode="&#xe2b;" horiz-adv-x="866" 
d="M784 696q0 -37 -18 -67.5t-47 -50.5q16 -17 30.5 -42.5t14.5 -76.5v-459h-102v459q0 35 -13.5 68.5t-40.5 33.5q-18 0 -40.5 -16.5t-44 -41t-42 -53t-35.5 -53.5q-20 -39 -41.5 -89t-40 -103t-33 -106.5t-20.5 -98.5h-106v561q-10 -4 -24.5 -6t-24.5 -2q-58 0 -97 40
t-39 95q0 57 40 99t100 42q67 0 107 -42t40 -107v-324q0 -14 -4 -42.5t-8 -57.5q-6 -35 -14 -72h2q8 39 16 72q6 29 13 55.5t12 34.5q14 35 35.5 74t49 77t59.5 69.5t64 49.5q-12 15 -19 36.5t-7 43.5q0 58 41 99t98 41t98 -41t41 -99zM707 694q0 25 -17.5 42.5t-42.5 17.5
q-24 0 -41.5 -17.5t-17.5 -42.5q0 -24 17.5 -41.5t41.5 -17.5q25 0 42.5 17.5t17.5 41.5zM215 688q0 25 -17.5 42.5t-41.5 17.5q-25 0 -42.5 -17.5t-17.5 -42.5q0 -24 17.5 -41.5t42.5 -17.5q24 0 41.5 17.5t17.5 41.5z" />
    <glyph glyph-name="lochulathai" unicode="&#xcc;" horiz-adv-x="930" 
d="M887 901q-27 -55 -76 -100q16 -49 16 -99v-575q0 -72 -26.5 -99.5t-73.5 -27.5h-35l-176 487l-180 -487h-135l4 561q-10 -4 -24.5 -6t-24.5 -2q-58 0 -97 40t-39 95q0 57 40 99t100 42q67 0 107 -42t40 -107l-4 -504l166 438h94l162 -438v492q0 32 -6 63
q-39 -22 -79 -32.5t-77 -12.5q-82 -4 -141.5 34t-59.5 99q0 29 16.5 54.5t45.5 44t66.5 29.5t82.5 9q64 -2 112 -23.5t81 -55.5q27 32 41 67zM690 807q-20 31 -50 50.5t-77 21.5q-45 0 -72.5 -17.5t-29.5 -40.5q-2 -28 34.5 -42.5t73.5 -12.5q62 2 121 41zM215 688
q0 25 -17.5 42.5t-41.5 17.5q-25 0 -42.5 -17.5t-17.5 -42.5q0 -24 17.5 -41.5t42.5 -17.5q24 0 41.5 17.5t17.5 41.5z" />
    <glyph glyph-name="lochulathai" unicode="&#xe2c;" horiz-adv-x="930" 
d="M887 901q-27 -55 -76 -100q16 -49 16 -99v-575q0 -72 -26.5 -99.5t-73.5 -27.5h-35l-176 487l-180 -487h-135l4 561q-10 -4 -24.5 -6t-24.5 -2q-58 0 -97 40t-39 95q0 57 40 99t100 42q67 0 107 -42t40 -107l-4 -504l166 438h94l162 -438v492q0 32 -6 63
q-39 -22 -79 -32.5t-77 -12.5q-82 -4 -141.5 34t-59.5 99q0 29 16.5 54.5t45.5 44t66.5 29.5t82.5 9q64 -2 112 -23.5t81 -55.5q27 32 41 67zM690 807q-20 31 -50 50.5t-77 21.5q-45 0 -72.5 -17.5t-29.5 -40.5q-2 -28 34.5 -42.5t73.5 -12.5q62 2 121 41zM215 688
q0 25 -17.5 42.5t-41.5 17.5q-25 0 -42.5 -17.5t-17.5 -42.5q0 -24 17.5 -41.5t42.5 -17.5q24 0 41.5 17.5t17.5 41.5z" />
    <glyph glyph-name="oangthai" unicode="&#xcd;" horiz-adv-x="791" 
d="M688 193q0 -99 -40 -146t-152 -47h-377v434q0 66 40 108t107 42q60 0 100 -42t40 -100q0 -55 -39 -95t-97 -40q-10 0 -24.5 2t-24.5 6v-233h217q45 0 74 5t45 19.5t22.5 40t6.5 66.5v373q0 73 -58.5 121.5t-140.5 48.5q-80 0 -139.5 -37t-83.5 -105h-107
q35 105 122 163.5t214 58.5q60 0 113 -16.5t94 -46.5t64.5 -73t23.5 -96v-411zM330 442q0 25 -17.5 42.5t-42.5 17.5q-24 0 -41.5 -17.5t-17.5 -42.5q0 -24 17.5 -41.5t41.5 -17.5q25 0 42.5 17.5t17.5 41.5z" />
    <glyph glyph-name="oangthai" unicode="&#xe2d;" horiz-adv-x="791" 
d="M688 193q0 -99 -40 -146t-152 -47h-377v434q0 66 40 108t107 42q60 0 100 -42t40 -100q0 -55 -39 -95t-97 -40q-10 0 -24.5 2t-24.5 6v-233h217q45 0 74 5t45 19.5t22.5 40t6.5 66.5v373q0 73 -58.5 121.5t-140.5 48.5q-80 0 -139.5 -37t-83.5 -105h-107
q35 105 122 163.5t214 58.5q60 0 113 -16.5t94 -46.5t64.5 -73t23.5 -96v-411zM330 442q0 25 -17.5 42.5t-42.5 17.5q-24 0 -41.5 -17.5t-17.5 -42.5q0 -24 17.5 -41.5t41.5 -17.5q25 0 42.5 17.5t17.5 41.5z" />
    <glyph glyph-name="honokhukthai" unicode="&#xce;" horiz-adv-x="782" 
d="M737 786q-16 -28 -34.5 -51.5t-43.5 -48.5q19 -37 19 -82v-411q0 -99 -40 -146t-153 -47h-376v373q0 65 39.5 107t107.5 42q59 0 99 -42t40 -99q0 -55 -39 -95t-96 -40q-10 0 -24.5 2t-24.5 6v-172h217q45 0 73.5 5t45 19.5t22.5 40t6 66.5v373q0 22 -4 35
q-47 -29 -99 -44.5t-107 -21.5q-43 -4 -92.5 0t-89.5 18.5t-66.5 39t-26.5 61.5t23.5 66.5t63.5 51t92.5 34t111.5 10.5q63 -2 121.5 -21.5t99.5 -54.5q16 20 30.5 42.5t24.5 47.5zM530 696q-55 56 -147 60q-78 4 -133 -19.5t-55 -56.5q0 -14 15 -25.5t38.5 -17.5t52.5 -7
t55 1q43 4 88 20.5t86 44.5zM319 381q0 25 -17 42t-42 17q-24 0 -41.5 -17t-17.5 -42t17.5 -42t41.5 -17q25 0 42 17t17 42z" />
    <glyph glyph-name="honokhukthai" unicode="&#xe2e;" horiz-adv-x="782" 
d="M737 786q-16 -28 -34.5 -51.5t-43.5 -48.5q19 -37 19 -82v-411q0 -99 -40 -146t-153 -47h-376v373q0 65 39.5 107t107.5 42q59 0 99 -42t40 -99q0 -55 -39 -95t-96 -40q-10 0 -24.5 2t-24.5 6v-172h217q45 0 73.5 5t45 19.5t22.5 40t6 66.5v373q0 22 -4 35
q-47 -29 -99 -44.5t-107 -21.5q-43 -4 -92.5 0t-89.5 18.5t-66.5 39t-26.5 61.5t23.5 66.5t63.5 51t92.5 34t111.5 10.5q63 -2 121.5 -21.5t99.5 -54.5q16 20 30.5 42.5t24.5 47.5zM530 696q-55 56 -147 60q-78 4 -133 -19.5t-55 -56.5q0 -14 15 -25.5t38.5 -17.5t52.5 -7
t55 1q43 4 88 20.5t86 44.5zM319 381q0 25 -17 42t-42 17q-24 0 -41.5 -17t-17.5 -42t17.5 -42t41.5 -17q25 0 42 17t17 42z" />
    <glyph glyph-name="paiyannoithai" unicode="&#xcf;" horiz-adv-x="748" 
d="M553 0v637q-23 -29 -54.5 -51.5t-66.5 -36.5t-70.5 -21.5t-66.5 -7.5q-43 0 -82 12.5t-68.5 35t-47 54t-17.5 70.5q0 58 40 97.5t97 39.5t97 -39.5t40 -97.5q0 -51 -28 -84q28 0 64 14.5t70 42t59.5 66.5t31.5 88h24q46 0 63 -33.5t17 -83.5v-702h-102zM279 692
q0 25 -17.5 42.5t-42.5 17.5q-24 0 -41.5 -17.5t-17.5 -42.5q0 -24 17.5 -41.5t41.5 -17.5q25 0 42.5 17.5t17.5 41.5z" />
    <glyph glyph-name="paiyannoithai" unicode="&#xe2f;" horiz-adv-x="748" 
d="M553 0v637q-23 -29 -54.5 -51.5t-66.5 -36.5t-70.5 -21.5t-66.5 -7.5q-43 0 -82 12.5t-68.5 35t-47 54t-17.5 70.5q0 58 40 97.5t97 39.5t97 -39.5t40 -97.5q0 -51 -28 -84q28 0 64 14.5t70 42t59.5 66.5t31.5 88h24q46 0 63 -33.5t17 -83.5v-702h-102zM279 692
q0 25 -17.5 42.5t-42.5 17.5q-24 0 -41.5 -17.5t-17.5 -42.5q0 -24 17.5 -41.5t41.5 -17.5q25 0 42.5 17.5t17.5 41.5z" />
    <glyph glyph-name="saraathai" unicode="&#xd0;" horiz-adv-x="758" 
d="M655 766q-8 -61 -39.5 -107.5t-77.5 -79t-100.5 -49t-103.5 -16.5q-51 0 -97.5 13.5t-80 36t-54 55t-20.5 69.5q-2 55 36 93t91 38q51 0 87 -35.5t36 -87.5q0 -55 -43 -92q37 -8 79 -3t80.5 24.5t67.5 54.5t37 86h102zM655 252q-8 -62 -39.5 -108t-77.5 -78.5t-100.5 -49
t-103.5 -16.5q-51 0 -97.5 13.5t-80 36t-54 55t-20.5 69.5q-2 55 36 93t91 38q51 0 87 -36t36 -87q0 -55 -43 -92q37 -8 79 -3t80.5 24.5t67.5 54.5t37 86h102zM260 696q0 23 -14.5 37.5t-36.5 14.5q-23 0 -37 -14.5t-14 -37.5q0 -22 14 -36.5t37 -14.5q22 0 36.5 14.5
t14.5 36.5zM260 182q0 23 -14.5 37t-36.5 14q-23 0 -37 -14t-14 -37q0 -22 14 -36.5t37 -14.5q22 0 36.5 14.5t14.5 36.5z" />
    <glyph glyph-name="saraathai" unicode="&#xe30;" horiz-adv-x="758" 
d="M655 766q-8 -61 -39.5 -107.5t-77.5 -79t-100.5 -49t-103.5 -16.5q-51 0 -97.5 13.5t-80 36t-54 55t-20.5 69.5q-2 55 36 93t91 38q51 0 87 -35.5t36 -87.5q0 -55 -43 -92q37 -8 79 -3t80.5 24.5t67.5 54.5t37 86h102zM655 252q-8 -62 -39.5 -108t-77.5 -78.5t-100.5 -49
t-103.5 -16.5q-51 0 -97.5 13.5t-80 36t-54 55t-20.5 69.5q-2 55 36 93t91 38q51 0 87 -36t36 -87q0 -55 -43 -92q37 -8 79 -3t80.5 24.5t67.5 54.5t37 86h102zM260 696q0 23 -14.5 37.5t-36.5 14.5q-23 0 -37 -14.5t-14 -37.5q0 -22 14 -36.5t37 -14.5q22 0 36.5 14.5
t14.5 36.5zM260 182q0 23 -14.5 37t-36.5 14q-23 0 -37 -14t-14 -37q0 -22 14 -36.5t37 -14.5q22 0 36.5 14.5t14.5 36.5z" />
    <glyph glyph-name="maihanakatthai" unicode="&#xd1;" 
d="M123 1192q-8 -62 -40 -112t-78 -86t-105.5 -54t-122.5 -18q-53 0 -98.5 13t-79 35.5t-54 55.5t-20.5 70q-2 55 36 93t91 38q51 0 87 -36t36 -87q0 -55 -43 -92q43 -11 90 -4.5t88 28t71.5 60.5t36.5 96h105zM-297 1104q0 22 -14.5 36.5t-36.5 14.5q-23 0 -37 -14.5
t-14 -36.5q0 -23 14 -37t37 -14q22 0 36.5 14t14.5 37z" />
    <glyph glyph-name="maihanakatthai" unicode="&#xe31;" 
d="M123 1192q-8 -62 -40 -112t-78 -86t-105.5 -54t-122.5 -18q-53 0 -98.5 13t-79 35.5t-54 55.5t-20.5 70q-2 55 36 93t91 38q51 0 87 -36t36 -87q0 -55 -43 -92q43 -11 90 -4.5t88 28t71.5 60.5t36.5 96h105zM-297 1104q0 22 -14.5 36.5t-36.5 14.5q-23 0 -37 -14.5
t-14 -36.5q0 -23 14 -37t37 -14q22 0 36.5 14t14.5 37z" />
    <glyph glyph-name="saraaathai" unicode="&#xd2;" horiz-adv-x="672" 
d="M467 0v586q0 73 -42 121.5t-120 48.5q-67 0 -112.5 -38t-65.5 -104h-107q23 95 100 158.5t187 63.5q117 0 189.5 -62.5t72.5 -169.5v-604h-102z" />
    <glyph glyph-name="saraaathai" unicode="&#xe32;" horiz-adv-x="672" 
d="M467 0v586q0 73 -42 121.5t-120 48.5q-67 0 -112.5 -38t-65.5 -104h-107q23 95 100 158.5t187 63.5q117 0 189.5 -62.5t72.5 -169.5v-604h-102z" />
    <glyph glyph-name="saraamthai" unicode="&#xd3;" horiz-adv-x="672" 
d="M-260 1069q0 -65 -45 -110.5t-111 -45.5q-65 0 -110 45.5t-45 110.5q0 66 45 111t110 45q66 0 111 -45t45 -111zM467 0v586q0 73 -42 121.5t-120 48.5q-67 0 -112.5 -38t-65.5 -104h-107q23 95 100 158.5t187 63.5q117 0 189.5 -62.5t72.5 -169.5v-604h-102zM-344 1069
q0 31 -20.5 52.5t-51.5 21.5q-30 0 -50.5 -21.5t-20.5 -52.5q0 -29 21.5 -50.5t49.5 -21.5q29 0 50.5 21.5t21.5 50.5z" />
    <glyph glyph-name="saraamthai" unicode="&#xe33;" horiz-adv-x="672" 
d="M-260 1069q0 -65 -45 -110.5t-111 -45.5q-65 0 -110 45.5t-45 110.5q0 66 45 111t110 45q66 0 111 -45t45 -111zM467 0v586q0 73 -42 121.5t-120 48.5q-67 0 -112.5 -38t-65.5 -104h-107q23 95 100 158.5t187 63.5q117 0 189.5 -62.5t72.5 -169.5v-604h-102zM-344 1069
q0 31 -20.5 52.5t-51.5 21.5q-30 0 -50.5 -21.5t-20.5 -52.5q0 -29 21.5 -50.5t49.5 -21.5q29 0 50.5 21.5t21.5 50.5z" />
    <glyph glyph-name="saraithai" unicode="&#xd4;" 
d="M-92 901q-127 76 -282.5 85t-303.5 -38q0 56 20.5 108t56.5 92t85 63.5t106 23.5q70 0 127.5 -27.5t98.5 -74t65.5 -106.5t26.5 -126zM-215 1032q-21 51 -74 86t-112 35q-62 0 -101 -28.5t-57 -75.5q37 10 81 15t90 3t90 -10t83 -25z" />
    <glyph glyph-name="saraithai" unicode="&#xe34;" 
d="M-92 901q-127 76 -282.5 85t-303.5 -38q0 56 20.5 108t56.5 92t85 63.5t106 23.5q70 0 127.5 -27.5t98.5 -74t65.5 -106.5t26.5 -126zM-215 1032q-21 51 -74 86t-112 35q-62 0 -101 -28.5t-57 -75.5q37 10 81 15t90 3t90 -10t83 -25z" />
    <glyph glyph-name="saraiithai" unicode="&#xd5;" 
d="M-102 901q-127 76 -283 85t-303 -38q0 56 20.5 108t56.5 92t85 63.5t106 23.5q66 0 120 -24.5t95 -65.5v141h103v-385zM-225 1032q-21 51 -74 86t-113 35q-61 0 -100 -28.5t-57 -75.5q37 10 81 15t90 3t90 -10t83 -25z" />
    <glyph glyph-name="saraiithai" unicode="&#xe35;" 
d="M-102 901q-127 76 -283 85t-303 -38q0 56 20.5 108t56.5 92t85 63.5t106 23.5q66 0 120 -24.5t95 -65.5v141h103v-385zM-225 1032q-21 51 -74 86t-113 35q-61 0 -100 -28.5t-57 -75.5q37 10 81 15t90 3t90 -10t83 -25z" />
    <glyph glyph-name="sarauethai" unicode="&#xd6;" 
d="M-31 1163q0 -45 -28.5 -77.5t-69.5 -43.5q16 -32 23.5 -68t9.5 -73q-127 76 -283 85t-303 -38q0 56 20.5 108t56.5 92t85 63.5t106 23.5q78 0 144 -35q10 37 42.5 61.5t73.5 24.5q52 0 87.5 -36t35.5 -87zM-102 1163q0 23 -14.5 37t-37.5 14q-22 0 -36.5 -14t-14.5 -37
q0 -22 14.5 -36.5t36.5 -14.5q23 0 37.5 14.5t14.5 36.5zM-219 1032q-21 51 -74 86t-113 35q-61 0 -100 -28.5t-57 -75.5q37 10 81 15t90 3t90 -10t83 -25z" />
    <glyph glyph-name="sarauethai" unicode="&#xe36;" 
d="M-31 1163q0 -45 -28.5 -77.5t-69.5 -43.5q16 -32 23.5 -68t9.5 -73q-127 76 -283 85t-303 -38q0 56 20.5 108t56.5 92t85 63.5t106 23.5q78 0 144 -35q10 37 42.5 61.5t73.5 24.5q52 0 87.5 -36t35.5 -87zM-102 1163q0 23 -14.5 37t-37.5 14q-22 0 -36.5 -14t-14.5 -37
q0 -22 14.5 -36.5t36.5 -14.5q23 0 37.5 14.5t14.5 36.5zM-219 1032q-21 51 -74 86t-113 35q-61 0 -100 -28.5t-57 -75.5q37 10 81 15t90 3t90 -10t83 -25z" />
    <glyph glyph-name="saraueethai" unicode="&#xd7;" 
d="M-225 1032q-21 51 -74 86t-113 35q-61 0 -100 -28.5t-57 -75.5q37 10 81 15t90 3t90 -10t83 -25zM-338 1286h72v-92q33 -20 61 -49v141h103v-385q-127 76 -283 85t-303 -38q0 56 20.5 108t56.5 92t85 63.5t106 23.5q23 0 42.5 -3t39.5 -7v61z" />
    <glyph glyph-name="saraueethai" unicode="&#xe37;" 
d="M-225 1032q-21 51 -74 86t-113 35q-61 0 -100 -28.5t-57 -75.5q37 10 81 15t90 3t90 -10t83 -25zM-338 1286h72v-92q33 -20 61 -49v141h103v-385q-127 76 -283 85t-303 -38q0 56 20.5 108t56.5 92t85 63.5t106 23.5q23 0 42.5 -3t39.5 -7v61z" />
    <glyph glyph-name="sarauthai" unicode="&#xd8;" 
d="M-205 -512v178q-18 -6 -41 -6q-53 0 -91 38t-38 91t38 91t91 38q62 0 103 -39t41 -98v-293h-103zM-190 -211q0 23 -16.5 39t-39.5 16q-22 0 -38.5 -16t-16.5 -39q0 -22 16.5 -38.5t38.5 -16.5q23 0 39.5 16.5t16.5 38.5z" />
    <glyph glyph-name="sarauthai" unicode="&#xe38;" 
d="M-205 -512v178q-18 -6 -41 -6q-53 0 -91 38t-38 91t38 91t91 38q62 0 103 -39t41 -98v-293h-103zM-190 -211q0 23 -16.5 39t-39.5 16q-22 0 -38.5 -16t-16.5 -39q0 -22 16.5 -38.5t38.5 -16.5q23 0 39.5 16.5t16.5 38.5z" />
    <glyph glyph-name="sarauuthai" unicode="&#xd9;" 
d="M-102 -356q0 -74 -33 -115t-119 -41h-248v72q43 0 57.5 13t14.5 50v43q-19 -6 -41 -6q-53 0 -91 38t-38 91t38 91t91 38q61 0 102 -39t41 -98v-217h37q60 0 73 22.5t13 69.5v256h103v-268zM-416 -211q0 23 -16.5 39t-38.5 16q-23 0 -39 -16t-16 -39q0 -22 16 -38.5
t39 -16.5q22 0 38.5 16.5t16.5 38.5z" />
    <glyph glyph-name="sarauuthai" unicode="&#xe39;" 
d="M-102 -356q0 -74 -33 -115t-119 -41h-248v72q43 0 57.5 13t14.5 50v43q-19 -6 -41 -6q-53 0 -91 38t-38 91t38 91t91 38q61 0 102 -39t41 -98v-217h37q60 0 73 22.5t13 69.5v256h103v-268zM-416 -211q0 23 -16.5 39t-38.5 16q-23 0 -39 -16t-16 -39q0 -22 16 -38.5
t39 -16.5q22 0 38.5 16.5t16.5 38.5z" />
    <glyph glyph-name="phinthuthai" unicode="&#xda;" 
d="M-82 -154q0 -28 -21.5 -49.5t-50.5 -21.5q-28 0 -49.5 21.5t-21.5 49.5q0 29 21.5 50.5t49.5 21.5q29 0 50.5 -21.5t21.5 -50.5z" />
    <glyph glyph-name="phinthuthai" unicode="&#xe3a;" 
d="M-82 -154q0 -28 -21.5 -49.5t-50.5 -21.5q-28 0 -49.5 21.5t-21.5 49.5q0 29 21.5 50.5t49.5 21.5q29 0 50.5 -21.5t21.5 -50.5z" />
    <glyph glyph-name="PU2005.003" unicode="&#xdb;" 
 />
    <glyph glyph-name="PU2005.003" unicode="&#xe3b;" 
 />
    <glyph glyph-name="PU2005.002" unicode="&#xdc;" 
 />
    <glyph glyph-name="PU2005.002" unicode="&#xe3c;" 
 />
    <glyph glyph-name="PU2005.001" unicode="&#xdd;" 
 />
    <glyph glyph-name="PU2005.001" unicode="&#xe3d;" 
 />
    <glyph glyph-name="bahtthai" unicode="&#xdf;" horiz-adv-x="926" 
d="M864 276q0 -53 -18.5 -103t-55 -88t-92 -61.5t-127.5 -23.5h-75v-133h-74v133h-318v965h318v133h74v-133q59 0 118.5 -6.5t96.5 -28.5q47 -29 80.5 -79t33.5 -122q0 -78 -38.5 -133t-104.5 -84v-2q90 -18 136 -80.5t46 -153.5zM696 705q0 49 -16 78.5t-44 46t-63.5 21.5
t-76.5 5v-305q108 0 154 38t46 116zM422 856h-189v-305h189v305zM737 281q0 47 -17.5 78.5t-47 50t-67.5 25.5t-79 7h-30v-333h59q84 0 133 47t49 125zM422 442h-189v-333h189v333z" />
    <glyph glyph-name="bahtthai" unicode="&#xe3f;" horiz-adv-x="926" 
d="M864 276q0 -53 -18.5 -103t-55 -88t-92 -61.5t-127.5 -23.5h-75v-133h-74v133h-318v965h318v133h74v-133q59 0 118.5 -6.5t96.5 -28.5q47 -29 80.5 -79t33.5 -122q0 -78 -38.5 -133t-104.5 -84v-2q90 -18 136 -80.5t46 -153.5zM696 705q0 49 -16 78.5t-44 46t-63.5 21.5
t-76.5 5v-305q108 0 154 38t46 116zM422 856h-189v-305h189v305zM737 281q0 47 -17.5 78.5t-47 50t-67.5 25.5t-79 7h-30v-333h59q84 0 133 47t49 125zM422 442h-189v-333h189v333z" />
    <glyph glyph-name="saraethai" unicode="&#xe0;" horiz-adv-x="461" 
d="M420 131q0 -57 -40 -99t-99 -42q-68 0 -108 42t-40 107v680h103v-561q10 4 24 6t25 2q57 0 96 -40t39 -95zM344 131q0 25 -17.5 42t-41.5 17q-25 0 -42.5 -17t-17.5 -42t17.5 -42t42.5 -17q24 0 41.5 17t17.5 42z" />
    <glyph glyph-name="saraethai" unicode="&#xe40;" horiz-adv-x="461" 
d="M420 131q0 -57 -40 -99t-99 -42q-68 0 -108 42t-40 107v680h103v-561q10 4 24 6t25 2q57 0 96 -40t39 -95zM344 131q0 25 -17.5 42t-41.5 17q-25 0 -42.5 -17t-17.5 -42t17.5 -42t42.5 -17q24 0 41.5 17t17.5 42z" />
    <glyph glyph-name="saraaethai" unicode="&#xe1;" horiz-adv-x="850" 
d="M809 131q0 -57 -40 -99t-99 -42q-68 0 -108 42t-40 107v680h103v-561q10 4 24.5 6t24.5 2q57 0 96 -40t39 -95zM420 131q0 -57 -40 -99t-99 -42q-68 0 -108 42t-40 107v680h103v-561q10 4 24 6t25 2q57 0 96 -40t39 -95zM733 131q0 25 -17.5 42t-41.5 17q-25 0 -42.5 -17
t-17.5 -42t17.5 -42t42.5 -17q24 0 41.5 17t17.5 42zM344 131q0 25 -17.5 42t-41.5 17q-25 0 -42.5 -17t-17.5 -42t17.5 -42t42.5 -17q24 0 41.5 17t17.5 42z" />
    <glyph glyph-name="saraaethai" unicode="&#xe41;" horiz-adv-x="850" 
d="M809 131q0 -57 -40 -99t-99 -42q-68 0 -108 42t-40 107v680h103v-561q10 4 24.5 6t24.5 2q57 0 96 -40t39 -95zM420 131q0 -57 -40 -99t-99 -42q-68 0 -108 42t-40 107v680h103v-561q10 4 24 6t25 2q57 0 96 -40t39 -95zM733 131q0 25 -17.5 42t-41.5 17q-25 0 -42.5 -17
t-17.5 -42t17.5 -42t42.5 -17q24 0 41.5 17t17.5 42zM344 131q0 25 -17.5 42t-41.5 17q-25 0 -42.5 -17t-17.5 -42t17.5 -42t42.5 -17q24 0 41.5 17t17.5 42z" />
    <glyph glyph-name="saraothai" unicode="&#xe2;" horiz-adv-x="522" 
d="M489 1364q-22 -25 -56 -45.5t-81 -20.5q-28 0 -54 8.5t-50.5 17.5t-50 18.5t-54.5 9.5q-41 2 -75.5 -17.5t-55.5 -42.5q62 -2 114 -15t90 -36.5t59.5 -59.5t21.5 -87v-836q10 4 24.5 6t24.5 2q57 0 96 -40t39 -95q0 -57 -40 -99t-99 -42q-68 0 -107.5 42t-39.5 107v932
q0 53 -27 83t-72 43t-105.5 16.5t-129.5 3.5q10 40 36.5 80t63.5 71t83 49.5t97 16.5q31 0 57.5 -8.5t49 -16.5t44 -15.5t46.5 -7.5q24 0 42.5 12.5t35.5 26.5zM406 131q0 25 -17.5 42t-42.5 17q-24 0 -41.5 -17t-17.5 -42t17.5 -42t41.5 -17q25 0 42.5 17t17.5 42z" />
    <glyph glyph-name="saraothai" unicode="&#xe42;" horiz-adv-x="522" 
d="M489 1364q-22 -25 -56 -45.5t-81 -20.5q-28 0 -54 8.5t-50.5 17.5t-50 18.5t-54.5 9.5q-41 2 -75.5 -17.5t-55.5 -42.5q62 -2 114 -15t90 -36.5t59.5 -59.5t21.5 -87v-836q10 4 24.5 6t24.5 2q57 0 96 -40t39 -95q0 -57 -40 -99t-99 -42q-68 0 -107.5 42t-39.5 107v932
q0 53 -27 83t-72 43t-105.5 16.5t-129.5 3.5q10 40 36.5 80t63.5 71t83 49.5t97 16.5q31 0 57.5 -8.5t49 -16.5t44 -15.5t46.5 -7.5q24 0 42.5 12.5t35.5 26.5zM406 131q0 25 -17.5 42t-42.5 17q-24 0 -41.5 -17t-17.5 -42t17.5 -42t41.5 -17q25 0 42.5 17t17.5 42z" />
    <glyph glyph-name="saraaimaimuanthai" unicode="&#xe3;" horiz-adv-x="522" 
d="M481 131q0 -57 -40 -99t-99 -42q-68 0 -107.5 42t-39.5 107v838q0 43 20.5 70.5t44 52t44 53.5t20.5 74q0 35 -19.5 63.5t-52.5 45t-74 17.5t-84 -18q31 -16 49.5 -44.5t18.5 -63.5q0 -51 -35 -86t-86 -35q-49 0 -87 35t-38 96q0 41 22.5 77t58.5 62.5t82 42t93 15.5
q49 0 95 -13.5t81 -39t56.5 -63.5t21.5 -87q0 -53 -20.5 -88t-44 -63.5t-44 -59.5t-20.5 -76v-686q10 4 24.5 6t24.5 2q57 0 96 -40t39 -95zM90 1227q0 20 -14.5 34.5t-34.5 14.5q-21 0 -35 -14.5t-14 -34.5q0 -21 14 -35t35 -14q20 0 34.5 14t14.5 35zM406 131
q0 25 -17.5 42t-42.5 17q-24 0 -41.5 -17t-17.5 -42t17.5 -42t41.5 -17q25 0 42.5 17t17.5 42z" />
    <glyph glyph-name="saraaimaimuanthai" unicode="&#xe43;" horiz-adv-x="522" 
d="M481 131q0 -57 -40 -99t-99 -42q-68 0 -107.5 42t-39.5 107v838q0 43 20.5 70.5t44 52t44 53.5t20.5 74q0 35 -19.5 63.5t-52.5 45t-74 17.5t-84 -18q31 -16 49.5 -44.5t18.5 -63.5q0 -51 -35 -86t-86 -35q-49 0 -87 35t-38 96q0 41 22.5 77t58.5 62.5t82 42t93 15.5
q49 0 95 -13.5t81 -39t56.5 -63.5t21.5 -87q0 -53 -20.5 -88t-44 -63.5t-44 -59.5t-20.5 -76v-686q10 4 24.5 6t24.5 2q57 0 96 -40t39 -95zM90 1227q0 20 -14.5 34.5t-34.5 14.5q-21 0 -35 -14.5t-14 -34.5q0 -21 14 -35t35 -14q20 0 34.5 14t14.5 35zM406 131
q0 25 -17.5 42t-42.5 17q-24 0 -41.5 -17t-17.5 -42t17.5 -42t41.5 -17q25 0 42.5 17t17.5 42z" />
    <glyph glyph-name="saraaimaimalaithai" unicode="&#xe4;" horiz-adv-x="522" 
d="M481 131q0 -57 -40 -99t-99 -42q-68 0 -107.5 42t-39.5 107v1084l-136 -138q-26 68 -63 129q-31 54 -74 105t-96 80l88 59q41 -26 72.5 -62t54.5 -71q27 -39 47 -82l135 137q35 0 54.5 -32.5t19.5 -77.5v-1012q10 4 24.5 6t24.5 2q57 0 96 -40t39 -95zM406 131
q0 25 -17.5 42t-42.5 17q-24 0 -41.5 -17t-17.5 -42t17.5 -42t41.5 -17q25 0 42.5 17t17.5 42z" />
    <glyph glyph-name="saraaimaimalaithai" unicode="&#xe44;" horiz-adv-x="522" 
d="M481 131q0 -57 -40 -99t-99 -42q-68 0 -107.5 42t-39.5 107v1084l-136 -138q-26 68 -63 129q-31 54 -74 105t-96 80l88 59q41 -26 72.5 -62t54.5 -71q27 -39 47 -82l135 137q35 0 54.5 -32.5t19.5 -77.5v-1012q10 4 24.5 6t24.5 2q57 0 96 -40t39 -95zM406 131
q0 25 -17.5 42t-42.5 17q-24 0 -41.5 -17t-17.5 -42t17.5 -42t41.5 -17q25 0 42.5 17t17.5 42z" />
    <glyph glyph-name="lakkhangyaothai" unicode="&#xe5;" horiz-adv-x="672" 
d="M467 -307v893q0 73 -42 121.5t-120 48.5q-67 0 -112.5 -38t-65.5 -104h-107q23 95 100 158.5t187 63.5q117 0 189.5 -62.5t72.5 -169.5v-911h-102z" />
    <glyph glyph-name="lakkhangyaothai" unicode="&#xe45;" horiz-adv-x="672" 
d="M467 -307v893q0 73 -42 121.5t-120 48.5q-67 0 -112.5 -38t-65.5 -104h-107q23 95 100 158.5t187 63.5q117 0 189.5 -62.5t72.5 -169.5v-911h-102z" />
    <glyph glyph-name="maiyamokthai" unicode="&#xe6;" horiz-adv-x="819" 
d="M729 645q0 -31 -16.5 -55.5t-36 -47t-35.5 -45t-16 -48.5v-756h-103v774q0 31 16.5 55.5t37 45t37 39t16.5 36.5q0 4 -9.5 18.5t-19.5 30t-20.5 27.5t-12.5 12t-22.5 -12t-45 -27.5t-45 -28t-22.5 -12.5t-24.5 13.5t-49.5 29.5q-30 21 -67 43q-10 -8 -19 -16
q-8 -8 -17 -17.5t-19 -19.5q47 -2 86.5 -41t39.5 -96q0 -58 -39.5 -97.5t-97.5 -39.5q-55 0 -99 42t-44 113q0 43 18.5 82t47 73t63.5 63.5t70 52.5q6 0 28.5 -14.5t49 -31t49 -31t24.5 -14.5q4 0 26.5 14.5t49.5 31t49.5 31t28.5 14.5q10 0 33.5 -24t48 -54.5t43 -62
t18.5 -50.5zM287 547q0 24 -17.5 41.5t-42.5 17.5q-24 0 -41.5 -17.5t-17.5 -41.5q0 -25 17.5 -42.5t41.5 -17.5q25 0 42.5 17.5t17.5 42.5z" />
    <glyph glyph-name="maiyamokthai" unicode="&#xe46;" horiz-adv-x="819" 
d="M729 645q0 -31 -16.5 -55.5t-36 -47t-35.5 -45t-16 -48.5v-756h-103v774q0 31 16.5 55.5t37 45t37 39t16.5 36.5q0 4 -9.5 18.5t-19.5 30t-20.5 27.5t-12.5 12t-22.5 -12t-45 -27.5t-45 -28t-22.5 -12.5t-24.5 13.5t-49.5 29.5q-30 21 -67 43q-10 -8 -19 -16
q-8 -8 -17 -17.5t-19 -19.5q47 -2 86.5 -41t39.5 -96q0 -58 -39.5 -97.5t-97.5 -39.5q-55 0 -99 42t-44 113q0 43 18.5 82t47 73t63.5 63.5t70 52.5q6 0 28.5 -14.5t49 -31t49 -31t24.5 -14.5q4 0 26.5 14.5t49.5 31t49.5 31t28.5 14.5q10 0 33.5 -24t48 -54.5t43 -62
t18.5 -50.5zM287 547q0 24 -17.5 41.5t-42.5 17.5q-24 0 -41.5 -17.5t-17.5 -41.5q0 -25 17.5 -42.5t41.5 -17.5q25 0 42.5 17.5t17.5 42.5z" />
    <glyph glyph-name="maitaikhuthai" unicode="&#xe7;" 
d="M-92 1360q0 -39 -19.5 -71t-50.5 -54.5t-70.5 -33.5t-78.5 -9q-33 2 -65 2t-54 -4q-39 -4 -70.5 -30.5t-31.5 -72.5q0 -22 8 -37.5t18 -25.5t20.5 -14t16.5 -4l74 104q10 -12 20 -23q10 -10 19.5 -20t19.5 -20q6 40 38 69t75 29q47 0 79.5 -33t32.5 -78
q0 -47 -34.5 -79.5t-87.5 -32.5q-50 0 -91 24.5t-67 54.5l-45 -69h-58q-49 0 -92 39t-43 112q0 68 51.5 118t135.5 59q30 4 65 0.5t64 -0.5q47 2 81.5 23.5t34.5 76.5h105zM-178 1034q0 45 -45 45t-45 -45t45 -45t45 45z" />
    <glyph glyph-name="maitaikhuthai" unicode="&#xe47;" 
d="M-92 1360q0 -39 -19.5 -71t-50.5 -54.5t-70.5 -33.5t-78.5 -9q-33 2 -65 2t-54 -4q-39 -4 -70.5 -30.5t-31.5 -72.5q0 -22 8 -37.5t18 -25.5t20.5 -14t16.5 -4l74 104q10 -12 20 -23q10 -10 19.5 -20t19.5 -20q6 40 38 69t75 29q47 0 79.5 -33t32.5 -78
q0 -47 -34.5 -79.5t-87.5 -32.5q-50 0 -91 24.5t-67 54.5l-45 -69h-58q-49 0 -92 39t-43 112q0 68 51.5 118t135.5 59q30 4 65 0.5t64 -0.5q47 2 81.5 23.5t34.5 76.5h105zM-178 1034q0 45 -45 45t-45 -45t45 -45t45 45z" />
    <glyph glyph-name="maiekthai" unicode="&#xe8;" 
d="M-205 1348v184h103v-184h-103z" />
    <glyph glyph-name="maiekthai" unicode="&#xe48;" 
d="M-205 1348v184h103v-184h-103z" />
    <glyph glyph-name="maithothai" unicode="&#xe9;" 
d="M49 1591q-8 -86 -52 -142t-105.5 -87t-133 -36t-135.5 11q25 15 44.5 38.5t27.5 51.5q-8 -2 -21 -2q-47 0 -79.5 33t-32.5 80t32.5 80t79.5 33q56 0 87.5 -36t35.5 -85q0 -37 -11 -74t-24 -57q43 4 78 22.5t61.5 45t41 59.5t14.5 65h92zM-276 1538q0 23 -13.5 37
t-36.5 14q-22 0 -36.5 -14t-14.5 -37q0 -22 14.5 -35.5t36.5 -13.5q23 0 36.5 13.5t13.5 35.5z" />
    <glyph glyph-name="maithothai" unicode="&#xe49;" 
d="M49 1591q-8 -86 -52 -142t-105.5 -87t-133 -36t-135.5 11q25 15 44.5 38.5t27.5 51.5q-8 -2 -21 -2q-47 0 -79.5 33t-32.5 80t32.5 80t79.5 33q56 0 87.5 -36t35.5 -85q0 -37 -11 -74t-24 -57q43 4 78 22.5t61.5 45t41 59.5t14.5 65h92zM-276 1538q0 23 -13.5 37
t-36.5 14q-22 0 -36.5 -14t-14.5 -37q0 -22 14.5 -35.5t36.5 -13.5q23 0 36.5 13.5t13.5 35.5z" />
    <glyph glyph-name="maitrithai" unicode="&#xea;" 
d="M78 1630q12 -69 -2.5 -124.5t-47 -93.5t-77.5 -55.5t-90 -8.5q37 53 37 118q0 35 -14.5 64t-30.5 29q-9 0 -29.5 -20.5t-34.5 -20.5q-10 0 -21.5 7t-23.5 16t-24.5 16.5t-24.5 7.5q-4 0 -16.5 -11.5t-12.5 -15.5h8q41 0 72 -27.5t31 -66.5q0 -41 -31 -69.5t-72 -28.5
q-45 0 -76.5 33.5t-31.5 82.5q0 37 14 70t36 57.5t44.5 38.5t38.5 14q10 0 23.5 -8t26.5 -19t23.5 -19.5t14.5 -8.5q6 0 16.5 8.5t21.5 18.5t22.5 18t21.5 8q14 0 31.5 -11t33 -29.5t25.5 -43t10 -51.5q0 -45 -10 -75q29 22 40 81.5t-9 118.5h88zM-287 1444q0 14 -11 25.5
t-28 11.5q-16 0 -26 -11.5t-10 -25.5q0 -17 10 -28t26 -11q17 0 28 11t11 28z" />
    <glyph glyph-name="maitrithai" unicode="&#xe4a;" 
d="M78 1630q12 -69 -2.5 -124.5t-47 -93.5t-77.5 -55.5t-90 -8.5q37 53 37 118q0 35 -14.5 64t-30.5 29q-9 0 -29.5 -20.5t-34.5 -20.5q-10 0 -21.5 7t-23.5 16t-24.5 16.5t-24.5 7.5q-4 0 -16.5 -11.5t-12.5 -15.5h8q41 0 72 -27.5t31 -66.5q0 -41 -31 -69.5t-72 -28.5
q-45 0 -76.5 33.5t-31.5 82.5q0 37 14 70t36 57.5t44.5 38.5t38.5 14q10 0 23.5 -8t26.5 -19t23.5 -19.5t14.5 -8.5q6 0 16.5 8.5t21.5 18.5t22.5 18t21.5 8q14 0 31.5 -11t33 -29.5t25.5 -43t10 -51.5q0 -45 -10 -75q29 22 40 81.5t-9 118.5h88zM-287 1444q0 14 -11 25.5
t-28 11.5q-16 0 -26 -11.5t-10 -25.5q0 -17 10 -28t26 -11q17 0 28 11t11 28z" />
    <glyph glyph-name="maichattawathai" unicode="&#xeb;" 
d="M-102 1440v-92h-103v92h-102v82h102v92h103v-92h102v-82h-102z" />
    <glyph glyph-name="maichattawathai" unicode="&#xe4b;" 
d="M-102 1440v-92h-103v92h-102v82h102v92h103v-92h102v-82h-102z" />
    <glyph glyph-name="thanthakhatthai" unicode="&#xec;" 
d="M39 1638q-2 -26 -11.5 -52.5t-24.5 -47t-35.5 -34t-45.5 -13.5q-41 0 -72.5 15.5t-74.5 15.5q-29 0 -50.5 -13.5t-31.5 -38.5q8 11 24.5 15t32.5 4q41 0 70.5 -28.5t29.5 -69.5q0 -43 -31.5 -73t-78.5 -30q-23 0 -45.5 8.5t-42 24.5t-32.5 40.5t-15 57.5q-4 66 41 115
t112 53q52 4 80.5 -8t55.5 -12q34 0 43.5 20.5t9.5 50.5h92zM-211 1391q0 16 -12.5 29.5t-32.5 13.5q-18 0 -30.5 -13.5t-12.5 -29.5q0 -19 12.5 -32t30.5 -13q20 0 32.5 13t12.5 32z" />
    <glyph glyph-name="thanthakhatthai" unicode="&#xe4c;" 
d="M39 1638q-2 -26 -11.5 -52.5t-24.5 -47t-35.5 -34t-45.5 -13.5q-41 0 -72.5 15.5t-74.5 15.5q-29 0 -50.5 -13.5t-31.5 -38.5q8 11 24.5 15t32.5 4q41 0 70.5 -28.5t29.5 -69.5q0 -43 -31.5 -73t-78.5 -30q-23 0 -45.5 8.5t-42 24.5t-32.5 40.5t-15 57.5q-4 66 41 115
t112 53q52 4 80.5 -8t55.5 -12q34 0 43.5 20.5t9.5 50.5h92zM-211 1391q0 16 -12.5 29.5t-32.5 13.5q-18 0 -30.5 -13.5t-12.5 -29.5q0 -19 12.5 -32t30.5 -13q20 0 32.5 13t12.5 32z" />
    <glyph glyph-name="nikhahitthai" unicode="&#xed;" 
d="M2 1098q0 -66 -45 -111t-111 -45q-65 0 -110 45t-45 111q0 65 45 110t110 45q66 0 111 -45t45 -110zM-82 1098q0 30 -20.5 51.5t-51.5 21.5q-30 0 -50.5 -21.5t-20.5 -51.5q0 -29 21.5 -50.5t49.5 -21.5q29 0 50.5 21.5t21.5 50.5z" />
    <glyph glyph-name="nikhahitthai" unicode="&#xe4d;" 
d="M2 1098q0 -66 -45 -111t-111 -45q-65 0 -110 45t-45 111q0 65 45 110t110 45q66 0 111 -45t45 -110zM-82 1098q0 30 -20.5 51.5t-51.5 21.5q-30 0 -50.5 -21.5t-20.5 -51.5q0 -29 21.5 -50.5t49.5 -21.5q29 0 50.5 21.5t21.5 50.5z" />
    <glyph glyph-name="yamakkanthai" unicode="&#xee;" 
d="M-326 1233q-30 24 -30 59q0 72 92 119q78 41 153 41q66 0 127 -20q23 -9 23 -29q0 -33 -31 -33q-6 0 -10 2q-53 19 -109 19q-47 0 -108 -27q-76 -33 -76 -72q0 -14 78 -43q22 -8 22 -28q0 -31 -30 -31q-4 0 -11.5 1t-11.5 1q-37 0 -80 -33t-43 -59q0 -33 29 -53.5
t72 -20.5q82 0 116 61q11 17 27 17q33 0 33 -31q0 -6 -4 -14q-54 -94 -172 -94q-60 0 -107 30q-55 39 -55 105q0 82 106 133z" />
    <glyph glyph-name="yamakkanthai" unicode="&#xe4e;" 
d="M-326 1233q-30 24 -30 59q0 72 92 119q78 41 153 41q66 0 127 -20q23 -9 23 -29q0 -33 -31 -33q-6 0 -10 2q-53 19 -109 19q-47 0 -108 -27q-76 -33 -76 -72q0 -14 78 -43q22 -8 22 -28q0 -31 -30 -31q-4 0 -11.5 1t-11.5 1q-37 0 -80 -33t-43 -59q0 -33 29 -53.5
t72 -20.5q82 0 116 61q11 17 27 17q33 0 33 -31q0 -6 -4 -14q-54 -94 -172 -94q-60 0 -107 30q-55 39 -55 105q0 82 106 133z" />
    <glyph glyph-name="fongmanthai" unicode="&#xef;" horiz-adv-x="1024" 
d="M932 410q0 -86 -33 -163t-90 -134.5t-134 -90t-163 -32.5t-163 32.5t-134 90t-90 134.5t-33 163t33 162.5t90 134t134 90t163 32.5t163 -32.5t134 -90t90 -134t33 -162.5zM870 410q0 73 -28.5 138.5t-76.5 114t-113.5 77t-139.5 28.5t-139.5 -28.5t-113.5 -77t-76.5 -114
t-28.5 -138.5q0 -74 28.5 -139.5t76.5 -113.5t113.5 -77t139.5 -29t139.5 29t113.5 77t76.5 113.5t28.5 139.5zM768 410q0 -54 -20.5 -100t-55.5 -80.5t-81 -55t-99 -20.5t-99 20.5t-81 55t-55.5 80.5t-20.5 100q0 53 20.5 99t55.5 81t81 55.5t99 20.5t99 -20.5t81 -55.5
t55.5 -81t20.5 -99z" />
    <glyph glyph-name="fongmanthai" unicode="&#xe4f;" horiz-adv-x="1024" 
d="M932 410q0 -86 -33 -163t-90 -134.5t-134 -90t-163 -32.5t-163 32.5t-134 90t-90 134.5t-33 163t33 162.5t90 134t134 90t163 32.5t163 -32.5t134 -90t90 -134t33 -162.5zM870 410q0 73 -28.5 138.5t-76.5 114t-113.5 77t-139.5 28.5t-139.5 -28.5t-113.5 -77t-76.5 -114
t-28.5 -138.5q0 -74 28.5 -139.5t76.5 -113.5t113.5 -77t139.5 -29t139.5 29t113.5 77t76.5 113.5t28.5 139.5zM768 410q0 -54 -20.5 -100t-55.5 -80.5t-81 -55t-99 -20.5t-99 20.5t-81 55t-55.5 80.5t-20.5 100q0 53 20.5 99t55.5 81t81 55.5t99 20.5t99 -20.5t81 -55.5
t55.5 -81t20.5 -99z" />
    <glyph glyph-name="zerothai" unicode="&#xf0;" horiz-adv-x="754" 
d="M682 307q0 -65 -23.5 -123.5t-65.5 -101.5t-97.5 -67.5t-118.5 -24.5q-64 0 -119 24.5t-97 67.5t-65.5 101.5t-23.5 123.5q0 66 23.5 124t65.5 101t97 68t119 25q63 0 118.5 -25t97.5 -68t65.5 -101t23.5 -124zM578 307q0 105 -58.5 168.5t-142.5 63.5t-142.5 -63.5
t-58.5 -168.5q0 -104 58.5 -167.5t142.5 -63.5t142.5 63.5t58.5 167.5z" />
    <glyph glyph-name="zerothai" unicode="&#xe50;" horiz-adv-x="754" 
d="M682 307q0 -65 -23.5 -123.5t-65.5 -101.5t-97.5 -67.5t-118.5 -24.5q-64 0 -119 24.5t-97 67.5t-65.5 101.5t-23.5 123.5q0 66 23.5 124t65.5 101t97 68t119 25q63 0 118.5 -25t97.5 -68t65.5 -101t23.5 -124zM578 307q0 105 -58.5 168.5t-142.5 63.5t-142.5 -63.5
t-58.5 -168.5q0 -104 58.5 -167.5t142.5 -63.5t142.5 63.5t58.5 167.5z" />
    <glyph glyph-name="onethai" unicode="&#xf1;" horiz-adv-x="762" 
d="M690 301q0 -98 -38 -173t-101 -128h-127q78 45 120 124t42 175q0 47 -14.5 91t-41 77t-64.5 52.5t-85 19.5q-45 0 -84 -21.5t-65.5 -55.5t-41 -77t-14.5 -84q2 -41 10.5 -71.5t16.5 -45.5q16 37 50 61.5t77 24.5q57 0 97 -40t40 -97q0 -61 -45 -102t-109 -41
q-47 0 -90 23.5t-76.5 66.5t-54 100.5t-20.5 124.5q0 62 23.5 120t64.5 102t97 71t120 27q72 0 129 -23.5t98 -66.5t63.5 -102.5t22.5 -131.5zM383 133q0 25 -17.5 42.5t-41.5 17.5q-25 0 -42.5 -17.5t-17.5 -42.5q0 -24 17.5 -41.5t42.5 -17.5q24 0 41.5 17.5t17.5 41.5z
" />
    <glyph glyph-name="onethai" unicode="&#xe51;" horiz-adv-x="762" 
d="M690 301q0 -98 -38 -173t-101 -128h-127q78 45 120 124t42 175q0 47 -14.5 91t-41 77t-64.5 52.5t-85 19.5q-45 0 -84 -21.5t-65.5 -55.5t-41 -77t-14.5 -84q2 -41 10.5 -71.5t16.5 -45.5q16 37 50 61.5t77 24.5q57 0 97 -40t40 -97q0 -61 -45 -102t-109 -41
q-47 0 -90 23.5t-76.5 66.5t-54 100.5t-20.5 124.5q0 62 23.5 120t64.5 102t97 71t120 27q72 0 129 -23.5t98 -66.5t63.5 -102.5t22.5 -131.5zM383 133q0 25 -17.5 42.5t-41.5 17.5q-25 0 -42.5 -17.5t-17.5 -42.5q0 -24 17.5 -41.5t42.5 -17.5q24 0 41.5 17.5t17.5 41.5z
" />
    <glyph glyph-name="twothai" unicode="&#xf2;" horiz-adv-x="915" 
d="M264 0q-88 0 -130 50t-42 122v494q0 39 -16.5 65.5t-57.5 40.5l95 57q43 -16 62.5 -55t19.5 -86v-487q0 -58 23.5 -86.5t88.5 -28.5h414v369q0 32 -11.5 59t-45.5 27q-31 0 -45.5 -22.5t-14.5 -53.5v-59h-96v51q0 32 -18.5 57t-55.5 25t-55.5 -23.5t-18.5 -56.5v-76
q19 8 43 8q54 0 94 -40t40 -93t-40 -93t-94 -40q-63 0 -104 40t-41 99v211q0 74 52 112t118 38q86 0 125 -64q43 64 131 64q59 0 99 -42t40 -100v-483h-559zM463 258q0 25 -17.5 42t-42.5 17q-24 0 -41.5 -17t-17.5 -42t17.5 -42t41.5 -17q25 0 42.5 17t17.5 42z" />
    <glyph glyph-name="twothai" unicode="&#xe52;" horiz-adv-x="915" 
d="M264 0q-88 0 -130 50t-42 122v494q0 39 -16.5 65.5t-57.5 40.5l95 57q43 -16 62.5 -55t19.5 -86v-487q0 -58 23.5 -86.5t88.5 -28.5h414v369q0 32 -11.5 59t-45.5 27q-31 0 -45.5 -22.5t-14.5 -53.5v-59h-96v51q0 32 -18.5 57t-55.5 25t-55.5 -23.5t-18.5 -56.5v-76
q19 8 43 8q54 0 94 -40t40 -93t-40 -93t-94 -40q-63 0 -104 40t-41 99v211q0 74 52 112t118 38q86 0 125 -64q43 64 131 64q59 0 99 -42t40 -100v-483h-559zM463 258q0 25 -17.5 42t-42.5 17q-24 0 -41.5 -17t-17.5 -42t17.5 -42t41.5 -17q25 0 42.5 17t17.5 42z" />
    <glyph glyph-name="threethai" unicode="&#xf3;" horiz-adv-x="852" 
d="M657 0v432q0 49 -19.5 78t-57.5 29q-39 0 -59.5 -29t-20.5 -68v-231h-97v213q0 18 -5 37.5t-17 37t-31.5 29t-48.5 11.5q-47 0 -76.5 -32t-29.5 -81v-178q18 8 43 8q53 0 93 -40t40 -93t-40 -93t-93 -40q-64 0 -105 40t-41 99v305q0 43 17.5 79t46 61.5t64.5 39t73 13.5
q72 0 109.5 -33t48.5 -68q16 39 54 69t95 30q78 0 119 -49.5t41 -124.5v-451h-103zM297 123q0 24 -17.5 41.5t-41.5 17.5q-25 0 -42.5 -17.5t-17.5 -41.5q0 -25 17.5 -42.5t42.5 -17.5q24 0 41.5 17.5t17.5 42.5z" />
    <glyph glyph-name="threethai" unicode="&#xe53;" horiz-adv-x="852" 
d="M657 0v432q0 49 -19.5 78t-57.5 29q-39 0 -59.5 -29t-20.5 -68v-231h-97v213q0 18 -5 37.5t-17 37t-31.5 29t-48.5 11.5q-47 0 -76.5 -32t-29.5 -81v-178q18 8 43 8q53 0 93 -40t40 -93t-40 -93t-93 -40q-64 0 -105 40t-41 99v305q0 43 17.5 79t46 61.5t64.5 39t73 13.5
q72 0 109.5 -33t48.5 -68q16 39 54 69t95 30q78 0 119 -49.5t41 -124.5v-451h-103zM297 123q0 24 -17.5 41.5t-41.5 17.5q-25 0 -42.5 -17.5t-17.5 -41.5q0 -25 17.5 -42.5t42.5 -17.5q24 0 41.5 17.5t17.5 42.5z" />
    <glyph glyph-name="fourthai" unicode="&#xf4;" horiz-adv-x="819" 
d="M793 819q10 -76 -10.5 -130t-65.5 -90t-110.5 -51.5t-145.5 -12.5q-55 2 -106.5 -16.5t-90.5 -52.5t-61.5 -80t-22.5 -99q0 -58 23.5 -104t61.5 -73.5t85 -30.5t94 23q-14 15 -36.5 55t-20.5 87q2 65 45 104t103 39q55 0 94 -39t39 -94t-39 -94t-94 -39q22 -23 48.5 -35
t53.5 -13t51.5 5t38.5 20l43 -71q-29 -21 -56.5 -29t-62.5 -8q-41 0 -77.5 12t-71.5 41q-41 -31 -79 -42t-89 -11q-55 0 -103.5 22.5t-84 62.5t-55 92t-19.5 114q0 73 29.5 135.5t79.5 106.5t119 68.5t146 22.5q54 0 103 8.5t83 31t50 62.5t4 103h107zM594 254
q0 25 -17.5 42t-41.5 17q-25 0 -42.5 -17t-17.5 -42t17.5 -42t42.5 -17q24 0 41.5 17t17.5 42z" />
    <glyph glyph-name="fourthai" unicode="&#xe54;" horiz-adv-x="819" 
d="M793 819q10 -76 -10.5 -130t-65.5 -90t-110.5 -51.5t-145.5 -12.5q-55 2 -106.5 -16.5t-90.5 -52.5t-61.5 -80t-22.5 -99q0 -58 23.5 -104t61.5 -73.5t85 -30.5t94 23q-14 15 -36.5 55t-20.5 87q2 65 45 104t103 39q55 0 94 -39t39 -94t-39 -94t-94 -39q22 -23 48.5 -35
t53.5 -13t51.5 5t38.5 20l43 -71q-29 -21 -56.5 -29t-62.5 -8q-41 0 -77.5 12t-71.5 41q-41 -31 -79 -42t-89 -11q-55 0 -103.5 22.5t-84 62.5t-55 92t-19.5 114q0 73 29.5 135.5t79.5 106.5t119 68.5t146 22.5q54 0 103 8.5t83 31t50 62.5t4 103h107zM594 254
q0 25 -17.5 42t-41.5 17q-25 0 -42.5 -17t-17.5 -42t17.5 -42t42.5 -17q24 0 41.5 17t17.5 42z" />
    <glyph glyph-name="fivethai" unicode="&#xf5;" horiz-adv-x="819" 
d="M793 819q10 -76 -10.5 -130t-65.5 -90t-110.5 -51.5t-145.5 -12.5q-55 2 -106.5 -16.5t-90.5 -52.5t-61.5 -80t-22.5 -99q0 -58 23.5 -104t61.5 -73.5t85 -30.5t94 23q-14 15 -36.5 55t-20.5 87q2 65 45 104t103 39q55 0 94 -39t39 -94t-39 -94t-94 -39q22 -23 48.5 -35
t53.5 -13t51.5 5t38.5 20l43 -71q-29 -21 -56.5 -29t-62.5 -8q-41 0 -77.5 12t-71.5 41q-41 -31 -79 -42t-89 -11q-55 0 -103.5 22.5t-84 62.5t-55 92t-19.5 114q0 116 67.5 199t175.5 116q-36 41 -36 90q0 55 40.5 94t100.5 39q59 0 100 -39t41 -94q0 -35 -18 -65
q73 12 116 56t27 142h107zM481 676q0 24 -17.5 41.5t-41.5 17.5q-25 0 -42.5 -17.5t-17.5 -41.5q0 -25 17.5 -42.5t42.5 -17.5q24 0 41.5 17.5t17.5 42.5zM594 254q0 25 -17.5 42t-41.5 17q-25 0 -42.5 -17t-17.5 -42t17.5 -42t42.5 -17q24 0 41.5 17t17.5 42z" />
    <glyph glyph-name="fivethai" unicode="&#xe55;" horiz-adv-x="819" 
d="M793 819q10 -76 -10.5 -130t-65.5 -90t-110.5 -51.5t-145.5 -12.5q-55 2 -106.5 -16.5t-90.5 -52.5t-61.5 -80t-22.5 -99q0 -58 23.5 -104t61.5 -73.5t85 -30.5t94 23q-14 15 -36.5 55t-20.5 87q2 65 45 104t103 39q55 0 94 -39t39 -94t-39 -94t-94 -39q22 -23 48.5 -35
t53.5 -13t51.5 5t38.5 20l43 -71q-29 -21 -56.5 -29t-62.5 -8q-41 0 -77.5 12t-71.5 41q-41 -31 -79 -42t-89 -11q-55 0 -103.5 22.5t-84 62.5t-55 92t-19.5 114q0 116 67.5 199t175.5 116q-36 41 -36 90q0 55 40.5 94t100.5 39q59 0 100 -39t41 -94q0 -35 -18 -65
q73 12 116 56t27 142h107zM481 676q0 24 -17.5 41.5t-41.5 17.5q-25 0 -42.5 -17.5t-17.5 -41.5q0 -25 17.5 -42.5t42.5 -17.5q24 0 41.5 17.5t17.5 42.5zM594 254q0 25 -17.5 42t-41.5 17q-25 0 -42.5 -17t-17.5 -42t17.5 -42t42.5 -17q24 0 41.5 17t17.5 42z" />
    <glyph glyph-name="sixthai" unicode="&#xf6;" horiz-adv-x="723" 
d="M651 313q0 -65 -22.5 -124.5t-62.5 -103.5t-95 -69.5t-123 -25.5q-53 0 -101 15t-85 43t-58.5 65t-21.5 80q0 55 39 94t94 39t94 -39t39 -94q0 -66 -49 -105q45 -14 88 -4t78 41t56.5 78t21.5 108q0 43 -12.5 83t-36 73t-58.5 52.5t-82 19.5q-57 0 -102 -31t-72 -72
l-98 47q0 52 -14 103q-13 43 -38.5 91t-74.5 85l80 69q47 -36 73.5 -84.5t43.5 -91.5q18 -51 26 -102q45 37 94.5 55.5t108.5 18.5t109.5 -26t86 -70t55 -100t19.5 -118zM279 193q0 24 -17.5 41.5t-42.5 17.5q-24 0 -41.5 -17.5t-17.5 -41.5q0 -25 17.5 -42.5t41.5 -17.5
q25 0 42.5 17.5t17.5 42.5z" />
    <glyph glyph-name="sixthai" unicode="&#xe56;" horiz-adv-x="723" 
d="M651 313q0 -65 -22.5 -124.5t-62.5 -103.5t-95 -69.5t-123 -25.5q-53 0 -101 15t-85 43t-58.5 65t-21.5 80q0 55 39 94t94 39t94 -39t39 -94q0 -66 -49 -105q45 -14 88 -4t78 41t56.5 78t21.5 108q0 43 -12.5 83t-36 73t-58.5 52.5t-82 19.5q-57 0 -102 -31t-72 -72
l-98 47q0 52 -14 103q-13 43 -38.5 91t-74.5 85l80 69q47 -36 73.5 -84.5t43.5 -91.5q18 -51 26 -102q45 37 94.5 55.5t108.5 18.5t109.5 -26t86 -70t55 -100t19.5 -118zM279 193q0 24 -17.5 41.5t-42.5 17.5q-24 0 -41.5 -17.5t-17.5 -41.5q0 -25 17.5 -42.5t41.5 -17.5
q25 0 42.5 17.5t17.5 42.5z" />
    <glyph glyph-name="seventhai" unicode="&#xf7;" horiz-adv-x="1051" 
d="M1001 788q-30 -24 -40.5 -68t-11.5 -96.5t3 -109.5t6 -113q3 -79 -10.5 -150t-46.5 -126t-87 -91t-132 -46l-84 49q18 12 31 31q10 16 19 39.5t9 58.5v266q0 49 -19.5 78t-57.5 29q-39 0 -59.5 -29t-20.5 -68v-231h-97v213q0 18 -5 37.5t-17 37t-31.5 29t-48.5 11.5
q-47 0 -76.5 -32t-29.5 -81v-178q18 8 43 8q53 0 93 -40t40 -93t-40 -93t-93 -40q-64 0 -105 40t-41 99v305q0 43 17.5 79t46 61.5t64.5 39t73 13.5q72 0 109.5 -33t48.5 -68q16 39 54 69t95 30q78 0 119 -49.5t41 -124.5v-256q0 -29 -5 -49.5t-12 -34.5q-8 -17 -16 -29
q47 20 75.5 60t43 90.5t16.5 107.5t-4 115q-6 55 -11 108t-3 101.5t14 91.5t41 75zM297 123q0 24 -17.5 41.5t-41.5 17.5q-25 0 -42.5 -17.5t-17.5 -41.5q0 -25 17.5 -42.5t42.5 -17.5q24 0 41.5 17.5t17.5 42.5z" />
    <glyph glyph-name="seventhai" unicode="&#xe57;" horiz-adv-x="1051" 
d="M1001 788q-30 -24 -40.5 -68t-11.5 -96.5t3 -109.5t6 -113q3 -79 -10.5 -150t-46.5 -126t-87 -91t-132 -46l-84 49q18 12 31 31q10 16 19 39.5t9 58.5v266q0 49 -19.5 78t-57.5 29q-39 0 -59.5 -29t-20.5 -68v-231h-97v213q0 18 -5 37.5t-17 37t-31.5 29t-48.5 11.5
q-47 0 -76.5 -32t-29.5 -81v-178q18 8 43 8q53 0 93 -40t40 -93t-40 -93t-93 -40q-64 0 -105 40t-41 99v305q0 43 17.5 79t46 61.5t64.5 39t73 13.5q72 0 109.5 -33t48.5 -68q16 39 54 69t95 30q78 0 119 -49.5t41 -124.5v-256q0 -29 -5 -49.5t-12 -34.5q-8 -17 -16 -29
q47 20 75.5 60t43 90.5t16.5 107.5t-4 115q-6 55 -11 108t-3 101.5t14 91.5t41 75zM297 123q0 24 -17.5 41.5t-41.5 17.5q-25 0 -42.5 -17.5t-17.5 -41.5q0 -25 17.5 -42.5t42.5 -17.5q24 0 41.5 17.5t17.5 42.5z" />
    <glyph glyph-name="eightthai" unicode="&#xf8;" horiz-adv-x="803" 
d="M731 127q0 -59 -40 -98t-99 -39q-60 0 -103 30.5t-71 67.5q-15 -45 -51.5 -71.5t-90.5 -26.5q-53 0 -92 25.5t-64.5 67.5t-37.5 97.5t-10 112.5q4 153 98 239t242 82q71 -2 113 12.5t63.5 42t27 66.5t0.5 84h107q12 -135 -58.5 -215t-236.5 -74q-113 5 -179.5 -57.5
t-70.5 -167.5q-2 -37 3 -78t19.5 -74.5t37 -53t57.5 -15.5q22 4 34.5 22.5t16.5 45t-1 54t-15 48.5l80 35q6 -41 24.5 -82t44.5 -64q4 47 41 79t84 32q53 0 90 -37t37 -90zM662 125q0 22 -16.5 39.5t-39.5 17.5q-22 0 -39.5 -17.5t-17.5 -39.5q0 -23 17.5 -40t39.5 -17
q23 0 39.5 17t16.5 40z" />
    <glyph glyph-name="eightthai" unicode="&#xe58;" horiz-adv-x="803" 
d="M731 127q0 -59 -40 -98t-99 -39q-60 0 -103 30.5t-71 67.5q-15 -45 -51.5 -71.5t-90.5 -26.5q-53 0 -92 25.5t-64.5 67.5t-37.5 97.5t-10 112.5q4 153 98 239t242 82q71 -2 113 12.5t63.5 42t27 66.5t0.5 84h107q12 -135 -58.5 -215t-236.5 -74q-113 5 -179.5 -57.5
t-70.5 -167.5q-2 -37 3 -78t19.5 -74.5t37 -53t57.5 -15.5q22 4 34.5 22.5t16.5 45t-1 54t-15 48.5l80 35q6 -41 24.5 -82t44.5 -64q4 47 41 79t84 32q53 0 90 -37t37 -90zM662 125q0 22 -16.5 39.5t-39.5 17.5q-22 0 -39.5 -17.5t-17.5 -39.5q0 -23 17.5 -40t39.5 -17
q23 0 39.5 17t16.5 40z" />
    <glyph glyph-name="ninethai" unicode="&#xf9;" horiz-adv-x="864" 
d="M870 770q-26 -22 -42.5 -58t-22.5 -75t-2 -79t14 -71l-98 -49q-8 35 -37 66t-72 26q-35 -4 -57.5 -34.5t-17.5 -65.5q16 -49 24 -104.5t20.5 -108.5t34 -98t64.5 -74l-100 -55q-37 35 -58.5 82t-36 99t-21.5 106.5t-16 101.5q-10 57 -40.5 107.5t-90.5 52.5
q-30 0 -53.5 -13.5t-41 -36t-29 -52t-15.5 -60.5q-8 -58 -1 -104t13 -60q17 20 42.5 32.5t54.5 12.5q53 0 90 -37t37 -90q0 -59 -41 -100t-101 -41q-41 0 -78.5 22.5t-65.5 66.5t-43 110.5t-11 154.5q2 59 19.5 110.5t49 90.5t74.5 60.5t98 21.5q62 0 107 -22.5t76 -74.5
q12 39 40.5 68t79.5 33q35 2 64 -13.5t43 -44.5q-21 74 -2.5 148t70.5 108zM342 129q0 23 -16.5 40t-38.5 17q-23 0 -40.5 -17t-17.5 -40t17.5 -40t40.5 -17q22 0 38.5 17t16.5 40z" />
    <glyph glyph-name="ninethai" unicode="&#xe59;" horiz-adv-x="864" 
d="M870 770q-26 -22 -42.5 -58t-22.5 -75t-2 -79t14 -71l-98 -49q-8 35 -37 66t-72 26q-35 -4 -57.5 -34.5t-17.5 -65.5q16 -49 24 -104.5t20.5 -108.5t34 -98t64.5 -74l-100 -55q-37 35 -58.5 82t-36 99t-21.5 106.5t-16 101.5q-10 57 -40.5 107.5t-90.5 52.5
q-30 0 -53.5 -13.5t-41 -36t-29 -52t-15.5 -60.5q-8 -58 -1 -104t13 -60q17 20 42.5 32.5t54.5 12.5q53 0 90 -37t37 -90q0 -59 -41 -100t-101 -41q-41 0 -78.5 22.5t-65.5 66.5t-43 110.5t-11 154.5q2 59 19.5 110.5t49 90.5t74.5 60.5t98 21.5q62 0 107 -22.5t76 -74.5
q12 39 40.5 68t79.5 33q35 2 64 -13.5t43 -44.5q-21 74 -2.5 148t70.5 108zM342 129q0 23 -16.5 40t-38.5 17q-23 0 -40.5 -17t-17.5 -40t17.5 -40t40.5 -17q22 0 38.5 17t16.5 40z" />
    <glyph glyph-name="angkhankhuthai" unicode="&#xfa;" horiz-adv-x="897" 
d="M487 0v684q0 14 -6 26.5t-22 10.5q-19 -2 -26 -17.5t-12 -42t-12.5 -63.5t-25.5 -80q-8 -20 -25.5 -48t-43 -50.5t-59.5 -36.5t-75 -10q-78 8 -108.5 56t-26.5 101q4 60 43 98t96 40q23 0 37.5 -2t24.5 -7q10 -4 18 -8v-86q0 -2 -16.5 9.5t-50.5 7.5q-25 -2 -40.5 -20.5
t-19.5 -40t3 -42t26 -28.5q53 -23 97 -1.5t79 119.5q23 66 28 122.5t40 94.5q18 23 44.5 28t59.5 5h90v-819h-117zM680 0v817h117v-817h-117z" />
    <glyph glyph-name="angkhankhuthai" unicode="&#xe5a;" horiz-adv-x="897" 
d="M487 0v684q0 14 -6 26.5t-22 10.5q-19 -2 -26 -17.5t-12 -42t-12.5 -63.5t-25.5 -80q-8 -20 -25.5 -48t-43 -50.5t-59.5 -36.5t-75 -10q-78 8 -108.5 56t-26.5 101q4 60 43 98t96 40q23 0 37.5 -2t24.5 -7q10 -4 18 -8v-86q0 -2 -16.5 9.5t-50.5 7.5q-25 -2 -40.5 -20.5
t-19.5 -40t3 -42t26 -28.5q53 -23 97 -1.5t79 119.5q23 66 28 122.5t40 94.5q18 23 44.5 28t59.5 5h90v-819h-117zM680 0v817h117v-817h-117z" />
    <glyph glyph-name="khomutthai" unicode="&#xfb;" horiz-adv-x="1352" 
d="M424 393q-33 -43 -80 -43q-43 0 -70 37q-24 33 -24 78t25.5 79t68.5 34q31 0 53 -21q0 61 -28.5 97t-71.5 36q-57 0 -98 -61q-45 -72 -41 -195q4 -125 57 -196q49 -68 123 -68q88 0 151 100q70 115 66 308q-2 36 29 36q18 0 28 -24l74 -164l43 137q10 27 31 27
q20 0 28 -27l41 -112q48 114 66 114q16 0 70 -112q49 88 63 88q16 0 64 -70q20 41 38 41h95q30 0 30 -31q0 -30 -30 -30h-74q-35 -76 -51 -76q-17 0 -68 74q-53 -99 -69 -99q-19 0 -66 103q-51 -129 -76 -129q-12 0 -22 26l-37 105q-49 -156 -74 -156q-12 0 -24 27l-56 123
q-20 -166 -102 -259q-74 -84 -168 -84q-96 0 -164 84q-74 91 -80 242q0 156 62 244q57 74 141 74q68 0 115 -50q51 -53 51 -139q6 -106 -39 -168zM301 465q0 -16 5 -29.5t15.5 -20.5t20.5 -7q12 0 22.5 7t15.5 20.5t5 29.5q0 14 -5 28.5t-15.5 21.5t-22.5 7q-10 0 -20.5 -7
t-15.5 -21.5t-5 -28.5z" />
    <glyph glyph-name="khomutthai" unicode="&#xe5b;" horiz-adv-x="1352" 
d="M424 393q-33 -43 -80 -43q-43 0 -70 37q-24 33 -24 78t25.5 79t68.5 34q31 0 53 -21q0 61 -28.5 97t-71.5 36q-57 0 -98 -61q-45 -72 -41 -195q4 -125 57 -196q49 -68 123 -68q88 0 151 100q70 115 66 308q-2 36 29 36q18 0 28 -24l74 -164l43 137q10 27 31 27
q20 0 28 -27l41 -112q48 114 66 114q16 0 70 -112q49 88 63 88q16 0 64 -70q20 41 38 41h95q30 0 30 -31q0 -30 -30 -30h-74q-35 -76 -51 -76q-17 0 -68 74q-53 -99 -69 -99q-19 0 -66 103q-51 -129 -76 -129q-12 0 -22 26l-37 105q-49 -156 -74 -156q-12 0 -24 27l-56 123
q-20 -166 -102 -259q-74 -84 -168 -84q-96 0 -164 84q-74 91 -80 242q0 156 62 244q57 74 141 74q68 0 115 -50q51 -53 51 -139q6 -106 -39 -168zM301 465q0 -16 5 -29.5t15.5 -20.5t20.5 -7q12 0 22.5 7t15.5 20.5t5 29.5q0 14 -5 28.5t-15.5 21.5t-22.5 7q-10 0 -20.5 -7
t-15.5 -21.5t-5 -28.5z" />
    <glyph glyph-name="saraulowthai" unicode="&#xfc;" 
d="M-205 -901v178q-18 -6 -41 -6q-53 0 -91 38t-38 91t38 91t91 38q62 0 103 -39t41 -98v-293h-103zM-190 -600q0 22 -16.5 38.5t-39.5 16.5q-22 0 -38.5 -16.5t-16.5 -38.5q0 -23 16.5 -39t38.5 -16q23 0 39.5 16t16.5 39z" />
    <glyph glyph-name="saraulowthai" unicode="&#xf718;" 
d="M-205 -901v178q-18 -6 -41 -6q-53 0 -91 38t-38 91t38 91t91 38q62 0 103 -39t41 -98v-293h-103zM-190 -600q0 22 -16.5 38.5t-39.5 16.5q-22 0 -38.5 -16.5t-16.5 -38.5q0 -23 16.5 -39t38.5 -16q23 0 39.5 16t16.5 39z" />
    <glyph glyph-name="sarauulowthai" unicode="&#xfd;" 
d="M-102 -745q0 -74 -33 -115t-119 -41h-248v72q43 0 57.5 13t14.5 50v43q-19 -6 -41 -6q-53 0 -91 38t-38 91t38 91t91 38q61 0 102 -39t41 -98v-217h37q60 0 73 22.5t13 69.5v256h103v-268zM-416 -600q0 22 -16.5 38.5t-38.5 16.5q-23 0 -39 -16.5t-16 -38.5q0 -23 16 -39
t39 -16q22 0 38.5 16t16.5 39z" />
    <glyph glyph-name="sarauulowthai" unicode="&#xf719;" 
d="M-102 -745q0 -74 -33 -115t-119 -41h-248v72q43 0 57.5 13t14.5 50v43q-19 -6 -41 -6q-53 0 -91 38t-38 91t38 91t91 38q61 0 102 -39t41 -98v-217h37q60 0 73 22.5t13 69.5v256h103v-268zM-416 -600q0 22 -16.5 38.5t-38.5 16.5q-23 0 -39 -16.5t-16 -38.5q0 -23 16 -39
t39 -16q22 0 38.5 16t16.5 39z" />
    <glyph glyph-name="phinthulowthai" unicode="&#xfe;" 
d="M-82 -543q0 -28 -21.5 -49.5t-50.5 -21.5q-28 0 -49.5 21.5t-21.5 49.5q0 29 21.5 50.5t49.5 21.5q29 0 50.5 -21.5t21.5 -50.5z" />
    <glyph glyph-name="phinthulowthai" unicode="&#xf71a;" 
d="M-82 -543q0 -28 -21.5 -49.5t-50.5 -21.5q-28 0 -49.5 21.5t-21.5 49.5q0 29 21.5 50.5t49.5 21.5q29 0 50.5 -21.5t21.5 -50.5z" />
    <glyph glyph-name="Naipol" unicode="&#xff;" horiz-adv-x="1942" 
 />
    <glyph glyph-name="dochadathai.short" unicode="&#x12a;" horiz-adv-x="864" 
d="M737 -100q0 -90 -31.5 -141t-87.5 -51h-35q-16 27 -42.5 63.5t-51.5 59.5q-28 -53 -72 -82t-100 -33q-62 -4 -106 27t-46 92q0 27 11 52t30 42.5t43 30t45 15.5q35 8 76.5 2.5t70.5 -20.5q2 9 2 19.5v20.5q0 9 -2 20h89v-38q0 -15 -1.5 -32.5t-6.5 -32.5q31 -25 47 -43
t30 -41q23 0 30.5 30t7.5 94l-2 632q0 43 -17.5 74.5t-44 53t-60.5 32t-67 10.5q-120 0 -194 -82q27 -10 65.5 -35t65.5 -53q-107 -37 -107 -144v-235q23 -31 23 -78q0 -57 -41 -98t-98 -41q-58 0 -99 41t-41 98t41 98t99 41h14v176q0 54 25.5 92.5t60.5 49.5
q-14 12 -33.5 23.5t-40 20.5t-38 16l-27.5 11q55 86 137 132.5t193 46.5q57 0 109 -15.5t91 -47.5t62.5 -79t23.5 -110v-684zM219 129q0 25 -17.5 42t-41.5 17q-25 0 -42.5 -17t-17.5 -42t17.5 -42t42.5 -17q24 0 41.5 17t17.5 42zM420 -124q-20 20 -46.5 25t-49.5 1
q-27 -4 -50.5 -22.5t-20.5 -44.5q2 -16 13 -25t25 -13.5t30.5 -3t31.5 9.5q25 11 41.5 28t25.5 45z" />
    <glyph glyph-name="dochadathai.short" unicode="&#xf71b;" horiz-adv-x="864" 
d="M737 -100q0 -90 -31.5 -141t-87.5 -51h-35q-16 27 -42.5 63.5t-51.5 59.5q-28 -53 -72 -82t-100 -33q-62 -4 -106 27t-46 92q0 27 11 52t30 42.5t43 30t45 15.5q35 8 76.5 2.5t70.5 -20.5q2 9 2 19.5v20.5q0 9 -2 20h89v-38q0 -15 -1.5 -32.5t-6.5 -32.5q31 -25 47 -43
t30 -41q23 0 30.5 30t7.5 94l-2 632q0 43 -17.5 74.5t-44 53t-60.5 32t-67 10.5q-120 0 -194 -82q27 -10 65.5 -35t65.5 -53q-107 -37 -107 -144v-235q23 -31 23 -78q0 -57 -41 -98t-98 -41q-58 0 -99 41t-41 98t41 98t99 41h14v176q0 54 25.5 92.5t60.5 49.5
q-14 12 -33.5 23.5t-40 20.5t-38 16l-27.5 11q55 86 137 132.5t193 46.5q57 0 109 -15.5t91 -47.5t62.5 -79t23.5 -110v-684zM219 129q0 25 -17.5 42t-41.5 17q-25 0 -42.5 -17t-17.5 -42t17.5 -42t42.5 -17q24 0 41.5 17t17.5 42zM420 -124q-20 20 -46.5 25t-49.5 1
q-27 -4 -50.5 -22.5t-20.5 -44.5q2 -16 13 -25t25 -13.5t30.5 -3t31.5 9.5q25 11 41.5 28t25.5 45z" />
    <glyph glyph-name="topatakthai.short" unicode="&#x12b;" horiz-adv-x="864" 
d="M737 -90q0 -91 -29.5 -142t-80.5 -51h-33q-12 21 -25 42.5t-37 52.5q-17 -25 -31.5 -47.5t-23.5 -39.5h-52q-5 9 -11 19q-5 9 -11 18.5t-14 18.5q-30 -34 -59.5 -50t-74.5 -16q-19 0 -39 9.5t-35.5 26t-25.5 38t-10 45.5q0 55 37 92t90 37q27 0 49 -9.5t40 -24.5
q3 9 2 21.5t-1 23.5q0 13 -1 27h83q0 -27 -2 -54q-2 -22 -5.5 -46t-11.5 -40l25 -34q15 19 30 39q13 18 27 34.5t27 30.5q30 -32 40 -45t25 -34q21 0 28 30.5t7 93.5l1 610q0 43 -17.5 74.5t-44 53t-60.5 32t-67 10.5q-120 0 -194 -82q27 -10 65.5 -35t65.5 -53
q-107 -37 -107 -144v-235q23 -31 23 -78q0 -57 -41 -98t-98 -41q-58 0 -99 41t-41 98t41 98t99 41h14v176q0 54 25.5 92.5t60.5 49.5q-14 12 -33.5 23.5t-40 20.5t-38 16l-27.5 11q55 86 137 132.5t193 46.5q57 0 109 -15.5t91 -47.5t62.5 -79t23.5 -110v-674zM219 129
q0 25 -17.5 42t-41.5 17q-25 0 -42.5 -17t-17.5 -42t17.5 -42t42.5 -17q24 0 41.5 17t17.5 42zM331 -152q-18 36 -59 36q-20 0 -36 -12.5t-16 -31.5t16 -29t31 -10q21 0 40 13t24 34z" />
    <glyph glyph-name="topatakthai.short" unicode="&#xf71c;" horiz-adv-x="864" 
d="M737 -90q0 -91 -29.5 -142t-80.5 -51h-33q-12 21 -25 42.5t-37 52.5q-17 -25 -31.5 -47.5t-23.5 -39.5h-52q-5 9 -11 19q-5 9 -11 18.5t-14 18.5q-30 -34 -59.5 -50t-74.5 -16q-19 0 -39 9.5t-35.5 26t-25.5 38t-10 45.5q0 55 37 92t90 37q27 0 49 -9.5t40 -24.5
q3 9 2 21.5t-1 23.5q0 13 -1 27h83q0 -27 -2 -54q-2 -22 -5.5 -46t-11.5 -40l25 -34q15 19 30 39q13 18 27 34.5t27 30.5q30 -32 40 -45t25 -34q21 0 28 30.5t7 93.5l1 610q0 43 -17.5 74.5t-44 53t-60.5 32t-67 10.5q-120 0 -194 -82q27 -10 65.5 -35t65.5 -53
q-107 -37 -107 -144v-235q23 -31 23 -78q0 -57 -41 -98t-98 -41q-58 0 -99 41t-41 98t41 98t99 41h14v176q0 54 25.5 92.5t60.5 49.5q-14 12 -33.5 23.5t-40 20.5t-38 16l-27.5 11q55 86 137 132.5t193 46.5q57 0 109 -15.5t91 -47.5t62.5 -79t23.5 -110v-674zM219 129
q0 25 -17.5 42t-41.5 17q-25 0 -42.5 -17t-17.5 -42t17.5 -42t42.5 -17q24 0 41.5 17t17.5 42zM331 -152q-18 36 -59 36q-20 0 -36 -12.5t-16 -31.5t16 -29t31 -10q21 0 40 13t24 34z" />
    <glyph glyph-name="PU2005" unicode="&#xe3e;" 
 />
    <glyph glyph-name="ZWSP" unicode="&#x200b;" 
 />
    <glyph glyph-name="uni25CC" unicode="&#x25cc;" horiz-adv-x="1372" 
d="M426 221l-162 -53l58 162q43 -64 104 -109zM608 1020l78 154l76 -152q-37 4 -72 4q-41 0 -82 -6zM756 141l-70 -141l-72 141q37 -6 76 -6q35 0 66 6zM1128 657l146 -73l-144 -68q7 33 7 66q0 39 -9 75zM252 512l-152 78l152 74q-6 -41 -6 -82q0 -37 6 -70zM332 848
l-45 158l153 -56q-63 -41 -108 -102zM1044 309l41 -141l-139 47q58 41 98 94zM942 950l166 56l-57 -160q-45 61 -109 104z" />
    <glyph glyph-name="lochula.short" unicode="&#xf71d;" horiz-adv-x="1024" 
d="M887 893q-24 -53 -68 -97q14 -47 14 -95l-6 -574q0 -72 -26.5 -99.5t-73.5 -27.5h-35l-176 487l-180 -487h-135l4 561q-10 -4 -24.5 -6t-24.5 -2q-58 0 -97 40t-39 95q0 57 40 99t100 42q67 0 107 -42t40 -107l-4 -504l166 438h94l162 -438l2 492q0 31 -5 61
q-35 -21 -63.5 -31.5t-61.5 -12.5q-73 -3 -126.5 33.5t-53.5 95.5q0 28 15 52.5t40.5 42.5t59.5 28.5t74 8.5q57 -2 100 -22.5t73 -53.5q24 31 36 64zM711 802q-18 30 -45 49t-69 21q-40 0 -65 -17t-26 -39q-2 -27 30.5 -41t65.5 -12q56 2 109 39zM215 688q0 25 -17.5 42.5
t-41.5 17.5q-25 0 -42.5 -17.5t-17.5 -42.5q0 -24 17.5 -41.5t42.5 -17.5q24 0 41.5 17.5t17.5 41.5z" />
    <glyph glyph-name="saraamthaileft" horiz-adv-x="629" 
d="M-260 1069q0 -65 -45 -110.5t-111 -45.5q-65 0 -110 45.5t-45 110.5q0 66 45 111t110 45q66 0 111 -45t45 -111zM467 0v586q0 73 -42 121.5t-120 48.5q-67 0 -112.5 -38t-65.5 -104h-107q23 95 100 158.5t187 63.5q117 0 189.5 -62.5t72.5 -169.5v-604h-102zM-344 1069
q0 31 -20.5 52.5t-51.5 21.5q-30 0 -50.5 -21.5t-20.5 -52.5q0 -29 21.5 -50.5t49.5 -21.5q29 0 50.5 21.5t21.5 50.5z" />
    <glyph glyph-name="yamakkanleftthai" 
d="M-524 1233q-31 24 -31 59q0 72 90 119q78 41 156 41q63 0 127 -20q20 -9 20 -29q0 -33 -31 -33q-4 0 -10 2q-53 19 -106 19q-47 0 -111 -27q-74 -33 -74 -72q0 -14 76 -43q25 -8 25 -28q0 -31 -33 -31q-2 0 -9 1t-11 1q-39 0 -81 -33t-42 -59q0 -33 28.5 -53.5
t69.5 -20.5q84 0 119 61q8 17 24 17q33 0 33 -31q0 -6 -4 -14q-53 -94 -172 -94q-59 0 -107 30q-55 39 -55 105q0 82 109 133z" />
    </font>
</defs>
</svg>
